<svg width="805" height="317" viewBox="0 0 805 317" fill="none" xmlns="http://www.w3.org/2000/svg">
<rect x="1.57324" y="1.78467" width="801.427" height="313.892" fill="white"/>
<mask id="mask0_216_2954" style="mask-type:luminance" maskUnits="userSpaceOnUse" x="1" y="1" width="802" height="315">
<rect x="1.57324" y="1.78442" width="801.427" height="313.892" fill="white"/>
</mask>
<g mask="url(#mask0_216_2954)">
<rect x="1.57324" y="-11.5728" width="801.427" height="340.606" fill="white"/>
<rect x="-12.7852" y="-20.8564" width="825.336" height="355.566" fill="#F8FAFA"/>
<circle cx="741.247" cy="315.761" r="105.489" fill="#FCB006"/>
<mask id="mask1_216_2954" style="mask-type:luminance" maskUnits="userSpaceOnUse" x="635" y="210" width="212" height="212">
<circle cx="741.246" cy="315.761" r="105.489" fill="white"/>
</mask>
<g mask="url(#mask1_216_2954)">
<path d="M451.403 330.874L1031.09 300.648" stroke="white" stroke-width="2.13714"/>
<path d="M450.247 308.701L1029.93 278.474" stroke="white" stroke-width="2.13714"/>
<path d="M449.091 286.528L1028.78 256.301" stroke="white" stroke-width="2.13714"/>
<path d="M447.934 264.355L1027.62 234.128" stroke="white" stroke-width="2.13714"/>
<path d="M446.778 242.181L1026.46 211.954" stroke="white" stroke-width="2.13714"/>
<path d="M445.622 220.008L1025.31 189.781" stroke="white" stroke-width="2.13714"/>
</g>
<circle cx="741.247" cy="315.761" r="105.489" stroke="black" stroke-width="2.13714" stroke-linecap="round" stroke-linejoin="round"/>
<path d="M16.1025 309.232L16.998 243.562L77.806 235.746L76.9105 301.414L16.1025 309.232Z" fill="#1A80FD" stroke="black" stroke-width="2.13714" stroke-linecap="round" stroke-linejoin="round"/>
<path d="M77.8056 235.746L232.351 322.191L231.455 387.861L76.9102 301.414L77.8056 235.746Z" fill="white"/>
<path fill-rule="evenodd" clip-rule="evenodd" d="M77.8056 235.746L232.351 322.191L231.455 387.861L76.9102 301.414L77.8056 235.746V235.746Z" stroke="black" stroke-width="2.13714" stroke-linecap="round" stroke-linejoin="round"/>
<path d="M76.9105 301.414L231.456 387.861L170.648 395.677L16.1025 309.232L76.9105 301.414Z" fill="white"/>
<path fill-rule="evenodd" clip-rule="evenodd" d="M76.9105 301.414L231.456 387.861L170.648 395.677L16.1025 309.232L76.9105 301.414V301.414Z" stroke="black" stroke-width="2.13714" stroke-linecap="round" stroke-linejoin="round"/>
<path d="M162.759 321.831C167.579 316.439 173.326 311.953 179.728 308.587" stroke="black" stroke-width="2.13714"/>
<path d="M773.567 69.12V-111.562H773.467C772.431 -116.837 758.552 -121.017 741.536 -121.017C724.519 -121.017 710.641 -116.837 709.605 -111.562H709.504V69.12H773.567Z" fill="white" stroke="black" stroke-width="2.13714" stroke-linecap="round" stroke-linejoin="round"/>
<ellipse cx="741.536" cy="69.1198" rx="32.0316" ry="10.0839" fill="#1A80FD" stroke="black" stroke-width="2.13714" stroke-linecap="round" stroke-linejoin="round"/>
<rect x="44.5596" y="45.5576" width="715.455" height="245.726" fill="#1AB995" stroke="black" stroke-width="2.13714" stroke-linecap="round" stroke-linejoin="round"/>
<path d="M256.091 369.572V291.284V369.572Z" fill="#1AB995"/>
<path d="M256.091 369.572V291.284" stroke="black" stroke-width="2.13714" stroke-linecap="round" stroke-linejoin="round"/>
<path d="M532.231 45.4773V-32.8108V45.4773Z" fill="#1AB995"/>
<path d="M532.231 45.4773V-32.8108" stroke="black" stroke-width="2.13714" stroke-linecap="round" stroke-linejoin="round"/>
<path d="M504.676 381.114H427.963C412.117 381.096 398.954 368.886 397.746 353.086L382.149 152.191H550.49L534.893 353.086C533.686 368.886 520.522 381.096 504.676 381.114Z" fill="#E43334"/>
<mask id="mask2_216_2954" style="mask-type:luminance" maskUnits="userSpaceOnUse" x="382" y="152" width="169" height="230">
<path fill-rule="evenodd" clip-rule="evenodd" d="M504.677 381.114H427.964C412.118 381.096 398.955 368.886 397.747 353.086L382.15 152.191H550.491L534.894 353.086C533.687 368.886 520.523 381.096 504.677 381.114Z" fill="white"/>
</mask>
<g mask="url(#mask2_216_2954)">
<rect x="364.428" y="198.286" width="206.904" height="104.673" fill="#FDD504"/>
<mask id="mask3_216_2954" style="mask-type:luminance" maskUnits="userSpaceOnUse" x="364" y="198" width="208" height="105">
<rect x="364.429" y="198.286" width="206.904" height="104.673" fill="white"/>
</mask>
<g mask="url(#mask3_216_2954)">
<rect x="402.5" y="272.895" width="45.9788" height="18.541" fill="white" stroke="black" stroke-width="2.13714" stroke-linecap="round" stroke-linejoin="round"/>
<path d="M557.88 171.718C546.611 383.599 305.088 305.195 305.088 305.195L636.319 385.906L594.915 195.746" fill="#FCB006"/>
</g>
<rect x="364.428" y="198.286" width="206.904" height="104.673" stroke="black" stroke-width="2.13714" stroke-linecap="round" stroke-linejoin="round"/>
<path d="M378.315 221.334C376.879 163.715 454.947 176.679 555.525 175.719C656.104 174.759 483.205 150.751 483.205 150.751L382.15 152.191L375.921 183.882L368.615 220.373" fill="#C11F27"/>
</g>
<path fill-rule="evenodd" clip-rule="evenodd" d="M504.676 381.114H427.963C412.117 381.096 398.954 368.886 397.746 353.086L382.149 152.191H550.49L534.893 353.086C533.686 368.886 520.522 381.096 504.676 381.114Z" stroke="black" stroke-width="2.13714" stroke-linecap="round" stroke-linejoin="round"/>
<path d="M542.395 161.042H390.242C387.139 161.042 384.753 157.156 385.189 152.809L387.378 130.979C387.735 127.419 389.889 124.774 392.431 124.774H540.207C542.748 124.774 544.903 127.419 545.26 130.979L547.449 152.809C547.884 157.156 545.498 161.042 542.395 161.042Z" fill="#1AB995" stroke="black" stroke-width="2.13714" stroke-linecap="round" stroke-linejoin="round"/>
<path d="M557.881 171.717H374.759C372.925 171.654 371.207 170.804 370.043 169.386C368.879 167.967 368.381 166.117 368.677 164.306L371.312 144.653C371.652 141.529 374.253 139.141 377.394 139.066H555.246C558.387 139.141 560.988 141.529 561.328 144.653L563.963 164.306C564.258 166.116 563.761 167.967 562.597 169.386C561.433 170.804 559.715 171.653 557.881 171.717Z" fill="white" stroke="black" stroke-width="2.13714" stroke-linecap="round" stroke-linejoin="round"/>
<path d="M449.988 238.312C447.354 243.186 443.362 247.191 438.496 249.839" stroke="black" stroke-width="2.13714" stroke-linecap="round" stroke-linejoin="round"/>
<path d="M537.411 147.232L536.261 149.538" stroke="black" stroke-width="2.13714" stroke-linecap="round" stroke-linejoin="round"/>
<path d="M778.023 202.57C770.702 202.111 763.354 202.289 756.063 203.102C754.803 213.621 754.379 224.223 754.795 234.808C750.305 225.198 747.164 215.014 745.463 204.543C729.368 207.178 713.86 212.612 699.64 220.599C697.992 233.727 697.38 246.965 697.808 260.189C693.326 249.897 690.102 239.101 688.206 228.036C667.832 243.009 649.538 266.58 640.505 303.64C631.897 338.962 633.307 358.711 639.228 369.238C721.763 324.916 778.023 202.57 778.023 202.57Z" fill="#1AB995" stroke="black" stroke-width="2.13714" stroke-linecap="round" stroke-linejoin="round"/>
<path d="M778.023 202.57C778.023 202.57 721.763 324.916 639.229 369.238C651.944 391.844 685.493 371.863 685.493 371.863C705.745 373.993 729.446 364.229 748.371 343.802C744.462 340.435 740.87 336.718 737.637 332.697C743.638 334.117 749.793 334.777 755.959 334.663C760.967 327.925 765.274 320.693 768.812 313.08C767.149 312.22 765.451 311.267 763.719 310.192C766.096 309.831 768.448 309.327 770.764 308.682C776.048 296.058 779.575 282.768 781.246 269.184C773.272 269.213 765.36 267.799 757.889 265.012C766.382 263.006 774.613 260.019 782.416 256.112C783.227 238.15 781.751 220.159 778.023 202.57Z" fill="#1AB995"/>
<mask id="mask4_216_2954" style="mask-type:luminance" maskUnits="userSpaceOnUse" x="639" y="202" width="144" height="179">
<path fill-rule="evenodd" clip-rule="evenodd" d="M778.024 202.57C778.024 202.57 721.764 324.916 639.229 369.238C651.945 391.844 685.494 371.863 685.494 371.863C705.746 373.993 729.447 364.229 748.372 343.802C744.463 340.435 740.87 336.718 737.638 332.697C743.639 334.117 749.794 334.777 755.96 334.663C760.968 327.925 765.275 320.693 768.813 313.08C767.15 312.22 765.452 311.267 763.72 310.192C766.097 309.831 768.449 309.327 770.765 308.682C776.049 296.058 779.576 282.768 781.247 269.184C773.273 269.213 765.361 267.799 757.89 265.012C766.383 263.006 774.614 260.019 782.417 256.112C783.228 238.15 781.752 220.159 778.024 202.57Z" fill="white"/>
</mask>
<g mask="url(#mask4_216_2954)">
<path d="M769.139 220.153C704.371 381.114 730.628 365.88 778.024 356.568C825.419 347.256 741.142 394.272 737.66 395.746C734.178 397.22 652.136 393.681 655.97 387.398C659.804 381.114 687.407 256.844 687.407 256.844L747.979 232.141" fill="#0FA379"/>
</g>
<path fill-rule="evenodd" clip-rule="evenodd" d="M778.023 202.57C778.023 202.57 721.763 324.916 639.229 369.238C651.944 391.844 685.493 371.863 685.493 371.863C705.745 373.993 729.446 364.229 748.371 343.802C744.462 340.435 740.87 336.718 737.637 332.697C743.638 334.117 749.793 334.777 755.959 334.663C760.967 327.925 765.274 320.693 768.812 313.08C767.149 312.22 765.451 311.267 763.719 310.192C766.096 309.831 768.448 309.327 770.764 308.682C776.048 296.058 779.575 282.768 781.246 269.184C773.272 269.213 765.36 267.799 757.889 265.012C766.382 263.006 774.613 260.019 782.416 256.112C783.227 238.15 781.751 220.159 778.023 202.57Z" stroke="black" stroke-width="2.13714" stroke-linecap="round" stroke-linejoin="round"/>
<path d="M399.068 285.911C404.842 285.669 410.626 285.763 416.389 286.192C417.382 291.718 417.718 297.342 417.389 302.946C420.82 298.122 423.317 292.698 424.75 286.954C437.102 288.27 449.243 291.12 460.89 295.439C462.189 302.331 462.673 309.352 462.335 316.358C465.772 311.147 468.331 305.408 469.909 299.368C485.978 307.28 500.407 319.735 507.53 339.317C514.32 357.981 513.208 368.416 508.538 373.979C443.442 350.558 399.068 285.911 399.068 285.911Z" fill="#1AB995"/>
<mask id="mask5_216_2954" style="mask-type:luminance" maskUnits="userSpaceOnUse" x="399" y="285" width="114" height="89">
<path fill-rule="evenodd" clip-rule="evenodd" d="M399.069 285.912C404.843 285.669 410.627 285.763 416.39 286.193C417.383 291.718 417.719 297.342 417.39 302.946C420.821 298.122 423.318 292.698 424.751 286.954C437.103 288.27 449.244 291.12 460.891 295.439C462.189 302.332 462.674 309.353 462.336 316.358C465.773 311.148 468.332 305.408 469.91 299.368C485.979 307.28 500.408 319.735 507.531 339.317C514.321 357.981 513.209 368.417 508.539 373.979C443.443 350.558 399.069 285.912 399.069 285.912Z" fill="white"/>
</mask>
<g mask="url(#mask5_216_2954)">
<path d="M439.748 279.389C451.24 340.739 423.214 350.735 508.538 373.978C593.862 397.222 548.625 291.293 548.625 291.293L381.476 246.52" fill="#0FA379"/>
</g>
<path fill-rule="evenodd" clip-rule="evenodd" d="M399.068 285.911C404.842 285.669 410.626 285.763 416.389 286.192C417.382 291.718 417.718 297.342 417.389 302.946C420.82 298.122 423.317 292.698 424.75 286.954C437.102 288.27 449.243 291.12 460.89 295.439C462.189 302.331 462.673 309.352 462.335 316.358C465.772 311.147 468.331 305.408 469.909 299.368C485.978 307.28 500.407 319.735 507.53 339.317C514.32 357.981 513.208 368.416 508.538 373.979C443.442 350.558 399.068 285.911 399.068 285.911Z" stroke="black" stroke-width="2.13714" stroke-linecap="round" stroke-linejoin="round"/>
<path d="M399.069 285.911C399.069 285.911 443.442 350.56 508.539 373.978C498.509 385.923 472.049 375.365 472.049 375.365C454.316 376.186 436.829 370.958 422.456 360.539C425.44 358.827 428.272 356.864 430.922 354.67C426.144 355.426 421.309 355.773 416.472 355.709C412.665 352.31 409.264 348.483 406.334 344.305C407.646 343.85 408.984 343.347 410.352 342.779C410.352 342.779 408.187 342.591 404.795 341.981C400.747 335.609 397.941 328.527 396.528 321.111C402.736 321.134 408.923 320.394 414.95 318.906C408.383 317.873 401.913 316.3 395.606 314.203C394.973 304.639 396.148 295.041 399.069 285.911Z" fill="#0FA379" stroke="black" stroke-width="2.13714" stroke-linecap="round" stroke-linejoin="round"/>
<rect x="461.094" y="207.591" width="241.227" height="43.9941" fill="white"/>
<mask id="mask6_216_2954" style="mask-type:luminance" maskUnits="userSpaceOnUse" x="461" y="207" width="242" height="45">
<rect x="461.095" y="207.591" width="241.227" height="43.9941" fill="white"/>
</mask>
<g mask="url(#mask6_216_2954)">
<path d="M457.268 222.37L669.606 223.05L453.417 225.091L457.268 222.37Z" fill="#D6DCF2"/>
<path d="M441.517 240.713L653.855 241.393L437.666 243.432L441.517 240.713Z" fill="#D6DCF2"/>
</g>
<rect x="461.094" y="207.591" width="241.227" height="43.9941" stroke="black" stroke-width="2.13714" stroke-linecap="round" stroke-linejoin="round"/>
<path d="M709.615 207.59C709.619 204.689 707.27 202.335 704.369 202.331H457.866C454.973 202.291 452.563 204.54 452.402 207.429C452.357 208.849 452.889 210.227 453.877 211.249C454.865 212.27 456.225 212.848 457.646 212.85H694.863C696.461 212.852 697.992 213.488 699.12 214.619C700.247 215.75 700.88 217.282 700.878 218.879V240.295C700.882 243.621 698.189 246.321 694.863 246.325H457.866C454.973 246.285 452.563 248.534 452.402 251.422C452.357 252.843 452.889 254.221 453.877 255.243C454.865 256.264 456.225 256.842 457.646 256.844H704.369C705.762 256.842 707.098 256.287 708.082 255.301C709.065 254.314 709.617 252.978 709.615 251.585V208.226C709.615 208.119 709.605 208.014 709.599 207.908C709.606 207.803 709.615 207.698 709.615 207.59Z" fill="#FCB006"/>
<mask id="mask7_216_2954" style="mask-type:luminance" maskUnits="userSpaceOnUse" x="452" y="202" width="258" height="55">
<path fill-rule="evenodd" clip-rule="evenodd" d="M709.615 207.59C709.619 204.689 707.27 202.335 704.369 202.331H457.866C454.973 202.291 452.563 204.54 452.402 207.429C452.357 208.849 452.889 210.227 453.877 211.249C454.865 212.27 456.225 212.848 457.646 212.85H694.863C696.461 212.852 697.992 213.488 699.12 214.619C700.247 215.75 700.88 217.282 700.878 218.879V240.295C700.882 243.621 698.189 246.321 694.863 246.325H457.866C454.973 246.285 452.563 248.534 452.402 251.422C452.357 252.843 452.889 254.221 453.877 255.243C454.865 256.264 456.225 256.842 457.646 256.844H704.369C705.762 256.842 707.098 256.287 708.082 255.301C709.065 254.314 709.617 252.978 709.615 251.585V208.226C709.615 208.119 709.605 208.014 709.599 207.908C709.606 207.803 709.615 207.698 709.615 207.59Z" fill="white"/>
</mask>
<g mask="url(#mask7_216_2954)">
<path d="M415.595 256.844C703.168 262.103 706.219 262.887 709.614 220.233C712.193 187.835 737.657 313.443 737.657 313.443L581.707 307.399L430.93 269.812" fill="#FDD504"/>
</g>
<path fill-rule="evenodd" clip-rule="evenodd" d="M709.615 207.59C709.619 204.689 707.27 202.335 704.369 202.331H457.866C454.973 202.291 452.563 204.54 452.402 207.429C452.357 208.849 452.889 210.227 453.877 211.249C454.865 212.27 456.225 212.848 457.646 212.85H694.863C696.461 212.852 697.992 213.488 699.12 214.619C700.247 215.75 700.88 217.282 700.878 218.879V240.295C700.882 243.621 698.189 246.321 694.863 246.325H457.866C454.973 246.285 452.563 248.534 452.402 251.422C452.357 252.843 452.889 254.221 453.877 255.243C454.865 256.264 456.225 256.842 457.646 256.844H704.369C705.762 256.842 707.098 256.287 708.082 255.301C709.065 254.314 709.617 252.978 709.615 251.585V208.226C709.615 208.119 709.605 208.014 709.599 207.908C709.606 207.803 709.615 207.698 709.615 207.59Z" stroke="black" stroke-width="2.13714" stroke-linecap="round" stroke-linejoin="round"/>
<rect x="489.138" y="262.888" width="241.227" height="50.5553" fill="white"/>
<mask id="mask8_216_2954" style="mask-type:luminance" maskUnits="userSpaceOnUse" x="489" y="262" width="242" height="52">
<rect x="489.137" y="262.888" width="241.227" height="50.5553" fill="white"/>
</mask>
<g mask="url(#mask8_216_2954)">
<path d="M485.31 279.872L697.648 280.652L481.459 282.996L485.31 279.872Z" fill="#D6DCF2"/>
<path d="M469.561 300.948L681.896 301.73L465.71 304.075L469.561 300.948Z" fill="#D6DCF2"/>
</g>
<rect x="489.138" y="262.888" width="241.227" height="50.5553" stroke="black" stroke-width="2.13714" stroke-linecap="round" stroke-linejoin="round"/>
<path d="M737.659 262.888C737.864 259.775 735.523 257.079 732.413 256.844H485.909C482.811 257.012 480.398 259.599 480.446 262.702C480.303 264.226 480.778 265.743 481.764 266.914C482.749 268.085 484.164 268.812 485.689 268.931H722.907C726.473 269.201 729.156 272.292 728.922 275.86V300.47C729.156 304.039 726.473 307.13 722.907 307.399H485.91C482.811 307.568 480.399 310.154 480.446 313.257C480.304 314.781 480.778 316.298 481.764 317.469C482.75 318.64 484.164 319.367 485.69 319.487H732.414C735.524 319.252 737.865 316.555 737.66 313.443V263.619C737.66 263.496 737.65 263.375 737.644 263.254C737.65 263.132 737.659 263.011 737.659 262.888Z" fill="#1B80FD"/>
<mask id="mask9_216_2954" style="mask-type:luminance" maskUnits="userSpaceOnUse" x="480" y="256" width="258" height="64">
<path fill-rule="evenodd" clip-rule="evenodd" d="M737.658 262.888C737.863 259.775 735.522 257.079 732.412 256.844H485.909C482.81 257.012 480.397 259.599 480.445 262.702C480.302 264.226 480.777 265.743 481.763 266.914C482.748 268.085 484.163 268.812 485.688 268.931H722.906C726.472 269.201 729.155 272.292 728.921 275.86V300.47C729.155 304.039 726.472 307.13 722.906 307.399H485.909C482.81 307.568 480.398 310.154 480.445 313.257C480.303 314.781 480.777 316.298 481.763 317.469C482.749 318.64 484.163 319.367 485.689 319.487H732.413C735.523 319.252 737.864 316.555 737.66 313.443V263.619C737.66 263.496 737.649 263.375 737.643 263.254C737.649 263.132 737.658 263.011 737.658 262.888Z" fill="white"/>
</mask>
<g mask="url(#mask9_216_2954)">
<path d="M457.865 318.471C744.91 318.047 737.658 319.826 737.658 291.722C737.658 263.619 761.778 353.03 761.778 353.03L517.955 340.133L475.785 330.841" fill="#1D62FC"/>
</g>
<path fill-rule="evenodd" clip-rule="evenodd" d="M737.659 262.888C737.864 259.775 735.523 257.079 732.413 256.844H485.909C482.811 257.012 480.398 259.599 480.446 262.702C480.303 264.226 480.778 265.743 481.764 266.914C482.749 268.085 484.164 268.812 485.689 268.931H722.907C726.473 269.201 729.156 272.292 728.922 275.86V300.47C729.156 304.039 726.473 307.13 722.907 307.399H485.91C482.811 307.568 480.399 310.154 480.446 313.257C480.304 314.781 480.778 316.298 481.764 317.469C482.75 318.64 484.164 319.367 485.69 319.487H732.414C735.524 319.252 737.865 316.555 737.66 313.443V263.619C737.66 263.496 737.65 263.375 737.644 263.254C737.65 263.132 737.659 263.011 737.659 262.888Z" stroke="black" stroke-width="2.13714" stroke-linecap="round" stroke-linejoin="round"/>
<path d="M575.191 223.04L565.983 232.257" stroke="black" stroke-width="2.13714" stroke-linecap="round" stroke-linejoin="round"/>
<path d="M573.196 116.556C575.773 111.233 578.65 106.061 581.813 101.064L601.012 108.196C601.012 108.196 613.857 73.7991 624.487 66.5407C631.485 61.7614 641.068 82.7287 641.068 82.7287C641.068 82.7287 617.17 138.176 612.342 139.26C600.813 141.848 573.196 116.556 573.196 116.556Z" fill="white"/>
<mask id="mask10_216_2954" style="mask-type:luminance" maskUnits="userSpaceOnUse" x="573" y="65" width="69" height="75">
<path fill-rule="evenodd" clip-rule="evenodd" d="M573.197 116.556C575.774 111.233 578.651 106.061 581.814 101.064L601.013 108.196C601.013 108.196 613.858 73.7991 624.488 66.5407C631.486 61.7614 641.068 82.7287 641.068 82.7287C641.068 82.7287 617.171 138.176 612.343 139.26C600.814 141.848 573.197 116.556 573.197 116.556Z" fill="white"/>
</mask>
<g mask="url(#mask10_216_2954)">
<path d="M577.151 139.467C633.798 151.754 629.156 89.5474 629.156 89.5474L641.069 122.292L622.839 144.1L578.382 145.658" fill="#111944"/>
</g>
<path fill-rule="evenodd" clip-rule="evenodd" d="M573.196 116.556C575.773 111.233 578.65 106.061 581.813 101.064L601.012 108.196C601.012 108.196 613.857 73.7991 624.487 66.5407C631.485 61.7614 641.068 82.7287 641.068 82.7287C641.068 82.7287 617.17 138.176 612.342 139.26C600.813 141.848 573.196 116.556 573.196 116.556Z" stroke="black" stroke-width="2.13714" stroke-linecap="round" stroke-linejoin="round"/>
<path fill-rule="evenodd" clip-rule="evenodd" d="M703.338 320.717L715.344 369.091L732.446 361.987L722.97 316.729L703.338 320.717V320.717Z" stroke="black" stroke-width="2.13714" stroke-linecap="round" stroke-linejoin="round"/>
<path d="M738.514 54.4292C740.83 48.9306 746.05 40.1471 747.804 35.7468C749.557 31.3464 754.951 16.1325 757.108 17.8269C759.796 19.9379 751.336 35.3875 753.602 35.5692C755.867 35.7508 761.207 36.7232 761.891 38.8249C764.239 46.0484 751.445 57.6939 751.445 57.6939L738.514 54.4292Z" fill="#F9C1BB"/>
<mask id="mask11_216_2954" style="mask-type:luminance" maskUnits="userSpaceOnUse" x="738" y="17" width="25" height="41">
<path fill-rule="evenodd" clip-rule="evenodd" d="M738.515 54.4292C740.831 48.9306 746.051 40.1471 747.805 35.7468C749.558 31.3464 754.952 16.1325 757.109 17.8269C759.797 19.9379 751.337 35.3875 753.603 35.5692C755.868 35.7508 761.208 36.7232 761.892 38.8249C764.24 46.0484 751.446 57.6939 751.446 57.6939L738.515 54.4292Z" fill="white"/>
</mask>
<g mask="url(#mask11_216_2954)">
<path d="M759.19 48.6486C751.705 55.0468 741.951 48.408 741.951 48.408L745.289 56.9435L756.558 58.5927L758.532 49.5218" fill="#ED707B"/>
</g>
<path fill-rule="evenodd" clip-rule="evenodd" d="M738.514 54.4292C740.83 48.9306 746.05 40.1471 747.804 35.7468C749.557 31.3464 754.951 16.1325 757.108 17.8269C759.796 19.9379 751.336 35.3875 753.602 35.5692C755.867 35.7508 761.207 36.7232 761.891 38.8249C764.239 46.0484 751.445 57.6939 751.445 57.6939L738.514 54.4292Z" stroke="black" stroke-width="2.13714" stroke-linecap="round" stroke-linejoin="round"/>
<path d="M656.597 347.926C666.719 352.344 682.238 344.745 682.238 344.745C682.238 344.745 662.48 274.782 660.505 254.055C660.199 250.854 662.817 194.439 662.817 194.439L667.895 207.264L688.416 259.085L710.175 351.621C710.175 351.621 727.82 353.188 733.271 347.926C733.271 347.926 717.73 257.728 716.411 250.905C713.196 234.273 687.031 127.999 687.031 127.999L628.725 139.561C628.725 139.561 627.601 252.43 630.625 259.271C635.694 270.74 656.597 347.926 656.597 347.926Z" fill="#1A80FD"/>
<mask id="mask12_216_2954" style="mask-type:luminance" maskUnits="userSpaceOnUse" x="628" y="127" width="106" height="225">
<path fill-rule="evenodd" clip-rule="evenodd" d="M656.596 347.926C666.718 352.344 682.237 344.745 682.237 344.745C682.237 344.745 662.479 274.782 660.504 254.055C660.199 250.854 662.816 194.44 662.816 194.44L667.894 207.264L688.415 259.085L710.174 351.621C710.174 351.621 727.819 353.188 733.27 347.926C733.27 347.926 717.729 257.728 716.41 250.905C713.195 234.273 687.03 127.999 687.03 127.999L628.724 139.561C628.724 139.561 627.6 252.431 630.624 259.271C635.693 270.74 656.596 347.926 656.596 347.926Z" fill="white"/>
</mask>
<g mask="url(#mask12_216_2954)">
<path d="M628.521 218.995C630.951 149.307 698.436 162.938 690.22 135.654C687.738 127.409 649.483 146.342 649.483 146.342L617.626 151.439C617.626 151.439 626.586 274.484 628.521 218.995Z" fill="#1D62FC"/>
<path d="M689.371 182.646L690.52 176.247C683.77 175.029 683.177 168.929 683.002 159.025C682.892 152.761 682.787 146.846 679.04 143.676C676.843 141.959 673.995 141.313 671.272 141.914L672.251 148.341C673.128 148.113 674.057 148.222 674.858 148.645C676.356 149.912 676.445 155.028 676.518 159.138C676.676 168.11 676.893 180.395 689.371 182.646Z" fill="#FDD504"/>
<mask id="mask13_216_2954" style="mask-type:luminance" maskUnits="userSpaceOnUse" x="671" y="141" width="20" height="42">
<path fill-rule="evenodd" clip-rule="evenodd" d="M689.371 182.646L690.52 176.247C683.77 175.029 683.177 168.929 683.002 159.025C682.892 152.761 682.787 146.846 679.04 143.676C676.843 141.959 673.995 141.313 671.272 141.914L672.251 148.341C673.128 148.113 674.057 148.222 674.858 148.645C676.356 149.912 676.445 155.028 676.518 159.138C676.676 168.11 676.893 180.395 689.371 182.646Z" fill="white"/>
</mask>
<g mask="url(#mask13_216_2954)">
<path d="M673.601 146.256C683.891 145.158 674.752 174.974 685.202 179.186" stroke="#F9AFD1" stroke-width="2.13714" stroke-linecap="round" stroke-linejoin="round"/>
<path d="M675.075 144.661C685.366 143.563 676.227 173.379 686.677 177.591" stroke="#F9AFD1" stroke-width="2.13714" stroke-linecap="round" stroke-linejoin="round"/>
<path d="M687.039 172.083L685.475 184.656L695.724 185.335L695.459 173.513L690.29 172.788" fill="white"/>
<path d="M687.039 172.083L685.475 184.656L695.724 185.335L695.459 173.513L690.29 172.788" stroke="black" stroke-width="2.13714" stroke-linecap="round" stroke-linejoin="round"/>
</g>
<path fill-rule="evenodd" clip-rule="evenodd" d="M689.371 182.646L690.52 176.247C683.77 175.029 683.177 168.929 683.002 159.025C682.892 152.761 682.787 146.846 679.04 143.676C676.843 141.959 673.995 141.313 671.272 141.914L672.251 148.341C673.128 148.113 674.057 148.222 674.858 148.645C676.356 149.912 676.445 155.028 676.518 159.138C676.676 168.11 676.893 180.395 689.371 182.646Z" stroke="black" stroke-width="2.13714" stroke-linecap="round" stroke-linejoin="round"/>
<ellipse cx="641.748" cy="256.592" rx="9.34571" ry="3.59723" transform="rotate(-5.8658 641.748 256.592)" fill="#F9C1BB" stroke="black" stroke-width="2.13714" stroke-linecap="round" stroke-linejoin="round"/>
</g>
<path fill-rule="evenodd" clip-rule="evenodd" d="M656.597 347.926C666.719 352.344 682.238 344.745 682.238 344.745C682.238 344.745 662.48 274.782 660.505 254.055C660.199 250.854 662.817 194.439 662.817 194.439L667.895 207.264L688.416 259.085L710.175 351.621C710.175 351.621 727.82 353.188 733.271 347.926C733.271 347.926 717.73 257.728 716.411 250.905C713.196 234.273 687.031 127.999 687.031 127.999L628.725 139.561C628.725 139.561 627.601 252.43 630.625 259.271C635.694 270.74 656.597 347.926 656.597 347.926Z" stroke="black" stroke-width="2.13714" stroke-linecap="round" stroke-linejoin="round"/>
<path d="M626.988 146.342C619.321 154.516 620.211 170.427 668.741 151.371C717.272 132.314 628.521 136.349 628.521 136.349" fill="#1AB995"/>
<path d="M626.988 146.342C619.321 154.516 620.211 170.427 668.741 151.371C717.272 132.314 628.521 136.349 628.521 136.349" stroke="black" stroke-width="2.13714" stroke-linecap="round" stroke-linejoin="round"/>
<path d="M622.048 68.6233C629.336 58.2326 662.144 58.8306 684.016 65.1118C684.016 65.1118 712.613 139.844 680.954 148.393C630.925 161.902 618.359 150.779 622.643 137.048C627.554 121.712 629.758 105.639 629.155 89.5476" fill="white"/>
<mask id="mask14_216_2954" style="mask-type:luminance" maskUnits="userSpaceOnUse" x="621" y="60" width="75" height="95">
<path fill-rule="evenodd" clip-rule="evenodd" d="M622.048 68.6233C629.335 58.2326 662.143 58.8306 684.015 65.1118C684.015 65.1118 712.612 139.844 680.953 148.393C630.924 161.902 618.358 150.779 622.642 137.048C627.553 121.712 629.757 105.639 629.154 89.5476" fill="white"/>
</mask>
<g mask="url(#mask14_216_2954)">
<path d="M644.827 57.6938C633.504 86.3851 647.461 89.2136 671.344 61.2802L644.827 57.6938Z" fill="#1AB995"/>
<path d="M644.827 57.6938C633.504 86.3851 647.461 89.2136 671.344 61.2802" stroke="black" stroke-width="2.13714" stroke-linecap="round" stroke-linejoin="round"/>
<path d="M650.148 91.4849L638.778 115.797L665.465 113.512L650.148 91.4849Z" fill="white" stroke="black" stroke-width="2.13714" stroke-linecap="round" stroke-linejoin="round"/>
<ellipse cx="640.766" cy="98.4841" rx="9.90542" ry="9.93043" fill="#FDD504" stroke="black" stroke-width="2.13714" stroke-linecap="round" stroke-linejoin="round"/>
<rect x="654.62" y="89.5115" width="14.4086" height="14.4449" fill="#FDD504" stroke="black" stroke-width="2.13714" stroke-linecap="round" stroke-linejoin="round"/>
</g>
<path d="M622.048 68.6233C629.336 58.2326 662.144 58.8306 684.016 65.1118C684.016 65.1118 712.613 139.844 680.954 148.393C630.925 161.902 618.359 150.779 622.643 137.048C627.554 121.712 629.758 105.639 629.155 89.5476" stroke="black" stroke-width="2.13714" stroke-linecap="round" stroke-linejoin="round"/>
<path d="M647.535 49.6936L646.742 63.2217C646.742 63.2217 642.899 73.0301 647.116 74.7597C652.83 77.1031 665.282 61.281 665.282 61.281V34.5503L647.535 49.6936Z" fill="#F9C1BB"/>
<mask id="mask15_216_2954" style="mask-type:luminance" maskUnits="userSpaceOnUse" x="645" y="34" width="21" height="41">
<path fill-rule="evenodd" clip-rule="evenodd" d="M647.535 49.6936L646.742 63.2217C646.742 63.2217 642.899 73.0301 647.116 74.7597C652.83 77.1031 665.282 61.281 665.282 61.281V34.5503L647.535 49.6936Z" fill="white"/>
</mask>
<g mask="url(#mask15_216_2954)">
<path d="M643.787 64.7882C643.787 64.7882 656.77 57.5382 657.849 45.6478C658.747 35.7479 647.203 41.5073 647.203 41.5073L643.787 64.7882Z" fill="#ED707B"/>
</g>
<path fill-rule="evenodd" clip-rule="evenodd" d="M647.535 49.6936L646.742 63.2217C646.742 63.2217 642.899 73.0301 647.116 74.7597C652.83 77.1031 665.282 61.281 665.282 61.281V34.5503L647.535 49.6936Z" stroke="black" stroke-width="2.13714" stroke-linecap="round" stroke-linejoin="round"/>
<path d="M664.249 37.4988C666.428 30.3746 665.563 23.0455 660.542 22.5551C654.362 21.7769 648.247 20.5501 642.245 18.8845C631.827 48.0701 646.306 57.353 657.281 48.5792" fill="#F9C1BB"/>
<mask id="mask16_216_2954" style="mask-type:luminance" maskUnits="userSpaceOnUse" x="638" y="18" width="28" height="34">
<path fill-rule="evenodd" clip-rule="evenodd" d="M664.25 37.4985C666.429 30.3744 665.564 23.0453 660.543 22.5548C654.363 21.7766 648.248 20.5499 642.246 18.8843C631.828 48.0699 646.307 57.3528 657.282 48.579" fill="white"/>
</mask>
<g mask="url(#mask16_216_2954)">
<path d="M653.151 24.0249C656.001 24.9451 655.387 26.3785 653.568 25.9197C651.749 25.4608 651.289 23.4235 653.151 24.0249Z" fill="black"/>
</g>
<path d="M664.249 37.4988C666.428 30.3746 665.563 23.0455 660.542 22.5551C654.362 21.7769 648.247 20.5501 642.245 18.8845C631.827 48.0701 646.306 57.353 657.281 48.5792" stroke="black" stroke-width="2.13714" stroke-linecap="round" stroke-linejoin="round"/>
<path d="M668.48 13.9713C665.9 13.949 663.457 12.8114 661.779 10.8518C660.102 8.89212 659.355 6.30233 659.73 3.75026C656.371 2.8391 652.789 3.97066 650.562 6.64629C648.497 4.63278 645.942 3.19502 643.149 2.47609C636.302 0.616783 629.709 2.97105 628.422 7.73345C627.256 12.0505 630.851 16.8644 636.633 19.1118C643.338 19.8187 649.618 22.7339 654.486 27.3992C658.088 26.6138 661.802 28.1327 663.821 31.2176C668.556 32.4295 673.386 29.6114 674.661 24.893C675.935 20.1747 673.181 15.308 668.48 13.9709L668.48 13.9713Z" fill="#2F387E"/>
<path fill-rule="evenodd" clip-rule="evenodd" d="M668.48 13.9713C665.9 13.949 663.457 12.8114 661.779 10.8517C660.102 8.89212 659.355 6.30233 659.73 3.75026C656.371 2.8391 652.789 3.97066 650.562 6.64629C648.497 4.63278 645.942 3.19502 643.149 2.47609C636.302 0.616783 629.709 2.97105 628.422 7.73345C627.256 12.0505 630.851 16.8644 636.633 19.1118C643.338 19.8187 649.618 22.7339 654.486 27.3992C658.088 26.6138 661.802 28.1327 663.821 31.2176C668.556 32.4295 673.386 29.6114 674.661 24.893C675.935 20.1747 673.181 15.308 668.48 13.9709L668.48 13.9713Z" stroke="black" stroke-width="2.13714" stroke-linecap="round" stroke-linejoin="round"/>
<path d="M663.554 39.841C665.308 39.5978 666.929 38.7717 668.157 37.4955C670.757 34.9028 671.333 31.2581 669.445 29.3547C667.556 27.4514 663.918 28.0101 661.318 30.6026C661 30.9192 660.706 31.2588 660.438 31.6188" fill="#F9C1BB"/>
<path d="M663.554 39.841C665.308 39.5978 666.929 38.7717 668.157 37.4955C670.757 34.9028 671.333 31.2581 669.445 29.3547C667.556 27.4514 663.918 28.0101 661.318 30.6026C661 30.9192 660.706 31.2588 660.438 31.6188" stroke="black" stroke-width="2.13714" stroke-linecap="round" stroke-linejoin="round"/>
<path d="M532.753 55.4127L532.394 56.1992L529.712 45.4365L549.091 59.5972L585.833 48.0374L590.881 55.0109L544.088 61.2813L532.753 55.4127Z" fill="white" stroke="black" stroke-width="2.13714" stroke-linecap="round" stroke-linejoin="round"/>
<path d="M545.769 63.7387L549.092 59.597L590.46 49.0288L617.277 85.6465L574.314 94.8918L545.769 63.7387Z" fill="#1AB995" stroke="black" stroke-width="2.13714" stroke-linecap="round" stroke-linejoin="round"/>
<path d="M524.693 47.8789L549.091 59.5968L574.313 94.8917L552.241 86.3794L524.693 47.8789Z" fill="#1AB995" stroke="black" stroke-width="2.13714" stroke-linecap="round" stroke-linejoin="round"/>
<path d="M581.864 101.806C581.864 101.806 575.563 95.8968 574.37 94.5336C573.178 93.1703 570.583 78.5856 564.624 79.237C558.664 79.8884 560.162 89.0373 560.565 91.2451C562.176 100.089 573.905 116.084 575.266 113.627C576.743 110.961 581.864 101.806 581.864 101.806Z" fill="#F9C1BB"/>
<mask id="mask17_216_2954" style="mask-type:luminance" maskUnits="userSpaceOnUse" x="560" y="79" width="22" height="35">
<path fill-rule="evenodd" clip-rule="evenodd" d="M581.862 101.806C581.862 101.806 575.561 95.8971 574.368 94.5338C573.176 93.1705 570.581 78.5858 564.622 79.2372C558.662 79.8886 560.16 89.0375 560.563 91.2454C562.174 100.09 573.903 116.084 575.264 113.628C576.741 110.961 581.862 101.806 581.862 101.806Z" fill="white"/>
</mask>
<g mask="url(#mask17_216_2954)">
<path d="M585.212 103.756L581.811 101.064L585.212 103.756Z" fill="url(#paint0_linear_216_2954)"/>
<path d="M571.213 110.999C579.99 112.605 581.862 101.806 581.862 101.806L584.612 107.543L580.042 116.061L570.745 112.751L571.213 110.999Z" fill="#ED707B"/>
</g>
<path fill-rule="evenodd" clip-rule="evenodd" d="M581.864 101.806C581.864 101.806 575.563 95.8968 574.37 94.5336C573.178 93.1703 570.583 78.5856 564.624 79.237C558.664 79.8884 560.162 89.0373 560.565 91.2451C562.176 100.089 573.905 116.084 575.266 113.627C576.743 110.961 581.864 101.806 581.864 101.806Z" stroke="black" stroke-width="2.13714" stroke-linecap="round" stroke-linejoin="round"/>
<path d="M684.016 65.1117C695.227 65.4175 721.568 73.2114 721.568 73.2114L741.148 47.9504L756.022 56.4304C756.022 56.4304 742.311 93.8068 730.679 98.7053C721.767 102.458 672.989 94.8929 672.989 94.8929" fill="white"/>
<path d="M684.016 65.1117C695.227 65.4175 721.568 73.2114 721.568 73.2114L741.148 47.9504L756.022 56.4304C756.022 56.4304 742.311 93.8068 730.679 98.7053C721.767 102.458 672.989 94.8929 672.989 94.8929" stroke="black" stroke-width="2.13714" stroke-linecap="round" stroke-linejoin="round"/>
<path d="M656.7 175.359L667.896 207.264L656.7 175.359Z" fill="#F9C1BB"/>
<path d="M656.7 175.359L667.896 207.264" stroke="black" stroke-width="2.13714" stroke-linecap="round" stroke-linejoin="round"/>
<path d="M665.416 32.9659C665.635 33.3366 665.635 33.7964 665.418 34.1677C665.201 34.539 664.799 34.7635 664.369 34.7545" stroke="black" stroke-width="2.13714" stroke-linecap="round" stroke-linejoin="round"/>
<path d="M666.331 13.3621C666.054 14.6588 665.521 15.887 664.761 16.9738" stroke="black" stroke-width="2.13714" stroke-linecap="round" stroke-linejoin="round"/>
<path d="M637.147 18.5516C638.115 18.654 639.086 18.3929 639.872 17.8192" stroke="black" stroke-width="2.13714" stroke-linecap="round" stroke-linejoin="round"/>
<path d="M720.915 72.9333L720.531 77.9298" stroke="black" stroke-width="2.13714" stroke-linecap="round" stroke-linejoin="round"/>
<path d="M663.429 128.695C661.488 129.917 659.415 130.912 657.248 131.662" stroke="black" stroke-width="2.13714" stroke-linecap="round" stroke-linejoin="round"/>
<path d="M706.722 253.924C703.586 254.689 700.373 255.091 697.146 255.121" stroke="black" stroke-width="2.13714" stroke-linecap="round" stroke-linejoin="round"/>
<path d="M638.49 248.195L644.63 247.076" stroke="black" stroke-width="2.13714" stroke-linecap="round" stroke-linejoin="round"/>
<path d="M560.298 64.959L564.403 71.3853L593.806 62.98L589.408 56.9404L560.298 64.959Z" fill="#1AB995" stroke="black" stroke-width="2.13714" stroke-linecap="round" stroke-linejoin="round"/>
<path d="M548.454 310.475C582.991 300.302 559.35 264.556 547.109 282.457C533.792 301.933 522.547 270.145 552.219 269.124C576.793 268.279 580.265 301.024 561.032 313.081C541.799 325.138 548.454 310.475 548.454 310.475Z" fill="#FDD504"/>
<mask id="mask18_216_2954" style="mask-type:luminance" maskUnits="userSpaceOnUse" x="533" y="269" width="41" height="49">
<path fill-rule="evenodd" clip-rule="evenodd" d="M548.453 310.475C582.99 300.303 559.349 264.557 547.108 282.457C533.791 301.933 522.546 270.146 552.218 269.125C576.792 268.279 580.264 301.024 561.031 313.081C541.798 325.139 548.453 310.475 548.453 310.475Z" fill="white"/>
</mask>
<g mask="url(#mask18_216_2954)">
<ellipse cx="548.192" cy="267.53" rx="6.46164" ry="6.47788" fill="#FCB006" stroke="black" stroke-width="2.13714" stroke-linecap="round" stroke-linejoin="round"/>
<ellipse cx="561.556" cy="288.085" rx="6.46164" ry="6.47788" fill="#FCB006" stroke="black" stroke-width="2.13714" stroke-linecap="round" stroke-linejoin="round"/>
</g>
<path fill-rule="evenodd" clip-rule="evenodd" d="M548.454 310.475C582.991 300.302 559.35 264.556 547.109 282.457C533.792 301.933 522.547 270.145 552.219 269.124C576.793 268.279 580.265 301.024 561.032 313.081C541.799 325.138 548.454 310.475 548.454 310.475Z" stroke="black" stroke-width="2.13714" stroke-linecap="round" stroke-linejoin="round"/>
<path d="M504.246 378.298H553.612C584.113 340.959 570.95 260.488 524.715 310.461C478.48 360.433 478.48 344.017 482.092 329.049C482.092 329.049 477.156 329.413 472.099 337.137C472.099 337.137 468.977 334.004 464.402 337.625C464.402 337.625 463.597 330.033 463.597 328.102C463.597 328.102 458.734 330.015 455.363 338.947C455.363 338.947 429.838 363.33 458.734 367.917L470.775 378.298H504.246Z" fill="#FDD504"/>
<mask id="mask19_216_2954" style="mask-type:luminance" maskUnits="userSpaceOnUse" x="444" y="294" width="127" height="85">
<path fill-rule="evenodd" clip-rule="evenodd" d="M504.245 378.298H553.611C584.112 340.959 570.949 260.488 524.714 310.461C478.479 360.433 478.479 344.017 482.091 329.049C482.091 329.049 477.155 329.413 472.098 337.137C472.098 337.137 468.976 334.004 464.401 337.625C464.401 337.625 463.596 330.033 463.596 328.102C463.596 328.102 458.733 330.015 455.362 338.947C455.362 338.947 429.837 363.33 458.733 367.917L470.774 378.298H504.245Z" fill="white"/>
</mask>
<g mask="url(#mask19_216_2954)">
<ellipse cx="521.432" cy="310.85" rx="17.3326" ry="17.3762" fill="#FCB006" stroke="black" stroke-width="2.13714" stroke-linecap="round" stroke-linejoin="round"/>
<ellipse cx="570.074" cy="332.829" rx="17.3326" ry="17.3762" fill="#FCB006" stroke="black" stroke-width="2.13714" stroke-linecap="round" stroke-linejoin="round"/>
</g>
<path fill-rule="evenodd" clip-rule="evenodd" d="M504.246 378.298H553.612C584.113 340.959 570.95 260.488 524.715 310.461C478.48 360.433 478.48 344.017 482.092 329.049C482.092 329.049 477.156 329.413 472.099 337.137C472.099 337.137 468.977 334.004 464.402 337.625C464.402 337.625 463.597 330.033 463.597 328.102C463.597 328.102 458.734 330.015 455.363 338.947C455.363 338.947 429.838 363.33 458.734 367.917L470.775 378.298H504.246Z" stroke="black" stroke-width="2.13714" stroke-linecap="round" stroke-linejoin="round"/>
<path d="M551.077 303.778C552.099 305.719 552.543 307.913 552.356 310.099" stroke="black" stroke-width="2.13714" stroke-linecap="round" stroke-linejoin="round"/>
<path d="M519.848 75.1113C520.039 70.0712 516.92 65.4962 512.158 63.8336C512.049 63.8118 511.939 63.8034 511.828 63.8086H489.286C489.2 63.8086 489.149 63.3696 489.168 63.2916C491.166 56.5791 491.711 49.5177 490.766 42.578L490.759 42.5567C490.759 36.1185 486.172 30.9048 480.514 30.9048C475.007 31.2259 470.623 35.6386 470.337 41.1479H470.331C468.261 60.6775 455.05 66.5048 452.078 67.583C452.06 67.586 452.041 67.586 452.023 67.583C451.843 67.5659 451.662 67.5659 451.482 67.583H437.618C435.437 67.7182 433.777 69.593 433.907 71.7743V120.207C433.847 121.238 434.208 122.249 434.908 123.009C435.608 123.768 436.586 124.211 437.618 124.236H501.502C501.866 124.255 502.232 124.255 502.596 124.236C506.624 124.137 510.204 121.642 511.691 117.898C512.432 116.29 519.394 78.5027 519.394 78.5027H519.4C519.532 77.9879 519.632 77.4654 519.699 76.9383L519.73 76.7673V76.7552C519.804 76.2107 519.843 75.662 519.848 75.1126" fill="#FDD504"/>
<mask id="mask20_216_2954" style="mask-type:luminance" maskUnits="userSpaceOnUse" x="433" y="30" width="87" height="95">
<path fill-rule="evenodd" clip-rule="evenodd" d="M519.85 75.1115C520.041 70.0715 516.922 65.4965 512.16 63.8338C512.051 63.812 511.941 63.8036 511.83 63.8088H489.288C489.202 63.8088 489.151 63.3699 489.17 63.2919C491.168 56.5793 491.713 49.5179 490.768 42.5783L490.761 42.5569C490.761 36.1188 486.174 30.905 480.516 30.905C475.009 31.2261 470.625 35.6389 470.339 41.1481H470.333C468.263 60.6777 455.052 66.5051 452.08 67.5832C452.062 67.5862 452.043 67.5862 452.025 67.5832C451.845 67.5661 451.664 67.5661 451.484 67.5832H437.62C435.439 67.7184 433.779 69.5932 433.908 71.7746V120.207C433.849 121.238 434.21 122.249 434.91 123.009C435.61 123.769 436.588 124.212 437.62 124.237H501.504C501.868 124.256 502.234 124.256 502.598 124.237C506.626 124.137 510.206 121.642 511.693 117.898C512.434 116.29 519.396 78.5029 519.396 78.5029H519.402C519.534 77.9881 519.634 77.4657 519.701 76.9386L519.732 76.7676V76.7554C519.806 76.2109 519.845 75.6623 519.85 75.1128" fill="white"/>
</mask>
<g mask="url(#mask20_216_2954)">
<path d="M447.873 89.1453C455.298 79.8404 457.155 129.623 485.463 129.623C513.772 129.623 436.563 138.928 436.563 138.928L438.592 105.43" fill="#FBB006"/>
</g>
<path d="M519.848 75.1113C520.039 70.0712 516.92 65.4962 512.158 63.8336C512.049 63.8118 511.939 63.8034 511.828 63.8086H489.286C489.2 63.8086 489.149 63.3696 489.168 63.2916C491.166 56.5791 491.711 49.5177 490.766 42.578L490.759 42.5567C490.759 36.1185 486.172 30.9048 480.514 30.9048C475.007 31.2259 470.623 35.6386 470.337 41.1479H470.331C468.261 60.6775 455.05 66.5048 452.078 67.583C452.06 67.586 452.041 67.586 452.023 67.583C451.843 67.5659 451.662 67.5659 451.482 67.583H437.618C435.437 67.7182 433.777 69.593 433.907 71.7743V120.207C433.847 121.238 434.208 122.249 434.908 123.009C435.608 123.768 436.586 124.211 437.618 124.236H501.502C501.866 124.255 502.232 124.255 502.596 124.236C506.624 124.137 510.204 121.642 511.691 117.898C512.432 116.29 519.394 78.5027 519.394 78.5027H519.4C519.532 77.9879 519.632 77.4654 519.699 76.9383L519.73 76.7673V76.7552C519.804 76.2107 519.843 75.662 519.848 75.1126" stroke="black" stroke-width="2.13714" stroke-linecap="round" stroke-linejoin="round"/>
<rect x="420.344" y="60.8657" width="32.4371" height="66.6618" fill="#1A80FD"/>
<mask id="mask21_216_2954" style="mask-type:luminance" maskUnits="userSpaceOnUse" x="420" y="60" width="33" height="68">
<rect x="420.344" y="60.8657" width="32.4371" height="66.6618" fill="white"/>
</mask>
<g mask="url(#mask21_216_2954)">
<path d="M418.303 94.1965C420.107 57.2227 440.94 62.6996 449.289 60.8657C457.638 59.0318 420.344 48.8977 420.344 48.8977L415.055 54.3286L411.833 72.1605" fill="#1D62FC"/>
</g>
<rect x="420.344" y="60.8657" width="32.4371" height="66.6618" stroke="black" stroke-width="2.13714" stroke-linecap="round" stroke-linejoin="round"/>
<ellipse cx="436.561" cy="77.5789" rx="5.40525" ry="5.41871" fill="white" stroke="black" stroke-width="2.13714" stroke-linecap="round" stroke-linejoin="round"/>
<path d="M494.336 98.6675C492.087 103.455 488.273 107.333 483.522 109.66" stroke="black" stroke-width="2.13714" stroke-linecap="round" stroke-linejoin="round"/>
<path d="M427.866 101.179V104.435" stroke="black" stroke-width="2.13714" stroke-linecap="round" stroke-linejoin="round"/>
</g>
<rect x="1.57324" y="1.78467" width="801.427" height="313.892" stroke="black" stroke-width="2.13714" stroke-linecap="round" stroke-linejoin="round"/>
<path d="M91.3685 89.7276H101.678V91.1894C101.242 91.4715 100.742 91.7151 100.178 91.9203C99.6135 92.0998 99.1006 92.228 98.639 92.305L91.33 101.576C91.9198 102.397 92.6123 103.333 93.4073 104.384C94.2023 105.41 95.0486 106.487 95.9462 107.615C96.8438 108.718 97.767 109.847 98.7159 111.001C99.6648 112.129 100.588 113.206 101.486 114.232L103.332 115.348V116.656H96.6386L95.0999 115.578C94.4844 114.809 93.8304 113.963 93.138 113.039C92.4712 112.091 91.8044 111.116 91.1376 110.116C90.4709 109.09 89.8169 108.064 89.1758 107.038C88.5346 106.013 87.9319 105.012 87.3677 104.038H85.7136V114.078C86.2778 114.181 86.7907 114.335 87.2523 114.54C87.714 114.745 88.1115 114.963 88.4449 115.194V116.656H76.7889V115.194C77.3018 114.937 77.8276 114.719 78.3661 114.54C78.9047 114.335 79.4304 114.181 79.9433 114.078V92.305C79.3535 92.228 78.7764 92.087 78.2122 91.8818C77.6737 91.6766 77.1992 91.4458 76.7889 91.1894V89.7276H88.4449V91.1894C88.1115 91.3945 87.7011 91.5997 87.2139 91.8049C86.7522 92.01 86.2521 92.1767 85.7136 92.305V102.076L87.9832 101.537L94.1767 92.305C93.6637 92.2024 93.1508 92.0485 92.6379 91.8433C92.1506 91.6125 91.7275 91.3945 91.3685 91.1894V89.7276ZM103.058 107.038C103.058 105.474 103.289 104.076 103.75 102.845C104.238 101.589 104.917 100.524 105.789 99.6524C106.687 98.7805 107.764 98.1137 109.021 97.6521C110.277 97.1905 111.701 96.9597 113.291 96.9597C115.086 96.9597 116.625 97.2161 117.907 97.729C119.215 98.2163 120.279 98.9087 121.1 99.8063C121.946 100.678 122.562 101.743 122.946 102.999C123.331 104.23 123.523 105.577 123.523 107.038C123.523 108.603 123.292 110.013 122.831 111.27C122.369 112.501 121.69 113.552 120.792 114.424C119.92 115.296 118.843 115.963 117.561 116.425C116.304 116.886 114.881 117.117 113.291 117.117C111.547 117.117 110.034 116.874 108.751 116.386C107.469 115.873 106.405 115.181 105.559 114.309C104.712 113.411 104.084 112.347 103.674 111.116C103.263 109.859 103.058 108.5 103.058 107.038ZM109.021 107.038C109.021 108.192 109.085 109.257 109.213 110.231C109.367 111.18 109.623 111.988 109.982 112.655C110.341 113.322 110.829 113.847 111.444 114.232C112.06 114.591 112.855 114.771 113.829 114.771C114.393 114.771 114.906 114.642 115.368 114.386C115.83 114.104 116.227 113.668 116.561 113.078C116.894 112.462 117.138 111.667 117.291 110.693C117.471 109.693 117.561 108.475 117.561 107.038C117.561 105.859 117.484 104.794 117.33 103.846C117.202 102.897 116.958 102.089 116.599 101.422C116.266 100.755 115.804 100.242 115.214 99.8833C114.624 99.4986 113.881 99.3062 112.983 99.3062C112.316 99.3062 111.739 99.4473 111.252 99.7294C110.765 99.9858 110.354 100.422 110.021 101.037C109.687 101.627 109.431 102.422 109.251 103.422C109.098 104.397 109.021 105.602 109.021 107.038ZM133.169 116.656H125.514V115.155C126.36 114.745 127.207 114.437 128.053 114.232L128.822 100.229C128.284 100.024 127.809 99.8063 127.399 99.5755C126.989 99.3447 126.617 99.1267 126.283 98.9215V97.4213H135.862L139.17 106.731L139.901 109.385H140.017L140.825 106.692L144.21 97.4213H153.904V98.9215C153.57 99.1267 153.199 99.3062 152.788 99.4601C152.378 99.614 151.903 99.7422 151.365 99.8448L152.134 114.232C152.981 114.386 153.827 114.694 154.673 115.155V116.656H144.441V115.155C144.697 115.027 145.005 114.886 145.364 114.732C145.723 114.578 146.184 114.412 146.749 114.232L145.979 100.383H145.672L139.824 116.656H137.901L131.746 100.383H131.438L130.861 114.232C131.784 114.514 132.554 114.822 133.169 115.155V116.656ZM163.937 116.656H156.281V115.155C157.128 114.745 157.974 114.437 158.82 114.232L159.59 100.229C159.051 100.024 158.577 99.8063 158.166 99.5755C157.756 99.3447 157.384 99.1267 157.051 98.9215V97.4213H166.629L169.938 106.731L170.669 109.385H170.784L171.592 106.692L174.977 97.4213H184.671V98.9215C184.338 99.1267 183.966 99.3062 183.555 99.4601C183.145 99.614 182.671 99.7422 182.132 99.8448L182.902 114.232C183.748 114.386 184.594 114.694 185.44 115.155V116.656H175.208V115.155C175.464 115.027 175.772 114.886 176.131 114.732C176.49 114.578 176.952 114.412 177.516 114.232L176.747 100.383H176.439L170.592 116.656H168.668L162.513 100.383H162.205L161.628 114.232C162.552 114.514 163.321 114.822 163.937 115.155V116.656ZM187.703 99.8448C187.318 99.7422 186.959 99.614 186.625 99.4601C186.318 99.3062 185.997 99.1267 185.664 98.9215V97.4213H195.781V98.8831C195.242 99.2421 194.511 99.5627 193.588 99.8448L197.474 109.5L198.128 111.962H198.204L198.82 109.462L201.82 99.8448C201.051 99.6909 200.346 99.3832 199.705 98.9215V97.4213H207.129V98.9215C206.591 99.2806 205.86 99.5883 204.936 99.8448L198.666 116.656C198.051 118.297 197.435 119.63 196.82 120.656C196.204 121.708 195.589 122.541 194.973 123.157C194.358 123.772 193.742 124.195 193.127 124.426C192.511 124.683 191.896 124.849 191.28 124.926C191.024 124.695 190.793 124.401 190.588 124.041C190.383 123.708 190.203 123.336 190.049 122.926C189.895 122.541 189.767 122.144 189.664 121.733C189.562 121.323 189.498 120.938 189.472 120.579L189.972 119.656H194.665C194.896 119.297 195.089 118.912 195.242 118.502C195.422 118.092 195.627 117.476 195.858 116.656L187.703 99.8448ZM217.874 116.656H207.68V115.155C208.039 114.95 208.437 114.783 208.873 114.655C209.309 114.501 209.757 114.36 210.219 114.232V99.8448C209.757 99.7166 209.309 99.5883 208.873 99.4601C208.437 99.3062 208.039 99.1267 207.68 98.9215V97.4213H217.874V98.9215C217.284 99.2806 216.579 99.5883 215.758 99.8448V105.846H222.914V99.8448C222.17 99.6909 221.465 99.3832 220.798 98.9215V97.4213H230.992V98.9215C230.299 99.3575 229.453 99.6653 228.453 99.8448V114.232C228.915 114.335 229.363 114.45 229.799 114.578C230.235 114.706 230.633 114.899 230.992 115.155V116.656H220.798V115.155C221.465 114.668 222.17 114.36 222.914 114.232V108.039H215.758V114.232C216.194 114.335 216.579 114.463 216.912 114.617C217.271 114.771 217.592 114.95 217.874 115.155V116.656ZM233.225 97.4213H243.458V98.9215C243.176 99.0754 242.843 99.2293 242.458 99.3832C242.099 99.537 241.663 99.6909 241.15 99.8448V108.5L240.727 112.078H240.919L242.419 109.193L249.459 97.4213H256.73V98.9215C255.909 99.3832 255.063 99.6909 254.191 99.8448V114.232C254.678 114.36 255.14 114.501 255.576 114.655C256.012 114.783 256.396 114.95 256.73 115.155V116.656H246.497V115.155C247.215 114.745 247.985 114.437 248.805 114.232V105.153L249.19 102.114H248.998L247.536 105L240.573 116.656H233.225V115.155C233.661 114.95 234.085 114.783 234.495 114.655C234.905 114.501 235.328 114.36 235.764 114.232V99.8448C234.764 99.6909 233.918 99.3832 233.225 98.9215V97.4213ZM270.999 97.4213H279.809V98.9215C279.552 99.1267 279.232 99.3062 278.847 99.4601C278.488 99.5883 278.001 99.755 277.385 99.9602C276.513 101.012 275.616 102.025 274.692 102.999C273.769 103.948 272.872 104.833 272 105.654C272.564 106.269 273.141 106.936 273.731 107.654C274.321 108.372 274.898 109.116 275.462 109.885C276.052 110.629 276.641 111.373 277.231 112.116C277.847 112.86 278.462 113.565 279.078 114.232L280.693 115.155V116.656H274.654L273.423 115.771C272.32 114.437 271.41 113.104 270.692 111.77C269.999 110.436 269.294 109.116 268.576 107.808H267.037V114.232C267.858 114.463 268.576 114.771 269.191 115.155V116.656H258.959V115.155C259.651 114.745 260.498 114.437 261.498 114.232V99.8448C260.6 99.6653 259.754 99.3575 258.959 98.9215V97.4213H268.768V98.9215C268.512 99.1011 268.255 99.2678 267.999 99.4216C267.768 99.5755 267.448 99.7166 267.037 99.8448V106.115L268.807 105.73C269.55 104.884 270.294 103.974 271.038 102.999C271.782 102.025 272.461 101.012 273.077 99.9602C272.641 99.7807 272.269 99.614 271.961 99.4601C271.653 99.3062 271.333 99.1267 270.999 98.9215V97.4213ZM298.764 111.078C298.764 111.642 298.764 112.129 298.764 112.539C298.79 112.95 298.828 113.386 298.879 113.847L301.534 114.232V115.578C301.226 115.732 300.803 115.886 300.264 116.04C299.751 116.194 299.2 116.348 298.61 116.502C298.046 116.63 297.482 116.732 296.918 116.809C296.353 116.912 295.853 116.989 295.417 117.04H294.109C293.853 116.45 293.699 115.861 293.648 115.271C293.596 114.681 293.558 113.963 293.532 113.116H293.34C293.212 113.629 292.994 114.129 292.686 114.617C292.378 115.078 291.981 115.501 291.494 115.886C291.032 116.245 290.481 116.54 289.839 116.771C289.198 117.002 288.48 117.117 287.685 117.117C286.839 117.117 286.057 116.989 285.339 116.732C284.62 116.476 283.992 116.117 283.454 115.655C282.915 115.194 282.492 114.642 282.184 114.001C281.876 113.334 281.723 112.591 281.723 111.77C281.723 110.616 281.941 109.667 282.376 108.923C282.812 108.18 283.492 107.577 284.415 107.115C285.364 106.628 286.57 106.269 288.031 106.038C289.519 105.807 291.314 105.641 293.417 105.538C293.622 103.333 293.532 101.717 293.148 100.691C292.763 99.6653 291.93 99.1524 290.647 99.1524C289.852 99.1524 289.121 99.2806 288.455 99.537L286.646 104.153H284.954C284.749 103.846 284.544 103.499 284.338 103.115C284.159 102.704 283.979 102.281 283.8 101.845C283.646 101.384 283.505 100.922 283.377 100.46C283.274 99.9987 283.197 99.5499 283.146 99.1139C284.12 98.4471 285.377 97.9214 286.916 97.5367C288.455 97.152 290.083 96.9597 291.801 96.9597C293.263 96.9597 294.456 97.1264 295.379 97.4597C296.302 97.7675 297.02 98.2035 297.533 98.7677C298.072 99.3062 298.444 99.9474 298.649 100.691C298.854 101.435 298.956 102.23 298.956 103.076C298.956 104.615 298.918 106.013 298.841 107.269C298.79 108.5 298.764 109.77 298.764 111.078ZM290.109 114.04C290.647 114.04 291.109 113.937 291.494 113.732C291.878 113.527 292.199 113.283 292.455 113.001C292.737 112.719 292.943 112.411 293.071 112.078C293.225 111.744 293.34 111.449 293.417 111.193V107.346C292.212 107.372 291.224 107.449 290.455 107.577C289.686 107.705 289.083 107.923 288.647 108.231C288.211 108.513 287.903 108.885 287.724 109.347C287.57 109.782 287.493 110.321 287.493 110.962C287.493 111.937 287.724 112.693 288.185 113.232C288.647 113.77 289.288 114.04 290.109 114.04ZM303.213 116.656V115.155C303.905 114.745 304.751 114.437 305.752 114.232V99.8448C304.777 99.6909 303.931 99.3832 303.213 98.9215V97.4213H313.407V98.9215C313.125 99.1011 312.817 99.2678 312.483 99.4216C312.176 99.5755 311.778 99.7166 311.291 99.8448V114.463H317.869V99.8448C317.51 99.7679 317.164 99.6524 316.83 99.4986C316.523 99.3447 316.164 99.1524 315.753 98.9215V97.4213H325.947V98.9215C325.614 99.1011 325.242 99.2678 324.832 99.4216C324.422 99.5755 323.947 99.7166 323.409 99.8448V114.463H327.178C327.127 115.694 327.012 117.015 326.832 118.425C326.678 119.836 326.537 121.144 326.409 122.349H324.909L322.832 116.656H303.213ZM328.871 97.4213H339.103V98.9215C338.821 99.0754 338.488 99.2293 338.103 99.3832C337.744 99.537 337.308 99.6909 336.795 99.8448V108.5L336.372 112.078H336.564L338.065 109.193L345.104 97.4213H352.375V98.9215C351.554 99.3832 350.708 99.6909 349.836 99.8448V114.232C350.323 114.36 350.785 114.501 351.221 114.655C351.657 114.783 352.042 114.95 352.375 115.155V116.656H342.142V115.155C342.86 114.745 343.63 114.437 344.451 114.232V105.153L344.835 102.114H344.643L343.181 105L336.218 116.656H328.871V115.155C329.307 114.95 329.73 114.783 330.14 114.655C330.551 114.501 330.974 114.36 331.41 114.232V99.8448C330.41 99.6909 329.563 99.3832 328.871 98.9215V97.4213ZM354.604 97.4213H364.837V98.9215C364.555 99.0754 364.221 99.2293 363.837 99.3832C363.477 99.537 363.042 99.6909 362.529 99.8448V108.5L362.105 112.078H362.298L363.798 109.193L370.838 97.4213H378.108V98.9215C377.288 99.3832 376.441 99.6909 375.569 99.8448V114.232C376.057 114.36 376.518 114.501 376.954 114.655C377.39 114.783 377.775 114.95 378.108 115.155V116.656H367.876V115.155C368.594 114.745 369.363 114.437 370.184 114.232V105.153L370.569 102.114H370.376L368.914 105L361.952 116.656H354.604V115.155C355.04 114.95 355.463 114.783 355.874 114.655C356.284 114.501 356.707 114.36 357.143 114.232V99.8448C356.143 99.6909 355.297 99.3832 354.604 98.9215V97.4213ZM103.666 155.167C103.666 156.535 103.375 157.714 102.794 158.706C102.212 159.664 101.409 160.45 100.383 161.065C99.3571 161.681 98.1432 162.143 96.7412 162.45C95.3735 162.724 93.9031 162.861 92.3302 162.861C91.236 162.861 90.2956 162.844 89.5091 162.809C88.7227 162.809 88.0388 162.792 87.4575 162.758C86.8762 162.724 86.3633 162.69 85.9188 162.656C85.5084 162.656 85.1152 162.656 84.7391 162.656H77.507V160.655C78.567 160.108 79.6954 159.698 80.8922 159.424V140.241C79.5928 140.002 78.4644 139.592 77.507 139.01V137.01H84.4313C86.0726 137.01 87.5259 136.976 88.7911 136.907C90.0563 136.839 91.3214 136.805 92.5866 136.805C95.8351 136.805 98.2971 137.266 99.9726 138.19C101.682 139.079 102.537 140.652 102.537 142.908C102.537 143.729 102.349 144.464 101.973 145.114C101.631 145.764 101.152 146.328 100.537 146.807C99.9555 147.285 99.3058 147.678 98.5877 147.986C97.8696 148.294 97.1516 148.516 96.4335 148.653C97.3909 148.721 98.2971 148.909 99.1519 149.217C100.041 149.525 100.81 149.952 101.46 150.499C102.144 151.047 102.674 151.713 103.05 152.5C103.46 153.252 103.666 154.141 103.666 155.167ZM88.2782 159.732C88.7569 159.834 89.2698 159.903 89.8169 159.937C90.3982 159.937 90.894 159.937 91.3043 159.937C92.8431 159.937 94.0057 159.544 94.7922 158.757C95.5786 157.971 95.9719 156.825 95.9719 155.321C95.9719 153.851 95.5102 152.756 94.587 152.038C93.6979 151.286 92.5182 150.91 91.0479 150.91H88.2782V159.732ZM88.2782 148.704L92.8431 148.191C93.3902 147.849 93.9202 147.302 94.4331 146.55C94.946 145.764 95.2025 144.806 95.2025 143.678C95.2025 141.045 93.6808 139.728 90.6376 139.728C90.2614 139.728 89.8682 139.745 89.4579 139.78C89.0475 139.78 88.6543 139.831 88.2782 139.933V148.704ZM107.012 149.833C107.012 147.747 107.32 145.883 107.935 144.242C108.585 142.566 109.491 141.147 110.654 139.985C111.85 138.822 113.287 137.933 114.962 137.318C116.638 136.702 118.535 136.394 120.655 136.394C123.049 136.394 125.101 136.736 126.81 137.42C128.554 138.07 129.973 138.993 131.068 140.19C132.196 141.353 133.017 142.772 133.53 144.447C134.042 146.088 134.299 147.884 134.299 149.833C134.299 151.919 133.991 153.799 133.376 155.475C132.76 157.116 131.854 158.518 130.657 159.681C129.495 160.843 128.058 161.732 126.349 162.348C124.673 162.963 122.775 163.271 120.655 163.271C118.33 163.271 116.313 162.946 114.603 162.296C112.893 161.613 111.474 160.689 110.346 159.527C109.217 158.33 108.38 156.911 107.833 155.27C107.285 153.594 107.012 151.782 107.012 149.833ZM114.962 149.833C114.962 151.371 115.048 152.79 115.219 154.09C115.424 155.355 115.766 156.432 116.244 157.321C116.723 158.21 117.373 158.911 118.193 159.424C119.014 159.903 120.074 160.142 121.373 160.142C122.126 160.142 122.81 159.971 123.425 159.629C124.041 159.253 124.571 158.672 125.015 157.885C125.46 157.065 125.785 156.005 125.99 154.705C126.229 153.372 126.349 151.748 126.349 149.833C126.349 148.26 126.246 146.841 126.041 145.576C125.87 144.31 125.545 143.233 125.066 142.344C124.622 141.455 124.006 140.771 123.22 140.293C122.433 139.78 121.442 139.523 120.245 139.523C119.356 139.523 118.587 139.711 117.937 140.087C117.287 140.429 116.74 141.011 116.296 141.831C115.851 142.618 115.509 143.678 115.27 145.011C115.065 146.311 114.962 147.918 114.962 149.833ZM153.418 137.01H165.163V139.01C164.821 139.284 164.394 139.523 163.881 139.728C163.402 139.899 162.753 140.122 161.932 140.395C160.769 141.797 159.573 143.148 158.342 144.447C157.111 145.712 155.914 146.892 154.751 147.986C155.504 148.807 156.273 149.696 157.059 150.653C157.846 151.611 158.615 152.602 159.368 153.628C160.154 154.62 160.94 155.612 161.727 156.603C162.548 157.595 163.368 158.535 164.189 159.424L166.343 160.655V162.656H158.29L156.649 161.476C155.179 159.698 153.965 157.92 153.007 156.142C152.084 154.363 151.144 152.602 150.186 150.859H148.135V159.424C149.229 159.732 150.186 160.142 151.007 160.655V162.656H137.364V160.655C138.287 160.108 139.415 159.698 140.749 159.424V140.241C139.552 140.002 138.424 139.592 137.364 139.01V137.01H150.443V139.01C150.101 139.25 149.759 139.472 149.417 139.677C149.109 139.882 148.682 140.07 148.135 140.241V148.602L150.494 148.089C151.486 146.96 152.477 145.746 153.469 144.447C154.461 143.148 155.367 141.797 156.187 140.395C155.606 140.156 155.11 139.933 154.7 139.728C154.29 139.523 153.862 139.284 153.418 139.01V137.01ZM181.564 172.914H167.407V170.913C168.57 170.366 169.698 169.956 170.793 169.682V140.652L167.407 140.241V138.241C167.955 138.001 168.621 137.779 169.408 137.574C170.228 137.369 171.066 137.198 171.921 137.061C172.776 136.89 173.597 136.753 174.383 136.651C175.204 136.548 175.888 136.463 176.435 136.394H178.179V142.139H178.23C178.811 140.498 179.717 139.13 180.948 138.036C182.214 136.941 183.957 136.394 186.18 136.394C187.685 136.394 189.035 136.651 190.232 137.164C191.463 137.642 192.489 138.412 193.31 139.472C194.164 140.498 194.814 141.831 195.259 143.473C195.737 145.08 195.977 147.012 195.977 149.268C195.977 151.423 195.669 153.372 195.053 155.116C194.472 156.86 193.617 158.33 192.489 159.527C191.395 160.724 190.044 161.647 188.437 162.296C186.864 162.946 185.069 163.271 183.051 163.271C181.889 163.271 180.965 163.186 180.282 163.015C179.632 162.878 178.931 162.621 178.179 162.245V169.682C178.726 169.751 179.273 169.87 179.82 170.041C180.367 170.247 180.948 170.537 181.564 170.913V172.914ZM183.205 140.498C182.043 140.498 181 140.908 180.076 141.729C179.187 142.549 178.555 143.815 178.179 145.524V159.168C178.726 159.578 179.307 159.886 179.922 160.091C180.538 160.262 181.342 160.347 182.333 160.347C184.282 160.347 185.718 159.407 186.642 157.526C187.565 155.646 188.027 152.893 188.027 149.268C188.027 146.465 187.667 144.31 186.949 142.806C186.266 141.267 185.017 140.498 183.205 140.498ZM198.934 140.241C198.421 140.104 197.942 139.933 197.498 139.728C197.087 139.523 196.66 139.284 196.216 139.01V137.01H209.705V138.959C208.987 139.438 208.013 139.865 206.782 140.241L211.962 153.115L212.834 156.398H212.936L213.757 153.064L217.758 140.241C216.732 140.036 215.792 139.626 214.937 139.01V137.01H224.836V139.01C224.118 139.489 223.143 139.899 221.912 140.241L213.552 162.656C212.731 164.844 211.911 166.622 211.09 167.99C210.269 169.392 209.449 170.503 208.628 171.324C207.807 172.144 206.987 172.709 206.166 173.016C205.345 173.358 204.525 173.581 203.704 173.683C203.362 173.375 203.054 172.982 202.781 172.503C202.507 172.059 202.268 171.563 202.063 171.016C201.858 170.503 201.687 169.973 201.55 169.426C201.413 168.879 201.328 168.366 201.293 167.887L201.96 166.656H208.218C208.525 166.178 208.782 165.665 208.987 165.118C209.226 164.57 209.5 163.75 209.808 162.656L198.934 140.241ZM247.472 137.01C247.438 137.66 247.369 138.412 247.267 139.267C247.198 140.122 247.096 141.011 246.959 141.934C246.856 142.857 246.72 143.763 246.549 144.652C246.378 145.541 246.207 146.328 246.036 147.012H243.933L241.676 139.933H236.342V159.424C238.291 159.8 239.83 160.211 240.958 160.655V162.656H225.571V160.655C226.152 160.313 226.716 160.057 227.263 159.886C227.81 159.715 228.374 159.561 228.956 159.424V140.19C227.691 139.985 226.562 139.592 225.571 139.01V137.01H247.472ZM276.279 162.656H262.687V160.655C263.165 160.382 263.695 160.159 264.277 159.988C264.858 159.783 265.456 159.595 266.072 159.424V140.241C265.456 140.07 264.858 139.899 264.277 139.728C263.695 139.523 263.165 139.284 262.687 139.01V137.01H276.279V139.01C275.492 139.489 274.552 139.899 273.458 140.241V148.243H282.998V140.241C282.006 140.036 281.066 139.626 280.177 139.01V137.01H293.769V139.01C292.846 139.592 291.718 140.002 290.384 140.241V159.424C290.999 159.561 291.598 159.715 292.179 159.886C292.76 160.057 293.29 160.313 293.769 160.655V162.656H280.177V160.655C281.066 160.005 282.006 159.595 282.998 159.424V151.166H273.458V159.424C274.039 159.561 274.552 159.732 274.997 159.937C275.475 160.142 275.903 160.382 276.279 160.655V162.656ZM319.367 155.218C319.367 155.971 319.367 156.62 319.367 157.167C319.401 157.714 319.452 158.296 319.521 158.911L323.06 159.424V161.219C322.649 161.425 322.085 161.63 321.367 161.835C320.683 162.04 319.948 162.245 319.162 162.45C318.409 162.621 317.657 162.758 316.905 162.861C316.152 162.997 315.486 163.1 314.904 163.168H313.16C312.819 162.382 312.613 161.595 312.545 160.809C312.477 160.023 312.425 159.065 312.391 157.937H312.135C311.964 158.621 311.673 159.287 311.263 159.937C310.852 160.553 310.322 161.117 309.673 161.63C309.057 162.108 308.322 162.502 307.467 162.809C306.612 163.117 305.655 163.271 304.595 163.271C303.466 163.271 302.424 163.1 301.466 162.758C300.509 162.416 299.671 161.937 298.953 161.322C298.235 160.706 297.671 159.971 297.26 159.116C296.85 158.227 296.645 157.236 296.645 156.142C296.645 154.603 296.935 153.338 297.517 152.346C298.098 151.354 299.004 150.551 300.235 149.935C301.5 149.286 303.107 148.807 305.056 148.499C307.04 148.191 309.433 147.969 312.237 147.832C312.511 144.892 312.391 142.737 311.878 141.37C311.365 140.002 310.254 139.318 308.544 139.318C307.484 139.318 306.51 139.489 305.621 139.831L303.21 145.986H300.953C300.68 145.576 300.406 145.114 300.133 144.601C299.893 144.054 299.654 143.49 299.414 142.908C299.209 142.293 299.021 141.677 298.85 141.062C298.713 140.446 298.611 139.848 298.542 139.267C299.842 138.378 301.517 137.677 303.569 137.164C305.621 136.651 307.792 136.394 310.083 136.394C312.032 136.394 313.622 136.617 314.853 137.061C316.084 137.471 317.042 138.053 317.725 138.805C318.443 139.523 318.939 140.378 319.213 141.37C319.486 142.361 319.623 143.421 319.623 144.55C319.623 146.601 319.572 148.465 319.469 150.14C319.401 151.782 319.367 153.474 319.367 155.218ZM307.826 159.168C308.544 159.168 309.16 159.031 309.673 158.757C310.186 158.484 310.613 158.159 310.955 157.783C311.331 157.407 311.605 156.996 311.776 156.552C311.981 156.107 312.135 155.714 312.237 155.372V150.243C310.63 150.277 309.314 150.38 308.288 150.551C307.262 150.722 306.458 151.012 305.877 151.423C305.296 151.799 304.885 152.295 304.646 152.91C304.441 153.491 304.338 154.21 304.338 155.064C304.338 156.364 304.646 157.373 305.262 158.091C305.877 158.809 306.732 159.168 307.826 159.168ZM347.199 158.501C346.96 159.185 346.567 159.817 346.02 160.399C345.473 160.946 344.806 161.442 344.019 161.886C343.267 162.331 342.395 162.673 341.404 162.912C340.446 163.151 339.437 163.271 338.377 163.271C336.121 163.271 334.171 162.963 332.53 162.348C330.923 161.698 329.589 160.792 328.529 159.629C327.469 158.433 326.683 157.013 326.17 155.372C325.657 153.697 325.401 151.85 325.401 149.833C325.401 145.49 326.58 142.173 328.94 139.882C331.333 137.557 334.719 136.394 339.095 136.394C340.771 136.394 342.31 136.582 343.712 136.959C345.114 137.301 346.276 137.711 347.199 138.19C347.131 138.771 347.029 139.421 346.892 140.139C346.789 140.823 346.652 141.523 346.481 142.242C346.345 142.925 346.174 143.609 345.968 144.293C345.763 144.943 345.558 145.49 345.353 145.935H342.84L340.685 139.831C340.446 139.66 340.19 139.54 339.916 139.472C339.643 139.369 339.232 139.318 338.685 139.318C337.796 139.318 337.027 139.489 336.377 139.831C335.727 140.139 335.163 140.686 334.684 141.472C334.24 142.259 333.898 143.302 333.659 144.601C333.453 145.9 333.351 147.507 333.351 149.422C333.351 150.824 333.505 152.124 333.812 153.32C334.12 154.483 334.582 155.509 335.197 156.398C335.847 157.253 336.651 157.937 337.608 158.45C338.565 158.928 339.694 159.168 340.993 159.168C342.19 159.168 343.233 158.997 344.122 158.655C345.011 158.313 345.763 157.903 346.379 157.424L347.199 158.501Z" fill="white"/>
<path d="M86.4659 199.826L87.429 203.123H87.6142L88.3551 199.715L93.319 186.157H96.4677L89.9109 203.012C89.2441 204.765 88.6514 206.234 88.1328 207.42C87.6389 208.581 87.1326 209.531 86.614 210.272C86.0954 210.988 85.5398 211.507 84.9471 211.828C84.3544 212.124 83.6258 212.273 82.7615 212.273C81.9465 212.273 81.2921 212.211 80.7982 212.087C80.329 211.939 79.8844 211.729 79.4646 211.458L80.3907 208.902C80.8846 209.173 81.3415 209.346 81.7613 209.42C82.1811 209.494 82.5639 209.531 82.9097 209.531C83.6011 209.531 84.1815 209.186 84.6507 208.494C85.1199 207.778 85.5274 206.728 85.8732 205.345L76.2788 186.157H79.835L86.4659 199.826ZM100.369 193.566V198.603C100.369 199.27 100.406 199.875 100.48 200.419C100.554 200.937 100.703 201.394 100.925 201.789C101.147 202.16 101.468 202.456 101.888 202.678C102.308 202.876 102.863 202.975 103.555 202.975C104.666 202.975 105.58 202.851 106.296 202.604C107.012 202.357 107.556 202.086 107.926 201.789V193.566H110.89V212.087H107.926V204.308C107.531 204.555 106.938 204.827 106.148 205.123C105.382 205.42 104.32 205.568 102.962 205.568C102.048 205.568 101.246 205.469 100.554 205.271C99.8629 205.074 99.2825 204.728 98.8133 204.234C98.3441 203.74 97.986 203.086 97.739 202.271C97.5168 201.456 97.4056 200.431 97.4056 199.196V193.566H100.369ZM128.161 201.122L128.272 198.826H128.161L126.642 201.197L118.307 212.087H116.603V193.566H119.566V204.864L119.455 207.049H119.603L121.048 204.753L129.383 193.566H131.124V212.087H128.161V201.122ZM152.124 201.085L152.346 197.566H152.161L150.828 200.419L146.345 207.679H145.308L140.641 200.419L139.418 197.566H139.27L139.566 201.048V212.087H136.825V193.566H139.752L144.938 201.863L146.012 204.012H146.086L147.197 201.789L152.05 193.566H155.014V212.087H152.124V201.085ZM173.333 210.865C172.592 211.408 171.715 211.816 170.703 212.087C169.69 212.384 168.628 212.532 167.517 212.532C166.085 212.532 164.875 212.31 163.887 211.865C162.899 211.396 162.084 210.741 161.442 209.902C160.824 209.037 160.368 208.013 160.071 206.827C159.8 205.617 159.664 204.284 159.664 202.826C159.664 199.69 160.355 197.295 161.738 195.64C163.121 193.961 165.109 193.121 167.702 193.121C168.888 193.121 169.888 193.22 170.703 193.417C171.542 193.59 172.296 193.85 172.962 194.195L172.11 196.751C171.542 196.43 170.913 196.183 170.221 196.01C169.53 195.813 168.789 195.714 167.999 195.714C164.492 195.714 162.738 198.085 162.738 202.826C162.738 203.765 162.825 204.666 162.998 205.531C163.195 206.37 163.504 207.124 163.924 207.79C164.368 208.432 164.936 208.951 165.628 209.346C166.344 209.741 167.221 209.939 168.258 209.939C169.147 209.939 169.937 209.803 170.629 209.531C171.345 209.26 171.925 208.951 172.37 208.605L173.333 210.865ZM186.638 204.419L183.786 204.864L178.896 212.087H175.302L179.748 205.753L181.229 204.382C179.945 204.185 178.846 203.666 177.933 202.826C177.044 201.987 176.599 200.851 176.599 199.418C176.599 198.307 176.784 197.356 177.155 196.566C177.55 195.776 178.105 195.121 178.822 194.603C179.538 194.084 180.39 193.714 181.378 193.491C182.366 193.244 183.477 193.121 184.712 193.121C185.625 193.121 186.477 193.183 187.268 193.306C188.058 193.43 188.836 193.566 189.601 193.714V212.087H186.638V204.419ZM186.638 196.085C186.317 195.961 185.959 195.875 185.564 195.825C185.168 195.751 184.823 195.714 184.526 195.714C182.946 195.714 181.736 195.998 180.896 196.566C180.081 197.134 179.674 198.035 179.674 199.27C179.674 200.382 180.106 201.246 180.97 201.863C181.859 202.456 183.02 202.752 184.452 202.752C184.477 202.752 184.514 202.752 184.563 202.752C184.613 202.752 184.712 202.752 184.86 202.752C185.008 202.752 185.218 202.752 185.49 202.752C185.761 202.728 186.144 202.703 186.638 202.678V196.085ZM203.834 202.826C203.834 199.69 204.525 197.295 205.908 195.64C207.316 193.961 209.329 193.121 211.947 193.121C213.33 193.121 214.527 193.356 215.54 193.825C216.577 194.269 217.429 194.924 218.096 195.788C218.763 196.628 219.257 197.653 219.578 198.863C219.899 200.048 220.059 201.369 220.059 202.826C220.059 205.963 219.355 208.371 217.948 210.05C216.565 211.705 214.564 212.532 211.947 212.532C210.564 212.532 209.353 212.31 208.316 211.865C207.304 211.396 206.464 210.741 205.797 209.902C205.131 209.037 204.637 208.013 204.316 206.827C203.995 205.617 203.834 204.284 203.834 202.826ZM206.909 202.826C206.909 203.765 206.995 204.666 207.168 205.531C207.365 206.395 207.662 207.148 208.057 207.79C208.452 208.432 208.971 208.951 209.613 209.346C210.255 209.741 211.033 209.939 211.947 209.939C215.305 209.964 216.985 207.593 216.985 202.826C216.985 201.863 216.886 200.95 216.688 200.085C216.515 199.221 216.231 198.468 215.836 197.826C215.441 197.183 214.922 196.677 214.28 196.307C213.638 195.912 212.86 195.714 211.947 195.714C208.588 195.689 206.909 198.06 206.909 202.826ZM226.436 196.862C227.251 195.677 228.152 194.85 229.14 194.381C230.128 193.887 231.362 193.64 232.844 193.64C235.116 193.64 236.857 194.381 238.067 195.862C239.302 197.344 239.919 199.53 239.919 202.419C239.919 205.753 239.203 208.272 237.771 209.976C236.363 211.68 234.388 212.532 231.844 212.532C229.127 212.532 227.09 211.593 225.732 209.717C224.373 207.84 223.694 204.889 223.694 200.863C223.694 198.739 223.793 196.924 223.991 195.418C224.213 193.911 224.522 192.639 224.917 191.602C225.337 190.565 225.831 189.738 226.399 189.12C226.991 188.503 227.646 188.021 228.362 187.676C229.103 187.305 229.905 187.046 230.77 186.898C231.634 186.749 232.56 186.626 233.548 186.527C234.832 186.404 235.832 186.268 236.549 186.12C237.289 185.947 237.882 185.651 238.327 185.231L238.66 187.898C238.413 188.12 238.141 188.305 237.845 188.454C237.549 188.602 237.191 188.725 236.771 188.824C236.351 188.923 235.845 189.009 235.252 189.083C234.684 189.157 234.017 189.219 233.252 189.268C232.19 189.343 231.251 189.478 230.436 189.676C229.646 189.849 228.955 190.207 228.362 190.75C227.794 191.269 227.337 192.022 226.991 193.01C226.67 193.973 226.448 195.257 226.324 196.862H226.436ZM226.769 202.864C226.769 203.802 226.868 204.703 227.065 205.568C227.263 206.432 227.559 207.198 227.954 207.864C228.374 208.507 228.905 209.013 229.547 209.383C230.189 209.754 230.943 209.939 231.807 209.939C233.511 209.939 234.77 209.334 235.585 208.124C236.425 206.889 236.845 205.074 236.845 202.678C236.845 201.74 236.758 200.876 236.586 200.085C236.413 199.295 236.141 198.616 235.771 198.048C235.4 197.455 234.931 197.011 234.363 196.714C233.795 196.393 233.116 196.233 232.326 196.233C230.399 196.208 228.992 196.776 228.103 197.937C227.213 199.073 226.769 200.715 226.769 202.864ZM268.819 216.792H266.818L266.262 212.087H244.592V193.566H247.555V209.494H253.89V193.566H256.853V209.494H263.188V193.566H266.151V209.494H268.819V216.792ZM272.187 194.936C273.125 194.368 274.212 193.948 275.447 193.677C276.706 193.405 278.015 193.269 279.373 193.269C280.658 193.269 281.682 193.442 282.448 193.788C283.238 194.134 283.831 194.59 284.226 195.158C284.646 195.702 284.918 196.307 285.041 196.974C285.189 197.64 285.263 198.307 285.263 198.974C285.263 200.456 285.226 201.9 285.152 203.308C285.078 204.716 285.041 206.049 285.041 207.309C285.041 208.223 285.078 209.087 285.152 209.902C285.226 210.717 285.362 211.47 285.56 212.161H283.374L282.596 209.568H282.411C282.189 209.914 281.905 210.26 281.559 210.606C281.238 210.927 280.843 211.223 280.374 211.495C279.904 211.742 279.361 211.952 278.744 212.124C278.126 212.297 277.422 212.384 276.632 212.384C275.842 212.384 275.101 212.26 274.41 212.013C273.743 211.766 273.162 211.421 272.668 210.976C272.175 210.507 271.779 209.951 271.483 209.309C271.211 208.667 271.076 207.939 271.076 207.124C271.076 206.037 271.298 205.136 271.742 204.419C272.187 203.678 272.804 203.098 273.595 202.678C274.41 202.234 275.373 201.925 276.484 201.752C277.62 201.555 278.867 201.456 280.225 201.456C280.571 201.456 280.905 201.456 281.226 201.456C281.571 201.456 281.917 201.481 282.263 201.53C282.337 200.789 282.374 200.122 282.374 199.53C282.374 198.171 282.102 197.221 281.559 196.677C281.016 196.134 280.028 195.862 278.595 195.862C278.176 195.862 277.719 195.899 277.225 195.973C276.756 196.023 276.262 196.109 275.743 196.233C275.249 196.331 274.768 196.467 274.298 196.64C273.854 196.788 273.459 196.961 273.113 197.159L272.187 194.936ZM277.447 209.791C278.139 209.791 278.756 209.704 279.299 209.531C279.843 209.334 280.312 209.099 280.707 208.828C281.102 208.531 281.423 208.21 281.67 207.864C281.942 207.519 282.139 207.185 282.263 206.864V203.79C281.917 203.765 281.559 203.753 281.189 203.753C280.843 203.728 280.497 203.716 280.151 203.716C279.386 203.716 278.633 203.765 277.892 203.864C277.175 203.938 276.533 204.098 275.965 204.345C275.422 204.568 274.978 204.889 274.632 205.308C274.311 205.704 274.15 206.21 274.15 206.827C274.15 207.692 274.459 208.408 275.076 208.976C275.694 209.519 276.484 209.791 277.447 209.791ZM302.677 196.159H296.861V212.087H293.898V196.159H288.082V193.566H302.677V196.159ZM308.584 209.494C309.497 209.643 310.374 209.717 311.214 209.717C312.769 209.717 313.918 209.42 314.659 208.828C315.4 208.21 315.77 207.346 315.77 206.234C315.77 205.247 315.412 204.432 314.696 203.79C313.98 203.148 312.856 202.826 311.325 202.826C310.905 202.826 310.448 202.839 309.954 202.864C309.46 202.888 309.003 202.962 308.584 203.086V209.494ZM308.584 200.641C309.176 200.542 309.744 200.48 310.288 200.456C310.831 200.406 311.349 200.382 311.843 200.382C313.128 200.382 314.214 200.53 315.103 200.826C315.992 201.098 316.708 201.481 317.252 201.974C317.82 202.468 318.227 203.061 318.474 203.753C318.721 204.419 318.845 205.136 318.845 205.901C318.845 208.148 318.165 209.778 316.807 210.791C315.474 211.803 313.387 212.31 310.547 212.31C308.966 212.31 307.324 212.236 305.62 212.087V193.566H308.584V200.641ZM335.037 210.865C334.296 211.408 333.42 211.816 332.407 212.087C331.395 212.384 330.333 212.532 329.221 212.532C327.789 212.532 326.579 212.31 325.591 211.865C324.603 211.396 323.788 210.741 323.146 209.902C322.529 209.037 322.072 208.013 321.776 206.827C321.504 205.617 321.368 204.284 321.368 202.826C321.368 199.69 322.06 197.295 323.443 195.64C324.826 193.961 326.814 193.121 329.407 193.121C330.592 193.121 331.592 193.22 332.407 193.417C333.247 193.59 334 193.85 334.667 194.195L333.815 196.751C333.247 196.43 332.617 196.183 331.926 196.01C331.234 195.813 330.493 195.714 329.703 195.714C326.196 195.714 324.443 198.085 324.443 202.826C324.443 203.765 324.529 204.666 324.702 205.531C324.9 206.37 325.208 207.124 325.628 207.79C326.073 208.432 326.641 208.951 327.332 209.346C328.048 209.741 328.925 209.939 329.962 209.939C330.851 209.939 331.642 209.803 332.333 209.531C333.049 209.26 333.63 208.951 334.074 208.605L335.037 210.865ZM348.342 204.419L345.49 204.864L340.6 212.087H337.007L341.452 205.753L342.934 204.382C341.65 204.185 340.551 203.666 339.637 202.826C338.748 201.987 338.304 200.851 338.304 199.418C338.304 198.307 338.489 197.356 338.859 196.566C339.254 195.776 339.81 195.121 340.526 194.603C341.242 194.084 342.094 193.714 343.082 193.491C344.07 193.244 345.181 193.121 346.416 193.121C347.33 193.121 348.182 193.183 348.972 193.306C349.762 193.43 350.54 193.566 351.306 193.714V212.087H348.342V204.419ZM348.342 196.085C348.021 195.961 347.663 195.875 347.268 195.825C346.873 195.751 346.527 195.714 346.231 195.714C344.65 195.714 343.44 195.998 342.601 196.566C341.786 197.134 341.378 198.035 341.378 199.27C341.378 200.382 341.81 201.246 342.675 201.863C343.564 202.456 344.724 202.752 346.157 202.752C346.182 202.752 346.219 202.752 346.268 202.752C346.317 202.752 346.416 202.752 346.564 202.752C346.713 202.752 346.922 202.752 347.194 202.752C347.466 202.728 347.849 202.703 348.342 202.678V196.085ZM90.4295 238.122L90.5407 235.826H90.4295L88.9107 238.197L80.5759 249.087H78.8719V230.566H81.8354V241.864L81.7243 244.049H81.8724L83.3171 241.753L91.652 230.566H93.393V249.087H90.4295V238.122ZM108.97 230.603C109.834 230.553 110.736 230.491 111.674 230.417C112.637 230.343 113.823 230.306 115.23 230.306C117.675 230.306 119.429 230.689 120.491 231.455C121.552 232.195 122.083 233.331 122.083 234.863C122.083 235.727 121.824 236.579 121.305 237.419C120.812 238.234 119.984 238.839 118.824 239.234V239.382C120.281 239.654 121.305 240.16 121.898 240.901C122.491 241.642 122.787 242.629 122.787 243.864C122.787 245.791 122.096 247.186 120.713 248.05C119.33 248.915 117.255 249.347 114.489 249.347C113.452 249.347 112.489 249.31 111.6 249.236C110.711 249.186 109.834 249.124 108.97 249.05V230.603ZM111.933 246.605C112.403 246.655 112.86 246.692 113.304 246.717C113.773 246.741 114.317 246.754 114.934 246.754C116.589 246.754 117.811 246.519 118.601 246.05C119.416 245.581 119.824 244.778 119.824 243.642C119.824 242.753 119.478 242.037 118.787 241.493C118.12 240.925 116.922 240.641 115.193 240.641H111.933V246.605ZM115.564 238.382C116.008 238.382 116.44 238.308 116.86 238.16C117.28 238.011 117.651 237.814 117.972 237.567C118.317 237.295 118.589 236.986 118.787 236.641C119.009 236.295 119.12 235.925 119.12 235.529C119.12 234.542 118.824 233.862 118.231 233.492C117.638 233.097 116.601 232.899 115.119 232.899C114.329 232.899 113.699 232.912 113.23 232.936C112.785 232.961 112.353 232.986 111.933 233.01V238.382H115.564ZM140.977 247.606C140.236 248.198 139.297 248.668 138.161 249.013C137.05 249.359 135.865 249.532 134.605 249.532C133.197 249.532 131.975 249.31 130.938 248.865C129.9 248.396 129.048 247.741 128.382 246.902C127.715 246.037 127.221 245.013 126.9 243.827C126.579 242.642 126.418 241.308 126.418 239.826C126.418 236.665 127.122 234.258 128.53 232.603C129.938 230.948 131.95 230.121 134.568 230.121C135.408 230.121 136.247 230.22 137.087 230.417C137.927 230.59 138.68 230.936 139.347 231.455C140.013 231.973 140.557 232.714 140.977 233.677C141.396 234.616 141.606 235.863 141.606 237.419C141.606 238.234 141.532 239.135 141.384 240.123H129.493C129.493 241.209 129.604 242.173 129.826 243.012C130.049 243.852 130.394 244.568 130.864 245.161C131.333 245.729 131.938 246.173 132.679 246.494C133.444 246.791 134.37 246.939 135.457 246.939C136.297 246.939 137.136 246.791 137.976 246.494C138.816 246.198 139.445 245.852 139.865 245.457L140.977 247.606ZM134.605 232.714C133.148 232.714 131.975 233.097 131.086 233.862C130.222 234.628 129.703 235.937 129.53 237.789H138.717C138.717 235.912 138.359 234.603 137.643 233.862C136.926 233.097 135.914 232.714 134.605 232.714ZM158.501 247.865C157.76 248.408 156.883 248.816 155.871 249.087C154.858 249.384 153.796 249.532 152.685 249.532C151.253 249.532 150.043 249.31 149.055 248.865C148.067 248.396 147.252 247.741 146.61 246.902C145.992 246.037 145.536 245.013 145.239 243.827C144.968 242.617 144.832 241.284 144.832 239.826C144.832 236.69 145.523 234.295 146.906 232.64C148.289 230.961 150.277 230.121 152.87 230.121C154.056 230.121 155.056 230.22 155.871 230.417C156.71 230.59 157.464 230.85 158.13 231.195L157.278 233.751C156.71 233.43 156.081 233.183 155.389 233.01C154.698 232.813 153.957 232.714 153.167 232.714C149.66 232.714 147.906 235.085 147.906 239.826C147.906 240.765 147.993 241.666 148.166 242.531C148.363 243.37 148.672 244.124 149.092 244.79C149.536 245.432 150.104 245.951 150.796 246.346C151.512 246.741 152.389 246.939 153.426 246.939C154.315 246.939 155.105 246.803 155.797 246.531C156.513 246.26 157.093 245.951 157.538 245.605L158.501 247.865ZM173.82 233.159H168.004V249.087H165.041V233.159H159.225V230.566H173.82V233.159ZM188.32 238.122L188.432 235.826H188.32L186.802 238.197L178.467 249.087H176.763V230.566H179.726V241.864L179.615 244.049H179.763L181.208 241.753L189.543 230.566H191.284V249.087H188.32V238.122ZM218.011 233.159H209.824V249.087H206.861V230.566H220.975V249.087H218.011V233.159ZM240.206 247.606C239.465 248.198 238.527 248.668 237.391 249.013C236.279 249.359 235.094 249.532 233.834 249.532C232.427 249.532 231.204 249.31 230.167 248.865C229.13 248.396 228.278 247.741 227.611 246.902C226.944 246.037 226.45 245.013 226.129 243.827C225.808 242.642 225.648 241.308 225.648 239.826C225.648 236.665 226.352 234.258 227.759 232.603C229.167 230.948 231.18 230.121 233.797 230.121C234.637 230.121 235.477 230.22 236.316 230.417C237.156 230.59 237.909 230.936 238.576 231.455C239.243 231.973 239.786 232.714 240.206 233.677C240.626 234.616 240.836 235.863 240.836 237.419C240.836 238.234 240.762 239.135 240.613 240.123H228.722C228.722 241.209 228.834 242.173 229.056 243.012C229.278 243.852 229.624 244.568 230.093 245.161C230.562 245.729 231.167 246.173 231.908 246.494C232.674 246.791 233.6 246.939 234.686 246.939C235.526 246.939 236.366 246.791 237.205 246.494C238.045 246.198 238.675 245.852 239.095 245.457L240.206 247.606ZM233.834 232.714C232.377 232.714 231.204 233.097 230.315 233.862C229.451 234.628 228.932 235.937 228.759 237.789H237.946C237.946 235.912 237.588 234.603 236.872 233.862C236.156 233.097 235.143 232.714 233.834 232.714ZM245.496 230.566H247.534L248.089 232.788H248.238C248.806 231.924 249.534 231.269 250.423 230.825C251.337 230.356 252.374 230.121 253.535 230.121C256.004 230.121 257.844 230.85 259.054 232.307C260.264 233.764 260.869 236.147 260.869 239.456C260.869 241.012 260.66 242.42 260.24 243.679C259.845 244.914 259.277 245.963 258.536 246.828C257.795 247.692 256.893 248.359 255.832 248.828C254.794 249.297 253.634 249.532 252.349 249.532C251.436 249.532 250.707 249.47 250.164 249.347C249.645 249.248 249.077 249.063 248.46 248.791V256.496H245.496V230.566ZM252.979 232.714C251.72 232.714 250.719 233.047 249.979 233.714C249.262 234.356 248.756 235.344 248.46 236.678V245.865C248.904 246.21 249.411 246.482 249.979 246.68C250.547 246.852 251.3 246.939 252.238 246.939C253.942 246.939 255.288 246.309 256.276 245.05C257.289 243.765 257.795 241.889 257.795 239.419C257.795 238.406 257.708 237.493 257.536 236.678C257.363 235.838 257.079 235.134 256.684 234.566C256.313 233.974 255.819 233.517 255.202 233.196C254.609 232.875 253.868 232.714 252.979 232.714ZM279.058 247.606C278.318 248.198 277.379 248.668 276.243 249.013C275.132 249.359 273.946 249.532 272.687 249.532C271.279 249.532 270.057 249.31 269.02 248.865C267.982 248.396 267.13 247.741 266.464 246.902C265.797 246.037 265.303 245.013 264.982 243.827C264.661 242.642 264.5 241.308 264.5 239.826C264.5 236.665 265.204 234.258 266.612 232.603C268.019 230.948 270.032 230.121 272.65 230.121C273.49 230.121 274.329 230.22 275.169 230.417C276.009 230.59 276.762 230.936 277.429 231.455C278.095 231.973 278.639 232.714 279.058 233.677C279.478 234.616 279.688 235.863 279.688 237.419C279.688 238.234 279.614 239.135 279.466 240.123H267.575C267.575 241.209 267.686 242.173 267.908 243.012C268.131 243.852 268.476 244.568 268.946 245.161C269.415 245.729 270.02 246.173 270.761 246.494C271.526 246.791 272.452 246.939 273.539 246.939C274.379 246.939 275.218 246.791 276.058 246.494C276.898 246.198 277.527 245.852 277.947 245.457L279.058 247.606ZM272.687 232.714C271.23 232.714 270.057 233.097 269.168 233.862C268.303 234.628 267.785 235.937 267.612 237.789H276.799C276.799 235.912 276.441 234.603 275.725 233.862C275.008 233.097 273.996 232.714 272.687 232.714ZM295.499 233.159H287.312V249.087H284.349V230.566H298.462V249.087H295.499V233.159ZM315.731 238.122L315.842 235.826H315.731L314.212 238.197L305.877 249.087H304.173V230.566H307.136V241.864L307.025 244.049H307.174L308.618 241.753L316.953 230.566H318.694V249.087H315.731V238.122ZM337.027 247.865C336.286 248.408 335.409 248.816 334.397 249.087C333.384 249.384 332.322 249.532 331.211 249.532C329.779 249.532 328.569 249.31 327.581 248.865C326.593 248.396 325.778 247.741 325.136 246.902C324.519 246.037 324.062 245.013 323.765 243.827C323.494 242.617 323.358 241.284 323.358 239.826C323.358 236.69 324.049 234.295 325.432 232.64C326.815 230.961 328.803 230.121 331.396 230.121C332.582 230.121 333.582 230.22 334.397 230.417C335.237 230.59 335.99 230.85 336.657 231.195L335.805 233.751C335.237 233.43 334.607 233.183 333.915 233.01C333.224 232.813 332.483 232.714 331.693 232.714C328.186 232.714 326.432 235.085 326.432 239.826C326.432 240.765 326.519 241.666 326.692 242.531C326.889 243.37 327.198 244.124 327.618 244.79C328.062 245.432 328.63 245.951 329.322 246.346C330.038 246.741 330.915 246.939 331.952 246.939C332.841 246.939 333.631 246.803 334.323 246.531C335.039 246.26 335.619 245.951 336.064 245.605L337.027 247.865ZM345.776 240.753H344.072V249.087H341.108V230.566H344.072V238.937L345.665 238.419L351.592 230.566H354.814L349.073 238.011L347.517 239.234L349.443 240.716L355.629 249.087H351.962L345.776 240.753ZM364.243 242.568L365.281 246.124H365.466L366.281 242.531L369.874 230.566H372.875L367.392 247.198C366.972 248.408 366.553 249.581 366.133 250.717C365.738 251.853 365.293 252.866 364.799 253.755C364.305 254.644 363.75 255.348 363.132 255.866C362.515 256.41 361.799 256.681 360.984 256.681C360.095 256.681 359.366 256.558 358.798 256.311L359.317 253.755C359.638 253.878 359.946 253.94 360.243 253.94C360.934 253.94 361.601 253.57 362.243 252.829C362.885 252.113 363.416 250.866 363.836 249.087L356.39 230.566H359.798L364.243 242.568Z" fill="white"/>
<defs>
<linearGradient id="paint0_linear_216_2954" x1="578.807" y1="104.39" x2="578.984" y2="104.277" gradientUnits="userSpaceOnUse">
<stop offset="0.0014" stop-color="#FFFCE9"/>
<stop offset="0.9609" stop-color="#FF938D"/>
</linearGradient>
</defs>
</svg>
