<svg width="42" height="42" viewBox="0 0 42 42" fill="none" xmlns="http://www.w3.org/2000/svg">
<path d="M20.125 42H21.875C31.395 42 36.1375 42 39.0775 39.06C42 36.12 42 31.36 42 21.875V20.09C42 10.64 42 5.88 39.0775 2.94C36.1375 0 31.3775 0 21.875 0H20.125C10.605 0 5.8625 0 2.9225 2.94C0 5.88 0 10.64 0 20.125V21.91C0 31.36 0 36.12 2.94 39.06C5.88 42 10.64 42 20.125 42Z" fill="#0077FF"/>
<path d="M22.3469 30.2575C12.7744 30.2575 7.31441 23.695 7.08691 12.775H11.8819C12.0394 20.79 15.5744 24.185 18.3744 24.885V12.775H22.8894V19.6875C25.6544 19.39 28.5594 16.24 29.5394 12.775H34.0544C33.6851 14.572 32.949 16.2735 31.8921 17.7731C30.8352 19.2726 29.4802 20.538 27.9119 21.49C29.6625 22.3598 31.2087 23.591 32.4485 25.1023C33.6883 26.6136 34.5935 28.3706 35.1044 30.2575H30.1344C29.6758 28.6186 28.7437 27.1516 27.4549 26.0402C26.166 24.9289 24.5779 24.2226 22.8894 24.01V30.2575H22.3469V30.2575Z" fill="white"/>
</svg>
