<svg width="42" height="42" viewBox="0 0 42 42" fill="none" xmlns="http://www.w3.org/2000/svg">
<path d="M41.1224 10.6206C40.6393 8.80187 39.2161 7.36939 37.409 6.88319C34.1337 6 21 6 21 6C21 6 7.86627 6 4.5908 6.88328C2.78379 7.36948 1.36062 8.80187 0.877621 10.6207C-8.7075e-08 13.9172 0 20.7955 0 20.7955C0 20.7955 -8.7075e-08 27.6738 0.877621 30.9703C1.36062 32.7891 2.78379 34.1618 4.5908 34.6481C7.86627 35.5313 21 35.5313 21 35.5313C21 35.5313 34.1337 35.5313 37.409 34.648C39.2161 34.1618 40.6393 32.789 41.1224 30.9702C42 27.6737 42 20.7954 42 20.7954C42 20.7954 42 13.9172 41.1224 10.6206Z" fill="#FF0000"/>
<path d="M16.7041 27.0404V14.5505L27.6813 20.7956L16.7041 27.0404Z" fill="white"/>
</svg>
