<svg width="42" height="42" viewBox="0 0 42 42" fill="none" xmlns="http://www.w3.org/2000/svg">
<g clip-path="url(#clip0_314_9579)">
<path d="M21 42C32.598 42 42 32.598 42 21C42 9.40202 32.598 0 21 0C9.40202 0 0 9.40202 0 21C0 32.598 9.40202 42 21 42Z" fill="url(#paint0_linear_314_9579)"/>
<path d="M31.221 12.0832L27.4722 30.9914C27.4722 30.9914 26.9472 32.3039 25.5034 31.6722L16.8491 25.0359L13.6991 23.5183L8.3999 21.7382C8.3999 21.7382 7.58779 21.4511 7.50576 20.8195C7.42373 20.1879 8.42451 19.8515 8.42451 19.8515L29.4901 11.591C29.4901 11.5828 31.221 10.8199 31.221 12.0832Z" fill="white"/>
<path d="M16.1766 30.7781C16.1766 30.7781 15.9223 30.7534 15.6105 29.7609C15.2988 28.7683 13.6992 23.5183 13.6992 23.5183L26.4223 15.4382C26.4223 15.4382 27.1605 14.9952 27.1277 15.4382C27.1277 15.4382 27.259 15.5202 26.8652 15.8812C26.4715 16.2503 16.8738 24.88 16.8738 24.88" fill="#D2E4F0"/>
<path d="M20.1631 27.5789L16.7424 30.7043C16.7424 30.7043 16.4717 30.9094 16.1846 30.7781L16.8408 24.9785" fill="#B5CFE4"/>
</g>
<defs>
<linearGradient id="paint0_linear_314_9579" x1="21" y1="0" x2="21" y2="41.8468" gradientUnits="userSpaceOnUse">
<stop stop-color="#41BCE7"/>
<stop offset="1" stop-color="#22A6DC"/>
</linearGradient>
<clipPath id="clip0_314_9579">
<rect width="42" height="42" fill="white"/>
</clipPath>
</defs>
</svg>
