<svg width="42" height="42" viewBox="0 0 42 42" fill="none" xmlns="http://www.w3.org/2000/svg">
<path d="M30.0632 27.3899C27.8163 28.8168 24.7247 29.3825 22.6827 29.5958L24.3966 31.2851L30.6536 37.5422C32.9416 39.8876 29.2184 43.5532 26.906 41.2899C25.3397 39.6989 23.0433 37.4028 20.6489 35.0082L14.3918 41.2817C12.0793 43.5369 8.35623 39.8382 10.6688 37.5339C12.2597 35.9429 14.5313 33.6468 16.9258 31.2769L18.6151 29.5876C16.5979 29.3743 13.4571 28.8413 11.1854 27.3819C8.51199 25.6596 7.33936 24.6509 8.37257 22.5433C8.97938 21.3461 10.6441 20.3374 12.8501 22.076C12.8501 22.076 15.8269 24.4459 20.6324 24.4459C25.4379 24.4459 28.4147 22.076 28.4147 22.076C30.6206 20.3455 32.2772 21.3461 32.8922 22.5433C33.9094 24.6509 32.7367 25.6596 30.0632 27.3899ZM9.98821 10.6361C9.98821 4.75634 14.7691 0 20.6244 0C26.4797 0 31.2605 4.75634 31.2605 10.6361C31.2605 16.4914 26.4797 21.2476 20.6244 21.2476C14.7691 21.2476 9.98821 16.4914 9.98821 10.6361ZM15.4007 10.6361C15.4007 13.5145 17.746 15.8598 20.6244 15.8598C23.5026 15.8598 25.8482 13.5145 25.8482 10.6361C25.8482 7.73306 23.5027 5.38781 20.6244 5.38781C17.7459 5.38781 15.4007 7.73306 15.4007 10.6361Z" fill="#FF7E00"/>
</svg>
