<svg width="42" height="42" viewBox="0 0 42 42" fill="none" xmlns="http://www.w3.org/2000/svg">
<g clip-path="url(#clip0_314_9602)">
<path fill-rule="evenodd" clip-rule="evenodd" d="M15.1312 10.667C14.724 9.69183 14.4152 9.65475 13.7983 9.62981C13.5883 9.61767 13.3544 9.60553 13.0948 9.60553C12.2922 9.60553 11.4532 9.84014 10.9469 10.3586C10.33 10.9883 8.79933 12.4573 8.79933 15.4695C8.79933 18.482 10.9961 21.3954 11.2924 21.8032C11.6012 22.2101 15.5754 28.4819 21.7465 31.038C26.5722 33.0379 28.0042 32.8525 29.1024 32.6182C30.7069 32.2727 32.7187 31.0869 33.225 29.6553C33.7309 28.223 33.7309 27.0008 33.5826 26.7415C33.4346 26.4823 33.0271 26.3347 32.4102 26.0256C31.7933 25.7168 28.794 24.2353 28.2263 24.0378C27.6708 23.8281 27.1402 23.9023 26.7209 24.4949C26.1283 25.3221 25.5485 26.1617 25.0792 26.6677C24.7091 27.0628 24.1041 27.1123 23.5981 26.9023C22.9192 26.6188 21.0187 25.9514 18.6736 23.8652C16.8591 22.2482 15.625 20.2361 15.2673 19.6311C14.9093 19.0139 15.2302 18.6555 15.5141 18.3225C15.8228 17.9396 16.1188 17.6682 16.4272 17.3099C16.736 16.9519 16.9086 16.7669 17.1061 16.3469C17.3161 15.9397 17.1678 15.5197 17.0198 15.2109C16.8715 14.9015 15.6375 11.889 15.1312 10.667ZM20.9938 0C9.41686 0 0 9.41948 0 20.9997C0 25.5921 1.48116 29.8515 3.99886 33.3083L1.38206 41.1108L9.45394 38.5311C12.7739 40.7285 16.7357 42 21.0062 42C32.5831 42 42 32.5799 42 21.0003C42 9.42014 32.5831 0.00065625 21.0062 0.00065625H20.9941V0H20.9938Z" fill="#67C15E"/>
</g>
<defs>
<clipPath id="clip0_314_9602">
<rect width="42" height="42" fill="white"/>
</clipPath>
</defs>
</svg>
