<svg width="805" height="317" viewBox="0 0 805 317" fill="none" xmlns="http://www.w3.org/2000/svg">
<rect x="2" y="1.78418" width="801.427" height="313.892" fill="white"/>
<mask id="mask0_216_1604" style="mask-type:luminance" maskUnits="userSpaceOnUse" x="2" y="1" width="802" height="315">
<rect x="2" y="1.78418" width="801.427" height="313.892" fill="white"/>
</mask>
<g mask="url(#mask0_216_1604)">
<mask id="mask1_216_1604" style="mask-type:luminance" maskUnits="userSpaceOnUse" x="2" y="-12" width="802" height="342">
<rect x="2" y="-11.573" width="801.427" height="340.606" fill="white"/>
</mask>
<g mask="url(#mask1_216_1604)">
<rect x="1.99902" y="-11.573" width="801.427" height="340.606" fill="white"/>
<rect x="-12.3594" y="-20.8562" width="825.336" height="355.566" fill="#189594"/>
<path d="M92.7794 84.2011C92.5969 79.1452 91.351 74.1845 89.1229 69.6424C81.6508 54.5059 64.6226 46.6431 48.2548 50.7716C31.8871 54.9001 20.6252 69.8985 21.2261 86.7682C21.4085 91.8241 22.6544 96.7848 24.8825 101.327C36.6204 100.748 48.2648 98.9354 59.6232 95.9188C71.0556 93.1866 82.1689 89.2591 92.7794 84.2011Z" fill="#1B80FD"/>
<mask id="mask2_216_1604" style="mask-type:luminance" maskUnits="userSpaceOnUse" x="21" y="49" width="72" height="53">
<path fill-rule="evenodd" clip-rule="evenodd" d="M92.7794 84.2011C92.5969 79.1452 91.351 74.1845 89.1229 69.6424C81.6508 54.5059 64.6226 46.6431 48.2548 50.7716C31.8871 54.9001 20.6252 69.8985 21.2261 86.7682C21.4085 91.8241 22.6544 96.7848 24.8825 101.327C36.6204 100.748 48.2648 98.9354 59.6232 95.9188C71.0556 93.1866 82.1689 89.2591 92.7794 84.2011Z" fill="white"/>
</mask>
<g mask="url(#mask2_216_1604)">
<path d="M33.9598 44.7797C110.151 49.3008 94.5079 91.1806 40.1789 99.867C-14.1502 108.553 111.98 94.1343 111.98 94.1343L109.92 52.567L52.1438 41.3218L36.7214 49.1294" fill="#1D62FC"/>
</g>
<path fill-rule="evenodd" clip-rule="evenodd" d="M92.7794 84.2011C92.5969 79.1452 91.351 74.1845 89.1229 69.6424C81.6508 54.5059 64.6226 46.6431 48.2548 50.7716C31.8871 54.9001 20.6252 69.8985 21.2261 86.7682C21.4085 91.8241 22.6544 96.7848 24.8825 101.327C36.6204 100.748 48.2648 98.9354 59.6232 95.9188C71.0556 93.1866 82.1689 89.2591 92.7794 84.2011V84.2011Z" stroke="black" stroke-width="2.13714" stroke-linecap="round" stroke-linejoin="round"/>
<path d="M27.8242 106.268C36.3663 118.321 51.4383 123.884 65.7626 120.271C80.0869 116.658 90.7174 104.612 92.5209 89.95C72.0191 98.9676 50.1503 104.484 27.8242 106.268Z" fill="#1B80FD"/>
<path fill-rule="evenodd" clip-rule="evenodd" d="M27.8242 106.268C36.3663 118.321 51.4383 123.884 65.7626 120.271C80.0869 116.658 90.7174 104.612 92.5209 89.95C72.0191 98.9676 50.1503 104.484 27.8242 106.268Z" stroke="black" stroke-width="2.13714" stroke-linecap="round" stroke-linejoin="round"/>
<path d="M111.797 71.6632C110.587 66.8464 103.831 64.4382 91.7155 64.5083C89.9506 64.5184 88.0971 64.5865 86.1803 64.7007C87.2928 66.2657 88.2769 67.9183 89.1227 69.6422C100.158 69.2868 106.408 70.921 106.904 72.8974C107.399 74.8739 102.666 79.2787 92.7772 84.2008C82.1667 89.2588 71.0535 93.1863 59.621 95.9185C48.2626 98.9351 36.6182 100.748 24.8803 101.327C13.8452 101.682 7.59516 100.048 7.09934 98.0714C6.60352 96.095 11.3366 91.6902 21.2248 86.7679C21.1558 84.8478 21.242 82.9252 21.4827 81.019C19.7401 81.8279 18.075 82.6473 16.516 83.4767C5.81086 89.1615 0.996956 94.489 2.20679 99.3058C3.41662 104.123 10.173 106.531 22.2882 106.461C24.053 106.451 25.9066 106.383 27.8234 106.269C50.1495 104.484 72.0183 98.9677 92.5201 89.9501C94.2627 89.141 95.9276 88.3216 97.4868 87.4924C108.193 81.8067 113.006 76.4804 111.797 71.6632Z" fill="#FACCC4"/>
<mask id="mask3_216_1604" style="mask-type:luminance" maskUnits="userSpaceOnUse" x="2" y="64" width="110" height="43">
<path fill-rule="evenodd" clip-rule="evenodd" d="M111.797 71.6632C110.587 66.8464 103.831 64.4382 91.7155 64.5083C89.9506 64.5184 88.0971 64.5865 86.1803 64.7007C87.2928 66.2657 88.2769 67.9183 89.1227 69.6422C100.158 69.2868 106.408 70.921 106.904 72.8974C107.399 74.8739 102.666 79.2787 92.7772 84.2008C82.1667 89.2588 71.0535 93.1863 59.621 95.9185C48.2626 98.9351 36.6182 100.748 24.8803 101.327C13.8452 101.682 7.59516 100.048 7.09934 98.0714C6.60352 96.095 11.3366 91.6902 21.2248 86.7679C21.1558 84.8478 21.242 82.9252 21.4827 81.019C19.7401 81.8279 18.075 82.6473 16.516 83.4767C5.81086 89.1615 0.996956 94.489 2.20679 99.3058C3.41662 104.123 10.173 106.531 22.2882 106.461C24.053 106.451 25.9066 106.383 27.8234 106.269C50.1495 104.484 72.0183 98.9677 92.5201 89.9501C94.2627 89.141 95.9276 88.3216 97.4868 87.4924C108.193 81.8067 113.006 76.4804 111.797 71.6632Z" fill="white"/>
</mask>
<g mask="url(#mask3_216_1604)">
<path d="M-6.09473 85.484C27.5124 80.1784 24.2898 95.3063 24.2898 95.3063L32.5764 76.5189L19.2257 73.7471" fill="#ED707B"/>
<path d="M77.0026 59.425C93.8063 61.7235 95.6477 73.7471 95.6477 73.7471L81.3763 76.5189L76.7725 72.1045" fill="#ED707B"/>
</g>
<path fill-rule="evenodd" clip-rule="evenodd" d="M111.797 71.6632C110.587 66.8464 103.831 64.4382 91.7155 64.5083C89.9506 64.5184 88.0971 64.5865 86.1803 64.7007C87.2928 66.2657 88.2769 67.9183 89.1227 69.6422C100.158 69.2868 106.408 70.921 106.904 72.8974C107.399 74.8739 102.666 79.2787 92.7772 84.2008C82.1667 89.2588 71.0535 93.1863 59.621 95.9185C48.2626 98.9351 36.6182 100.748 24.8803 101.327C13.8452 101.682 7.59516 100.048 7.09934 98.0714C6.60352 96.095 11.3366 91.6902 21.2248 86.7679C21.1558 84.8478 21.242 82.9252 21.4827 81.019C19.7401 81.8279 18.075 82.6473 16.516 83.4767C5.81086 89.1615 0.996956 94.4889 2.20679 99.3058C3.41662 104.123 10.173 106.531 22.2882 106.461C24.053 106.451 25.9066 106.383 27.8234 106.269C50.1495 104.484 72.0183 98.9677 92.5201 89.9501C94.2627 89.141 95.9276 88.3216 97.4868 87.4924C108.193 81.8067 113.006 76.4804 111.797 71.6632Z" stroke="black" stroke-width="2.13714" stroke-linecap="round" stroke-linejoin="round"/>
<path d="M52.7719 67.0256C52.4923 69.0779 51.7534 71.0407 50.6104 72.7679" stroke="black" stroke-width="2.13714" stroke-linecap="round" stroke-linejoin="round"/>
<path d="M73.6692 105.336L69.7168 108.047" stroke="black" stroke-width="2.13714" stroke-linecap="round" stroke-linejoin="round"/>
<rect x="49.5137" y="292.423" width="200.861" height="36.927" fill="#FDD504"/>
<mask id="mask4_216_1604" style="mask-type:luminance" maskUnits="userSpaceOnUse" x="49" y="292" width="202" height="38">
<rect x="49.5127" y="292.423" width="200.861" height="36.927" fill="white"/>
</mask>
<g mask="url(#mask4_216_1604)">
<rect x="74.6768" y="286.119" width="25.6132" height="48.1852" fill="#E43334" stroke="black" stroke-width="2.13714" stroke-linecap="round" stroke-linejoin="round"/>
<path d="M125.647 290.64C117.127 298.328 267.899 306.024 270.595 323.021C273.291 340.019 260.92 278.294 260.92 278.294L241.274 279.794" fill="#FCB006"/>
</g>
<rect x="49.5137" y="292.423" width="200.861" height="36.927" stroke="black" stroke-width="2.13714" stroke-linecap="round" stroke-linejoin="round"/>
<rect x="302.504" y="243.187" width="200.861" height="36.927" transform="rotate(-180 302.504 243.187)" fill="#E43334"/>
<mask id="mask5_216_1604" style="mask-type:luminance" maskUnits="userSpaceOnUse" x="101" y="206" width="202" height="38">
<rect x="302.503" y="243.187" width="200.861" height="36.927" transform="rotate(-180 302.503 243.187)" fill="white"/>
</mask>
<g mask="url(#mask5_216_1604)">
<rect x="277.341" y="248.141" width="25.6132" height="48.1852" transform="rotate(-180 277.341 248.141)" fill="white" stroke="black" stroke-width="2.13714" stroke-linecap="round" stroke-linejoin="round"/>
<rect x="245.144" y="248.141" width="4.79317" height="48.1852" transform="rotate(-180 245.144 248.141)" fill="white" stroke="black" stroke-width="2.13714" stroke-linecap="round" stroke-linejoin="round"/>
<path d="M99.4517 235.281C92.8612 240.985 228.566 240.985 225.57 243.387C222.574 245.789 104.843 252.394 104.843 252.394L94.0586 236.782" fill="#C11F27"/>
</g>
<rect x="302.504" y="243.187" width="200.861" height="36.927" transform="rotate(-180 302.504 243.187)" stroke="black" stroke-width="2.13714" stroke-linecap="round" stroke-linejoin="round"/>
<path d="M291.075 266.304H113.07C120.002 272.496 113.07 290.284 113.07 290.284H291.075C291.075 290.284 284.143 272.496 291.075 266.304Z" fill="white"/>
<mask id="mask6_216_1604" style="mask-type:luminance" maskUnits="userSpaceOnUse" x="113" y="266" width="179" height="25">
<path fill-rule="evenodd" clip-rule="evenodd" d="M291.076 266.304H113.071C120.003 272.496 113.071 290.284 113.071 290.284H291.076C291.076 290.284 284.144 272.496 291.076 266.304Z" fill="white"/>
</mask>
<g mask="url(#mask6_216_1604)">
<path d="M110.609 275.585L114.204 275.647L175.766 276.711L107.015 278.295" fill="#D6DCF2"/>
<path d="M318.75 282.46L315.157 282.398L253.595 281.334L322.344 279.75" fill="#D6DCF2"/>
</g>
<path fill-rule="evenodd" clip-rule="evenodd" d="M291.075 266.304H113.07C120.002 272.496 113.07 290.284 113.07 290.284H291.075C291.075 290.284 284.143 272.496 291.075 266.304Z" stroke="black" stroke-width="2.13714" stroke-linecap="round" stroke-linejoin="round"/>
<rect x="106.138" y="261.801" width="191.874" height="6.75485" fill="#1AB995" stroke="black" stroke-width="2.13714" stroke-linecap="round" stroke-linejoin="round"/>
<rect x="106.138" y="285.668" width="191.874" height="6.75485" fill="#1AB995" stroke="black" stroke-width="2.13714" stroke-linecap="round" stroke-linejoin="round"/>
<rect x="57.001" y="252.494" width="213.592" height="11.4083" fill="#7A24EA"/>
<mask id="mask7_216_1604" style="mask-type:luminance" maskUnits="userSpaceOnUse" x="57" y="252" width="214" height="12">
<rect x="57.002" y="252.494" width="213.592" height="11.4083" fill="white"/>
</mask>
<g mask="url(#mask7_216_1604)">
<path d="M163.798 250.592C134.201 260.049 272.602 254.995 276.646 258.198C280.69 261.401 279.342 248.891 279.342 248.891L239.799 244.288" fill="#6B1AD3"/>
</g>
<rect x="57.001" y="252.494" width="213.592" height="11.4083" stroke="black" stroke-width="2.13714" stroke-linecap="round" stroke-linejoin="round"/>
<rect x="74.376" y="243.187" width="213.592" height="11.4083" fill="#1A80FD" stroke="black" stroke-width="2.13714" stroke-linecap="round" stroke-linejoin="round"/>
<path d="M172.796 313.984L177.213 317.5" stroke="black" stroke-width="2.13714" stroke-linecap="round" stroke-linejoin="round"/>
<path d="M161.405 223.793L169.328 222.864" stroke="black" stroke-width="2.13714" stroke-linecap="round" stroke-linejoin="round"/>
<rect x="310.065" y="205.007" width="236.772" height="43.529" transform="rotate(-180 310.065 205.007)" fill="#E43334"/>
<mask id="mask8_216_1604" style="mask-type:luminance" maskUnits="userSpaceOnUse" x="73" y="161" width="238" height="45">
<rect x="310.063" y="205.007" width="236.772" height="43.529" transform="rotate(-180 310.063 205.007)" fill="white"/>
</mask>
<g mask="url(#mask8_216_1604)">
<rect x="280.401" y="210.847" width="30.1924" height="56.8" transform="rotate(-180 280.401 210.847)" fill="white" stroke="black" stroke-width="2.13714" stroke-linecap="round" stroke-linejoin="round"/>
<rect x="242.446" y="210.847" width="5.64995" height="56.8" transform="rotate(-180 242.446 210.847)" fill="white" stroke="black" stroke-width="2.13714" stroke-linecap="round" stroke-linejoin="round"/>
<path d="M70.7078 195.688C62.9391 202.412 222.906 202.412 219.375 205.243C215.843 208.074 77.0641 215.86 77.0641 215.86L64.3516 197.458" fill="#C11F27"/>
<path d="M158.311 165.623C145.668 165.148 230.334 194.906 232.717 195.437C235.101 195.968 229.024 176.505 229.024 176.505L212.074 171.728" fill="#C11F27"/>
</g>
<rect x="310.065" y="205.007" width="236.772" height="43.529" transform="rotate(-180 310.065 205.007)" stroke="black" stroke-width="2.13714" stroke-linecap="round" stroke-linejoin="round"/>
<path d="M124.854 160.385L247.036 188.343C247.036 188.343 249.508 163.216 254.805 160.385H124.854Z" fill="white" stroke="black" stroke-width="2.13714" stroke-linecap="round" stroke-linejoin="round"/>
<path d="M285.979 106.065H107.511C114.461 120.091 107.511 160.385 107.511 160.385H285.979C285.979 160.385 279.029 120.091 285.979 106.065Z" fill="white"/>
<mask id="mask9_216_1604" style="mask-type:luminance" maskUnits="userSpaceOnUse" x="107" y="106" width="179" height="55">
<path fill-rule="evenodd" clip-rule="evenodd" d="M285.98 106.064H107.512C114.462 120.091 107.512 160.385 107.512 160.385H285.98C285.98 160.385 279.03 120.091 285.98 106.064Z" fill="white"/>
</mask>
<g mask="url(#mask9_216_1604)">
<path d="M105.045 127.09L108.648 127.231L170.371 129.64L101.439 133.226" fill="#D6DCF2"/>
<path d="M313.725 142.661L310.122 142.52L248.399 140.11L317.331 136.526" fill="#D6DCF2"/>
<path d="M315.527 116.71L311.924 116.569L118.06 114.092L319.132 110.574" fill="#D6DCF2"/>
</g>
<path fill-rule="evenodd" clip-rule="evenodd" d="M285.979 106.065H107.511C114.461 120.091 107.511 160.385 107.511 160.385H285.979C285.979 160.385 279.029 120.091 285.979 106.065Z" stroke="black" stroke-width="2.13714" stroke-linecap="round" stroke-linejoin="round"/>
<rect x="100.559" y="95.8635" width="192.373" height="10.201" fill="#1AB995" stroke="black" stroke-width="2.13714" stroke-linecap="round" stroke-linejoin="round"/>
<rect x="100.559" y="151.329" width="192.373" height="10.201" fill="#1AB995"/>
<mask id="mask10_216_1604" style="mask-type:luminance" maskUnits="userSpaceOnUse" x="100" y="151" width="193" height="11">
<rect x="100.558" y="151.329" width="192.373" height="10.201" fill="white"/>
</mask>
<g mask="url(#mask10_216_1604)">
<path d="M93.1596 160.386C107.51 160.386 265.486 157.688 266.546 161.53C267.605 165.372 110.463 171.034 110.463 171.034L78.5898 160.386" fill="#1AB995"/>
<path d="M93.1596 160.386C107.51 160.386 265.486 157.688 266.546 161.53C267.605 165.372 110.463 171.034 110.463 171.034L78.5898 160.386" stroke="black" stroke-width="2.13714" stroke-linecap="round" stroke-linejoin="round"/>
</g>
<rect x="100.559" y="151.329" width="192.373" height="10.201" stroke="black" stroke-width="2.13714" stroke-linecap="round" stroke-linejoin="round"/>
<path d="M217.364 136.914L230.56 134.173" stroke="black" stroke-width="2.13714" stroke-linecap="round" stroke-linejoin="round"/>
<path d="M123.944 186.167H136.278" stroke="black" stroke-width="2.13714" stroke-linecap="round" stroke-linejoin="round"/>
<path d="M151.733 34.9257L254.54 1.42603L195.243 46.5538L151.733 34.9257Z" fill="#1AB995"/>
<path fill-rule="evenodd" clip-rule="evenodd" d="M151.733 34.9257L254.54 1.42603L195.243 46.5538L151.733 34.9257V34.9257Z" stroke="black" stroke-width="2.13714" stroke-linecap="round" stroke-linejoin="round"/>
<path d="M195.245 72.4688V46.5538L254.542 1.42603L195.245 72.4688Z" fill="#0FA379" stroke="black" stroke-width="2.13714" stroke-linecap="round" stroke-linejoin="round"/>
<path d="M224.894 48.3408L203.717 50.1275L195.245 72.4691L211.921 52.489" fill="#0FA379"/>
<path d="M224.894 48.3408L203.717 50.1275L195.245 72.4691L211.921 52.489" stroke="black" stroke-width="2.13714" stroke-linecap="round" stroke-linejoin="round"/>
<path d="M203.715 50.1271L238.79 60.2208L254.54 1.42603L203.715 50.1271Z" fill="#1AB995"/>
<mask id="mask11_216_1604" style="mask-type:luminance" maskUnits="userSpaceOnUse" x="203" y="1" width="52" height="60">
<path fill-rule="evenodd" clip-rule="evenodd" d="M203.715 50.1271L238.79 60.2208L254.54 1.42603L203.715 50.1271Z" fill="white"/>
</mask>
<g mask="url(#mask11_216_1604)">
<path d="M254.541 -2.80902C238.549 65.9993 233.972 53.6178 200.914 48.3406C167.855 43.0634 217.443 75.1739 217.443 75.1739L251.009 80.5257L261.69 33.124L259.146 -5.10303" fill="#0FA379"/>
</g>
<path fill-rule="evenodd" clip-rule="evenodd" d="M203.715 50.1271L238.79 60.2208L254.54 1.42603L203.715 50.1271V50.1271Z" stroke="black" stroke-width="2.13714" stroke-linecap="round" stroke-linejoin="round"/>
<path d="M185.151 31.4272C183.79 32.7136 182.328 33.888 180.778 34.939" stroke="black" stroke-width="2.13714" stroke-linecap="round" stroke-linejoin="round"/>
<path d="M245.156 17.6316L244.908 18.3982" stroke="black" stroke-width="2.13714" stroke-linecap="round" stroke-linejoin="round"/>
<path d="M271.602 119.826C270.353 118.617 268.758 117.83 267.039 117.574L252.264 115.201C249.322 114.733 246.339 115.749 244.296 117.917C242.252 120.084 241.412 123.122 242.052 126.031L245.405 141.373L245.356 142.305L245.572 142.139L246.523 146.489C246.523 146.489 255.689 151.704 269.043 138.649C278.501 129.402 274.651 122.857 271.602 119.826Z" fill="#485065" stroke="black" stroke-width="2.13714" stroke-linecap="round" stroke-linejoin="round"/>
<path d="M249.606 136.453L238.639 152.77L251.543 165.112L264.269 140.761L249.606 136.453Z" fill="#F9C1BB"/>
<mask id="mask12_216_1604" style="mask-type:luminance" maskUnits="userSpaceOnUse" x="238" y="136" width="27" height="30">
<path fill-rule="evenodd" clip-rule="evenodd" d="M249.607 136.453L238.64 152.77L251.544 165.112L264.27 140.761L249.607 136.453Z" fill="white"/>
</mask>
<g mask="url(#mask12_216_1604)">
<path d="M254.404 142.117C258.411 147.581 254.588 152.992 257.629 154.708C261.08 156.655 263.784 151.945 263.784 151.945L265.167 144.433L254.259 139.824" fill="#ED707B"/>
</g>
<path fill-rule="evenodd" clip-rule="evenodd" d="M249.606 136.453L238.639 152.77L251.543 165.112L264.269 140.761L249.606 136.453V136.453Z" stroke="black" stroke-width="2.13714" stroke-linecap="round" stroke-linejoin="round"/>
<path d="M255.788 146.232C259.988 147.733 267.13 149.069 268.891 146.931C273.085 141.841 271.98 126.359 267.433 122.338C270.635 141.617 253.147 136.326 253.147 136.326L252.621 136.729L252.52 138.805" fill="#F9C1BB"/>
<path d="M255.788 146.232C259.988 147.733 267.13 149.069 268.891 146.931C273.085 141.841 271.98 126.359 267.433 122.338C270.635 141.617 253.147 136.326 253.147 136.326L252.621 136.729L252.52 138.805" stroke="black" stroke-width="2.13714" stroke-linecap="round" stroke-linejoin="round"/>
<path d="M258.363 138.14C251.096 127.03 245.59 137.389 250.362 141.156L258.363 138.14Z" fill="#F9C1BB"/>
<path d="M258.363 138.14C251.096 127.03 245.59 137.389 250.362 141.156" stroke="black" stroke-width="2.13714" stroke-linecap="round" stroke-linejoin="round"/>
<path d="M338.695 251.386H261.025L252.31 222.028L349.836 224.215L338.695 251.386Z" fill="#1AB995" stroke="black" stroke-width="2.13714" stroke-linecap="round" stroke-linejoin="round"/>
<path d="M311.16 141.526L297.752 162.656L307.779 172.419L321.536 151.885L311.16 141.526Z" fill="#485065" stroke="black" stroke-width="2.13714" stroke-linecap="round" stroke-linejoin="round"/>
<path d="M311.243 142.755L298.339 162.644L307.014 170.404L320.383 152.424L311.243 142.755Z" fill="white" stroke="black" stroke-width="2.13714" stroke-linecap="round" stroke-linejoin="round"/>
<path d="M321.536 151.885L315.729 148.269L299.876 169.752L307.779 172.164L321.536 151.885Z" fill="#485065" stroke="black" stroke-width="2.13714" stroke-linecap="round" stroke-linejoin="round"/>
<path d="M321.536 151.885L315.729 148.523L299.876 170.006L307.779 172.419L321.536 151.885Z" fill="#485065" stroke="black" stroke-width="2.13714" stroke-linecap="round" stroke-linejoin="round"/>
<path d="M355.44 320.687L349.046 318.371C348.067 318.045 347.423 317.109 347.467 316.078L348.089 306.23L332.474 306.613L331.099 324.847C331.068 325.691 331.393 326.51 331.994 327.104C332.596 327.698 333.419 328.012 334.263 327.97L353.408 327.741L355.44 320.687Z" fill="#F9C1BB"/>
<mask id="mask13_216_1604" style="mask-type:luminance" maskUnits="userSpaceOnUse" x="331" y="306" width="25" height="22">
<path fill-rule="evenodd" clip-rule="evenodd" d="M355.441 320.687L349.047 318.371C348.068 318.045 347.424 317.11 347.468 316.079L348.09 306.23L332.475 306.613L331.1 324.847C331.069 325.692 331.394 326.511 331.995 327.104C332.597 327.698 333.42 328.012 334.264 327.97L353.409 327.742L355.441 320.687Z" fill="white"/>
</mask>
<g mask="url(#mask13_216_1604)">
<path d="M327.733 312.046C334.563 313.149 341.565 312.24 347.887 309.43C348.221 308.971 337.798 307.163 337.798 307.163L327.733 312.046Z" fill="#ED707B"/>
</g>
<path fill-rule="evenodd" clip-rule="evenodd" d="M355.44 320.687L349.046 318.371C348.067 318.045 347.423 317.109 347.467 316.078L348.089 306.23L332.474 306.613L331.099 324.847C331.068 325.691 331.393 326.51 331.994 327.104C332.596 327.698 333.419 328.012 334.263 327.97L353.408 327.741L355.44 320.687Z" stroke="black" stroke-width="2.13714" stroke-linecap="round" stroke-linejoin="round"/>
<path d="M400.535 284.664L393.788 285.815C392.75 286.006 391.701 285.536 391.153 284.634L386.142 275.944L373.061 283.898L382.147 300.098C383.072 301.63 385.061 302.128 386.599 301.212L402.773 291.663L400.535 284.664Z" fill="#F9C1BB"/>
<mask id="mask14_216_1604" style="mask-type:luminance" maskUnits="userSpaceOnUse" x="373" y="275" width="30" height="27">
<path fill-rule="evenodd" clip-rule="evenodd" d="M400.535 284.664L393.788 285.815C392.75 286.006 391.701 285.536 391.153 284.634L386.142 275.944L373.061 283.898L382.147 300.098C383.072 301.63 385.061 302.128 386.599 301.212L402.773 291.663L400.535 284.664Z" fill="white"/>
</mask>
<g mask="url(#mask14_216_1604)">
<path d="M369.603 295.145C379.053 292.332 389.37 280.042 389.37 280.042L374.606 281.806L369.841 289.519" fill="#ED707B"/>
</g>
<path fill-rule="evenodd" clip-rule="evenodd" d="M400.535 284.664L393.788 285.815C392.75 286.006 391.701 285.536 391.153 284.634L386.142 275.944L373.061 283.898L382.147 300.098C383.072 301.63 385.061 302.128 386.599 301.212L402.773 291.663L400.535 284.664Z" stroke="black" stroke-width="2.13714" stroke-linecap="round" stroke-linejoin="round"/>
<path d="M382.872 305.334C383.363 305.767 384.081 305.823 384.633 305.472L415.472 285.633C415.763 285.457 415.97 285.17 416.044 284.838C416.119 284.507 416.055 284.159 415.867 283.876C414.827 282.373 413.026 281.588 411.217 281.851L397.868 284.003L399.089 293.115L383.058 303.335C382.717 303.538 382.494 303.892 382.457 304.287C382.421 304.682 382.575 305.071 382.872 305.334Z" fill="#485065" stroke="black" stroke-width="2.13714" stroke-linecap="round" stroke-linejoin="round"/>
<path d="M279.955 176.995L281.951 173.834C284.337 171.859 286.562 169.698 288.606 167.371C289.541 165.793 289.284 158.421 294.041 157.025C298.799 155.628 305.652 152.992 305.652 152.992C305.652 152.992 307.592 156.06 297.83 158.991C298.641 162.971 298.048 167.11 296.152 170.702L283.66 187.119L279.955 176.995Z" fill="#F9C1BB"/>
<mask id="mask15_216_1604" style="mask-type:luminance" maskUnits="userSpaceOnUse" x="279" y="152" width="27" height="36">
<path fill-rule="evenodd" clip-rule="evenodd" d="M279.955 176.995L281.951 173.834C284.337 171.859 286.562 169.698 288.606 167.371C289.541 165.793 289.284 158.421 294.041 157.025C298.799 155.628 305.652 152.992 305.652 152.992C305.652 152.992 307.592 156.06 297.83 158.991C298.641 162.971 298.048 167.11 296.152 170.702L283.66 187.119L279.955 176.995Z" fill="white"/>
</mask>
<g mask="url(#mask15_216_1604)">
<path d="M291.417 178.855C285.911 181.945 284.599 174.55 281.951 173.833C279.304 173.117 283.415 183.564 283.415 183.564L285.691 187.119L289.875 185.992L291.417 178.855Z" fill="#ED707B"/>
</g>
<path fill-rule="evenodd" clip-rule="evenodd" d="M279.955 176.995L281.951 173.834C284.337 171.859 286.562 169.698 288.606 167.371C289.541 165.793 289.284 158.421 294.041 157.025C298.799 155.628 305.652 152.992 305.652 152.992C305.652 152.992 307.592 156.06 297.83 158.991C298.641 162.971 298.048 167.11 296.152 170.702L283.66 187.119L279.955 176.995Z" stroke="black" stroke-width="2.13714" stroke-linecap="round" stroke-linejoin="round"/>
<path d="M281.774 173.245C281.774 173.245 288.459 180.708 288.205 184.863L262.74 218.425L258.163 189.909L281.774 173.245Z" fill="white"/>
<mask id="mask16_216_1604" style="mask-type:luminance" maskUnits="userSpaceOnUse" x="258" y="173" width="31" height="46">
<path fill-rule="evenodd" clip-rule="evenodd" d="M281.775 173.245C281.775 173.245 288.46 180.708 288.206 184.863L262.741 218.425L258.164 189.91L281.775 173.245Z" fill="white"/>
</mask>
<g mask="url(#mask16_216_1604)">
<path d="M275.024 174.871C283.274 178.33 284.3 196.723 284.3 196.723" stroke="#D6DCF2" stroke-width="2.13714" stroke-linecap="round" stroke-linejoin="round"/>
</g>
<path fill-rule="evenodd" clip-rule="evenodd" d="M281.774 173.245C281.774 173.245 288.459 180.708 288.205 184.863L262.74 218.425L258.163 189.909L281.774 173.245Z" stroke="black" stroke-width="2.13714" stroke-linecap="round" stroke-linejoin="round"/>
<path d="M240.818 152.908L240.308 149.668C240.308 149.668 237.601 136.107 256.832 152.724L240.818 152.908Z" fill="white" stroke="black" stroke-width="2.13714" stroke-linecap="round" stroke-linejoin="round"/>
<path d="M366.247 293.393C366.247 293.393 387.863 283.79 389.371 280.042L349.193 204.959C344.364 196.543 334.123 192.9 325.064 196.377L312.96 200.869L366.247 293.393Z" fill="#1AB995"/>
<mask id="mask17_216_1604" style="mask-type:luminance" maskUnits="userSpaceOnUse" x="312" y="195" width="78" height="99">
<path fill-rule="evenodd" clip-rule="evenodd" d="M366.246 293.394C366.246 293.394 387.862 283.79 389.37 280.042L349.192 204.959C344.363 196.543 334.122 192.901 325.063 196.377L312.959 200.869L366.246 293.394Z" fill="white"/>
</mask>
<g mask="url(#mask17_216_1604)">
<path d="M356.382 287.228C364.971 286.565 387.917 271.998 387.917 271.998L392.586 282.47L368.937 299.147L356.382 287.228Z" fill="#1A80FD" stroke="black" stroke-width="2.13714" stroke-linecap="round" stroke-linejoin="round"/>
</g>
<path fill-rule="evenodd" clip-rule="evenodd" d="M366.247 293.393C366.247 293.393 387.863 283.79 389.371 280.042L349.193 204.959C344.364 196.543 334.123 192.9 325.064 196.377L312.96 200.869L366.247 293.393Z" stroke="black" stroke-width="2.13714" stroke-linecap="round" stroke-linejoin="round"/>
<path d="M325.955 242.809L320.009 309.166C320.009 309.166 342.463 311.352 348.831 309.166L356.338 228.597C356.511 225.571 355.432 222.606 353.354 220.398C351.277 218.19 348.383 216.933 345.352 216.921L328.337 216.217" fill="#1AB995"/>
<mask id="mask18_216_1604" style="mask-type:luminance" maskUnits="userSpaceOnUse" x="320" y="216" width="37" height="95">
<path fill-rule="evenodd" clip-rule="evenodd" d="M325.954 242.809L320.008 309.166C320.008 309.166 342.462 311.352 348.83 309.166L356.337 228.597C356.51 225.571 355.431 222.606 353.353 220.398C351.276 218.19 348.382 216.933 345.351 216.921L328.336 216.217" fill="white"/>
</mask>
<g mask="url(#mask18_216_1604)">
<path d="M315.281 299.146C326.074 302.898 353.379 300.691 353.379 300.691V312.389L315.942 312.61" fill="#1A80FD"/>
<path d="M315.281 299.146C326.074 302.898 353.379 300.691 353.379 300.691V312.389L315.942 312.61" stroke="black" stroke-width="2.13714" stroke-linecap="round" stroke-linejoin="round"/>
</g>
<path d="M325.955 242.809L320.009 309.166C320.009 309.166 342.463 311.352 348.831 309.166L356.338 228.597C356.511 225.571 355.432 222.606 353.354 220.398C351.277 218.19 348.383 216.933 345.352 216.921L328.337 216.217" stroke="black" stroke-width="2.13714" stroke-linecap="round" stroke-linejoin="round"/>
<path d="M290.615 236.707C291.276 236.02 330.914 234.332 333.107 235.853C335.301 237.373 327.488 301.088 327.488 301.088" stroke="white" stroke-width="2.13714" stroke-linecap="round" stroke-linejoin="round"/>
<path d="M347.333 215.496L282.136 250.055C277.201 252.655 271.705 254.01 266.127 254.001C248.885 254.001 234.667 241.409 233.791 225.361L233.545 220.857L325.971 195.05C335.349 192.272 345.355 196.727 349.567 205.555L353.379 212.784" fill="#1AB995"/>
<mask id="mask19_216_1604" style="mask-type:luminance" maskUnits="userSpaceOnUse" x="233" y="194" width="121" height="61">
<path fill-rule="evenodd" clip-rule="evenodd" d="M347.333 215.496L282.136 250.055C277.201 252.655 271.705 254.01 266.127 254.001C248.885 254.001 234.667 241.409 233.791 225.361L233.545 220.857L325.971 195.05C335.349 192.272 345.355 196.727 349.567 205.555L353.379 212.784" fill="white"/>
</mask>
<g mask="url(#mask19_216_1604)">
<path d="M279.895 211.881C229.202 237.179 259.088 256.152 271.346 257.558C283.605 258.963 202.418 254.002 202.418 254.002L219.761 218.44L261.954 216.217" fill="#0FA379"/>
<path d="M245.964 222.028C254.716 255.223 331.8 206.223 331.8 206.223" stroke="white" stroke-width="2.13714" stroke-linecap="round" stroke-linejoin="round"/>
<path d="M261.471 231.091C273.658 225.205 263.233 220.644 263.233 220.644" stroke="white" stroke-width="2.13714" stroke-linecap="round" stroke-linejoin="round"/>
</g>
<path d="M347.333 215.496L282.136 250.055C277.201 252.655 271.705 254.01 266.127 254.001V254.001C248.885 254.001 234.667 241.409 233.791 225.361L233.545 220.857L325.971 195.05C335.349 192.272 345.355 196.727 349.567 205.555L353.379 212.784" stroke="black" stroke-width="2.13714" stroke-linecap="round" stroke-linejoin="round"/>
<path d="M256.83 152.725L240.307 149.669C211.831 173.246 236.372 219.21 224.863 223.536C224.863 223.536 224.863 240.579 282.788 209.119C282.788 209.118 273.903 164.848 256.83 152.725Z" fill="white"/>
<mask id="mask20_216_1604" style="mask-type:luminance" maskUnits="userSpaceOnUse" x="224" y="149" width="59" height="80">
<path fill-rule="evenodd" clip-rule="evenodd" d="M256.831 152.725L240.308 149.669C211.832 173.246 236.373 219.21 224.864 223.536C224.864 223.536 224.864 240.579 282.789 209.119C282.789 209.118 273.904 164.848 256.831 152.725Z" fill="white"/>
</mask>
<g mask="url(#mask20_216_1604)">
<path d="M248.027 176.233C262.777 207.043 250.929 232.016 224.865 223.536C198.8 215.055 216.064 246.943 216.064 246.943L253.827 252.031L285.201 212.85L258.164 178.525L248.027 176.233Z" fill="#D6DCF2"/>
<path d="M226.011 218.425C232.408 228.132 271.508 210.257 271.508 210.257L276.667 218.425L226.452 236.708L222.928 222.029L226.452 216.217" fill="white"/>
<path d="M226.011 218.425C232.408 228.132 271.508 210.257 271.508 210.257L276.667 218.425L226.452 236.708L222.928 222.029L226.452 216.217" stroke="black" stroke-width="2.13714" stroke-linecap="round" stroke-linejoin="round"/>
<path d="M219.037 166.301C231.703 159.857 244.57 167.413 244.57 167.413" stroke="white" stroke-width="2.13714" stroke-linecap="round" stroke-linejoin="round"/>
</g>
<path fill-rule="evenodd" clip-rule="evenodd" d="M256.83 152.725L240.307 149.669C211.831 173.246 236.372 219.21 224.863 223.536C224.863 223.536 224.863 240.579 282.788 209.119C282.788 209.118 273.903 164.848 256.83 152.725Z" stroke="black" stroke-width="2.13714" stroke-linecap="round" stroke-linejoin="round"/>
<path d="M292.13 187.825L302.186 173.701L309.558 159.858C312.098 158.834 310.348 164.343 309.724 166.143C309.724 166.143 315.531 157.706 315.906 157.07C315.906 157.07 319.636 155.267 315.305 167.133C313.838 170.602 311.411 173.579 308.308 175.714L302.186 192.77L292.13 187.825Z" fill="#F9C1BB"/>
<mask id="mask21_216_1604" style="mask-type:luminance" maskUnits="userSpaceOnUse" x="292" y="156" width="26" height="37">
<path fill-rule="evenodd" clip-rule="evenodd" d="M292.129 187.825L302.185 173.701L309.557 159.858C312.097 158.834 310.347 164.343 309.723 166.143C309.723 166.143 315.53 157.706 315.905 157.07C315.905 157.07 319.635 155.267 315.304 167.133C313.837 170.602 311.41 173.579 308.307 175.714L302.185 192.77L292.129 187.825Z" fill="white"/>
</mask>
<g mask="url(#mask21_216_1604)">
<path d="M307.696 183.491C303.457 185.698 300.947 179.565 295.36 183.288C292.921 184.912 299.346 188.906 299.346 188.906H306.467L308.229 184.374" fill="#ED707B"/>
</g>
<path fill-rule="evenodd" clip-rule="evenodd" d="M292.13 187.825L302.186 173.701L309.558 159.858C312.098 158.834 310.348 164.343 309.724 166.143C309.724 166.143 315.531 157.706 315.906 157.07C315.906 157.07 319.636 155.267 315.305 167.133C313.838 170.602 311.411 173.579 308.308 175.714L302.186 192.77L292.13 187.825Z" stroke="black" stroke-width="2.13714" stroke-linecap="round" stroke-linejoin="round"/>
<path d="M265.433 162.23L283.678 195.521L294.44 183.236C294.44 183.236 304.853 183.565 307.683 187.473C308.146 188.112 295.779 210.57 295.779 210.57C293.746 214.243 290.254 216.885 286.166 217.844C278.857 219.751 271.003 216.836 267.695 210.99L248.026 176.234" fill="white"/>
<mask id="mask22_216_1604" style="mask-type:luminance" maskUnits="userSpaceOnUse" x="248" y="162" width="60" height="57">
<path fill-rule="evenodd" clip-rule="evenodd" d="M265.433 162.23L283.678 195.521L294.44 183.236C294.44 183.236 304.853 183.565 307.683 187.473C308.146 188.112 295.779 210.57 295.779 210.57C293.746 214.243 290.254 216.885 286.166 217.844C278.857 219.751 271.003 216.836 267.695 210.99L248.026 176.234" fill="white"/>
</mask>
<g mask="url(#mask22_216_1604)">
<path d="M289.677 188.673C297.165 186.505 308.528 195.112 308.528 195.112" stroke="#D6DCF2" stroke-width="2.13714" stroke-linecap="round" stroke-linejoin="round"/>
<ellipse cx="281.76" cy="218.204" rx="11.7015" ry="3.82377" fill="#FDD504" stroke="black" stroke-width="2.13714" stroke-linecap="round" stroke-linejoin="round"/>
</g>
<path d="M265.433 162.23L283.678 195.521L294.44 183.236C294.44 183.236 304.853 183.565 307.683 187.473C308.146 188.112 295.779 210.57 295.779 210.57C293.746 214.243 290.254 216.885 286.166 217.844V217.844C278.857 219.751 271.003 216.836 267.695 210.99L248.026 176.234" stroke="black" stroke-width="2.13714" stroke-linecap="round" stroke-linejoin="round"/>
<rect x="236.862" y="249.585" width="69.114" height="81.9883" fill="#FDD504"/>
<mask id="mask23_216_1604" style="mask-type:luminance" maskUnits="userSpaceOnUse" x="236" y="249" width="70" height="83">
<rect x="236.861" y="249.585" width="69.114" height="81.9883" fill="white"/>
</mask>
<g mask="url(#mask23_216_1604)">
<path d="M219.024 280.877C228.084 278.199 237.637 277.631 246.95 279.215C251.377 279.718 255.649 281.145 259.49 283.403C262.953 285.921 264.983 289.958 264.938 294.239C265.24 303.09 259.775 310.769 258.799 319.414C258.245 323.244 258.862 327.152 260.569 330.625C262.435 333.838 265.285 336.365 268.698 337.833C277.546 342.008 288.226 342.865 297.795 342.251C299.3 342.155 299.311 339.689 297.795 339.786C288.458 340.665 279.045 339.332 270.319 335.895C266.146 334.349 262.916 330.973 261.556 326.736C260.622 322.437 260.921 317.96 262.416 313.823C264.774 306.046 268.896 298.149 266.666 289.772C264.387 281.213 256.149 278.471 248.64 277.031C238.586 275.113 228.22 275.616 218.398 278.499C216.941 278.925 217.56 281.304 219.024 280.876L219.024 280.877Z" fill="#FCB006"/>
<path d="M275.297 236.002C271.147 240.688 268.117 246.257 266.436 252.287C265.451 255.297 265.237 258.506 265.817 261.62C266.558 264.259 268.132 266.589 270.304 268.262C275.383 272.084 281.262 274.706 287.5 275.93C294.247 277.4 301.132 278.137 308.038 278.129C316.513 278.262 324.988 277.842 333.461 278.214C334.976 278.28 334.973 275.815 333.461 275.748C320.486 275.18 307.414 276.534 294.498 274.736C288.44 274.004 282.543 272.282 277.042 269.641C274.428 268.472 272.067 266.803 270.092 264.728C268.097 262.253 267.343 259.001 268.046 255.901C269.28 249.14 272.367 242.855 276.963 237.747C277.984 236.578 276.323 234.83 275.298 236.003L275.297 236.002Z" fill="#FCB006"/>
<path d="M307.352 280.606C301.51 328.999 302.727 333.358 271.417 331.574C249.234 330.31 290.613 349.939 290.613 349.939L312.957 328.445L307.352 280.606Z" fill="#FCB006"/>
</g>
<rect x="236.862" y="249.585" width="69.114" height="81.9883" stroke="black" stroke-width="2.13714" stroke-linecap="round" stroke-linejoin="round"/>
<path d="M259.23 156.58C242.492 154.023 246.346 174.871 246.346 174.871" stroke="white" stroke-width="2.13714" stroke-linecap="round" stroke-linejoin="round"/>
<path d="M225.368 218.346L237.06 215.349L235.737 210.165L224.045 213.163L225.368 218.346Z" fill="white" stroke="black" stroke-width="2.13714" stroke-linecap="round" stroke-linejoin="round"/>
<circle cx="227.651" cy="215" r="0.669779" fill="#2F387E" stroke="black" stroke-width="2.13714" stroke-linecap="round" stroke-linejoin="round"/>
<path d="M257.591 121.202C256.882 123.221 255.744 125.061 254.254 126.596" stroke="black" stroke-width="2.13714" stroke-linecap="round" stroke-linejoin="round"/>
<path d="M284.27 195.862L283.373 198.947" stroke="black" stroke-width="2.13714" stroke-linecap="round" stroke-linejoin="round"/>
<path d="M240.48 194.593C241.573 195.83 243.306 196.283 244.865 195.739" stroke="black" stroke-width="2.13714" stroke-linecap="round" stroke-linejoin="round"/>
<path d="M367.02 259.628C366.127 261.388 364.94 262.982 363.512 264.344" stroke="black" stroke-width="2.13714" stroke-linecap="round" stroke-linejoin="round"/>
<circle cx="650.671" cy="376.437" r="105.489" fill="#FCB006"/>
<mask id="mask24_216_1604" style="mask-type:luminance" maskUnits="userSpaceOnUse" x="545" y="270" width="212" height="212">
<circle cx="650.671" cy="376.437" r="105.489" fill="white"/>
</mask>
<g mask="url(#mask24_216_1604)">
<path d="M357.358 325.031L937.044 294.805" stroke="white" stroke-width="2.13714"/>
<path d="M356.203 302.858L935.889 272.631" stroke="white" stroke-width="2.13714"/>
<path d="M355.047 280.685L934.732 250.458" stroke="white" stroke-width="2.13714"/>
</g>
<circle cx="650.671" cy="376.437" r="105.489" stroke="black" stroke-width="2.13714" stroke-linecap="round" stroke-linejoin="round"/>
<path d="M69.9969 11.9089L-82.6055 54.1388L-32.7183 132.409L69.9969 11.9089Z" fill="white"/>
<mask id="mask25_216_1604" style="mask-type:luminance" maskUnits="userSpaceOnUse" x="-83" y="11" width="153" height="122">
<path fill-rule="evenodd" clip-rule="evenodd" d="M69.9969 11.9092L-82.6055 54.139L-32.7183 132.41L69.9969 11.9092Z" fill="white"/>
</mask>
<g mask="url(#mask25_216_1604)">
<path d="M-152.131 -24.2981L-152.522 -13.2854L-142.375 -8.99191L-142.764 2.02503L-132.611 6.32709L-133 17.344L-122.85 21.6397L-123.239 32.6588L-113.088 36.9608L-113.477 47.9756L-103.326 52.2777L-103.71 63.2968L-93.561 67.5988L-93.9456 78.6179L-83.7942 82.92L-84.1811 93.9412L-74.0275 98.2433L-74.4122 109.264L-64.2651 113.56L-64.6519 124.581L-54.5048 128.875L-54.8894 139.896L-44.7402 144.196L-45.1227 155.219L-34.9713 159.521L-35.356 170.545L-25.1982 174.855L-25.5807 185.881L-15.4251 190.191L-15.8076 201.215L-5.65192 205.523L-6.03447 216.551L4.13189 220.872L3.7579 231.913" stroke="white" stroke-width="2.13714"/>
<path d="M-142.087 -30.7012L-142.479 -19.6885L-132.331 -15.3929L-132.72 -4.37804L-122.567 -0.0738445L-122.956 10.941L-112.809 15.2387L-113.195 26.2557L-103.044 30.5578L-103.433 41.5747L-93.2816 45.8746L-93.6663 56.8958L-83.517 61.1958L-83.9017 72.217L-73.7503 76.519L-74.1371 87.5381L-63.9836 91.8423L-64.3683 102.864L-54.2211 107.157L-54.6079 118.178L-44.4608 122.474L-44.8455 133.495L-34.6962 137.795L-35.0788 148.818L-24.9274 153.12L-25.3121 164.144L-15.1542 168.452L-15.5368 179.48L-5.38111 183.788L-5.76366 194.814L4.39202 199.12L4.00947 210.148L14.1758 214.471L13.8018 225.512" stroke="white" stroke-width="2.13714"/>
<path d="M-132.043 -37.104L-132.435 -26.0913L-122.287 -21.7957L-122.676 -10.7809L-112.523 -6.47668L-112.912 4.54027L-102.765 8.83592L-103.152 19.8529L-93.0001 24.1571L-93.3891 35.1719L-83.2377 39.4739L-83.6223 50.493L-73.4731 54.7929L-73.8578 65.8142L-63.7064 70.1162L-64.0932 81.1374L-53.9396 85.4395L-54.3243 96.4607L-44.1772 100.756L-44.564 111.778L-34.4169 116.071L-34.8016 127.092L-24.6523 131.392L-25.0348 142.416L-14.8834 146.718L-15.2681 157.741L-5.1103 162.052L-5.49285 173.077L4.66283 177.386L4.28028 188.411L14.436 192.72L14.0534 203.747L24.2198 208.068L23.8458 219.109" stroke="white" stroke-width="2.13714"/>
<path d="M-121.999 -43.5046L-122.39 -32.492L-112.243 -28.1963L-112.631 -17.1815L-102.478 -12.8773L-102.867 -1.8625L-92.7198 2.43528L-93.1066 13.4522L-82.9552 17.7543L-83.3441 28.7712L-73.1927 33.0712L-73.5774 44.0924L-63.4281 48.3923L-63.8128 59.4135L-53.6614 63.7134L-54.0483 74.7347L-43.8947 79.0367L-44.2794 90.0601L-34.1323 94.3536L-34.5191 105.375L-24.372 109.67L-24.7566 120.692L-14.6074 124.989L-14.9899 136.015L-4.83851 140.317L-5.22319 151.34L4.93462 155.649L4.55208 166.674L14.7078 170.985L14.3252 182.008L24.4809 186.317L24.0983 197.344L34.2647 201.668L33.8907 212.706" stroke="white" stroke-width="2.13714"/>
<path d="M-111.955 -49.9077L-112.346 -38.895L-102.199 -34.5994L-102.588 -23.5846L-92.434 -19.2804L-92.8229 -8.26558L-82.6758 -3.96779L-83.0626 7.04916L-72.9112 11.3534L-73.3002 22.3682L-63.1488 26.6681L-63.5335 37.6893L-53.3842 41.9892L-53.7689 53.0104L-43.6175 57.3125L-44.0043 68.3337L-33.8508 72.6358L-34.2354 83.657L-24.0883 87.9527L-24.4751 98.9717L-14.328 103.267L-14.7127 114.289L-4.56342 118.589L-4.94597 129.612L5.20543 133.914L4.82075 144.937L14.9786 149.246L14.596 160.273L24.7517 164.582L24.3691 175.607L34.5248 179.916L34.1423 190.943L44.3086 195.265L43.9347 206.305" stroke="white" stroke-width="2.13714"/>
<path d="M-101.91 -56.3081L-102.301 -45.2954L-92.1536 -41.0019L-92.5426 -29.985L-82.3891 -25.6808L-82.778 -14.666L-72.6309 -10.3682L-73.0177 0.648762L-62.8663 4.95082L-63.2553 15.9678L-53.1039 20.2677L-53.4907 31.2889L-43.3393 35.5888L-43.724 46.6079L-33.5726 50.91L-33.9594 61.9312L-23.8058 66.2332L-24.1905 77.2566L-14.0434 81.5501L-14.4302 92.5713L-4.28309 96.867L-4.66777 107.886L5.4815 112.186L5.09895 123.211L15.2504 127.514L14.8657 138.535L25.0235 142.845L24.6409 153.871L34.7966 158.181L34.4141 169.205L44.5698 173.513L44.1872 184.541L54.3536 188.864L53.9796 199.903" stroke="white" stroke-width="2.13714"/>
<path d="M-91.8648 -62.7109L-92.2559 -51.6983L-82.1087 -47.4026L-82.4977 -36.3878L-72.3441 -32.0836L-72.7352 -21.0688L-62.586 -16.771L-62.9728 -5.75407L-52.8214 -1.45201L-53.2103 9.56494L-43.0589 13.8649L-43.4458 24.8861L-33.2944 29.186L-33.679 40.2072L-23.5276 44.5093L-23.9145 55.5284L-13.7609 59.8326L-14.1477 70.8538L-3.99847 75.1494L-4.38529 86.1685L5.76183 90.4642L5.37715 101.485L15.5264 105.785L15.1439 116.809L25.2953 121.111L24.9106 132.134L35.0684 136.443L34.6859 147.47L44.8415 151.779L44.459 162.804L54.6147 167.113L54.2321 178.138L64.3985 182.462L64.0245 193.502" stroke="white" stroke-width="2.13714"/>
<path d="M-81.8208 -69.1121L-82.2119 -58.0994L-72.0648 -53.8059L-72.4537 -42.7889L-62.3002 -38.4869L-62.6913 -27.4699L-52.542 -23.1743L-52.9288 -12.1552L-42.7774 -7.85314L-43.1664 3.16167L-33.015 7.46373L-33.4018 18.4828L-23.2504 22.7827L-23.6351 33.804L-13.4837 38.106L-13.8705 49.1272L-3.71697 53.4293L-4.1038 64.4505L6.04547 68.7462L5.65865 79.7674L15.8058 84.0609L15.4211 95.0821L25.5704 99.382L25.1878 110.405L35.3392 114.707L34.9545 125.731L45.1124 130.041L44.7298 141.067L54.8855 145.378L54.5029 156.401L64.6586 160.709L64.2761 171.737L74.4424 176.058L74.0684 187.099" stroke="white" stroke-width="2.13714"/>
<path d="M-71.7769 -75.5149L-72.168 -64.5022L-62.0208 -60.2066L-62.4098 -49.1918L-52.2563 -44.8876L-52.6473 -33.8728L-42.4981 -29.575L-42.8849 -18.558L-32.7335 -14.256L-33.1225 -3.23902L-22.9711 1.0609L-23.3579 12.0821L-13.2065 16.382L-13.5912 27.4033L-3.43975 31.7053L-3.82657 42.7244L6.32697 47.0286L5.94015 58.0498L16.0894 62.3433L15.7026 73.3646L25.8497 77.6602L25.465 88.6814L35.6143 92.9814L35.2318 104.005L45.3832 108.307L44.9985 119.33L55.1542 123.639L54.7738 134.666L64.9294 138.975L64.5469 149.998L74.7026 154.307L74.32 165.334L84.4864 169.658L84.1124 180.698" stroke="white" stroke-width="2.13714"/>
<path d="M-61.731 -81.9172L-62.1221 -70.9046L-51.9749 -66.6089L-52.3639 -55.5941L-42.2125 -51.2899L-42.6015 -40.273L-32.4522 -35.9773L-32.839 -24.9604L-22.6876 -20.6562L-23.0766 -9.64136L-12.9252 -5.3393L-13.312 5.67978L-3.16057 9.97971L-3.54526 21.0009L6.60615 25.303L6.21933 36.3242L16.3729 40.6263L15.986 51.6475L26.1332 55.9431L25.7485 66.9644L35.8956 71.2579L35.5109 82.2791L45.6602 86.579L45.2777 97.6024L55.4291 101.904L55.0444 112.928L65.2001 117.238L64.8197 128.264L74.9753 132.572L74.5928 143.598L84.7485 147.906L84.3659 158.934L94.5323 163.255L94.1583 174.296" stroke="white" stroke-width="2.13714"/>
<path d="M-51.6861 -88.3184L-52.0771 -77.3057L-41.93 -73.01L-42.319 -61.9952L-32.1676 -57.691L-32.5565 -46.6762L-22.4073 -42.3784L-22.7941 -31.3615L-12.6427 -27.0594L-13.0316 -16.0425L-2.88023 -11.7426L-3.26705 -0.721349L6.88435 3.57858L6.49753 14.5998L16.6511 18.8997L16.2642 29.9209L26.4178 34.223L26.031 45.2464L36.1781 49.5399L35.7934 60.5611L45.9405 64.8567L45.5559 75.878L55.7051 80.1757L55.3204 91.2012L65.474 95.5033L65.0893 106.527L75.245 110.835L74.8646 121.861L85.0203 126.171L84.6377 137.195L94.7934 141.503L94.4108 152.531L104.577 156.854L104.203 167.892" stroke="white" stroke-width="2.13714"/>
<path d="M-41.645 -94.7212L-42.0361 -83.7085L-31.8869 -79.4129L-32.2758 -68.3981L-22.1244 -64.0939L-22.5134 -53.0791L-12.3641 -48.7813L-12.7509 -37.7643L-2.59952 -33.4601L-2.98848 -22.4453L7.16292 -18.1454L6.7761 -7.12417L16.9275 -2.82425L16.5407 8.19697L26.6942 12.499L26.3074 23.5181L36.4588 27.8223L36.0741 38.8435L46.2213 43.1392L45.8366 54.1583L55.9837 58.4539L55.5969 69.4751L65.7483 73.7751L65.3636 84.7984L75.5171 89.1005L75.1325 100.124L85.2881 104.432L84.9056 115.46L95.0634 119.768L94.6787 130.794L104.837 135.102L104.454 146.13L114.62 150.451L114.246 161.492" stroke="white" stroke-width="2.13714"/>
<path d="M-31.6011 -101.122L-31.9922 -90.1092L-21.8429 -85.8156L-22.234 -74.7987L-12.0805 -70.4945L-12.4694 -59.4797L-2.32016 -55.1819L-2.70912 -44.165L7.44442 -39.8629L7.05546 -28.846L17.2069 -24.546L16.82 -13.5248L26.9714 -9.22489L26.5846 1.79419L36.7382 6.09625L36.3513 17.1175L46.5028 21.4195L46.1181 32.4429L56.2652 36.7364L55.8805 47.7576L66.0276 52.0533L65.6408 63.0723L75.7922 67.3723L75.4075 78.3978L85.5611 82.6998L85.1764 93.7211L95.3321 98.0317L94.9495 109.057L105.107 113.368L104.723 124.391L114.88 128.7L114.498 139.727L124.662 144.051L124.29 155.089" stroke="white" stroke-width="2.13714"/>
<path d="M-21.5542 -107.525L-21.9453 -96.5122L-11.796 -92.2166L-12.1871 -81.2018L-2.0336 -76.8976L-2.42256 -65.8828L7.72671 -61.585L7.33775 -50.568L17.4913 -46.266L17.1023 -35.249L27.2537 -30.9491L26.8669 -19.9279L37.0183 -15.628L36.6315 -4.60674L46.785 -0.304683L46.3982 10.7144L56.5496 15.0186L56.1649 26.0398L66.3121 30.3355L65.9274 41.3546L76.0745 45.6502L75.6877 56.6714L85.8391 60.9713L85.4544 71.9947L95.608 76.2968L95.2233 87.3201L105.379 91.6286L104.996 102.656L115.154 106.965L114.77 117.99L124.927 122.299L124.545 133.324L134.709 137.648L134.337 148.688" stroke="white" stroke-width="2.13714"/>
<path d="M-11.5103 -113.927L-11.9014 -102.913L-1.7521 -98.6192L-2.1432 -87.6044L8.01035 -83.3002L7.62139 -72.2832L17.7707 -67.9876L17.3817 -56.9685L27.5352 -52.6664L27.1463 -41.6516L37.2977 -37.3496L36.9109 -26.3305L47.0623 -22.0305L46.6754 -11.0093L56.829 -6.70727L56.4422 4.31396L66.5936 8.61602L66.2089 19.6372L76.356 23.9329L75.9713 34.9541L86.1185 39.2476L85.7316 50.2688L95.8831 54.5688L95.4984 65.5921L105.652 69.8942L105.267 80.9175L115.423 85.2281L115.04 96.2536L125.198 100.564L124.813 111.588L134.971 115.896L134.589 126.924L144.753 131.245L144.379 142.285" stroke="white" stroke-width="2.13714"/>
<path d="M-1.46633 -120.328L-1.85742 -109.316L8.29185 -105.02L7.90075 -94.0052L18.0543 -89.701L17.6653 -78.6862L27.8146 -74.3884L27.4256 -63.3715L37.5792 -59.0694L37.1902 -48.0525L47.3416 -43.7526L46.9548 -32.7314L57.1062 -28.4314L56.7194 -17.4102L66.8729 -13.1082L66.4861 -2.08906L76.6375 2.213L76.2528 13.2364L86.4 17.5299L86.0153 28.5511L96.1624 32.8467L95.7756 43.868L105.927 48.1679L105.542 59.1912L115.696 63.4933L115.311 74.5167L125.467 78.8251L125.084 89.8527L135.242 94.1612L134.857 105.185L145.015 109.493L144.633 120.521L154.797 124.844L154.423 135.885" stroke="white" stroke-width="2.13714"/>
<path d="M8.5786 -126.731L8.1875 -115.719L18.3368 -111.423L17.9457 -100.408L28.0992 -96.1039L27.7103 -85.0869L37.8595 -80.7913L37.4706 -69.7743L47.6241 -65.4701L47.2351 -54.4553L57.3866 -50.1533L56.9997 -39.1342L67.1511 -34.8343L66.7643 -23.813L76.9157 -19.511L76.531 -8.48975L86.6824 -4.18769L86.2978 6.83352L96.4449 11.1292L96.0602 22.1504L106.207 26.4439L105.821 37.4651L115.972 41.765L115.587 52.7884L125.741 57.0905L125.356 68.1138L135.512 72.4244L135.129 83.4499L145.287 87.7584L144.902 98.7839L155.058 103.092L154.678 114.12L164.842 118.441L164.468 129.482" stroke="white" stroke-width="2.13714"/>
<path d="M18.6225 -133.132L18.2314 -122.119L28.3807 -117.824L27.9896 -106.809L38.1432 -102.505L37.7542 -91.4899L47.9035 -87.1922L47.5145 -76.1752L57.6681 -71.8732L57.2791 -60.8562L67.4305 -56.5563L67.0437 -45.5351L77.1951 -41.2351L76.8083 -30.2139L86.9597 -25.914L86.575 -14.8928L96.7264 -10.5907L96.3417 0.432632L106.489 4.72615L106.104 15.7474L116.251 20.043L115.864 31.0642L126.016 35.362L125.631 46.3875L135.785 50.6896L135.4 61.7129L145.556 66.0214L145.173 77.0469L155.331 81.3575L154.946 92.3809L165.102 96.6893L164.722 107.717L174.886 112.04L174.512 123.079" stroke="white" stroke-width="2.13714"/>
<path d="M28.6675 -139.535L28.2764 -128.522L38.4235 -124.227L38.0345 -113.212L48.1881 -108.908L47.7991 -97.893L57.9484 -93.5952L57.5594 -82.5783L67.713 -78.2741L67.324 -67.2593L77.4754 -62.9594L77.0886 -51.9381L87.24 -47.6382L86.8532 -36.617L97.0046 -32.3149L96.6199 -21.2959L106.771 -16.9916L106.387 -5.97043L116.534 -1.67479L116.149 9.3443L126.296 13.6399L125.909 24.6612L136.061 28.9611L135.676 39.9845L145.83 44.2865L145.445 55.3099L155.601 59.6183L155.218 70.646L165.376 74.9544L164.991 85.9799L175.147 90.2884L174.766 101.316L184.931 105.637L184.557 116.678" stroke="white" stroke-width="2.13714"/>
<path d="M38.7124 -145.936L38.3213 -134.923L48.4684 -130.629L48.0795 -119.612L58.233 -115.308L57.844 -104.293L67.9933 -99.9956L67.6044 -88.9787L77.7579 -84.6766L77.3689 -73.6597L87.5203 -69.3598L87.1335 -58.3385L97.2849 -54.0386L96.8981 -43.0195L107.05 -38.7175L106.665 -27.6963L116.816 -23.3942L116.432 -12.3708L126.579 -8.07732L126.192 2.9439L136.341 7.23741L135.954 18.2586L146.106 22.5585L145.721 33.584L155.872 37.8861L155.49 48.9073L165.646 53.2179L165.263 64.2434L175.421 68.554L175.036 79.5774L185.192 83.8859L184.811 94.9135L194.976 99.2369L194.602 110.275" stroke="white" stroke-width="2.13714"/>
</g>
<path fill-rule="evenodd" clip-rule="evenodd" d="M69.9969 11.9089L-82.6055 54.1388L-32.7183 132.409L69.9969 11.9089V11.9089Z" stroke="black" stroke-width="2.13714" stroke-linecap="round" stroke-linejoin="round"/>
<path d="M69.9969 11.9089L-82.6055 54.1388L-51.0613 103.631L69.9969 11.9089Z" fill="#1AB995" stroke="black" stroke-width="2.13714" stroke-linecap="round" stroke-linejoin="round"/>
<path d="M198.035 -90.5818L268.939 -36.7174L174.79 18.9957L103.886 -34.8687L198.035 -90.5818Z" fill="#FCB006"/>
<mask id="mask26_216_1604" style="mask-type:luminance" maskUnits="userSpaceOnUse" x="103" y="-91" width="166" height="110">
<path fill-rule="evenodd" clip-rule="evenodd" d="M198.035 -90.5818L268.939 -36.7174L174.79 18.9957L103.886 -34.8687L198.035 -90.5818Z" fill="white"/>
</mask>
<g mask="url(#mask26_216_1604)">
<path d="M65.6084 19.6565H307.216" stroke="white" stroke-width="2.13714"/>
<path d="M65.6084 10.4152H307.216" stroke="white" stroke-width="2.13714"/>
<path d="M65.6084 1.17331H307.216" stroke="white" stroke-width="2.13714"/>
</g>
<path fill-rule="evenodd" clip-rule="evenodd" d="M198.035 -90.5818L268.939 -36.7174L174.79 18.9957L103.886 -34.8687L198.035 -90.5818V-90.5818Z" stroke="black" stroke-width="2.13714" stroke-linecap="round" stroke-linejoin="round"/>
<path d="M850.799 144.905L756.647 200.616L741.531 110.341L835.681 54.6301L850.799 144.905Z" fill="white" stroke="black" stroke-width="2.13714" stroke-linecap="round" stroke-linejoin="round"/>
<path d="M850.798 144.905L921.702 198.769L827.552 254.48L756.646 200.616L850.798 144.905Z" fill="#FCB006"/>
<mask id="mask27_216_1604" style="mask-type:luminance" maskUnits="userSpaceOnUse" x="756" y="144" width="166" height="111">
<path fill-rule="evenodd" clip-rule="evenodd" d="M850.799 144.905L921.703 198.769L827.553 254.48L756.647 200.616L850.799 144.905Z" fill="white"/>
</mask>
<g mask="url(#mask27_216_1604)">
<path d="M718.372 255.142H959.979" stroke="white" stroke-width="2.13714"/>
<path d="M718.372 245.901H959.979" stroke="white" stroke-width="2.13714"/>
<path d="M718.372 236.659H959.979" stroke="white" stroke-width="2.13714"/>
<path d="M718.372 227.417H959.979" stroke="white" stroke-width="2.13714"/>
<path d="M718.372 218.176H959.979" stroke="white" stroke-width="2.13714"/>
<path d="M718.372 208.934H959.979" stroke="white" stroke-width="2.13714"/>
<path d="M718.372 199.692H959.979" stroke="white" stroke-width="2.13714"/>
<path d="M718.372 190.451H959.979" stroke="white" stroke-width="2.13714"/>
<path d="M718.372 181.209H959.979" stroke="white" stroke-width="2.13714"/>
<path d="M718.372 171.967H959.979" stroke="white" stroke-width="2.13714"/>
<path d="M718.372 162.726H959.979" stroke="white" stroke-width="2.13714"/>
<path d="M718.372 153.484H959.979" stroke="white" stroke-width="2.13714"/>
<path d="M718.372 144.243H959.979" stroke="white" stroke-width="2.13714"/>
</g>
<path fill-rule="evenodd" clip-rule="evenodd" d="M850.798 144.905L921.702 198.769L827.552 254.48L756.646 200.616L850.798 144.905V144.905Z" stroke="black" stroke-width="2.13714" stroke-linecap="round" stroke-linejoin="round"/>
<path d="M791.674 123.044C791.08 126.204 789.459 129.079 787.063 131.223" stroke="black" stroke-width="2.13714"/>
<path d="M-4.85717 283.285L66.0467 337.149L-28.1028 392.86L-99.0088 338.996L-4.85717 283.285Z" fill="#FCB006"/>
<mask id="mask28_216_1604" style="mask-type:luminance" maskUnits="userSpaceOnUse" x="-100" y="283" width="167" height="110">
<path fill-rule="evenodd" clip-rule="evenodd" d="M-4.85815 283.284L66.0457 337.149L-28.1038 392.86L-99.0098 338.995L-4.85815 283.284Z" fill="white"/>
</mask>
<g mask="url(#mask28_216_1604)">
<path d="M-137.285 310.347H104.322" stroke="white" stroke-width="2.13714"/>
<path d="M-137.285 301.105H104.322" stroke="white" stroke-width="2.13714"/>
<path d="M-137.285 291.864H104.322" stroke="white" stroke-width="2.13714"/>
<path d="M-137.285 282.622H104.322" stroke="white" stroke-width="2.13714"/>
</g>
<path fill-rule="evenodd" clip-rule="evenodd" d="M-4.85717 283.285L66.0467 337.149L-28.1028 392.86L-99.0088 338.996L-4.85717 283.285V283.285Z" stroke="black" stroke-width="2.13714" stroke-linecap="round" stroke-linejoin="round"/>
<path d="M-19.9756 193.01L50.9304 246.874L66.0464 337.149L-4.85747 283.285L-19.9756 193.01Z" fill="#1B80FD" stroke="black" stroke-width="2.13714" stroke-linecap="round" stroke-linejoin="round"/>
<path d="M239.233 358.619L240.129 292.949L300.937 285.134L300.041 350.801L239.233 358.619Z" fill="#1AB995" stroke="black" stroke-width="2.13714" stroke-linecap="round" stroke-linejoin="round"/>
<path d="M300.936 285.134L455.481 371.579L454.586 437.249L300.041 350.801L300.936 285.134Z" fill="white"/>
<path fill-rule="evenodd" clip-rule="evenodd" d="M300.936 285.134L455.481 371.579L454.586 437.249L300.041 350.801L300.936 285.134V285.134Z" stroke="black" stroke-width="2.13714" stroke-linecap="round" stroke-linejoin="round"/>
<path d="M726.749 25.0075V-155.674H726.649C725.613 -160.949 711.734 -165.129 694.718 -165.129C677.701 -165.129 663.823 -160.949 662.787 -155.674H662.687V25.0075H726.749Z" fill="white" stroke="black" stroke-width="2.13714" stroke-linecap="round" stroke-linejoin="round"/>
<ellipse cx="694.718" cy="25.0072" rx="32.0316" ry="10.0839" fill="#1A80FD" stroke="black" stroke-width="2.13714" stroke-linecap="round" stroke-linejoin="round"/>
</g>
</g>
<rect x="2" y="1.78418" width="801.427" height="313.892" stroke="black" stroke-width="2.13714" stroke-linecap="round" stroke-linejoin="round"/>
</svg>
