<svg width="805" height="317" viewBox="0 0 805 317" fill="none" xmlns="http://www.w3.org/2000/svg">
<rect x="1.57324" y="1.89209" width="801.427" height="313.892" fill="white"/>
<mask id="mask0_216_2805" style="mask-type:luminance" maskUnits="userSpaceOnUse" x="1" y="1" width="802" height="315">
<rect x="1.57324" y="1.89209" width="801.427" height="313.892" fill="white"/>
</mask>
<g mask="url(#mask0_216_2805)">
<rect x="1.57324" y="-11.4651" width="801.427" height="340.606" fill="white"/>
<rect x="-12.7852" y="-20.7483" width="825.336" height="355.566" fill="#F8FAFA"/>
<circle cx="741.247" cy="315.869" r="105.489" fill="#FCB006"/>
<mask id="mask1_216_2805" style="mask-type:luminance" maskUnits="userSpaceOnUse" x="635" y="210" width="212" height="212">
<circle cx="741.246" cy="315.869" r="105.489" fill="white"/>
</mask>
<g mask="url(#mask1_216_2805)">
<path d="M451.403 330.983L1031.09 300.756" stroke="white" stroke-width="2.13714"/>
<path d="M450.247 308.809L1029.93 278.583" stroke="white" stroke-width="2.13714"/>
<path d="M449.091 286.636L1028.78 256.409" stroke="white" stroke-width="2.13714"/>
<path d="M447.934 264.463L1027.62 234.236" stroke="white" stroke-width="2.13714"/>
<path d="M446.778 242.289L1026.46 212.063" stroke="white" stroke-width="2.13714"/>
<path d="M445.622 220.116L1025.31 189.89" stroke="white" stroke-width="2.13714"/>
</g>
<circle cx="741.247" cy="315.869" r="105.489" stroke="black" stroke-width="2.13714" stroke-linecap="round" stroke-linejoin="round"/>
<path d="M16.1025 309.338L16.998 243.67L77.806 235.853L76.9105 301.523L16.1025 309.338Z" fill="#1A80FD" stroke="black" stroke-width="2.13714" stroke-linecap="round" stroke-linejoin="round"/>
<path d="M77.8056 235.853L232.351 322.3L231.455 387.968L76.9102 301.523L77.8056 235.853Z" fill="white"/>
<path fill-rule="evenodd" clip-rule="evenodd" d="M77.8056 235.853L232.351 322.3L231.455 387.968L76.9102 301.523L77.8056 235.853V235.853Z" stroke="black" stroke-width="2.13714" stroke-linecap="round" stroke-linejoin="round"/>
<path d="M76.9105 301.523L231.456 387.968L170.648 395.785L16.1025 309.338L76.9105 301.523Z" fill="white"/>
<path fill-rule="evenodd" clip-rule="evenodd" d="M76.9105 301.523L231.456 387.968L170.648 395.785L16.1025 309.338L76.9105 301.523V301.523Z" stroke="black" stroke-width="2.13714" stroke-linecap="round" stroke-linejoin="round"/>
<path d="M162.759 321.94C167.579 316.547 173.326 312.062 179.728 308.695" stroke="black" stroke-width="2.13714"/>
<path d="M773.567 69.2275V-111.454H773.467C772.431 -116.729 758.552 -120.909 741.536 -120.909C724.519 -120.909 710.641 -116.729 709.605 -111.454H709.504V69.2275H773.567Z" fill="white" stroke="black" stroke-width="2.13714" stroke-linecap="round" stroke-linejoin="round"/>
<ellipse cx="741.536" cy="69.2279" rx="32.0316" ry="10.0839" fill="#1A80FD" stroke="black" stroke-width="2.13714" stroke-linecap="round" stroke-linejoin="round"/>
<rect x="44.5596" y="45.6658" width="715.455" height="245.726" fill="#F2A6C8" stroke="black" stroke-width="2.13714" stroke-linecap="round" stroke-linejoin="round"/>
<path d="M256.091 369.68V291.392V369.68Z" fill="#1AB995"/>
<path d="M256.091 369.68V291.392" stroke="black" stroke-width="2.13714" stroke-linecap="round" stroke-linejoin="round"/>
<path d="M532.231 45.5852V-32.7029V45.5852Z" fill="#1AB995"/>
<path d="M532.231 45.5852V-32.7029" stroke="black" stroke-width="2.13714" stroke-linecap="round" stroke-linejoin="round"/>
<mask id="mask2_216_2805" style="mask-type:luminance" maskUnits="userSpaceOnUse" x="295" y="-36" width="535" height="401">
<rect x="295.429" y="-35.905" width="534.285" height="400.713" fill="white"/>
</mask>
<g mask="url(#mask2_216_2805)">
<path d="M630.512 265.086L632.597 264.805C632.597 264.805 637.568 251.845 634.841 244.061L629.71 247.512L630.298 259.974" fill="#1A80FD"/>
<path d="M630.512 265.086L632.597 264.805C632.597 264.805 637.568 251.845 634.841 244.061L629.71 247.512L630.298 259.974" stroke="black" stroke-width="2.13714" stroke-linecap="round" stroke-linejoin="round"/>
<path d="M536.286 327.089L534.47 331.049L535.057 335.482L632.599 264.804V261.073L627.467 256.418L536.286 327.089Z" fill="#1A80FD" stroke="black" stroke-width="2.13714" stroke-linecap="round" stroke-linejoin="round"/>
<path d="M361.941 233.683L355.527 234.111V238.605L535.058 335.482L534.47 331.049V321.633" fill="#1A80FD"/>
<path d="M361.941 233.683L355.527 234.111V238.605L535.058 335.482L534.47 331.049V321.633" stroke="black" stroke-width="2.13714" stroke-linecap="round" stroke-linejoin="round"/>
<path d="M355.527 234.111C355.527 234.111 405.554 177.617 472.898 184.679L632.598 261.074L534.47 331.049L355.527 234.111Z" fill="#1A80FD"/>
<mask id="mask3_216_2805" style="mask-type:luminance" maskUnits="userSpaceOnUse" x="355" y="184" width="278" height="148">
<path fill-rule="evenodd" clip-rule="evenodd" d="M355.527 234.111C355.527 234.111 405.554 177.617 472.898 184.679L632.598 261.074L534.47 331.049L355.527 234.111Z" fill="white"/>
</mask>
<g mask="url(#mask3_216_2805)">
<path d="M382.459 230.243C370.064 228.547 537.08 318.889 532.914 324.453C528.748 330.017 567.762 305.967 553.063 295.951C538.365 285.935 494.063 271.165 494.063 271.165" fill="#1D62FC"/>
</g>
<path fill-rule="evenodd" clip-rule="evenodd" d="M355.527 234.111C355.527 234.111 405.554 177.617 472.898 184.679L632.598 261.074L534.47 331.049L355.527 234.111Z" stroke="black" stroke-width="2.13714" stroke-linecap="round" stroke-linejoin="round"/>
<path d="M605.661 257.557L632.599 261.073L634.843 244.061L587.382 223.84L605.661 257.557Z" fill="#1A80FD" stroke="black" stroke-width="2.13714" stroke-linecap="round" stroke-linejoin="round"/>
<path d="M632.687 247.271L635.661 245.987C635.661 245.987 685.191 191.419 768.997 197.518L769.611 195.11L722.391 189.814L643.823 204.58L628.109 237.962L632.687 247.271Z" fill="#1A80FD" stroke="black" stroke-width="2.13714" stroke-linecap="round" stroke-linejoin="round"/>
<path d="M624.903 243.74L634.844 244.061C634.844 244.061 683.347 188.048 769.612 195.11L692.247 159.962L587.384 192.168L567.181 218.275L624.903 243.74Z" fill="#1A80FD" stroke="black" stroke-width="2.13714" stroke-linecap="round" stroke-linejoin="round"/>
<path d="M386.741 202.012L372.204 208.004C372.204 208.004 374.341 221.271 370.066 228.547L535.293 319.944L534.231 291.984L386.741 202.012Z" fill="white"/>
<mask id="mask4_216_2805" style="mask-type:luminance" maskUnits="userSpaceOnUse" x="370" y="202" width="166" height="118">
<path fill-rule="evenodd" clip-rule="evenodd" d="M386.741 202.012L372.204 208.004C372.204 208.004 374.341 221.271 370.066 228.547L535.293 319.944L534.231 291.984L386.741 202.012Z" fill="white"/>
</mask>
<g mask="url(#mask4_216_2805)">
<path d="M361.831 211.376L428.854 247.271L360.869 214.193L361.831 211.376Z" fill="#D6DCF2"/>
</g>
<path fill-rule="evenodd" clip-rule="evenodd" d="M386.741 202.012L372.204 208.004C372.204 208.004 374.341 221.271 370.066 228.547L535.293 319.944L534.231 291.984L386.741 202.012Z" stroke="black" stroke-width="2.13714" stroke-linecap="round" stroke-linejoin="round"/>
<path d="M730.565 175.771L754.668 191.564C754.668 191.564 685.777 184.068 635.661 245.987L628.917 259.312L609.938 239.691L611.113 224.079L643.716 184.068L680.06 179.115" fill="white"/>
<path d="M730.565 175.771L754.668 191.564C754.668 191.564 685.777 184.068 635.661 245.987L628.917 259.312L609.938 239.691L611.113 224.079L643.716 184.068L680.06 179.115" stroke="black" stroke-width="2.13714" stroke-linecap="round" stroke-linejoin="round"/>
<path d="M541.097 262.785L533.581 292.95L535.293 319.944L628.917 259.312L623.935 247.271L557.878 244.061L541.097 262.785Z" fill="white" stroke="black" stroke-width="2.13714" stroke-linecap="round" stroke-linejoin="round"/>
<path d="M489.361 171.197C489.361 171.197 423.941 138.67 372.204 208.004L534.231 291.984C534.231 291.984 568.351 247.806 623.936 247.271L489.361 171.197Z" fill="white" stroke="black" stroke-width="2.13714" stroke-linecap="round" stroke-linejoin="round"/>
<path d="M585.567 91.5918C571.029 111.707 502.616 109.995 489.361 171.197L623.937 247.271C623.937 247.271 685.498 173.075 731.677 176.499L585.567 91.5918Z" fill="white"/>
<mask id="mask5_216_2805" style="mask-type:luminance" maskUnits="userSpaceOnUse" x="489" y="91" width="243" height="157">
<path fill-rule="evenodd" clip-rule="evenodd" d="M585.567 91.5918C571.029 111.707 502.616 109.995 489.361 171.197L623.937 247.271C623.937 247.271 685.498 173.075 731.677 176.499L585.567 91.5918Z" fill="white"/>
</mask>
<g mask="url(#mask5_216_2805)">
<path d="M498.555 142.293C489.362 171.198 594.969 211.957 592.404 229.445C589.838 246.934 465.369 184.155 465.369 184.155V119.181" fill="#D6DCF2"/>
</g>
<path fill-rule="evenodd" clip-rule="evenodd" d="M585.567 91.5918C571.029 111.707 502.616 109.995 489.361 171.197L623.937 247.271C623.937 247.271 685.498 173.075 731.677 176.499V176.499L585.567 91.5918Z" stroke="black" stroke-width="2.13714" stroke-linecap="round" stroke-linejoin="round"/>
<path d="M372.204 177.601C407.769 156.142 451.668 153.742 489.361 171.197L623.936 247.271C623.936 247.271 556.058 227.246 523.562 263.197L372.204 177.601Z" fill="white"/>
<mask id="mask6_216_2805" style="mask-type:luminance" maskUnits="userSpaceOnUse" x="372" y="159" width="252" height="105">
<path fill-rule="evenodd" clip-rule="evenodd" d="M372.204 177.601C407.769 156.142 451.668 153.742 489.361 171.197L623.936 247.271C623.936 247.271 556.058 227.246 523.562 263.197L372.204 177.601Z" fill="white"/>
</mask>
<g mask="url(#mask6_216_2805)">
<path d="M401 178.206L454.911 208.399C454.911 208.399 475.78 193.642 518.149 193.208L484.8 173.4C457.235 164.568 427.374 166.281 401 178.206H401Z" fill="#D6DCF2"/>
</g>
<path fill-rule="evenodd" clip-rule="evenodd" d="M372.204 177.601C407.769 156.142 451.668 153.742 489.361 171.197L623.936 247.271C623.936 247.271 556.058 227.246 523.562 263.197L372.204 177.601Z" stroke="black" stroke-width="2.13714" stroke-linecap="round" stroke-linejoin="round"/>
<path d="M465.155 218.297L468.792 220.249C468.792 220.249 497.304 199.402 522.882 199.143L519.666 196.959C519.666 196.959 488.207 200.697 465.155 218.297Z" fill="#D6DCF2"/>
<path d="M478.975 226.635L482.611 228.587C482.611 228.587 511.124 207.74 536.701 207.481L533.486 205.297C533.486 205.297 502.026 209.036 478.975 226.635Z" fill="#D6DCF2"/>
<path d="M491.94 234.778L495.577 236.729C495.577 236.729 524.09 215.883 549.667 215.623L546.451 213.44C546.451 213.44 514.992 217.177 491.94 234.778Z" fill="#D6DCF2"/>
<path d="M465.828 191.477L461.957 192.446" stroke="black" stroke-width="2.13714" stroke-linecap="round" stroke-linejoin="round"/>
<path d="M608.891 169.044L612.835 164.26" stroke="black" stroke-width="2.13714" stroke-linecap="round" stroke-linejoin="round"/>
<path d="M582.72 271.911C581.248 273.151 579.496 274.013 577.615 274.42" stroke="black" stroke-width="2.13714" stroke-linecap="round" stroke-linejoin="round"/>
<path d="M544.303 100.807C544.022 93.0513 542.109 85.4421 538.688 78.4761C527.221 55.227 501.075 43.1435 475.938 49.4763C450.8 55.809 433.499 78.8379 434.417 104.745C434.697 112.501 436.611 120.11 440.033 127.076C476.115 124.847 511.471 115.94 544.304 100.808L544.303 100.807Z" fill="#1B80FD"/>
<mask id="mask7_216_2805" style="mask-type:luminance" maskUnits="userSpaceOnUse" x="434" y="47" width="111" height="81">
<path fill-rule="evenodd" clip-rule="evenodd" d="M544.304 100.807C544.023 93.0513 542.11 85.4421 538.689 78.4761C527.222 55.227 501.076 43.1435 475.938 49.4763C450.801 55.809 433.5 78.8379 434.418 104.745C434.698 112.501 436.612 120.11 440.034 127.076C476.116 124.847 511.472 115.94 544.305 100.808L544.304 100.807Z" fill="white"/>
</mask>
<g mask="url(#mask7_216_2805)">
<path d="M453.971 40.3408C570.98 47.2754 546.956 111.512 463.523 124.836C380.091 138.159 573.788 116.043 573.788 116.043L570.625 52.2848L481.898 35.0366L458.213 47.0123" fill="#1D62FC"/>
</g>
<path fill-rule="evenodd" clip-rule="evenodd" d="M544.303 100.807C544.022 93.0513 542.109 85.4421 538.688 78.4761C527.221 55.227 501.075 43.1435 475.938 49.4763C450.8 55.809 433.499 78.8379 434.417 104.745C434.697 112.501 436.611 120.11 440.033 127.076C476.115 124.847 511.471 115.94 544.304 100.808L544.303 100.807Z" stroke="black" stroke-width="2.13714" stroke-linecap="round" stroke-linejoin="round"/>
<path d="M444.552 134.655C457.676 153.143 480.808 161.674 502.794 156.135C524.78 150.597 541.108 132.125 543.907 109.625C512.419 123.457 478.836 131.918 444.552 134.655H444.552Z" fill="#1B80FD"/>
<path fill-rule="evenodd" clip-rule="evenodd" d="M444.552 134.655C457.676 153.143 480.808 161.674 502.794 156.135C524.78 150.597 541.108 132.125 543.907 109.625C512.419 123.457 478.836 131.918 444.552 134.655H444.552Z" stroke="black" stroke-width="2.13714" stroke-linecap="round" stroke-linejoin="round"/>
<path d="M573.508 81.5767C571.65 74.1882 561.275 70.4944 542.669 70.6019C539.959 70.6175 537.113 70.722 534.168 70.897C535.876 73.2975 537.388 75.8322 538.687 78.4764C555.635 77.9314 565.232 80.4381 565.995 83.4698C566.757 86.5016 559.487 93.2579 544.303 100.807C511.47 115.939 476.114 124.846 440.032 127.076C423.085 127.621 413.487 125.114 412.724 122.083C411.961 119.051 419.231 112.294 434.416 104.745C434.31 101.8 434.442 98.851 434.812 95.9274C432.136 97.168 429.579 98.4249 427.185 99.6958C410.745 108.417 403.352 116.587 405.21 123.975C407.068 131.364 417.444 135.057 436.049 134.95C438.759 134.934 441.605 134.83 444.549 134.655C478.833 131.918 512.416 123.457 543.905 109.625C546.581 108.384 549.137 107.127 551.532 105.857C567.973 97.1351 575.366 88.965 573.508 81.5767Z" fill="#FACCC4"/>
<mask id="mask8_216_2805" style="mask-type:luminance" maskUnits="userSpaceOnUse" x="404" y="70" width="170" height="65">
<path fill-rule="evenodd" clip-rule="evenodd" d="M573.508 81.5767C571.65 74.1882 561.275 70.4944 542.669 70.6019C539.959 70.6175 537.113 70.722 534.168 70.897C535.876 73.2975 537.388 75.8322 538.687 78.4764C555.635 77.9314 565.232 80.4381 565.995 83.4698C566.757 86.5016 559.487 93.2579 544.303 100.807C511.47 115.939 476.114 124.846 440.032 127.076C423.085 127.621 413.487 125.114 412.724 122.083C411.961 119.051 419.231 112.294 434.416 104.745C434.31 101.8 434.442 98.851 434.812 95.9274C432.136 97.168 429.579 98.4249 427.185 99.6958C410.745 108.417 403.352 116.587 405.21 123.975C407.068 131.364 417.444 135.057 436.049 134.95C438.759 134.934 441.605 134.83 444.549 134.655C478.833 131.918 512.416 123.457 543.905 109.625C546.581 108.384 549.137 107.127 551.532 105.857C567.973 97.1351 575.366 88.965 573.508 81.5767Z" fill="white"/>
</mask>
<g mask="url(#mask8_216_2805)">
<path d="M392.463 102.776C444.073 94.638 439.125 117.842 439.125 117.842L451.85 89.0251L431.348 84.7734" fill="#ED707B"/>
<path d="M520.075 62.8057C545.88 66.3319 548.709 84.7733 548.709 84.7733L526.792 89.0249L519.722 82.2538" fill="#ED707B"/>
</g>
<path fill-rule="evenodd" clip-rule="evenodd" d="M573.508 81.5767C571.65 74.1882 561.275 70.4944 542.669 70.6019C539.959 70.6175 537.113 70.722 534.168 70.897C535.876 73.2975 537.388 75.8322 538.687 78.4764C555.635 77.9314 565.232 80.4381 565.995 83.4698C566.757 86.5016 559.487 93.2579 544.303 100.807C511.47 115.939 476.114 124.846 440.032 127.076C423.085 127.621 413.487 125.114 412.724 122.083C411.961 119.051 419.231 112.294 434.416 104.745C434.31 101.8 434.442 98.851 434.812 95.9274C432.136 97.168 429.579 98.4249 427.185 99.6958C410.745 108.417 403.352 116.587 405.21 123.975C407.068 131.364 417.444 135.057 436.049 134.95C438.759 134.934 441.605 134.83 444.549 134.655C478.833 131.918 512.416 123.457 543.905 109.625C546.581 108.384 549.137 107.127 551.532 105.857C567.973 97.1351 575.366 88.965 573.508 81.5767Z" stroke="black" stroke-width="2.13714" stroke-linecap="round" stroke-linejoin="round"/>
<path d="M482.864 74.4629C482.434 77.6112 481.299 80.6219 479.544 83.2707" stroke="black" stroke-width="2.13714" stroke-linecap="round" stroke-linejoin="round"/>
<path d="M514.958 133.225L508.889 137.382" stroke="black" stroke-width="2.13714" stroke-linecap="round" stroke-linejoin="round"/>
<path d="M632.613 166.668H658.897V184.941C658.897 191.591 653.506 196.981 646.857 196.981H644.653C638.004 196.981 632.613 191.591 632.613 184.941V166.668V166.668Z" fill="#E43334" stroke="black" stroke-width="2.13714" stroke-linecap="round" stroke-linejoin="round"/>
<path d="M626.55 160.568H664.96V182.268C664.96 187.024 661.104 190.88 656.347 190.88H635.165C630.408 190.88 626.552 187.024 626.552 182.268V160.568H626.55Z" fill="#E43334"/>
<mask id="mask9_216_2805" style="mask-type:luminance" maskUnits="userSpaceOnUse" x="626" y="160" width="39" height="31">
<path fill-rule="evenodd" clip-rule="evenodd" d="M626.55 160.568H664.96V182.268C664.96 187.025 661.104 190.881 656.347 190.881H635.165C630.408 190.881 626.552 187.025 626.552 182.268V160.568H626.55Z" fill="white"/>
</mask>
<g mask="url(#mask9_216_2805)">
<path d="M630.072 192.3C620.001 162.057 647.395 167.851 670.357 166.668C693.32 165.485 656.257 158.024 656.257 158.024L626.55 160.568L623.425 173.952L625.089 189.88" fill="#C11F27"/>
</g>
<path fill-rule="evenodd" clip-rule="evenodd" d="M626.55 160.568H664.96V182.268C664.96 187.024 661.104 190.88 656.347 190.88H635.165C630.408 190.88 626.552 187.024 626.552 182.268V160.568H626.55Z" stroke="black" stroke-width="2.13714" stroke-linecap="round" stroke-linejoin="round"/>
<path d="M683.427 109.737C683.416 93.8785 673.474 79.725 658.56 74.3349C643.645 68.9448 626.952 73.4726 616.805 85.6603C606.658 97.8479 605.23 115.085 613.234 128.776C619.478 139.316 622.8 151.33 622.858 163.58C622.858 164.264 623.412 164.819 624.095 164.82H667.416C668.1 164.819 668.654 164.264 668.654 163.58C668.607 151.462 671.857 139.559 678.058 129.147C681.581 123.287 683.438 116.575 683.427 109.737Z" fill="#FDD504"/>
<mask id="mask10_216_2805" style="mask-type:luminance" maskUnits="userSpaceOnUse" x="608" y="72" width="76" height="93">
<path fill-rule="evenodd" clip-rule="evenodd" d="M683.427 109.737C683.416 93.8785 673.474 79.725 658.56 74.3349C643.645 68.9448 626.952 73.4726 616.805 85.6603C606.658 97.8479 605.23 115.085 613.234 128.776C619.478 139.316 622.8 151.33 622.858 163.58C622.858 164.264 623.412 164.819 624.095 164.82H667.416C668.1 164.819 668.654 164.264 668.654 163.58C668.607 151.462 671.857 139.559 678.058 129.147C681.581 123.287 683.438 116.575 683.427 109.737Z" fill="white"/>
</mask>
<g mask="url(#mask10_216_2805)">
<path d="M620.404 77.7803C580.521 121.33 644.575 168.44 677.609 164.441C710.644 160.443 630.072 192.299 630.072 192.299L595.877 175.724L582.938 114.04" fill="#FCB006"/>
</g>
<path fill-rule="evenodd" clip-rule="evenodd" d="M683.427 109.737C683.416 93.8785 673.474 79.725 658.56 74.3349C643.645 68.9448 626.952 73.4726 616.805 85.6603C606.658 97.8479 605.23 115.085 613.234 128.776C619.478 139.316 622.8 151.33 622.858 163.58V163.58C622.858 164.264 623.412 164.819 624.095 164.82H667.416C668.1 164.819 668.654 164.264 668.654 163.58V163.58C668.607 151.462 671.857 139.559 678.058 129.147C681.581 123.287 683.438 116.575 683.427 109.737V109.737Z" stroke="black" stroke-width="2.13714" stroke-linecap="round" stroke-linejoin="round"/>
<rect x="625.09" y="169.81" width="41.331" height="5.91474" fill="white" stroke="black" stroke-width="2.13714" stroke-linecap="round" stroke-linejoin="round"/>
<rect x="625.09" y="178.867" width="41.331" height="5.91474" fill="white" stroke="black" stroke-width="2.13714" stroke-linecap="round" stroke-linejoin="round"/>
<rect x="641.561" y="22.2681" width="8.38912" height="35.0482" fill="#FCB006" stroke="black" stroke-width="2.13714" stroke-linecap="round" stroke-linejoin="round"/>
<rect x="560.861" y="111.44" width="8.39703" height="35.0151" transform="rotate(-90 560.861 111.44)" fill="#FCB006" stroke="black" stroke-width="2.13714" stroke-linecap="round" stroke-linejoin="round"/>
<rect x="695.634" y="111.441" width="8.39703" height="35.0151" transform="rotate(-90 695.634 111.441)" fill="#FCB006" stroke="black" stroke-width="2.13714" stroke-linecap="round" stroke-linejoin="round"/>
<rect x="582.748" y="50.136" width="8.39297" height="35.0318" transform="rotate(-45.0272 582.748 50.136)" fill="#FCB006" stroke="black" stroke-width="2.13714" stroke-linecap="round" stroke-linejoin="round"/>
<rect x="683.979" y="74.8958" width="8.39297" height="35.0318" transform="rotate(-134.973 683.979 74.8958)" fill="#FCB006" stroke="black" stroke-width="2.13714" stroke-linecap="round" stroke-linejoin="round"/>
<path d="M667.704 108.756C663.756 113.147 659.414 117.167 654.731 120.765" stroke="black" stroke-width="2.13714" stroke-linecap="round" stroke-linejoin="round"/>
<rect x="573.466" y="228.141" width="17.0535" height="37.3516" transform="rotate(-51.1563 573.466 228.141)" fill="#1AB995"/>
<mask id="mask11_216_2805" style="mask-type:luminance" maskUnits="userSpaceOnUse" x="573" y="214" width="41" height="38">
<rect x="573.466" y="228.141" width="17.0535" height="37.3516" transform="rotate(-51.1563 573.466 228.141)" fill="white"/>
</mask>
<g mask="url(#mask11_216_2805)">
<path d="M590.782 215.696C598.122 227.37 581.139 231.925 588.057 238.008C594.975 244.091 604.835 234.418 608.372 227.453C611.91 220.489 616.614 241.02 616.614 241.02L591.232 258.577L573.665 235.4L582.055 225.913" fill="#0FA379"/>
</g>
<rect x="573.466" y="228.141" width="17.0535" height="37.3516" transform="rotate(-51.1563 573.466 228.141)" stroke="black" stroke-width="2.13714" stroke-linecap="round" stroke-linejoin="round"/>
<path d="M646.551 276.129C644.027 279.265 640.343 281.251 636.335 281.634C632.327 282.018 628.334 280.768 625.26 278.167L590.923 249.121L608.372 227.452L644.02 254.87C647.212 257.327 649.28 260.967 649.757 264.967C650.233 268.967 649.078 272.991 646.551 276.129Z" fill="#FCB006"/>
<mask id="mask12_216_2805" style="mask-type:luminance" maskUnits="userSpaceOnUse" x="590" y="227" width="60" height="55">
<path fill-rule="evenodd" clip-rule="evenodd" d="M646.551 276.129C644.027 279.265 640.343 281.251 636.335 281.634C632.327 282.018 628.334 280.768 625.26 278.167L590.923 249.121L608.372 227.452L644.02 254.87C647.212 257.327 649.28 260.967 649.757 264.967C650.233 268.967 649.078 272.991 646.551 276.129Z" fill="white"/>
</mask>
<g mask="url(#mask12_216_2805)">
<path d="M602.659 224.528C657.874 266.357 635.748 273.983 628.823 285.403C621.899 296.822 658.369 285.663 658.369 285.663L679.618 264.861L639.693 226.943L613.075 225.679" fill="#FDD504"/>
</g>
<path fill-rule="evenodd" clip-rule="evenodd" d="M646.551 276.129V276.129C644.027 279.265 640.343 281.251 636.335 281.634C632.327 282.018 628.334 280.768 625.26 278.167L590.923 249.121L608.372 227.452L644.02 254.87C647.212 257.327 649.28 260.967 649.757 264.967C650.233 268.967 649.078 272.991 646.551 276.129V276.129Z" stroke="black" stroke-width="2.13714" stroke-linecap="round" stroke-linejoin="round"/>
<path fill-rule="evenodd" clip-rule="evenodd" d="M510.835 222.626C501.765 206.007 503.601 185.56 515.487 170.822C531.721 150.742 561.141 147.58 581.272 163.751C596.019 175.625 602.159 195.215 596.828 213.383C591.497 231.55 575.745 244.716 556.92 246.74C538.095 248.763 519.905 239.246 510.835 222.626ZM530.379 226.909C545.124 238.8 566.715 236.492 578.612 221.752C584.34 214.67 587.013 205.6 586.041 196.544C585.07 187.487 580.533 179.191 573.433 173.485C558.68 161.605 537.09 163.929 525.205 178.678C513.319 193.427 515.635 215.017 530.379 226.909Z" fill="#1AB995"/>
<path d="M515.487 170.822L514.656 170.15L514.655 170.151L515.487 170.822ZM581.272 163.751L581.942 162.918L581.941 162.918L581.272 163.751ZM578.612 221.752L577.781 221.08L577.781 221.081L578.612 221.752ZM573.433 173.485L572.763 174.317L572.764 174.318L573.433 173.485ZM514.655 170.151C502.498 185.225 500.62 206.139 509.897 223.138L511.773 222.115C502.91 205.875 504.704 185.894 516.319 171.493L514.655 170.151ZM509.897 223.138C519.174 240.137 537.78 249.872 557.034 247.802L556.806 245.677C538.411 247.655 520.636 238.355 511.773 222.115L509.897 223.138ZM557.034 247.802C576.289 245.733 592.4 232.266 597.853 213.684L595.802 213.082C590.593 230.834 575.201 243.7 556.806 245.677L557.034 247.802ZM597.853 213.684C603.306 195.101 597.026 175.064 581.942 162.918L580.602 164.583C595.012 176.187 601.012 195.329 595.802 213.082L597.853 213.684ZM581.941 162.918C561.351 146.378 531.261 149.613 514.656 170.15L516.318 171.494C532.182 151.872 560.931 148.782 580.603 164.584L581.941 162.918ZM577.781 221.081C566.254 235.361 545.335 237.598 531.05 226.077L529.709 227.741C544.912 240.002 567.176 237.622 579.444 222.423L577.781 221.081ZM531.05 226.077C516.765 214.556 514.521 193.638 526.037 179.349L524.373 178.007C512.116 193.215 514.505 215.479 529.709 227.741L531.05 226.077ZM526.037 179.349C537.552 165.059 558.47 162.807 572.763 174.317L574.104 172.653C558.891 160.402 536.629 162.799 524.373 178.007L526.037 179.349ZM572.764 174.318C579.642 179.846 584.038 187.884 584.979 196.658L587.104 196.43C586.102 187.091 581.424 178.536 574.103 172.652L572.764 174.318ZM584.979 196.658C585.92 205.431 583.33 214.219 577.781 221.08L579.443 222.424C585.349 215.121 588.106 205.768 587.104 196.43L584.979 196.658Z" fill="black"/>
<path d="M511.952 193.419C512.357 196.334 512.263 199.296 511.677 202.179" stroke="black" stroke-width="2.13714" stroke-linecap="round" stroke-linejoin="round"/>
<path d="M625.033 253.133L625.752 255.963" stroke="black" stroke-width="2.13714" stroke-linecap="round" stroke-linejoin="round"/>
<ellipse cx="386.72" cy="78.8665" rx="23.3504" ry="23.3724" fill="#FDD504" stroke="black" stroke-width="2.13714" stroke-linecap="round" stroke-linejoin="round"/>
<ellipse cx="687.283" cy="267.047" rx="10.6175" ry="10.6276" fill="#1AB995" stroke="black" stroke-width="2.13714" stroke-linecap="round" stroke-linejoin="round"/>
<ellipse cx="589.881" cy="11.6406" rx="18.2029" ry="18.2202" fill="#E43334" stroke="black" stroke-width="2.13714" stroke-linecap="round" stroke-linejoin="round"/>
</g>
</g>
<rect x="1.57324" y="1.89209" width="801.427" height="313.892" stroke="black" stroke-width="2.13714" stroke-linecap="round" stroke-linejoin="round"/>
</svg>
