<svg width="805" height="317" viewBox="0 0 805 317" fill="none" xmlns="http://www.w3.org/2000/svg">
<rect x="1.57324" y="1.78467" width="801.427" height="313.892" fill="white"/>
<mask id="mask0_216_2954" style="mask-type:luminance" maskUnits="userSpaceOnUse" x="1" y="1" width="802" height="315">
<rect x="1.57324" y="1.78442" width="801.427" height="313.892" fill="white"/>
</mask>
<g mask="url(#mask0_216_2954)">
<rect x="1.57324" y="-11.5728" width="801.427" height="340.606" fill="white"/>
<rect x="-12.7852" y="-20.8564" width="825.336" height="355.566" fill="#F8FAFA"/>
<circle cx="741.247" cy="315.761" r="105.489" fill="#FCB006"/>
<mask id="mask1_216_2954" style="mask-type:luminance" maskUnits="userSpaceOnUse" x="635" y="210" width="212" height="212">
<circle cx="741.246" cy="315.761" r="105.489" fill="white"/>
</mask>
<g mask="url(#mask1_216_2954)">
<path d="M451.403 330.874L1031.09 300.648" stroke="white" stroke-width="2.13714"/>
<path d="M450.247 308.701L1029.93 278.474" stroke="white" stroke-width="2.13714"/>
<path d="M449.091 286.528L1028.78 256.301" stroke="white" stroke-width="2.13714"/>
<path d="M447.934 264.355L1027.62 234.128" stroke="white" stroke-width="2.13714"/>
<path d="M446.778 242.181L1026.46 211.954" stroke="white" stroke-width="2.13714"/>
<path d="M445.622 220.008L1025.31 189.781" stroke="white" stroke-width="2.13714"/>
</g>
<circle cx="741.247" cy="315.761" r="105.489" stroke="black" stroke-width="2.13714" stroke-linecap="round" stroke-linejoin="round"/>
<path d="M16.1025 309.232L16.998 243.562L77.806 235.746L76.9105 301.414L16.1025 309.232Z" fill="#1A80FD" stroke="black" stroke-width="2.13714" stroke-linecap="round" stroke-linejoin="round"/>
<path d="M77.8056 235.746L232.351 322.191L231.455 387.861L76.9102 301.414L77.8056 235.746Z" fill="white"/>
<path fill-rule="evenodd" clip-rule="evenodd" d="M77.8056 235.746L232.351 322.191L231.455 387.861L76.9102 301.414L77.8056 235.746V235.746Z" stroke="black" stroke-width="2.13714" stroke-linecap="round" stroke-linejoin="round"/>
<path d="M76.9105 301.414L231.456 387.861L170.648 395.677L16.1025 309.232L76.9105 301.414Z" fill="white"/>
<path fill-rule="evenodd" clip-rule="evenodd" d="M76.9105 301.414L231.456 387.861L170.648 395.677L16.1025 309.232L76.9105 301.414V301.414Z" stroke="black" stroke-width="2.13714" stroke-linecap="round" stroke-linejoin="round"/>
<path d="M162.759 321.831C167.579 316.439 173.326 311.953 179.728 308.587" stroke="black" stroke-width="2.13714"/>
<path d="M773.567 69.12V-111.562H773.467C772.431 -116.837 758.552 -121.017 741.536 -121.017C724.519 -121.017 710.641 -116.837 709.605 -111.562H709.504V69.12H773.567Z" fill="white" stroke="black" stroke-width="2.13714" stroke-linecap="round" stroke-linejoin="round"/>
<ellipse cx="741.536" cy="69.1198" rx="32.0316" ry="10.0839" fill="#1A80FD" stroke="black" stroke-width="2.13714" stroke-linecap="round" stroke-linejoin="round"/>
<rect x="44.5596" y="45.5576" width="715.455" height="245.726" fill="#1AB995" stroke="black" stroke-width="2.13714" stroke-linecap="round" stroke-linejoin="round"/>
<path d="M256.091 369.572V291.284V369.572Z" fill="#1AB995"/>
<path d="M256.091 369.572V291.284" stroke="black" stroke-width="2.13714" stroke-linecap="round" stroke-linejoin="round"/>
<path d="M532.231 45.4773V-32.8108V45.4773Z" fill="#1AB995"/>
<path d="M532.231 45.4773V-32.8108" stroke="black" stroke-width="2.13714" stroke-linecap="round" stroke-linejoin="round"/>
<path d="M504.676 381.114H427.963C412.117 381.096 398.954 368.886 397.746 353.086L382.149 152.191H550.49L534.893 353.086C533.686 368.886 520.522 381.096 504.676 381.114Z" fill="#E43334"/>
<mask id="mask2_216_2954" style="mask-type:luminance" maskUnits="userSpaceOnUse" x="382" y="152" width="169" height="230">
<path fill-rule="evenodd" clip-rule="evenodd" d="M504.677 381.114H427.964C412.118 381.096 398.955 368.886 397.747 353.086L382.15 152.191H550.491L534.894 353.086C533.687 368.886 520.523 381.096 504.677 381.114Z" fill="white"/>
</mask>
<g mask="url(#mask2_216_2954)">
<rect x="364.428" y="198.286" width="206.904" height="104.673" fill="#FDD504"/>
<mask id="mask3_216_2954" style="mask-type:luminance" maskUnits="userSpaceOnUse" x="364" y="198" width="208" height="105">
<rect x="364.429" y="198.286" width="206.904" height="104.673" fill="white"/>
</mask>
<g mask="url(#mask3_216_2954)">
<rect x="402.5" y="272.895" width="45.9788" height="18.541" fill="white" stroke="black" stroke-width="2.13714" stroke-linecap="round" stroke-linejoin="round"/>
<path d="M557.88 171.718C546.611 383.599 305.088 305.195 305.088 305.195L636.319 385.906L594.915 195.746" fill="#FCB006"/>
</g>
<rect x="364.428" y="198.286" width="206.904" height="104.673" stroke="black" stroke-width="2.13714" stroke-linecap="round" stroke-linejoin="round"/>
<path d="M378.315 221.334C376.879 163.715 454.947 176.679 555.525 175.719C656.104 174.759 483.205 150.751 483.205 150.751L382.15 152.191L375.921 183.882L368.615 220.373" fill="#C11F27"/>
</g>
<path fill-rule="evenodd" clip-rule="evenodd" d="M504.676 381.114H427.963C412.117 381.096 398.954 368.886 397.746 353.086L382.149 152.191H550.49L534.893 353.086C533.686 368.886 520.522 381.096 504.676 381.114Z" stroke="black" stroke-width="2.13714" stroke-linecap="round" stroke-linejoin="round"/>
<path d="M542.395 161.042H390.242C387.139 161.042 384.753 157.156 385.189 152.809L387.378 130.979C387.735 127.419 389.889 124.774 392.431 124.774H540.207C542.748 124.774 544.903 127.419 545.26 130.979L547.449 152.809C547.884 157.156 545.498 161.042 542.395 161.042Z" fill="#1AB995" stroke="black" stroke-width="2.13714" stroke-linecap="round" stroke-linejoin="round"/>
<path d="M557.881 171.717H374.759C372.925 171.654 371.207 170.804 370.043 169.386C368.879 167.967 368.381 166.117 368.677 164.306L371.312 144.653C371.652 141.529 374.253 139.141 377.394 139.066H555.246C558.387 139.141 560.988 141.529 561.328 144.653L563.963 164.306C564.258 166.116 563.761 167.967 562.597 169.386C561.433 170.804 559.715 171.653 557.881 171.717Z" fill="white" stroke="black" stroke-width="2.13714" stroke-linecap="round" stroke-linejoin="round"/>
<path d="M449.988 238.312C447.354 243.186 443.362 247.191 438.496 249.839" stroke="black" stroke-width="2.13714" stroke-linecap="round" stroke-linejoin="round"/>
<path d="M537.411 147.232L536.261 149.538" stroke="black" stroke-width="2.13714" stroke-linecap="round" stroke-linejoin="round"/>
<path d="M778.023 202.57C770.702 202.111 763.354 202.289 756.063 203.102C754.803 213.621 754.379 224.223 754.795 234.808C750.305 225.198 747.164 215.014 745.463 204.543C729.368 207.178 713.86 212.612 699.64 220.599C697.992 233.727 697.38 246.965 697.808 260.189C693.326 249.897 690.102 239.101 688.206 228.036C667.832 243.009 649.538 266.58 640.505 303.64C631.897 338.962 633.307 358.711 639.228 369.238C721.763 324.916 778.023 202.57 778.023 202.57Z" fill="#1AB995" stroke="black" stroke-width="2.13714" stroke-linecap="round" stroke-linejoin="round"/>
<path d="M778.023 202.57C778.023 202.57 721.763 324.916 639.229 369.238C651.944 391.844 685.493 371.863 685.493 371.863C705.745 373.993 729.446 364.229 748.371 343.802C744.462 340.435 740.87 336.718 737.637 332.697C743.638 334.117 749.793 334.777 755.959 334.663C760.967 327.925 765.274 320.693 768.812 313.08C767.149 312.22 765.451 311.267 763.719 310.192C766.096 309.831 768.448 309.327 770.764 308.682C776.048 296.058 779.575 282.768 781.246 269.184C773.272 269.213 765.36 267.799 757.889 265.012C766.382 263.006 774.613 260.019 782.416 256.112C783.227 238.15 781.751 220.159 778.023 202.57Z" fill="#1AB995"/>
<mask id="mask4_216_2954" style="mask-type:luminance" maskUnits="userSpaceOnUse" x="639" y="202" width="144" height="179">
<path fill-rule="evenodd" clip-rule="evenodd" d="M778.024 202.57C778.024 202.57 721.764 324.916 639.229 369.238C651.945 391.844 685.494 371.863 685.494 371.863C705.746 373.993 729.447 364.229 748.372 343.802C744.463 340.435 740.87 336.718 737.638 332.697C743.639 334.117 749.794 334.777 755.96 334.663C760.968 327.925 765.275 320.693 768.813 313.08C767.15 312.22 765.452 311.267 763.72 310.192C766.097 309.831 768.449 309.327 770.765 308.682C776.049 296.058 779.576 282.768 781.247 269.184C773.273 269.213 765.361 267.799 757.89 265.012C766.383 263.006 774.614 260.019 782.417 256.112C783.228 238.15 781.752 220.159 778.024 202.57Z" fill="white"/>
</mask>
<g mask="url(#mask4_216_2954)">
<path d="M769.139 220.153C704.371 381.114 730.628 365.88 778.024 356.568C825.419 347.256 741.142 394.272 737.66 395.746C734.178 397.22 652.136 393.681 655.97 387.398C659.804 381.114 687.407 256.844 687.407 256.844L747.979 232.141" fill="#0FA379"/>
</g>
<path fill-rule="evenodd" clip-rule="evenodd" d="M778.023 202.57C778.023 202.57 721.763 324.916 639.229 369.238C651.944 391.844 685.493 371.863 685.493 371.863C705.745 373.993 729.446 364.229 748.371 343.802C744.462 340.435 740.87 336.718 737.637 332.697C743.638 334.117 749.793 334.777 755.959 334.663C760.967 327.925 765.274 320.693 768.812 313.08C767.149 312.22 765.451 311.267 763.719 310.192C766.096 309.831 768.448 309.327 770.764 308.682C776.048 296.058 779.575 282.768 781.246 269.184C773.272 269.213 765.36 267.799 757.889 265.012C766.382 263.006 774.613 260.019 782.416 256.112C783.227 238.15 781.751 220.159 778.023 202.57Z" stroke="black" stroke-width="2.13714" stroke-linecap="round" stroke-linejoin="round"/>
<path d="M399.068 285.911C404.842 285.669 410.626 285.763 416.389 286.192C417.382 291.718 417.718 297.342 417.389 302.946C420.82 298.122 423.317 292.698 424.75 286.954C437.102 288.27 449.243 291.12 460.89 295.439C462.189 302.331 462.673 309.352 462.335 316.358C465.772 311.147 468.331 305.408 469.909 299.368C485.978 307.28 500.407 319.735 507.53 339.317C514.32 357.981 513.208 368.416 508.538 373.979C443.442 350.558 399.068 285.911 399.068 285.911Z" fill="#1AB995"/>
<mask id="mask5_216_2954" style="mask-type:luminance" maskUnits="userSpaceOnUse" x="399" y="285" width="114" height="89">
<path fill-rule="evenodd" clip-rule="evenodd" d="M399.069 285.912C404.843 285.669 410.627 285.763 416.39 286.193C417.383 291.718 417.719 297.342 417.39 302.946C420.821 298.122 423.318 292.698 424.751 286.954C437.103 288.27 449.244 291.12 460.891 295.439C462.189 302.332 462.674 309.353 462.336 316.358C465.773 311.148 468.332 305.408 469.91 299.368C485.979 307.28 500.408 319.735 507.531 339.317C514.321 357.981 513.209 368.417 508.539 373.979C443.443 350.558 399.069 285.912 399.069 285.912Z" fill="white"/>
</mask>
<g mask="url(#mask5_216_2954)">
<path d="M439.748 279.389C451.24 340.739 423.214 350.735 508.538 373.978C593.862 397.222 548.625 291.293 548.625 291.293L381.476 246.52" fill="#0FA379"/>
</g>
<path fill-rule="evenodd" clip-rule="evenodd" d="M399.068 285.911C404.842 285.669 410.626 285.763 416.389 286.192C417.382 291.718 417.718 297.342 417.389 302.946C420.82 298.122 423.317 292.698 424.75 286.954C437.102 288.27 449.243 291.12 460.89 295.439C462.189 302.331 462.673 309.352 462.335 316.358C465.772 311.147 468.331 305.408 469.909 299.368C485.978 307.28 500.407 319.735 507.53 339.317C514.32 357.981 513.208 368.416 508.538 373.979C443.442 350.558 399.068 285.911 399.068 285.911Z" stroke="black" stroke-width="2.13714" stroke-linecap="round" stroke-linejoin="round"/>
<path d="M399.069 285.911C399.069 285.911 443.442 350.56 508.539 373.978C498.509 385.923 472.049 375.365 472.049 375.365C454.316 376.186 436.829 370.958 422.456 360.539C425.44 358.827 428.272 356.864 430.922 354.67C426.144 355.426 421.309 355.773 416.472 355.709C412.665 352.31 409.264 348.483 406.334 344.305C407.646 343.85 408.984 343.347 410.352 342.779C410.352 342.779 408.187 342.591 404.795 341.981C400.747 335.609 397.941 328.527 396.528 321.111C402.736 321.134 408.923 320.394 414.95 318.906C408.383 317.873 401.913 316.3 395.606 314.203C394.973 304.639 396.148 295.041 399.069 285.911Z" fill="#0FA379" stroke="black" stroke-width="2.13714" stroke-linecap="round" stroke-linejoin="round"/>
<rect x="461.094" y="207.591" width="241.227" height="43.9941" fill="white"/>
<mask id="mask6_216_2954" style="mask-type:luminance" maskUnits="userSpaceOnUse" x="461" y="207" width="242" height="45">
<rect x="461.095" y="207.591" width="241.227" height="43.9941" fill="white"/>
</mask>
<g mask="url(#mask6_216_2954)">
<path d="M457.268 222.37L669.606 223.05L453.417 225.091L457.268 222.37Z" fill="#D6DCF2"/>
<path d="M441.517 240.713L653.855 241.393L437.666 243.432L441.517 240.713Z" fill="#D6DCF2"/>
</g>
<rect x="461.094" y="207.591" width="241.227" height="43.9941" stroke="black" stroke-width="2.13714" stroke-linecap="round" stroke-linejoin="round"/>
<path d="M709.615 207.59C709.619 204.689 707.27 202.335 704.369 202.331H457.866C454.973 202.291 452.563 204.54 452.402 207.429C452.357 208.849 452.889 210.227 453.877 211.249C454.865 212.27 456.225 212.848 457.646 212.85H694.863C696.461 212.852 697.992 213.488 699.12 214.619C700.247 215.75 700.88 217.282 700.878 218.879V240.295C700.882 243.621 698.189 246.321 694.863 246.325H457.866C454.973 246.285 452.563 248.534 452.402 251.422C452.357 252.843 452.889 254.221 453.877 255.243C454.865 256.264 456.225 256.842 457.646 256.844H704.369C705.762 256.842 707.098 256.287 708.082 255.301C709.065 254.314 709.617 252.978 709.615 251.585V208.226C709.615 208.119 709.605 208.014 709.599 207.908C709.606 207.803 709.615 207.698 709.615 207.59Z" fill="#FCB006"/>
<mask id="mask7_216_2954" style="mask-type:luminance" maskUnits="userSpaceOnUse" x="452" y="202" width="258" height="55">
<path fill-rule="evenodd" clip-rule="evenodd" d="M709.615 207.59C709.619 204.689 707.27 202.335 704.369 202.331H457.866C454.973 202.291 452.563 204.54 452.402 207.429C452.357 208.849 452.889 210.227 453.877 211.249C454.865 212.27 456.225 212.848 457.646 212.85H694.863C696.461 212.852 697.992 213.488 699.12 214.619C700.247 215.75 700.88 217.282 700.878 218.879V240.295C700.882 243.621 698.189 246.321 694.863 246.325H457.866C454.973 246.285 452.563 248.534 452.402 251.422C452.357 252.843 452.889 254.221 453.877 255.243C454.865 256.264 456.225 256.842 457.646 256.844H704.369C705.762 256.842 707.098 256.287 708.082 255.301C709.065 254.314 709.617 252.978 709.615 251.585V208.226C709.615 208.119 709.605 208.014 709.599 207.908C709.606 207.803 709.615 207.698 709.615 207.59Z" fill="white"/>
</mask>
<g mask="url(#mask7_216_2954)">
<path d="M415.595 256.844C703.168 262.103 706.219 262.887 709.614 220.233C712.193 187.835 737.657 313.443 737.657 313.443L581.707 307.399L430.93 269.812" fill="#FDD504"/>
</g>
<path fill-rule="evenodd" clip-rule="evenodd" d="M709.615 207.59C709.619 204.689 707.27 202.335 704.369 202.331H457.866C454.973 202.291 452.563 204.54 452.402 207.429C452.357 208.849 452.889 210.227 453.877 211.249C454.865 212.27 456.225 212.848 457.646 212.85H694.863C696.461 212.852 697.992 213.488 699.12 214.619C700.247 215.75 700.88 217.282 700.878 218.879V240.295C700.882 243.621 698.189 246.321 694.863 246.325H457.866C454.973 246.285 452.563 248.534 452.402 251.422C452.357 252.843 452.889 254.221 453.877 255.243C454.865 256.264 456.225 256.842 457.646 256.844H704.369C705.762 256.842 707.098 256.287 708.082 255.301C709.065 254.314 709.617 252.978 709.615 251.585V208.226C709.615 208.119 709.605 208.014 709.599 207.908C709.606 207.803 709.615 207.698 709.615 207.59Z" stroke="black" stroke-width="2.13714" stroke-linecap="round" stroke-linejoin="round"/>
<rect x="489.138" y="262.888" width="241.227" height="50.5553" fill="white"/>
<mask id="mask8_216_2954" style="mask-type:luminance" maskUnits="userSpaceOnUse" x="489" y="262" width="242" height="52">
<rect x="489.137" y="262.888" width="241.227" height="50.5553" fill="white"/>
</mask>
<g mask="url(#mask8_216_2954)">
<path d="M485.31 279.872L697.648 280.652L481.459 282.996L485.31 279.872Z" fill="#D6DCF2"/>
<path d="M469.561 300.948L681.896 301.73L465.71 304.075L469.561 300.948Z" fill="#D6DCF2"/>
</g>
<rect x="489.138" y="262.888" width="241.227" height="50.5553" stroke="black" stroke-width="2.13714" stroke-linecap="round" stroke-linejoin="round"/>
<path d="M737.659 262.888C737.864 259.775 735.523 257.079 732.413 256.844H485.909C482.811 257.012 480.398 259.599 480.446 262.702C480.303 264.226 480.778 265.743 481.764 266.914C482.749 268.085 484.164 268.812 485.689 268.931H722.907C726.473 269.201 729.156 272.292 728.922 275.86V300.47C729.156 304.039 726.473 307.13 722.907 307.399H485.91C482.811 307.568 480.399 310.154 480.446 313.257C480.304 314.781 480.778 316.298 481.764 317.469C482.75 318.64 484.164 319.367 485.69 319.487H732.414C735.524 319.252 737.865 316.555 737.66 313.443V263.619C737.66 263.496 737.65 263.375 737.644 263.254C737.65 263.132 737.659 263.011 737.659 262.888Z" fill="#1B80FD"/>
<mask id="mask9_216_2954" style="mask-type:luminance" maskUnits="userSpaceOnUse" x="480" y="256" width="258" height="64">
<path fill-rule="evenodd" clip-rule="evenodd" d="M737.658 262.888C737.863 259.775 735.522 257.079 732.412 256.844H485.909C482.81 257.012 480.397 259.599 480.445 262.702C480.302 264.226 480.777 265.743 481.763 266.914C482.748 268.085 484.163 268.812 485.688 268.931H722.906C726.472 269.201 729.155 272.292 728.921 275.86V300.47C729.155 304.039 726.472 307.13 722.906 307.399H485.909C482.81 307.568 480.398 310.154 480.445 313.257C480.303 314.781 480.777 316.298 481.763 317.469C482.749 318.64 484.163 319.367 485.689 319.487H732.413C735.523 319.252 737.864 316.555 737.66 313.443V263.619C737.66 263.496 737.649 263.375 737.643 263.254C737.649 263.132 737.658 263.011 737.658 262.888Z" fill="white"/>
</mask>
<g mask="url(#mask9_216_2954)">
<path d="M457.865 318.471C744.91 318.047 737.658 319.826 737.658 291.722C737.658 263.619 761.778 353.03 761.778 353.03L517.955 340.133L475.785 330.841" fill="#1D62FC"/>
</g>
<path fill-rule="evenodd" clip-rule="evenodd" d="M737.659 262.888C737.864 259.775 735.523 257.079 732.413 256.844H485.909C482.811 257.012 480.398 259.599 480.446 262.702C480.303 264.226 480.778 265.743 481.764 266.914C482.749 268.085 484.164 268.812 485.689 268.931H722.907C726.473 269.201 729.156 272.292 728.922 275.86V300.47C729.156 304.039 726.473 307.13 722.907 307.399H485.91C482.811 307.568 480.399 310.154 480.446 313.257C480.304 314.781 480.778 316.298 481.764 317.469C482.75 318.64 484.164 319.367 485.69 319.487H732.414C735.524 319.252 737.865 316.555 737.66 313.443V263.619C737.66 263.496 737.65 263.375 737.644 263.254C737.65 263.132 737.659 263.011 737.659 262.888Z" stroke="black" stroke-width="2.13714" stroke-linecap="round" stroke-linejoin="round"/>
<path d="M575.191 223.04L565.983 232.257" stroke="black" stroke-width="2.13714" stroke-linecap="round" stroke-linejoin="round"/>
<path d="M573.196 116.556C575.773 111.233 578.65 106.061 581.813 101.064L601.012 108.196C601.012 108.196 613.857 73.7991 624.487 66.5407C631.485 61.7614 641.068 82.7287 641.068 82.7287C641.068 82.7287 617.17 138.176 612.342 139.26C600.813 141.848 573.196 116.556 573.196 116.556Z" fill="white"/>
<mask id="mask10_216_2954" style="mask-type:luminance" maskUnits="userSpaceOnUse" x="573" y="65" width="69" height="75">
<path fill-rule="evenodd" clip-rule="evenodd" d="M573.197 116.556C575.774 111.233 578.651 106.061 581.814 101.064L601.013 108.196C601.013 108.196 613.858 73.7991 624.488 66.5407C631.486 61.7614 641.068 82.7287 641.068 82.7287C641.068 82.7287 617.171 138.176 612.343 139.26C600.814 141.848 573.197 116.556 573.197 116.556Z" fill="white"/>
</mask>
<g mask="url(#mask10_216_2954)">
<path d="M577.151 139.467C633.798 151.754 629.156 89.5474 629.156 89.5474L641.069 122.292L622.839 144.1L578.382 145.658" fill="#111944"/>
</g>
<path fill-rule="evenodd" clip-rule="evenodd" d="M573.196 116.556C575.773 111.233 578.65 106.061 581.813 101.064L601.012 108.196C601.012 108.196 613.857 73.7991 624.487 66.5407C631.485 61.7614 641.068 82.7287 641.068 82.7287C641.068 82.7287 617.17 138.176 612.342 139.26C600.813 141.848 573.196 116.556 573.196 116.556Z" stroke="black" stroke-width="2.13714" stroke-linecap="round" stroke-linejoin="round"/>
<path fill-rule="evenodd" clip-rule="evenodd" d="M703.338 320.717L715.344 369.091L732.446 361.987L722.97 316.729L703.338 320.717V320.717Z" stroke="black" stroke-width="2.13714" stroke-linecap="round" stroke-linejoin="round"/>
<path d="M738.514 54.4292C740.83 48.9306 746.05 40.1471 747.804 35.7468C749.557 31.3464 754.951 16.1325 757.108 17.8269C759.796 19.9379 751.336 35.3875 753.602 35.5692C755.867 35.7508 761.207 36.7232 761.891 38.8249C764.239 46.0484 751.445 57.6939 751.445 57.6939L738.514 54.4292Z" fill="#F9C1BB"/>
<mask id="mask11_216_2954" style="mask-type:luminance" maskUnits="userSpaceOnUse" x="738" y="17" width="25" height="41">
<path fill-rule="evenodd" clip-rule="evenodd" d="M738.515 54.4292C740.831 48.9306 746.051 40.1471 747.805 35.7468C749.558 31.3464 754.952 16.1325 757.109 17.8269C759.797 19.9379 751.337 35.3875 753.603 35.5692C755.868 35.7508 761.208 36.7232 761.892 38.8249C764.24 46.0484 751.446 57.6939 751.446 57.6939L738.515 54.4292Z" fill="white"/>
</mask>
<g mask="url(#mask11_216_2954)">
<path d="M759.19 48.6486C751.705 55.0468 741.951 48.408 741.951 48.408L745.289 56.9435L756.558 58.5927L758.532 49.5218" fill="#ED707B"/>
</g>
<path fill-rule="evenodd" clip-rule="evenodd" d="M738.514 54.4292C740.83 48.9306 746.05 40.1471 747.804 35.7468C749.557 31.3464 754.951 16.1325 757.108 17.8269C759.796 19.9379 751.336 35.3875 753.602 35.5692C755.867 35.7508 761.207 36.7232 761.891 38.8249C764.239 46.0484 751.445 57.6939 751.445 57.6939L738.514 54.4292Z" stroke="black" stroke-width="2.13714" stroke-linecap="round" stroke-linejoin="round"/>
<path d="M656.597 347.926C666.719 352.344 682.238 344.745 682.238 344.745C682.238 344.745 662.48 274.782 660.505 254.055C660.199 250.854 662.817 194.439 662.817 194.439L667.895 207.264L688.416 259.085L710.175 351.621C710.175 351.621 727.82 353.188 733.271 347.926C733.271 347.926 717.73 257.728 716.411 250.905C713.196 234.273 687.031 127.999 687.031 127.999L628.725 139.561C628.725 139.561 627.601 252.43 630.625 259.271C635.694 270.74 656.597 347.926 656.597 347.926Z" fill="#1A80FD"/>
<mask id="mask12_216_2954" style="mask-type:luminance" maskUnits="userSpaceOnUse" x="628" y="127" width="106" height="225">
<path fill-rule="evenodd" clip-rule="evenodd" d="M656.596 347.926C666.718 352.344 682.237 344.745 682.237 344.745C682.237 344.745 662.479 274.782 660.504 254.055C660.199 250.854 662.816 194.44 662.816 194.44L667.894 207.264L688.415 259.085L710.174 351.621C710.174 351.621 727.819 353.188 733.27 347.926C733.27 347.926 717.729 257.728 716.41 250.905C713.195 234.273 687.03 127.999 687.03 127.999L628.724 139.561C628.724 139.561 627.6 252.431 630.624 259.271C635.693 270.74 656.596 347.926 656.596 347.926Z" fill="white"/>
</mask>
<g mask="url(#mask12_216_2954)">
<path d="M628.521 218.995C630.951 149.307 698.436 162.938 690.22 135.654C687.738 127.409 649.483 146.342 649.483 146.342L617.626 151.439C617.626 151.439 626.586 274.484 628.521 218.995Z" fill="#1D62FC"/>
<path d="M689.371 182.646L690.52 176.247C683.77 175.029 683.177 168.929 683.002 159.025C682.892 152.761 682.787 146.846 679.04 143.676C676.843 141.959 673.995 141.313 671.272 141.914L672.251 148.341C673.128 148.113 674.057 148.222 674.858 148.645C676.356 149.912 676.445 155.028 676.518 159.138C676.676 168.11 676.893 180.395 689.371 182.646Z" fill="#FDD504"/>
<mask id="mask13_216_2954" style="mask-type:luminance" maskUnits="userSpaceOnUse" x="671" y="141" width="20" height="42">
<path fill-rule="evenodd" clip-rule="evenodd" d="M689.371 182.646L690.52 176.247C683.77 175.029 683.177 168.929 683.002 159.025C682.892 152.761 682.787 146.846 679.04 143.676C676.843 141.959 673.995 141.313 671.272 141.914L672.251 148.341C673.128 148.113 674.057 148.222 674.858 148.645C676.356 149.912 676.445 155.028 676.518 159.138C676.676 168.11 676.893 180.395 689.371 182.646Z" fill="white"/>
</mask>
<g mask="url(#mask13_216_2954)">
<path d="M673.601 146.256C683.891 145.158 674.752 174.974 685.202 179.186" stroke="#F9AFD1" stroke-width="2.13714" stroke-linecap="round" stroke-linejoin="round"/>
<path d="M675.075 144.661C685.366 143.563 676.227 173.379 686.677 177.591" stroke="#F9AFD1" stroke-width="2.13714" stroke-linecap="round" stroke-linejoin="round"/>
<path d="M687.039 172.083L685.475 184.656L695.724 185.335L695.459 173.513L690.29 172.788" fill="white"/>
<path d="M687.039 172.083L685.475 184.656L695.724 185.335L695.459 173.513L690.29 172.788" stroke="black" stroke-width="2.13714" stroke-linecap="round" stroke-linejoin="round"/>
</g>
<path fill-rule="evenodd" clip-rule="evenodd" d="M689.371 182.646L690.52 176.247C683.77 175.029 683.177 168.929 683.002 159.025C682.892 152.761 682.787 146.846 679.04 143.676C676.843 141.959 673.995 141.313 671.272 141.914L672.251 148.341C673.128 148.113 674.057 148.222 674.858 148.645C676.356 149.912 676.445 155.028 676.518 159.138C676.676 168.11 676.893 180.395 689.371 182.646Z" stroke="black" stroke-width="2.13714" stroke-linecap="round" stroke-linejoin="round"/>
<ellipse cx="641.748" cy="256.592" rx="9.34571" ry="3.59723" transform="rotate(-5.8658 641.748 256.592)" fill="#F9C1BB" stroke="black" stroke-width="2.13714" stroke-linecap="round" stroke-linejoin="round"/>
</g>
<path fill-rule="evenodd" clip-rule="evenodd" d="M656.597 347.926C666.719 352.344 682.238 344.745 682.238 344.745C682.238 344.745 662.48 274.782 660.505 254.055C660.199 250.854 662.817 194.439 662.817 194.439L667.895 207.264L688.416 259.085L710.175 351.621C710.175 351.621 727.82 353.188 733.271 347.926C733.271 347.926 717.73 257.728 716.411 250.905C713.196 234.273 687.031 127.999 687.031 127.999L628.725 139.561C628.725 139.561 627.601 252.43 630.625 259.271C635.694 270.74 656.597 347.926 656.597 347.926Z" stroke="black" stroke-width="2.13714" stroke-linecap="round" stroke-linejoin="round"/>
<path d="M626.988 146.342C619.321 154.516 620.211 170.427 668.741 151.371C717.272 132.314 628.521 136.349 628.521 136.349" fill="#1AB995"/>
<path d="M626.988 146.342C619.321 154.516 620.211 170.427 668.741 151.371C717.272 132.314 628.521 136.349 628.521 136.349" stroke="black" stroke-width="2.13714" stroke-linecap="round" stroke-linejoin="round"/>
<path d="M622.048 68.6233C629.336 58.2326 662.144 58.8306 684.016 65.1118C684.016 65.1118 712.613 139.844 680.954 148.393C630.925 161.902 618.359 150.779 622.643 137.048C627.554 121.712 629.758 105.639 629.155 89.5476" fill="white"/>
<mask id="mask14_216_2954" style="mask-type:luminance" maskUnits="userSpaceOnUse" x="621" y="60" width="75" height="95">
<path fill-rule="evenodd" clip-rule="evenodd" d="M622.048 68.6233C629.335 58.2326 662.143 58.8306 684.015 65.1118C684.015 65.1118 712.612 139.844 680.953 148.393C630.924 161.902 618.358 150.779 622.642 137.048C627.553 121.712 629.757 105.639 629.154 89.5476" fill="white"/>
</mask>
<g mask="url(#mask14_216_2954)">
<path d="M644.827 57.6938C633.504 86.3851 647.461 89.2136 671.344 61.2802L644.827 57.6938Z" fill="#1AB995"/>
<path d="M644.827 57.6938C633.504 86.3851 647.461 89.2136 671.344 61.2802" stroke="black" stroke-width="2.13714" stroke-linecap="round" stroke-linejoin="round"/>
<path d="M650.148 91.4849L638.778 115.797L665.465 113.512L650.148 91.4849Z" fill="white" stroke="black" stroke-width="2.13714" stroke-linecap="round" stroke-linejoin="round"/>
<ellipse cx="640.766" cy="98.4841" rx="9.90542" ry="9.93043" fill="#FDD504" stroke="black" stroke-width="2.13714" stroke-linecap="round" stroke-linejoin="round"/>
<rect x="654.62" y="89.5115" width="14.4086" height="14.4449" fill="#FDD504" stroke="black" stroke-width="2.13714" stroke-linecap="round" stroke-linejoin="round"/>
</g>
<path d="M622.048 68.6233C629.336 58.2326 662.144 58.8306 684.016 65.1118C684.016 65.1118 712.613 139.844 680.954 148.393C630.925 161.902 618.359 150.779 622.643 137.048C627.554 121.712 629.758 105.639 629.155 89.5476" stroke="black" stroke-width="2.13714" stroke-linecap="round" stroke-linejoin="round"/>
<path d="M647.535 49.6936L646.742 63.2217C646.742 63.2217 642.899 73.0301 647.116 74.7597C652.83 77.1031 665.282 61.281 665.282 61.281V34.5503L647.535 49.6936Z" fill="#F9C1BB"/>
<mask id="mask15_216_2954" style="mask-type:luminance" maskUnits="userSpaceOnUse" x="645" y="34" width="21" height="41">
<path fill-rule="evenodd" clip-rule="evenodd" d="M647.535 49.6936L646.742 63.2217C646.742 63.2217 642.899 73.0301 647.116 74.7597C652.83 77.1031 665.282 61.281 665.282 61.281V34.5503L647.535 49.6936Z" fill="white"/>
</mask>
<g mask="url(#mask15_216_2954)">
<path d="M643.787 64.7882C643.787 64.7882 656.77 57.5382 657.849 45.6478C658.747 35.7479 647.203 41.5073 647.203 41.5073L643.787 64.7882Z" fill="#ED707B"/>
</g>
<path fill-rule="evenodd" clip-rule="evenodd" d="M647.535 49.6936L646.742 63.2217C646.742 63.2217 642.899 73.0301 647.116 74.7597C652.83 77.1031 665.282 61.281 665.282 61.281V34.5503L647.535 49.6936Z" stroke="black" stroke-width="2.13714" stroke-linecap="round" stroke-linejoin="round"/>
<path d="M664.249 37.4988C666.428 30.3746 665.563 23.0455 660.542 22.5551C654.362 21.7769 648.247 20.5501 642.245 18.8845C631.827 48.0701 646.306 57.353 657.281 48.5792" fill="#F9C1BB"/>
<mask id="mask16_216_2954" style="mask-type:luminance" maskUnits="userSpaceOnUse" x="638" y="18" width="28" height="34">
<path fill-rule="evenodd" clip-rule="evenodd" d="M664.25 37.4985C666.429 30.3744 665.564 23.0453 660.543 22.5548C654.363 21.7766 648.248 20.5499 642.246 18.8843C631.828 48.0699 646.307 57.3528 657.282 48.579" fill="white"/>
</mask>
<g mask="url(#mask16_216_2954)">
<path d="M653.151 24.0249C656.001 24.9451 655.387 26.3785 653.568 25.9197C651.749 25.4608 651.289 23.4235 653.151 24.0249Z" fill="black"/>
</g>
<path d="M664.249 37.4988C666.428 30.3746 665.563 23.0455 660.542 22.5551C654.362 21.7769 648.247 20.5501 642.245 18.8845C631.827 48.0701 646.306 57.353 657.281 48.5792" stroke="black" stroke-width="2.13714" stroke-linecap="round" stroke-linejoin="round"/>
<path d="M668.48 13.9713C665.9 13.949 663.457 12.8114 661.779 10.8518C660.102 8.89212 659.355 6.30233 659.73 3.75026C656.371 2.8391 652.789 3.97066 650.562 6.64629C648.497 4.63278 645.942 3.19502 643.149 2.47609C636.302 0.616783 629.709 2.97105 628.422 7.73345C627.256 12.0505 630.851 16.8644 636.633 19.1118C643.338 19.8187 649.618 22.7339 654.486 27.3992C658.088 26.6138 661.802 28.1327 663.821 31.2176C668.556 32.4295 673.386 29.6114 674.661 24.893C675.935 20.1747 673.181 15.308 668.48 13.9709L668.48 13.9713Z" fill="#2F387E"/>
<path fill-rule="evenodd" clip-rule="evenodd" d="M668.48 13.9713C665.9 13.949 663.457 12.8114 661.779 10.8517C660.102 8.89212 659.355 6.30233 659.73 3.75026C656.371 2.8391 652.789 3.97066 650.562 6.64629C648.497 4.63278 645.942 3.19502 643.149 2.47609C636.302 0.616783 629.709 2.97105 628.422 7.73345C627.256 12.0505 630.851 16.8644 636.633 19.1118C643.338 19.8187 649.618 22.7339 654.486 27.3992C658.088 26.6138 661.802 28.1327 663.821 31.2176C668.556 32.4295 673.386 29.6114 674.661 24.893C675.935 20.1747 673.181 15.308 668.48 13.9709L668.48 13.9713Z" stroke="black" stroke-width="2.13714" stroke-linecap="round" stroke-linejoin="round"/>
<path d="M663.554 39.841C665.308 39.5978 666.929 38.7717 668.157 37.4955C670.757 34.9028 671.333 31.2581 669.445 29.3547C667.556 27.4514 663.918 28.0101 661.318 30.6026C661 30.9192 660.706 31.2588 660.438 31.6188" fill="#F9C1BB"/>
<path d="M663.554 39.841C665.308 39.5978 666.929 38.7717 668.157 37.4955C670.757 34.9028 671.333 31.2581 669.445 29.3547C667.556 27.4514 663.918 28.0101 661.318 30.6026C661 30.9192 660.706 31.2588 660.438 31.6188" stroke="black" stroke-width="2.13714" stroke-linecap="round" stroke-linejoin="round"/>
<path d="M532.753 55.4127L532.394 56.1992L529.712 45.4365L549.091 59.5972L585.833 48.0374L590.881 55.0109L544.088 61.2813L532.753 55.4127Z" fill="white" stroke="black" stroke-width="2.13714" stroke-linecap="round" stroke-linejoin="round"/>
<path d="M545.769 63.7387L549.092 59.597L590.46 49.0288L617.277 85.6465L574.314 94.8918L545.769 63.7387Z" fill="#1AB995" stroke="black" stroke-width="2.13714" stroke-linecap="round" stroke-linejoin="round"/>
<path d="M524.693 47.8789L549.091 59.5968L574.313 94.8917L552.241 86.3794L524.693 47.8789Z" fill="#1AB995" stroke="black" stroke-width="2.13714" stroke-linecap="round" stroke-linejoin="round"/>
<path d="M581.864 101.806C581.864 101.806 575.563 95.8968 574.37 94.5336C573.178 93.1703 570.583 78.5856 564.624 79.237C558.664 79.8884 560.162 89.0373 560.565 91.2451C562.176 100.089 573.905 116.084 575.266 113.627C576.743 110.961 581.864 101.806 581.864 101.806Z" fill="#F9C1BB"/>
<mask id="mask17_216_2954" style="mask-type:luminance" maskUnits="userSpaceOnUse" x="560" y="79" width="22" height="35">
<path fill-rule="evenodd" clip-rule="evenodd" d="M581.862 101.806C581.862 101.806 575.561 95.8971 574.368 94.5338C573.176 93.1705 570.581 78.5858 564.622 79.2372C558.662 79.8886 560.16 89.0375 560.563 91.2454C562.174 100.09 573.903 116.084 575.264 113.628C576.741 110.961 581.862 101.806 581.862 101.806Z" fill="white"/>
</mask>
<g mask="url(#mask17_216_2954)">
<path d="M585.212 103.756L581.811 101.064L585.212 103.756Z" fill="url(#paint0_linear_216_2954)"/>
<path d="M571.213 110.999C579.99 112.605 581.862 101.806 581.862 101.806L584.612 107.543L580.042 116.061L570.745 112.751L571.213 110.999Z" fill="#ED707B"/>
</g>
<path fill-rule="evenodd" clip-rule="evenodd" d="M581.864 101.806C581.864 101.806 575.563 95.8968 574.37 94.5336C573.178 93.1703 570.583 78.5856 564.624 79.237C558.664 79.8884 560.162 89.0373 560.565 91.2451C562.176 100.089 573.905 116.084 575.266 113.627C576.743 110.961 581.864 101.806 581.864 101.806Z" stroke="black" stroke-width="2.13714" stroke-linecap="round" stroke-linejoin="round"/>
<path d="M684.016 65.1117C695.227 65.4175 721.568 73.2114 721.568 73.2114L741.148 47.9504L756.022 56.4304C756.022 56.4304 742.311 93.8068 730.679 98.7053C721.767 102.458 672.989 94.8929 672.989 94.8929" fill="white"/>
<path d="M684.016 65.1117C695.227 65.4175 721.568 73.2114 721.568 73.2114L741.148 47.9504L756.022 56.4304C756.022 56.4304 742.311 93.8068 730.679 98.7053C721.767 102.458 672.989 94.8929 672.989 94.8929" stroke="black" stroke-width="2.13714" stroke-linecap="round" stroke-linejoin="round"/>
<path d="M656.7 175.359L667.896 207.264L656.7 175.359Z" fill="#F9C1BB"/>
<path d="M656.7 175.359L667.896 207.264" stroke="black" stroke-width="2.13714" stroke-linecap="round" stroke-linejoin="round"/>
<path d="M665.416 32.9659C665.635 33.3366 665.635 33.7964 665.418 34.1677C665.201 34.539 664.799 34.7635 664.369 34.7545" stroke="black" stroke-width="2.13714" stroke-linecap="round" stroke-linejoin="round"/>
<path d="M666.331 13.3621C666.054 14.6588 665.521 15.887 664.761 16.9738" stroke="black" stroke-width="2.13714" stroke-linecap="round" stroke-linejoin="round"/>
<path d="M637.147 18.5516C638.115 18.654 639.086 18.3929 639.872 17.8192" stroke="black" stroke-width="2.13714" stroke-linecap="round" stroke-linejoin="round"/>
<path d="M720.915 72.9333L720.531 77.9298" stroke="black" stroke-width="2.13714" stroke-linecap="round" stroke-linejoin="round"/>
<path d="M663.429 128.695C661.488 129.917 659.415 130.912 657.248 131.662" stroke="black" stroke-width="2.13714" stroke-linecap="round" stroke-linejoin="round"/>
<path d="M706.722 253.924C703.586 254.689 700.373 255.091 697.146 255.121" stroke="black" stroke-width="2.13714" stroke-linecap="round" stroke-linejoin="round"/>
<path d="M638.49 248.195L644.63 247.076" stroke="black" stroke-width="2.13714" stroke-linecap="round" stroke-linejoin="round"/>
<path d="M560.298 64.959L564.403 71.3853L593.806 62.98L589.408 56.9404L560.298 64.959Z" fill="#1AB995" stroke="black" stroke-width="2.13714" stroke-linecap="round" stroke-linejoin="round"/>
<path d="M548.454 310.475C582.991 300.302 559.35 264.556 547.109 282.457C533.792 301.933 522.547 270.145 552.219 269.124C576.793 268.279 580.265 301.024 561.032 313.081C541.799 325.138 548.454 310.475 548.454 310.475Z" fill="#FDD504"/>
<mask id="mask18_216_2954" style="mask-type:luminance" maskUnits="userSpaceOnUse" x="533" y="269" width="41" height="49">
<path fill-rule="evenodd" clip-rule="evenodd" d="M548.453 310.475C582.99 300.303 559.349 264.557 547.108 282.457C533.791 301.933 522.546 270.146 552.218 269.125C576.792 268.279 580.264 301.024 561.031 313.081C541.798 325.139 548.453 310.475 548.453 310.475Z" fill="white"/>
</mask>
<g mask="url(#mask18_216_2954)">
<ellipse cx="548.192" cy="267.53" rx="6.46164" ry="6.47788" fill="#FCB006" stroke="black" stroke-width="2.13714" stroke-linecap="round" stroke-linejoin="round"/>
<ellipse cx="561.556" cy="288.085" rx="6.46164" ry="6.47788" fill="#FCB006" stroke="black" stroke-width="2.13714" stroke-linecap="round" stroke-linejoin="round"/>
</g>
<path fill-rule="evenodd" clip-rule="evenodd" d="M548.454 310.475C582.991 300.302 559.35 264.556 547.109 282.457C533.792 301.933 522.547 270.145 552.219 269.124C576.793 268.279 580.265 301.024 561.032 313.081C541.799 325.138 548.454 310.475 548.454 310.475Z" stroke="black" stroke-width="2.13714" stroke-linecap="round" stroke-linejoin="round"/>
<path d="M504.246 378.298H553.612C584.113 340.959 570.95 260.488 524.715 310.461C478.48 360.433 478.48 344.017 482.092 329.049C482.092 329.049 477.156 329.413 472.099 337.137C472.099 337.137 468.977 334.004 464.402 337.625C464.402 337.625 463.597 330.033 463.597 328.102C463.597 328.102 458.734 330.015 455.363 338.947C455.363 338.947 429.838 363.33 458.734 367.917L470.775 378.298H504.246Z" fill="#FDD504"/>
<mask id="mask19_216_2954" style="mask-type:luminance" maskUnits="userSpaceOnUse" x="444" y="294" width="127" height="85">
<path fill-rule="evenodd" clip-rule="evenodd" d="M504.245 378.298H553.611C584.112 340.959 570.949 260.488 524.714 310.461C478.479 360.433 478.479 344.017 482.091 329.049C482.091 329.049 477.155 329.413 472.098 337.137C472.098 337.137 468.976 334.004 464.401 337.625C464.401 337.625 463.596 330.033 463.596 328.102C463.596 328.102 458.733 330.015 455.362 338.947C455.362 338.947 429.837 363.33 458.733 367.917L470.774 378.298H504.245Z" fill="white"/>
</mask>
<g mask="url(#mask19_216_2954)">
<ellipse cx="521.432" cy="310.85" rx="17.3326" ry="17.3762" fill="#FCB006" stroke="black" stroke-width="2.13714" stroke-linecap="round" stroke-linejoin="round"/>
<ellipse cx="570.074" cy="332.829" rx="17.3326" ry="17.3762" fill="#FCB006" stroke="black" stroke-width="2.13714" stroke-linecap="round" stroke-linejoin="round"/>
</g>
<path fill-rule="evenodd" clip-rule="evenodd" d="M504.246 378.298H553.612C584.113 340.959 570.95 260.488 524.715 310.461C478.48 360.433 478.48 344.017 482.092 329.049C482.092 329.049 477.156 329.413 472.099 337.137C472.099 337.137 468.977 334.004 464.402 337.625C464.402 337.625 463.597 330.033 463.597 328.102C463.597 328.102 458.734 330.015 455.363 338.947C455.363 338.947 429.838 363.33 458.734 367.917L470.775 378.298H504.246Z" stroke="black" stroke-width="2.13714" stroke-linecap="round" stroke-linejoin="round"/>
<path d="M551.077 303.778C552.099 305.719 552.543 307.913 552.356 310.099" stroke="black" stroke-width="2.13714" stroke-linecap="round" stroke-linejoin="round"/>
<path d="M519.848 75.1113C520.039 70.0712 516.92 65.4962 512.158 63.8336C512.049 63.8118 511.939 63.8034 511.828 63.8086H489.286C489.2 63.8086 489.149 63.3696 489.168 63.2916C491.166 56.5791 491.711 49.5177 490.766 42.578L490.759 42.5567C490.759 36.1185 486.172 30.9048 480.514 30.9048C475.007 31.2259 470.623 35.6386 470.337 41.1479H470.331C468.261 60.6775 455.05 66.5048 452.078 67.583C452.06 67.586 452.041 67.586 452.023 67.583C451.843 67.5659 451.662 67.5659 451.482 67.583H437.618C435.437 67.7182 433.777 69.593 433.907 71.7743V120.207C433.847 121.238 434.208 122.249 434.908 123.009C435.608 123.768 436.586 124.211 437.618 124.236H501.502C501.866 124.255 502.232 124.255 502.596 124.236C506.624 124.137 510.204 121.642 511.691 117.898C512.432 116.29 519.394 78.5027 519.394 78.5027H519.4C519.532 77.9879 519.632 77.4654 519.699 76.9383L519.73 76.7673V76.7552C519.804 76.2107 519.843 75.662 519.848 75.1126" fill="#FDD504"/>
<mask id="mask20_216_2954" style="mask-type:luminance" maskUnits="userSpaceOnUse" x="433" y="30" width="87" height="95">
<path fill-rule="evenodd" clip-rule="evenodd" d="M519.85 75.1115C520.041 70.0715 516.922 65.4965 512.16 63.8338C512.051 63.812 511.941 63.8036 511.83 63.8088H489.288C489.202 63.8088 489.151 63.3699 489.17 63.2919C491.168 56.5793 491.713 49.5179 490.768 42.5783L490.761 42.5569C490.761 36.1188 486.174 30.905 480.516 30.905C475.009 31.2261 470.625 35.6389 470.339 41.1481H470.333C468.263 60.6777 455.052 66.5051 452.08 67.5832C452.062 67.5862 452.043 67.5862 452.025 67.5832C451.845 67.5661 451.664 67.5661 451.484 67.5832H437.62C435.439 67.7184 433.779 69.5932 433.908 71.7746V120.207C433.849 121.238 434.21 122.249 434.91 123.009C435.61 123.769 436.588 124.212 437.62 124.237H501.504C501.868 124.256 502.234 124.256 502.598 124.237C506.626 124.137 510.206 121.642 511.693 117.898C512.434 116.29 519.396 78.5029 519.396 78.5029H519.402C519.534 77.9881 519.634 77.4657 519.701 76.9386L519.732 76.7676V76.7554C519.806 76.2109 519.845 75.6623 519.85 75.1128" fill="white"/>
</mask>
<g mask="url(#mask20_216_2954)">
<path d="M447.873 89.1453C455.298 79.8404 457.155 129.623 485.463 129.623C513.772 129.623 436.563 138.928 436.563 138.928L438.592 105.43" fill="#FBB006"/>
</g>
<path d="M519.848 75.1113C520.039 70.0712 516.92 65.4962 512.158 63.8336C512.049 63.8118 511.939 63.8034 511.828 63.8086H489.286C489.2 63.8086 489.149 63.3696 489.168 63.2916C491.166 56.5791 491.711 49.5177 490.766 42.578L490.759 42.5567C490.759 36.1185 486.172 30.9048 480.514 30.9048C475.007 31.2259 470.623 35.6386 470.337 41.1479H470.331C468.261 60.6775 455.05 66.5048 452.078 67.583C452.06 67.586 452.041 67.586 452.023 67.583C451.843 67.5659 451.662 67.5659 451.482 67.583H437.618C435.437 67.7182 433.777 69.593 433.907 71.7743V120.207C433.847 121.238 434.208 122.249 434.908 123.009C435.608 123.768 436.586 124.211 437.618 124.236H501.502C501.866 124.255 502.232 124.255 502.596 124.236C506.624 124.137 510.204 121.642 511.691 117.898C512.432 116.29 519.394 78.5027 519.394 78.5027H519.4C519.532 77.9879 519.632 77.4654 519.699 76.9383L519.73 76.7673V76.7552C519.804 76.2107 519.843 75.662 519.848 75.1126" stroke="black" stroke-width="2.13714" stroke-linecap="round" stroke-linejoin="round"/>
<rect x="420.344" y="60.8657" width="32.4371" height="66.6618" fill="#1A80FD"/>
<mask id="mask21_216_2954" style="mask-type:luminance" maskUnits="userSpaceOnUse" x="420" y="60" width="33" height="68">
<rect x="420.344" y="60.8657" width="32.4371" height="66.6618" fill="white"/>
</mask>
<g mask="url(#mask21_216_2954)">
<path d="M418.303 94.1965C420.107 57.2227 440.94 62.6996 449.289 60.8657C457.638 59.0318 420.344 48.8977 420.344 48.8977L415.055 54.3286L411.833 72.1605" fill="#1D62FC"/>
</g>
<rect x="420.344" y="60.8657" width="32.4371" height="66.6618" stroke="black" stroke-width="2.13714" stroke-linecap="round" stroke-linejoin="round"/>
<ellipse cx="436.561" cy="77.5789" rx="5.40525" ry="5.41871" fill="white" stroke="black" stroke-width="2.13714" stroke-linecap="round" stroke-linejoin="round"/>
<path d="M494.336 98.6675C492.087 103.455 488.273 107.333 483.522 109.66" stroke="black" stroke-width="2.13714" stroke-linecap="round" stroke-linejoin="round"/>
<path d="M427.866 101.179V104.435" stroke="black" stroke-width="2.13714" stroke-linecap="round" stroke-linejoin="round"/>
</g>
<rect x="1.57324" y="1.78467" width="801.427" height="313.892" stroke="black" stroke-width="2.13714" stroke-linecap="round" stroke-linejoin="round"/>
<defs>
<linearGradient id="paint0_linear_216_2954" x1="578.807" y1="104.39" x2="578.984" y2="104.277" gradientUnits="userSpaceOnUse">
<stop offset="0.0014" stop-color="#FFFCE9"/>
<stop offset="0.9609" stop-color="#FF938D"/>
</linearGradient>
</defs>
</svg>
