<svg width="805" height="317" viewBox="0 0 805 317" fill="none" xmlns="http://www.w3.org/2000/svg">
<rect x="2" y="2" width="801.427" height="313.892" fill="white"/>
<mask id="mask0_216_2543" style="mask-type:luminance" maskUnits="userSpaceOnUse" x="2" y="2" width="802" height="314">
<rect x="2" y="2" width="801.427" height="313.892" fill="white"/>
</mask>
<g mask="url(#mask0_216_2543)">
<rect x="1.99902" y="-11.3574" width="801.427" height="340.606" fill="white"/>
<rect x="-12.3594" y="-20.6404" width="825.336" height="355.566" fill="#5257DC"/>
<circle cx="741.669" cy="315.976" r="105.489" fill="#FCB006"/>
<mask id="mask1_216_2543" style="mask-type:luminance" maskUnits="userSpaceOnUse" x="636" y="210" width="212" height="212">
<circle cx="741.669" cy="315.976" r="105.489" fill="white"/>
</mask>
<g mask="url(#mask1_216_2543)">
<path d="M451.827 331.09L1031.51 300.864" stroke="white" stroke-width="2.13714"/>
<path d="M450.671 308.917L1030.36 278.69" stroke="white" stroke-width="2.13714"/>
<path d="M449.515 286.743L1029.2 256.517" stroke="white" stroke-width="2.13714"/>
<path d="M448.357 264.57L1028.04 234.344" stroke="white" stroke-width="2.13714"/>
<path d="M447.201 242.397L1026.89 212.17" stroke="white" stroke-width="2.13714"/>
<path d="M446.046 220.223L1025.73 189.997" stroke="white" stroke-width="2.13714"/>
</g>
<circle cx="741.669" cy="315.976" r="105.489" stroke="black" stroke-width="2.13714" stroke-linecap="round" stroke-linejoin="round"/>
<path d="M16.5273 309.447L17.4228 243.779L78.2308 235.961L77.3353 301.631L16.5273 309.447Z" fill="#FCB006" stroke="black" stroke-width="2.13714" stroke-linecap="round" stroke-linejoin="round"/>
<path d="M78.2314 235.961L232.776 322.406L231.881 388.076L77.3359 301.631L78.2314 235.961Z" fill="white"/>
<path fill-rule="evenodd" clip-rule="evenodd" d="M78.2314 235.961L232.776 322.406L231.881 388.076L77.3359 301.631L78.2314 235.961V235.961Z" stroke="black" stroke-width="2.13714" stroke-linecap="round" stroke-linejoin="round"/>
<path d="M77.3353 301.631L231.88 388.076L171.074 395.892L16.5273 309.447L77.3353 301.631Z" fill="white"/>
<path fill-rule="evenodd" clip-rule="evenodd" d="M77.3353 301.631L231.88 388.076L171.074 395.892L16.5273 309.447L77.3353 301.631V301.631Z" stroke="black" stroke-width="2.13714" stroke-linecap="round" stroke-linejoin="round"/>
<path d="M163.185 322.047C168.005 316.655 173.752 312.169 180.153 308.802" stroke="black" stroke-width="2.13714"/>
<path d="M773.989 69.3351V-111.347H773.889C772.853 -116.622 758.974 -120.802 741.958 -120.802C724.942 -120.802 711.063 -116.622 710.027 -111.347H709.926V69.3351H773.989Z" fill="white" stroke="black" stroke-width="2.13714" stroke-linecap="round" stroke-linejoin="round"/>
<ellipse cx="741.957" cy="69.3353" rx="32.0316" ry="10.0839" fill="#1A80FD" stroke="black" stroke-width="2.13714" stroke-linecap="round" stroke-linejoin="round"/>
<rect x="-84.1543" y="-39.9417" width="195.548" height="175.112" fill="#FCB006" stroke="black" stroke-width="2.13714" stroke-linecap="round" stroke-linejoin="round"/>
<rect x="322.036" y="261.528" width="195.548" height="175.112" fill="#1A80FD" stroke="black" stroke-width="2.13714" stroke-linecap="round" stroke-linejoin="round"/>
<rect x="44.9854" y="45.7732" width="715.455" height="245.726" fill="white" stroke="black" stroke-width="2.13714" stroke-linecap="round" stroke-linejoin="round"/>
<mask id="mask2_216_2543" style="mask-type:luminance" maskUnits="userSpaceOnUse" x="298" y="-5" width="536" height="402">
<rect x="298.793" y="-4.14136" width="534.285" height="400.713" fill="white"/>
</mask>
<g mask="url(#mask2_216_2543)">
<path d="M524.224 212.699C570.241 228.708 649.302 208.512 611.718 173.769C611.718 173.769 677.772 181.259 643.75 140.588C643.75 140.588 694.289 128.433 651.81 106.79C651.81 106.79 685.356 79.1127 668.717 66.638C650.822 53.2225 629.276 86.6202 629.276 86.6202C629.276 86.6202 601.006 57.3948 594.556 99.0765C594.556 99.0765 560.819 74.6324 560.007 122.579C560.007 122.579 508.077 97.5143 516.105 173.278C520.306 212.923 524.224 212.699 524.224 212.699Z" fill="#1AB995"/>
<mask id="mask3_216_2543" style="mask-type:luminance" maskUnits="userSpaceOnUse" x="515" y="63" width="159" height="156">
<path fill-rule="evenodd" clip-rule="evenodd" d="M524.224 212.699C570.241 228.708 649.302 208.512 611.718 173.769C611.718 173.769 677.772 181.259 643.75 140.588C643.75 140.588 694.289 128.433 651.81 106.79C651.81 106.79 685.356 79.1127 668.717 66.638C650.822 53.2225 629.276 86.6202 629.276 86.6202C629.276 86.6202 601.006 57.3948 594.556 99.0765C594.556 99.0765 560.819 74.6324 560.007 122.579C560.007 122.579 508.077 97.5143 516.105 173.278C520.306 212.923 524.224 212.699 524.224 212.699Z" fill="white"/>
</mask>
<g mask="url(#mask3_216_2543)">
<path d="M537.72 -73.3237C613.231 -80.5637 636.673 -36.6148 575.331 -3.53101C513.988 29.5527 602.032 10.4371 624.937 12.143C624.937 12.143 520.522 31.9696 607.112 50.6822C693.701 69.3948 582.673 57.3714 600.136 105.094C617.599 152.816 479.751 71.8458 474.175 68.0358C468.598 64.2257 526.304 -56.5744 526.304 -56.5744" fill="#0FA379"/>
<path d="M518.9 218.126C592.794 158.195 637.123 213.491 590.53 265.358C543.937 317.225 620.373 269.486 642.509 263.354C642.509 263.354 550.902 317.292 638.72 305.654C726.537 294.016 617.97 320.208 650.493 359.23C683.016 398.252 525.962 368.603 519.429 366.901C512.896 365.198 526.5 231.988 526.5 231.988" fill="#0FA379"/>
</g>
<path fill-rule="evenodd" clip-rule="evenodd" d="M524.224 212.699C570.241 228.708 649.302 208.512 611.718 173.769C611.718 173.769 677.772 181.259 643.75 140.588C643.75 140.588 694.289 128.433 651.81 106.79C651.81 106.79 685.356 79.1127 668.717 66.638C650.822 53.2225 629.276 86.6202 629.276 86.6202C629.276 86.6202 601.006 57.3948 594.556 99.0765C594.556 99.0765 560.819 74.6324 560.007 122.579C560.007 122.579 508.077 97.5143 516.105 173.278C520.306 212.923 524.224 212.699 524.224 212.699Z" stroke="black" stroke-width="2.13714" stroke-linecap="round" stroke-linejoin="round"/>
<path d="M652.966 78.7317C647.503 89.1652 533.866 208.282 524.225 212.699C524.225 212.699 638.408 96.2419 652.966 78.7317Z" fill="#0FA379"/>
<path d="M609.078 85.127C609.175 103.753 612.248 110.716 612.248 110.716L609.078 85.127Z" fill="#0FA379"/>
<path d="M654.489 118.641C635.91 119.602 629.104 122.998 629.104 122.998L654.489 118.641Z" fill="#0FA379"/>
<path d="M573.793 100.816C581.628 128.542 588.685 137.697 588.685 137.697L573.793 100.816Z" fill="#0FA379"/>
<path d="M541.171 133.983C549.006 161.708 556.063 170.864 556.063 170.864L541.171 133.983Z" fill="#0FA379"/>
<path d="M604.8 150.346L640.922 156.707C615.737 148.841 604.8 150.346 604.8 150.346Z" fill="#0FA379"/>
<path d="M571.479 180.526L607.601 186.887C582.416 179.021 571.479 180.526 571.479 180.526Z" fill="#0FA379"/>
<path d="M537.434 170.384C537.525 171.988 538.092 173.529 539.064 174.809" stroke="black" stroke-width="2.13714" stroke-linecap="round" stroke-linejoin="round"/>
<path d="M590.697 165.329L600.385 165.591" stroke="black" stroke-width="2.13714" stroke-linecap="round" stroke-linejoin="round"/>
<path d="M620.908 94.1829C620.929 95.7262 620.63 97.2571 620.029 98.679" stroke="black" stroke-width="2.13714" stroke-linecap="round" stroke-linejoin="round"/>
<path d="M681.795 341.689L530.55 342.014L577.426 220.33H725.453L681.795 341.689Z" fill="white"/>
<mask id="mask4_216_2543" style="mask-type:luminance" maskUnits="userSpaceOnUse" x="530" y="220" width="196" height="123">
<path fill-rule="evenodd" clip-rule="evenodd" d="M681.796 341.689L530.551 342.014L577.427 220.33H725.454L681.796 341.689Z" fill="white"/>
</mask>
<g mask="url(#mask4_216_2543)">
<path d="M543.838 297.313C507.213 374.954 647.431 326.297 669.719 342.014C692.007 357.731 561.533 363.842 561.533 363.842L499.443 342.014L526.635 291.264" fill="#D6DCF2"/>
</g>
<path fill-rule="evenodd" clip-rule="evenodd" d="M681.795 341.689L530.55 342.014L577.426 220.33H725.453L681.795 341.689V341.689Z" stroke="black" stroke-width="2.13714" stroke-linecap="round" stroke-linejoin="round"/>
<path d="M722.345 228.397H574.319L583.399 204.827C584.551 202.07 587.162 200.2 590.144 199.997H728.402C729.593 199.91 730.735 200.489 731.369 201.502C732.002 202.514 732.024 203.794 731.425 204.827L722.345 228.397Z" fill="#1A80FD" stroke="black" stroke-width="2.13714" stroke-linecap="round" stroke-linejoin="round"/>
<path d="M701.688 220.33H592.565L594.463 215.404H703.585L701.688 220.33Z" fill="#1D62FC"/>
<ellipse cx="591.184" cy="206.137" rx="2.34102" ry="1.59943" transform="rotate(-38.7504 591.184 206.137)" fill="#1A80FD" stroke="black" stroke-width="2.13714" stroke-linecap="round" stroke-linejoin="round"/>
<path d="M590.928 206.801C590.629 206.822 590.343 206.677 590.184 206.423C590.025 206.169 590.019 205.848 590.169 205.588L594.899 193.311C595.188 192.618 595.844 192.149 596.592 192.098C596.891 192.077 597.177 192.222 597.336 192.476C597.495 192.73 597.501 193.051 597.351 193.311L592.621 205.588C592.332 206.28 591.676 206.75 590.928 206.801Z" fill="#1AB995" stroke="black" stroke-width="2.13714" stroke-linecap="round" stroke-linejoin="round"/>
<ellipse cx="595.533" cy="206.137" rx="2.34102" ry="1.59943" transform="rotate(-38.7504 595.533 206.137)" fill="#1A80FD" stroke="black" stroke-width="2.13714" stroke-linecap="round" stroke-linejoin="round"/>
<path d="M595.277 206.801C594.978 206.822 594.691 206.677 594.532 206.423C594.373 206.169 594.368 205.848 594.518 205.588L599.248 193.311C599.537 192.618 600.192 192.149 600.941 192.098C601.24 192.077 601.526 192.222 601.685 192.476C601.844 192.73 601.85 193.051 601.699 193.311L596.969 205.588C596.68 206.28 596.025 206.75 595.277 206.801Z" fill="#1AB995" stroke="black" stroke-width="2.13714" stroke-linecap="round" stroke-linejoin="round"/>
<ellipse cx="616.505" cy="206.137" rx="2.34102" ry="1.59943" transform="rotate(-38.7504 616.505 206.137)" fill="#1A80FD" stroke="black" stroke-width="2.13714" stroke-linecap="round" stroke-linejoin="round"/>
<path d="M616.248 206.801C615.949 206.822 615.662 206.677 615.503 206.423C615.344 206.169 615.339 205.848 615.489 205.588L620.219 193.311C620.508 192.619 621.163 192.149 621.911 192.098C622.21 192.076 622.497 192.222 622.656 192.476C622.815 192.73 622.82 193.051 622.67 193.311L617.94 205.588C617.651 206.28 616.996 206.75 616.248 206.801Z" fill="#1AB995" stroke="black" stroke-width="2.13714" stroke-linecap="round" stroke-linejoin="round"/>
<ellipse cx="620.857" cy="206.173" rx="2.34102" ry="1.59943" transform="rotate(-38.7484 620.857 206.173)" fill="#1A80FD" stroke="black" stroke-width="2.13713" stroke-linecap="round" stroke-linejoin="round"/>
<path d="M620.596 206.801C620.297 206.822 620.011 206.677 619.852 206.423C619.693 206.169 619.687 205.848 619.838 205.588L624.567 193.311C624.856 192.619 625.512 192.149 626.26 192.098C626.559 192.076 626.845 192.222 627.005 192.476C627.164 192.73 627.169 193.051 627.019 193.311L622.289 205.588C622 206.28 621.344 206.75 620.596 206.801Z" fill="#1AB995" stroke="black" stroke-width="2.13714" stroke-linecap="round" stroke-linejoin="round"/>
<ellipse cx="641.822" cy="206.137" rx="2.34102" ry="1.59943" transform="rotate(-38.7504 641.822 206.137)" fill="#1A80FD" stroke="black" stroke-width="2.13714" stroke-linecap="round" stroke-linejoin="round"/>
<path d="M641.566 206.801C641.267 206.822 640.98 206.677 640.821 206.423C640.662 206.169 640.657 205.848 640.807 205.588L645.537 193.311C645.826 192.618 646.481 192.149 647.23 192.098C647.529 192.077 647.815 192.222 647.974 192.476C648.133 192.73 648.139 193.051 647.988 193.311L643.258 205.588C642.969 206.28 642.314 206.75 641.566 206.801Z" fill="#1AB995" stroke="black" stroke-width="2.13714" stroke-linecap="round" stroke-linejoin="round"/>
<ellipse cx="646.172" cy="206.137" rx="2.34102" ry="1.59943" transform="rotate(-38.7504 646.172 206.137)" fill="#1A80FD" stroke="black" stroke-width="2.13714" stroke-linecap="round" stroke-linejoin="round"/>
<path d="M645.916 206.801C645.618 206.822 645.331 206.677 645.172 206.423C645.013 206.169 645.008 205.848 645.158 205.588L649.888 193.311C650.177 192.618 650.832 192.149 651.58 192.098C651.879 192.077 652.166 192.222 652.325 192.476C652.484 192.73 652.489 193.051 652.339 193.311L647.609 205.588C647.32 206.28 646.665 206.75 645.916 206.801Z" fill="#1AB995" stroke="black" stroke-width="2.13714" stroke-linecap="round" stroke-linejoin="round"/>
<ellipse cx="667.142" cy="206.137" rx="2.34102" ry="1.59943" transform="rotate(-38.7504 667.142 206.137)" fill="#1A80FD" stroke="black" stroke-width="2.13714" stroke-linecap="round" stroke-linejoin="round"/>
<path d="M666.886 206.801C666.587 206.822 666.301 206.677 666.142 206.423C665.983 206.169 665.977 205.848 666.128 205.588L670.857 193.311C671.147 192.619 671.802 192.149 672.55 192.098C672.849 192.076 673.136 192.222 673.295 192.476C673.454 192.73 673.459 193.051 673.309 193.311L668.579 205.588C668.29 206.28 667.635 206.75 666.886 206.801Z" fill="#1AB995" stroke="black" stroke-width="2.13714" stroke-linecap="round" stroke-linejoin="round"/>
<ellipse cx="671.492" cy="206.137" rx="2.34102" ry="1.59943" transform="rotate(-38.7504 671.492 206.137)" fill="#1A80FD" stroke="black" stroke-width="2.13714" stroke-linecap="round" stroke-linejoin="round"/>
<path d="M671.237 206.801C670.938 206.822 670.651 206.677 670.492 206.423C670.333 206.169 670.328 205.848 670.478 205.588L675.208 193.311C675.497 192.619 676.152 192.149 676.901 192.098C677.2 192.076 677.486 192.222 677.645 192.476C677.804 192.73 677.81 193.051 677.659 193.311L672.929 205.588C672.64 206.28 671.985 206.75 671.237 206.801Z" fill="#1AB995" stroke="black" stroke-width="2.13714" stroke-linecap="round" stroke-linejoin="round"/>
<ellipse cx="692.462" cy="206.137" rx="2.34102" ry="1.59943" transform="rotate(-38.7504 692.462 206.137)" fill="#1A80FD" stroke="black" stroke-width="2.13714" stroke-linecap="round" stroke-linejoin="round"/>
<path d="M692.206 206.801C691.908 206.822 691.621 206.677 691.462 206.423C691.303 206.169 691.298 205.848 691.448 205.588L696.178 193.311C696.467 192.618 697.122 192.149 697.87 192.098C698.169 192.077 698.456 192.222 698.615 192.476C698.774 192.73 698.779 193.051 698.629 193.311L693.899 205.588C693.61 206.28 692.955 206.75 692.206 206.801Z" fill="#1AB995" stroke="black" stroke-width="2.13714" stroke-linecap="round" stroke-linejoin="round"/>
<ellipse cx="696.811" cy="206.137" rx="2.34102" ry="1.59943" transform="rotate(-38.7504 696.811 206.137)" fill="#1A80FD" stroke="black" stroke-width="2.13714" stroke-linecap="round" stroke-linejoin="round"/>
<path d="M696.554 206.801C696.255 206.822 695.969 206.677 695.81 206.423C695.651 206.169 695.645 205.848 695.795 205.588L700.525 193.311C700.814 192.618 701.47 192.149 702.218 192.098C702.517 192.077 702.803 192.222 702.962 192.476C703.121 192.73 703.127 193.051 702.977 193.311L698.247 205.588C697.958 206.28 697.302 206.75 696.554 206.801Z" fill="#1AB995" stroke="black" stroke-width="2.13714" stroke-linecap="round" stroke-linejoin="round"/>
<ellipse cx="717.781" cy="206.137" rx="2.34102" ry="1.59943" transform="rotate(-38.7504 717.781 206.137)" fill="#1A80FD" stroke="black" stroke-width="2.13714" stroke-linecap="round" stroke-linejoin="round"/>
<path d="M717.526 206.801C717.227 206.822 716.94 206.677 716.781 206.423C716.622 206.169 716.617 205.848 716.767 205.588L721.497 193.311C721.786 192.619 722.441 192.149 723.19 192.098C723.489 192.076 723.775 192.222 723.934 192.476C724.093 192.73 724.099 193.051 723.948 193.311L719.219 205.588C718.929 206.28 718.274 206.75 717.526 206.801Z" fill="#1AB995" stroke="black" stroke-width="2.13714" stroke-linecap="round" stroke-linejoin="round"/>
<ellipse cx="722.132" cy="206.137" rx="2.34102" ry="1.59943" transform="rotate(-38.7504 722.132 206.137)" fill="#1A80FD" stroke="black" stroke-width="2.13714" stroke-linecap="round" stroke-linejoin="round"/>
<path d="M721.875 206.801C721.576 206.822 721.289 206.677 721.13 206.423C720.971 206.169 720.966 205.848 721.116 205.588L725.846 193.311C726.135 192.619 726.79 192.149 727.538 192.098C727.837 192.076 728.124 192.222 728.283 192.476C728.442 192.73 728.447 193.051 728.297 193.311L723.567 205.588C723.278 206.28 722.623 206.75 721.875 206.801Z" fill="#1AB995" stroke="black" stroke-width="2.13714" stroke-linecap="round" stroke-linejoin="round"/>
<path d="M625.689 250.756H614.6L619.002 239.327H630.092L625.689 250.756Z" fill="white" stroke="black" stroke-width="2.13714" stroke-linecap="round" stroke-linejoin="round"/>
<path d="M645.263 250.756H634.174L638.578 239.327H649.666L645.263 250.756Z" fill="white" stroke="black" stroke-width="2.13714" stroke-linecap="round" stroke-linejoin="round"/>
<path d="M664.837 250.756H653.747L658.152 239.327H669.241L664.837 250.756Z" fill="white" stroke="black" stroke-width="2.13714" stroke-linecap="round" stroke-linejoin="round"/>
<path d="M684.412 250.756H673.324L677.727 239.327H688.816L684.412 250.756Z" fill="white" stroke="black" stroke-width="2.13714" stroke-linecap="round" stroke-linejoin="round"/>
<path d="M703.987 250.756H692.897L697.3 239.327H708.39L703.987 250.756Z" fill="white" stroke="black" stroke-width="2.13714" stroke-linecap="round" stroke-linejoin="round"/>
<path d="M579.581 268.822H568.493L572.896 257.392H583.985L579.581 268.822Z" fill="#FCB006" stroke="black" stroke-width="2.13714" stroke-linecap="round" stroke-linejoin="round"/>
<path d="M599.156 268.822H588.066L592.469 257.392H603.559L599.156 268.822Z" fill="white" stroke="black" stroke-width="2.13714" stroke-linecap="round" stroke-linejoin="round"/>
<path d="M618.73 268.822H607.641L612.043 257.392H623.133L618.73 268.822Z" fill="white" stroke="black" stroke-width="2.13714" stroke-linecap="round" stroke-linejoin="round"/>
<path d="M638.304 268.822H627.215L631.617 257.392H642.707L638.304 268.822Z" fill="white" stroke="black" stroke-width="2.13714" stroke-linecap="round" stroke-linejoin="round"/>
<path d="M657.879 268.822H646.789L651.192 257.392H662.281L657.879 268.822Z" fill="white" stroke="black" stroke-width="2.13714" stroke-linecap="round" stroke-linejoin="round"/>
<path d="M677.452 268.822H666.362L670.767 257.392H681.854L677.452 268.822Z" fill="#FCB006" stroke="black" stroke-width="2.13714" stroke-linecap="round" stroke-linejoin="round"/>
<path d="M697.026 268.822H685.937L690.341 257.392H701.431L697.026 268.822Z" fill="white" stroke="black" stroke-width="2.13714" stroke-linecap="round" stroke-linejoin="round"/>
<path d="M572.621 286.887H561.531L565.936 275.458H577.023L572.621 286.887Z" fill="white" stroke="black" stroke-width="2.13714" stroke-linecap="round" stroke-linejoin="round"/>
<path d="M592.196 286.887H581.106L585.511 275.458H596.601L592.196 286.887Z" fill="white" stroke="black" stroke-width="2.13714" stroke-linecap="round" stroke-linejoin="round"/>
<path d="M611.77 286.887H600.683L605.085 275.458H616.175L611.77 286.887Z" fill="white" stroke="black" stroke-width="2.13714" stroke-linecap="round" stroke-linejoin="round"/>
<path d="M631.345 286.887H620.256L624.658 275.458H635.748L631.345 286.887Z" fill="white" stroke="black" stroke-width="2.13714" stroke-linecap="round" stroke-linejoin="round"/>
<path d="M650.92 286.887H639.83L644.233 275.458H655.322L650.92 286.887Z" fill="white" stroke="black" stroke-width="2.13714" stroke-linecap="round" stroke-linejoin="round"/>
<path d="M670.494 286.887H659.404L663.807 275.458H674.896L670.494 286.887Z" fill="white" stroke="black" stroke-width="2.13714" stroke-linecap="round" stroke-linejoin="round"/>
<path d="M690.068 286.887H678.979L683.381 275.458H694.471L690.068 286.887Z" fill="white" stroke="black" stroke-width="2.13714" stroke-linecap="round" stroke-linejoin="round"/>
<path d="M565.663 304.952H554.573L558.976 293.523H570.065L565.663 304.952Z" fill="white" stroke="black" stroke-width="2.13714" stroke-linecap="round" stroke-linejoin="round"/>
<path d="M585.237 304.952H574.147L578.55 293.523H589.64L585.237 304.952Z" fill="white" stroke="black" stroke-width="2.13714" stroke-linecap="round" stroke-linejoin="round"/>
<path d="M604.811 304.952H593.722L598.126 293.523H609.214L604.811 304.952Z" fill="white" stroke="black" stroke-width="2.13714" stroke-linecap="round" stroke-linejoin="round"/>
<path d="M624.386 304.952H613.296L617.701 293.523H628.79L624.386 304.952Z" fill="white" stroke="black" stroke-width="2.13714" stroke-linecap="round" stroke-linejoin="round"/>
<path d="M643.961 304.952H632.873L637.276 293.523H648.365L643.961 304.952Z" fill="#FCB006" stroke="black" stroke-width="2.13714" stroke-linecap="round" stroke-linejoin="round"/>
<path d="M663.536 304.952H652.446L656.849 293.523H667.938L663.536 304.952Z" fill="white" stroke="black" stroke-width="2.13714" stroke-linecap="round" stroke-linejoin="round"/>
<path d="M683.109 304.952H672.02L676.422 293.523H687.512L683.109 304.952Z" fill="white" stroke="black" stroke-width="2.13714" stroke-linecap="round" stroke-linejoin="round"/>
<path d="M558.705 323.017H547.615L552.018 311.586H563.107L558.705 323.017Z" fill="white" stroke="black" stroke-width="2.13714" stroke-linecap="round" stroke-linejoin="round"/>
<path d="M578.278 323.017H567.188L571.591 311.586H582.681L578.278 323.017Z" fill="white" stroke="black" stroke-width="2.13714" stroke-linecap="round" stroke-linejoin="round"/>
<path d="M597.852 323.017H586.763L591.165 311.586H602.255L597.852 323.017Z" fill="white" stroke="black" stroke-width="2.13714" stroke-linecap="round" stroke-linejoin="round"/>
<path d="M617.428 323.017H606.338L610.74 311.586H621.83L617.428 323.017Z" fill="white" stroke="black" stroke-width="2.13714" stroke-linecap="round" stroke-linejoin="round"/>
<path d="M637.001 323.017H625.911L630.316 311.586H641.403L637.001 323.017Z" fill="white" stroke="black" stroke-width="2.13714" stroke-linecap="round" stroke-linejoin="round"/>
<path d="M679.753 341.69H769.41C770.534 341.689 771.592 341.159 772.265 340.258C772.937 339.358 773.146 338.193 772.828 337.115L733.249 202.571C732.803 201.054 731.411 200.012 729.83 200.011C728.249 200.011 726.857 201.053 726.411 202.571L676.333 337.115C676.015 338.193 676.224 339.358 676.897 340.259C677.57 341.159 678.629 341.69 679.753 341.69Z" fill="#FCB006" stroke="black" stroke-width="2.13714" stroke-linecap="round" stroke-linejoin="round"/>
<path d="M690.43 337.983H763.803C764.752 337.945 765.629 337.468 766.176 336.692C766.724 335.917 766.881 334.931 766.601 334.024L734.21 217.618C733.882 216.334 732.737 215.428 731.412 215.403C730.088 215.428 728.943 216.334 728.615 217.618L687.633 334.024C687.352 334.931 687.509 335.917 688.057 336.692C688.604 337.468 689.481 337.945 690.43 337.983Z" fill="#FDD504" stroke="black" stroke-width="2.13714" stroke-linecap="round" stroke-linejoin="round"/>
<path d="M736.119 299.119C737.321 303.483 737.331 308.089 736.149 312.458" stroke="black" stroke-width="2.13714" stroke-linecap="round" stroke-linejoin="round"/>
<path d="M594.614 239.948L586.29 244.949" stroke="black" stroke-width="2.13714" stroke-linecap="round" stroke-linejoin="round"/>
<path d="M457.888 294.574L436.739 341.852H579.363L552.848 283.726L457.888 294.574Z" fill="white"/>
<mask id="mask5_216_2543" style="mask-type:luminance" maskUnits="userSpaceOnUse" x="436" y="283" width="144" height="59">
<path fill-rule="evenodd" clip-rule="evenodd" d="M457.888 294.574L436.739 341.852H579.363L552.848 283.726L457.888 294.574Z" fill="white"/>
</mask>
<g mask="url(#mask5_216_2543)">
<path d="M436.579 313.616C361.555 391.075 554.537 298.517 554.537 298.517L484.934 284.811L467.453 289.053C467.453 289.053 511.604 236.156 436.579 313.616Z" fill="#D6DCF2"/>
</g>
<path fill-rule="evenodd" clip-rule="evenodd" d="M457.888 294.574L436.739 341.852H579.363L552.848 283.726L457.888 294.574V294.574Z" stroke="black" stroke-width="2.13714" stroke-linecap="round" stroke-linejoin="round"/>
<path d="M452.671 177.375C440.496 188.221 410.025 199.479 401.094 203.579C392.131 207.694 369.657 250.723 393.542 263.023C417.691 275.459 445.05 245.512 445.05 245.512C445.05 245.512 443.356 258.646 441.667 272.745C439.647 289.607 445.623 303.221 468.039 303.635C562.729 305.385 569.394 298.942 569 272.55L568.186 243.239C568.186 243.239 611.256 281.363 623.745 264.892C650.95 229.015 572.762 177.375 572.762 177.375H452.671Z" fill="#1A80FD"/>
<mask id="mask6_216_2543" style="mask-type:luminance" maskUnits="userSpaceOnUse" x="382" y="177" width="248" height="127">
<path fill-rule="evenodd" clip-rule="evenodd" d="M452.671 177.375C440.496 188.221 410.025 199.479 401.094 203.579C392.131 207.694 369.657 250.723 393.542 263.023C417.691 275.459 445.05 245.512 445.05 245.512C445.05 245.512 443.356 258.646 441.667 272.745C439.647 289.607 445.623 303.221 468.039 303.635C562.729 305.385 569.394 298.942 569 272.55L568.186 243.239C568.186 243.239 611.256 281.363 623.745 264.892C650.95 229.015 572.762 177.375 572.762 177.375H452.671Z" fill="white"/>
</mask>
<g mask="url(#mask6_216_2543)">
<path d="M408.278 311.472L445.051 245.511L458.6 224.587C458.6 224.587 460.857 289.284 545.553 300.871C567.994 303.941 408.278 311.472 408.278 311.472Z" fill="#1D62FC"/>
<path d="M576.846 262.404L568.187 243.239C568.187 243.239 552.581 231.555 551.389 228.373C550.197 225.191 551.816 227.003 551.816 227.003L574.86 269.563L576.846 262.404Z" fill="#1D62FC"/>
<path d="M436.039 265.145V255.085C480.021 275.283 530.627 275.283 574.61 255.085V265.145C530.627 285.342 480.021 285.342 436.039 265.145Z" fill="white" stroke="black" stroke-width="2.13714" stroke-linecap="round" stroke-linejoin="round"/>
<path d="M436.039 284.33V274.27C480.021 294.467 530.627 294.467 574.61 274.27V284.33C530.627 304.527 480.021 304.527 436.039 284.33Z" fill="white" stroke="black" stroke-width="2.13714" stroke-linecap="round" stroke-linejoin="round"/>
<path d="M436.039 303.514V293.454C480.021 313.652 530.627 313.652 574.61 293.454V303.514C530.627 323.711 480.021 323.711 436.039 303.514Z" fill="white" stroke="black" stroke-width="2.13714" stroke-linecap="round" stroke-linejoin="round"/>
</g>
<path fill-rule="evenodd" clip-rule="evenodd" d="M452.671 177.375C440.496 188.221 410.025 199.479 401.094 203.579C392.131 207.694 369.657 250.723 393.542 263.023C417.691 275.459 445.05 245.512 445.05 245.512C445.05 245.512 443.356 258.646 441.667 272.745C439.647 289.607 445.623 303.221 468.039 303.635C562.729 305.385 569.394 298.942 569 272.55L568.186 243.239C568.186 243.239 611.256 281.363 623.745 264.892C650.95 229.015 572.762 177.375 572.762 177.375H452.671Z" stroke="black" stroke-width="2.13714" stroke-linecap="round" stroke-linejoin="round"/>
<path d="M503.894 193.043L494.909 203.6L508.987 225.344L523.062 197.92L505.176 193.594" fill="#FDD504"/>
<path d="M503.894 193.043L494.909 203.6L508.987 225.344L523.062 197.92L505.176 193.594" stroke="black" stroke-width="2.13714" stroke-linecap="round" stroke-linejoin="round"/>
<path d="M473.567 193.52L508.986 225.344L490.149 176.081L473.567 193.52Z" fill="white" stroke="black" stroke-width="2.13714" stroke-linecap="round" stroke-linejoin="round"/>
<path d="M522.794 176.081L508.986 225.344L543.078 183.185L522.794 176.081Z" fill="white" stroke="black" stroke-width="2.13714" stroke-linecap="round" stroke-linejoin="round"/>
<path d="M544.993 108.971C545.451 124.743 536.302 139.219 521.859 145.574C507.416 151.928 490.562 148.893 479.244 137.899C467.925 126.905 464.401 110.147 470.332 95.5254C476.264 80.9037 490.467 71.3373 506.246 71.3361C527.273 71.1939 544.523 87.9496 544.993 108.971Z" fill="#485065" stroke="black" stroke-width="2.13714" stroke-linecap="round" stroke-linejoin="round"/>
<path d="M532.092 65.7561C532.082 69.9677 530.384 73.9997 527.377 76.9487C524.37 79.8978 520.306 81.5174 516.095 81.4448C511.873 81.5085 507.798 79.8908 504.769 76.9479C501.74 74.0051 500.005 69.9788 499.947 65.7561C500.108 57.0756 507.264 50.1628 515.945 50.3029C524.643 50.1812 531.831 57.0603 532.092 65.7561Z" fill="#485065"/>
<mask id="mask7_216_2543" style="mask-type:luminance" maskUnits="userSpaceOnUse" x="499" y="50" width="34" height="32">
<path fill-rule="evenodd" clip-rule="evenodd" d="M532.092 65.7561C532.082 69.9677 530.384 73.9997 527.377 76.9487C524.37 79.8978 520.306 81.5174 516.095 81.4448C511.873 81.5085 507.798 79.8908 504.769 76.9479C501.74 74.0051 500.005 69.9788 499.947 65.7561C500.108 57.0756 507.264 50.1628 515.945 50.3029C524.643 50.1812 531.831 57.0603 532.092 65.7561Z" fill="white"/>
</mask>
<g mask="url(#mask7_216_2543)">
<path d="M499.93 70.9727C508.879 76.6726 519.832 78.2894 530.046 75.4179L523.3 83.869L503.584 84.0686L494.515 73.1265L499.93 70.9727Z" fill="#FDD504" stroke="black" stroke-width="2.13714" stroke-linecap="round" stroke-linejoin="round"/>
</g>
<path fill-rule="evenodd" clip-rule="evenodd" d="M532.092 65.7561C532.082 69.9677 530.384 73.9997 527.377 76.9487C524.37 79.8978 520.306 81.5174 516.095 81.4448C511.873 81.5085 507.798 79.8908 504.769 76.9479C501.74 74.0051 500.005 69.9788 499.947 65.7561C500.108 57.0756 507.264 50.1628 515.945 50.3029C524.643 50.1812 531.831 57.0603 532.092 65.7561V65.7561Z" stroke="black" stroke-width="2.13714" stroke-linecap="round" stroke-linejoin="round"/>
<path d="M435.21 115.663C434.366 105.965 434.18 96.2221 434.654 86.4998L497.511 97.365L497.445 113.569L435.21 115.663Z" fill="white" stroke="black" stroke-width="2.13714" stroke-linecap="round" stroke-linejoin="round"/>
<path d="M577.093 115.663C578.302 105.992 578.649 96.2321 578.128 86.4998L495.381 97.365L495.298 113.569L577.093 115.663Z" fill="white" stroke="black" stroke-width="2.13714" stroke-linecap="round" stroke-linejoin="round"/>
<path d="M429.194 93.1252L430.556 196.511L502.915 200.846L503.065 97.3653L429.194 93.1252Z" fill="#FDD504" stroke="black" stroke-width="2.13714" stroke-linecap="round" stroke-linejoin="round"/>
<path d="M580.125 93.1252L578.625 196.511L506.26 200.846L506.251 97.3653L580.125 93.1252Z" fill="#FDD504" stroke="black" stroke-width="2.13714" stroke-linecap="round" stroke-linejoin="round"/>
<path d="M518.483 115.663L518.575 131.267L572.549 126.61L573.16 110.983L518.483 115.663Z" fill="#FDD504" stroke="black" stroke-width="2.13714" stroke-linecap="round" stroke-linejoin="round"/>
<path d="M510.683 200.846H497.089L497.512 97.3655H510.467L510.683 200.846Z" fill="#FDD504" stroke="black" stroke-width="2.13714" stroke-linecap="round" stroke-linejoin="round"/>
<path d="M413.478 148.886C413.298 146.258 414.183 143.668 415.934 141.7C420.565 136.474 425.054 132.395 426.814 132.219C428.912 132.01 442.595 125.343 443.814 126.382C445.034 127.421 444.981 132.951 435.543 136.934C435.543 136.934 445.687 133.893 446.811 134.836C447.936 135.778 445.694 141.036 437.354 142.513C429.003 143.991 426.412 148.652 426.412 148.652C426.412 148.652 442.901 146.743 445.883 145.472C448.862 144.203 450.652 144.097 450.71 145.896C450.769 147.694 446.765 151.628 444.959 152.054C444.959 152.054 449.099 157.178 431.48 159.748C430.871 161.998 431.391 164.404 432.875 166.202C437.034 172.065 422.534 212.143 419.316 222.94C418.821 224.606 418.034 226.172 416.992 227.564C411.834 234.443 395.493 254.103 389.007 237.192C382.532 220.305 420.242 183.605 416.913 170.852C415.133 163.643 413.984 156.294 413.478 148.886Z" fill="#F9C1BB"/>
<mask id="mask8_216_2543" style="mask-type:luminance" maskUnits="userSpaceOnUse" x="388" y="126" width="63" height="118">
<path fill-rule="evenodd" clip-rule="evenodd" d="M413.478 148.887C413.298 146.259 414.183 143.669 415.934 141.7C420.565 136.474 425.054 132.395 426.814 132.22C428.912 132.011 442.595 125.343 443.814 126.382C445.034 127.421 444.981 132.952 435.543 136.934C435.543 136.934 445.687 133.894 446.811 134.836C447.936 135.779 445.694 141.037 437.354 142.513C429.003 143.992 426.412 148.652 426.412 148.652C426.412 148.652 442.901 146.743 445.883 145.473C448.862 144.203 450.652 144.098 450.71 145.896C450.769 147.695 446.765 151.629 444.959 152.055C444.959 152.055 449.099 157.178 431.48 159.748C430.871 161.999 431.391 164.404 432.875 166.203C437.034 172.065 422.534 212.143 419.316 222.94C418.821 224.607 418.034 226.173 416.992 227.565C411.834 234.443 395.493 254.104 389.007 237.192C382.532 220.305 420.242 183.605 416.913 170.852C415.133 163.644 413.984 156.294 413.478 148.887Z" fill="white"/>
</mask>
<g mask="url(#mask8_216_2543)">
<path d="M446.532 132.292L435.541 136.934C432.267 137.986 429.093 139.33 426.06 140.952C431.253 137.662 436.709 134.807 442.374 132.417C443.683 131.802 445.188 131.757 446.532 132.292Z" fill="#F9C1BB" stroke="black" stroke-width="2.13714" stroke-linecap="round" stroke-linejoin="round"/>
<path d="M449.016 150.957L444.959 152.054C439.482 153.402 433.919 154.37 428.309 154.953C428.309 154.953 449.033 150.319 449.603 149.681C450.173 149.043 449.016 150.957 449.016 150.957Z" fill="#F9C1BB" stroke="black" stroke-width="2.13714" stroke-linecap="round" stroke-linejoin="round"/>
<path d="M399.276 194.642C380.63 238.413 401.526 243.884 401.526 243.884L375.487 246.781L377.416 212.343" fill="#ED707B"/>
</g>
<path fill-rule="evenodd" clip-rule="evenodd" d="M413.478 148.886C413.298 146.258 414.183 143.668 415.934 141.7C420.565 136.474 425.054 132.395 426.814 132.219C428.912 132.01 442.595 125.343 443.814 126.382C445.034 127.421 444.981 132.951 435.543 136.934C435.543 136.934 445.687 133.893 446.811 134.836C447.936 135.778 445.694 141.036 437.354 142.513C429.003 143.991 426.412 148.652 426.412 148.652C426.412 148.652 442.901 146.743 445.883 145.472C448.862 144.203 450.652 144.097 450.71 145.896C450.769 147.694 446.765 151.628 444.959 152.054C444.959 152.054 449.099 157.178 431.48 159.748C430.871 161.998 431.391 164.404 432.875 166.202C437.034 172.065 422.534 212.143 419.316 222.94C418.821 224.606 418.034 226.172 416.992 227.564C411.834 234.443 395.493 254.103 389.007 237.192C382.532 220.305 420.242 183.605 416.913 170.852C415.133 163.643 413.984 156.294 413.478 148.886V148.886Z" stroke="black" stroke-width="2.13714" stroke-linecap="round" stroke-linejoin="round"/>
<path d="M596.001 154.345C596.197 151.533 595.255 148.76 593.387 146.649C588.448 141.054 583.66 136.689 581.781 136.501C579.541 136.277 565.955 124.619 564.654 125.726C563.352 126.833 560.397 130.411 572.449 141.547C572.449 141.547 561.623 138.292 560.42 139.301C559.216 140.31 561.598 145.939 570.503 147.52C579.421 149.103 582.181 154.095 582.181 154.095C582.181 154.095 564.567 152.05 561.384 150.689C558.204 149.329 556.293 149.216 556.225 151.142C556.158 153.072 560.427 157.283 562.355 157.739C562.355 157.739 557.919 163.23 576.744 165.986C577.391 168.4 576.83 170.978 575.241 172.906C570.781 179.195 586.221 222.246 589.649 233.863C590.177 235.656 591.018 237.341 592.133 238.841C597.649 246.248 615.142 267.438 622.105 249.21C629.049 231.028 588.72 191.58 592.299 177.894C594.211 170.166 595.449 162.287 596.001 154.345Z" fill="#F9C1BB"/>
<mask id="mask9_216_2543" style="mask-type:luminance" maskUnits="userSpaceOnUse" x="556" y="125" width="67" height="132">
<path fill-rule="evenodd" clip-rule="evenodd" d="M596.001 154.345C596.197 151.533 595.255 148.76 593.387 146.649C588.448 141.054 583.66 136.689 581.781 136.501C579.541 136.277 565.955 124.619 564.654 125.726C563.352 126.833 560.397 130.411 572.449 141.547C572.449 141.547 561.623 138.292 560.42 139.301C559.216 140.31 561.598 145.939 570.503 147.52C579.421 149.103 582.181 154.095 582.181 154.095C582.181 154.095 564.567 152.05 561.384 150.689C558.204 149.329 556.293 149.216 556.225 151.142C556.158 153.072 560.427 157.283 562.355 157.739C562.355 157.739 557.919 163.23 576.744 165.986C577.391 168.4 576.83 170.978 575.241 172.906C570.781 179.195 586.221 222.246 589.649 233.863C590.177 235.656 591.018 237.341 592.133 238.841C597.649 246.248 615.142 267.438 622.105 249.21C629.049 231.028 588.72 191.58 592.299 177.894C594.211 170.166 595.449 162.287 596.001 154.345Z" fill="white"/>
</mask>
<g mask="url(#mask9_216_2543)">
<path d="M620.451 227.47C623.745 264.891 602.684 250.608 602.684 250.608L609.843 278L635.883 259.011L622.91 222.642" fill="#ED707B"/>
</g>
<path fill-rule="evenodd" clip-rule="evenodd" d="M596.001 154.345C596.197 151.533 595.255 148.76 593.387 146.649C588.448 141.054 583.66 136.689 581.781 136.501C579.541 136.277 565.955 124.619 564.654 125.726C563.352 126.833 560.397 130.411 572.449 141.547C572.449 141.547 561.623 138.292 560.42 139.301C559.216 140.31 561.598 145.939 570.503 147.52C579.421 149.103 582.181 154.095 582.181 154.095C582.181 154.095 564.567 152.05 561.384 150.689C558.204 149.329 556.293 149.216 556.225 151.142C556.158 153.072 560.427 157.283 562.355 157.739C562.355 157.739 557.919 163.23 576.744 165.986C577.391 168.4 576.83 170.978 575.241 172.906C570.781 179.195 586.221 222.246 589.649 233.863C590.177 235.656 591.018 237.341 592.133 238.841C597.649 246.248 615.142 267.438 622.105 249.21C629.049 231.028 588.72 191.58 592.299 177.894C594.211 170.166 595.449 162.287 596.001 154.345Z" stroke="black" stroke-width="2.13714" stroke-linecap="round" stroke-linejoin="round"/>
<path d="M462.982 219.683C462.982 219.683 447.743 243.407 445.052 245.512L462.982 219.683Z" fill="#485065"/>
<path d="M462.982 219.683C462.982 219.683 447.743 243.407 445.052 245.512" stroke="black" stroke-width="2.13714" stroke-linecap="round" stroke-linejoin="round"/>
<path d="M546.886 220.808C555.244 235.613 570.362 245.097 570.362 245.097L546.886 220.808Z" fill="#1A80FD"/>
<path d="M546.886 220.808C555.244 235.613 570.362 245.097 570.362 245.097" stroke="black" stroke-width="2.13714" stroke-linecap="round" stroke-linejoin="round"/>
<circle cx="508.757" cy="234.04" r="3.43716" fill="white" stroke="black" stroke-width="2.13714" stroke-linecap="round" stroke-linejoin="round"/>
<circle cx="508.757" cy="252.983" r="3.43716" fill="white" stroke="black" stroke-width="2.13714" stroke-linecap="round" stroke-linejoin="round"/>
<path d="M462.985 157.065C464.815 160.659 467.525 163.73 470.864 165.991" stroke="black" stroke-width="2.13714" stroke-linecap="round" stroke-linejoin="round"/>
<path d="M591.735 206.763L596.879 209.338" stroke="black" stroke-width="2.13714" stroke-linecap="round" stroke-linejoin="round"/>
<path d="M662.069 279.616H632.448C632.082 279.82 634.849 286.097 637.219 291.293C639.373 296.254 640.458 301.613 640.402 307.022V335.607L647.258 335.738L654.115 335.607V307.021C654.059 301.612 655.144 296.253 657.298 291.292C659.667 286.098 662.435 279.82 662.069 279.616Z" fill="#FCB006"/>
<mask id="mask10_216_2543" style="mask-type:luminance" maskUnits="userSpaceOnUse" x="632" y="279" width="31" height="57">
<path fill-rule="evenodd" clip-rule="evenodd" d="M662.069 279.616H632.448C632.082 279.82 634.849 286.097 637.219 291.293C639.373 296.254 640.458 301.613 640.402 307.022V335.607L647.258 335.738L654.115 335.607V307.021C654.059 301.612 655.144 296.253 657.298 291.292C659.667 286.098 662.435 279.82 662.069 279.616Z" fill="white"/>
</mask>
<g mask="url(#mask10_216_2543)">
<path d="M633.143 300.465C631.949 286.298 657.845 287.105 663.992 281.667C670.138 276.228 626.835 276.399 626.835 276.399C626.835 276.399 624.772 282.41 625.377 284.525C625.531 286.544 625.152 288.569 624.277 290.395" fill="#FDD504"/>
</g>
<path fill-rule="evenodd" clip-rule="evenodd" d="M662.069 279.616H632.448C632.082 279.82 634.849 286.097 637.219 291.293C639.373 296.254 640.458 301.613 640.402 307.022V335.607L647.258 335.738L654.115 335.607V307.021C654.059 301.612 655.144 296.253 657.298 291.292C659.667 286.098 662.435 279.82 662.069 279.616Z" stroke="black" stroke-width="2.13714" stroke-linecap="round" stroke-linejoin="round"/>
<path fill-rule="evenodd" clip-rule="evenodd" d="M584.51 240.801C577.534 237.32 573.074 230.246 572.943 222.451C572.968 216.749 575.402 211.324 579.645 207.515C584.036 203.515 589.776 201.32 595.716 201.369H595.802C608.499 201.412 611.524 201.346 612.226 201.307C612.409 201.273 612.594 201.256 612.779 201.256C614.256 201.201 615.498 202.351 615.558 203.827C615.552 204.523 615.255 205.185 614.739 205.652C613.833 206.487 613.714 206.487 607.496 206.516L607.488 206.516C604.666 206.529 600.728 206.527 595.782 206.51C591.268 206.457 586.903 208.118 583.566 211.157C580.358 214.037 578.517 218.139 578.499 222.45C578.598 228.344 581.969 233.693 587.244 236.325L612.611 249.601C614.491 250.549 615.897 252.23 616.499 254.248C617.074 256.222 616.759 258.349 615.637 260.071C614.08 262.437 611.426 263.846 608.595 263.812C607.378 263.812 606.175 263.56 605.06 263.071L599.672 260.708C599.023 260.453 598.51 259.937 598.259 259.286C598.008 258.635 598.042 257.909 598.351 257.284C599.079 255.977 600.687 255.446 602.051 256.062L607.439 258.425C608.661 258.978 610.104 258.569 610.854 257.457C611.216 256.9 611.317 256.214 611.131 255.576C610.937 254.925 610.483 254.382 609.877 254.076L584.51 240.801ZM611.204 201.711C611.447 201.553 611.714 201.435 611.994 201.362C611.715 201.438 611.448 201.556 611.204 201.711Z" fill="#FDD504"/>
<path d="M572.943 222.451L571.875 222.446C571.875 222.453 571.875 222.461 571.875 222.468L572.943 222.451ZM584.51 240.801L585.006 239.854C585 239.851 584.993 239.848 584.987 239.845L584.51 240.801ZM579.645 207.515L580.359 208.31L580.364 208.305L579.645 207.515ZM595.716 201.369L595.707 202.438H595.716V201.369ZM595.802 201.369L595.805 200.3H595.802V201.369ZM612.226 201.307L612.285 202.374C612.331 202.372 612.376 202.366 612.421 202.358L612.226 201.307ZM612.779 201.256L612.779 202.325C612.792 202.325 612.806 202.325 612.819 202.324L612.779 201.256ZM615.558 203.827L616.626 203.836C616.626 203.818 616.626 203.801 616.625 203.784L615.558 203.827ZM614.739 205.652L614.022 204.859L614.015 204.866L614.739 205.652ZM607.496 206.516L607.491 205.447L607.491 205.447L607.496 206.516ZM607.488 206.516L607.493 207.585L607.493 207.585L607.488 206.516ZM595.782 206.51L595.769 207.579L595.778 207.579L595.782 206.51ZM583.566 211.157L584.28 211.952L584.286 211.947L583.566 211.157ZM578.499 222.45L577.43 222.445C577.43 222.453 577.43 222.46 577.43 222.468L578.499 222.45ZM587.244 236.325L587.74 235.378C587.734 235.375 587.727 235.372 587.721 235.368L587.244 236.325ZM612.611 249.601L612.116 250.548C612.121 250.55 612.125 250.553 612.13 250.555L612.611 249.601ZM616.499 254.248L617.525 253.949L617.523 253.943L616.499 254.248ZM615.637 260.071L616.53 260.659L616.532 260.655L615.637 260.071ZM608.595 263.812L608.607 262.744H608.595L608.595 263.812ZM605.06 263.071L605.49 262.093L605.49 262.093L605.06 263.071ZM599.672 260.708L600.101 259.729C600.088 259.724 600.076 259.718 600.063 259.713L599.672 260.708ZM598.259 259.286L597.262 259.671L598.259 259.286ZM598.351 257.284L597.418 256.764C597.409 256.779 597.401 256.794 597.394 256.81L598.351 257.284ZM602.051 256.062L601.611 257.036L601.622 257.04L602.051 256.062ZM607.439 258.425L607.88 257.452L607.868 257.447L607.439 258.425ZM610.854 257.457L611.74 258.054C611.743 258.05 611.746 258.045 611.749 258.04L610.854 257.457ZM611.131 255.576L612.157 255.277L612.156 255.271L611.131 255.576ZM609.877 254.076L609.381 255.023C609.386 255.025 609.391 255.027 609.395 255.03L609.877 254.076ZM611.204 201.711L610.621 200.816C610.128 201.137 609.988 201.796 610.306 202.29C610.625 202.784 611.283 202.928 611.779 202.612L611.204 201.711ZM611.994 201.362L612.275 202.393C612.842 202.238 613.178 201.654 613.026 201.086C612.875 200.518 612.292 200.179 611.723 200.328L611.994 201.362ZM571.875 222.468C572.013 230.663 576.7 238.099 584.033 241.757L584.987 239.845C578.367 236.542 574.136 229.829 574.012 222.433L571.875 222.468ZM578.931 206.72C574.464 210.73 571.9 216.443 571.875 222.446L574.012 222.455C574.035 217.055 576.34 211.917 580.359 208.31L578.931 206.72ZM595.725 200.3C589.516 200.249 583.516 202.544 578.925 206.725L580.364 208.305C584.557 204.486 590.036 202.391 595.707 202.437L595.725 200.3ZM595.802 200.3H595.716V202.438H595.802V200.3ZM612.167 200.24C611.504 200.277 608.518 200.343 595.805 200.3L595.798 202.437C608.479 202.48 611.543 202.415 612.285 202.374L612.167 200.24ZM612.78 200.188C612.529 200.188 612.278 200.211 612.031 200.257L612.421 202.358C612.539 202.336 612.659 202.325 612.779 202.325L612.78 200.188ZM616.625 203.784C616.542 201.719 614.804 200.111 612.739 200.188L612.819 202.324C613.707 202.291 614.454 202.982 614.49 203.87L616.625 203.784ZM615.456 206.444C616.194 205.776 616.618 204.83 616.626 203.836L614.489 203.818C614.486 204.215 614.316 204.593 614.022 204.859L615.456 206.444ZM607.501 207.585C610.568 207.57 612.237 207.565 613.234 207.447C613.756 207.386 614.187 207.286 614.578 207.09C614.964 206.897 615.241 206.643 615.463 206.437L614.015 204.866C613.785 205.078 613.706 205.137 613.621 205.179C613.541 205.22 613.384 205.278 612.985 205.325C612.142 205.424 610.642 205.433 607.491 205.447L607.501 207.585ZM607.493 207.585L607.501 207.585L607.491 205.447L607.483 205.447L607.493 207.585ZM595.778 207.579C600.725 207.596 604.667 207.597 607.493 207.585L607.483 205.447C604.665 205.46 600.73 205.459 595.785 205.442L595.778 207.579ZM584.286 211.947C587.423 209.09 591.526 207.529 595.769 207.579L595.794 205.442C591.011 205.386 586.384 207.146 582.847 210.367L584.286 211.947ZM579.567 222.454C579.585 218.445 581.297 214.63 584.28 211.952L582.852 210.362C579.42 213.443 577.45 217.832 577.43 222.445L579.567 222.454ZM587.721 235.368C582.803 232.915 579.659 227.927 579.567 222.432L577.43 222.468C577.536 228.76 581.136 234.471 586.767 237.281L587.721 235.368ZM613.107 248.654L587.74 235.378L586.749 237.271L612.116 250.548L613.107 248.654ZM617.523 253.943C616.838 251.643 615.235 249.728 613.093 248.647L612.13 250.555C613.748 251.371 614.957 252.817 615.475 254.553L617.523 253.943ZM616.532 260.655C617.825 258.671 618.187 256.222 617.525 253.949L615.473 254.547C615.961 256.222 615.694 258.026 614.742 259.488L616.532 260.655ZM608.582 264.881C611.777 264.919 614.772 263.328 616.53 260.659L614.744 259.484C613.388 261.545 611.075 262.774 608.607 262.744L608.582 264.881ZM604.631 264.05C605.881 264.598 607.23 264.881 608.595 264.881L608.595 262.744C607.526 262.744 606.469 262.522 605.49 262.093L604.631 264.05ZM599.243 261.686L604.631 264.05L605.49 262.093L600.101 259.729L599.243 261.686ZM597.262 259.671C597.621 260.601 598.353 261.338 599.281 261.702L600.063 259.713C599.692 259.568 599.4 259.273 599.256 258.902L597.262 259.671ZM597.394 256.81C596.951 257.703 596.904 258.741 597.262 259.671L599.256 258.902C599.113 258.53 599.132 258.115 599.309 257.758L597.394 256.81ZM602.491 255.088C600.621 254.243 598.416 254.972 597.418 256.764L599.285 257.804C599.742 256.982 600.754 256.648 601.611 257.036L602.491 255.088ZM607.868 257.447L602.48 255.083L601.622 257.04L607.01 259.404L607.868 257.447ZM609.968 256.859C609.509 257.539 608.627 257.79 607.88 257.452L606.999 259.399C608.695 260.166 610.698 259.598 611.74 258.054L609.968 256.859ZM610.106 255.875C610.204 256.214 610.151 256.578 609.958 256.874L611.749 258.04C612.281 257.222 612.43 256.213 612.157 255.277L610.106 255.875ZM609.395 255.03C609.74 255.204 609.997 255.512 610.107 255.881L612.156 255.271C611.877 254.338 611.227 253.561 610.358 253.122L609.395 255.03ZM584.015 241.748L609.381 255.023L610.372 253.129L585.006 239.854L584.015 241.748ZM611.788 202.606C611.934 202.511 612.095 202.44 612.264 202.396L611.723 200.328C611.332 200.43 610.96 200.595 610.621 200.816L611.788 202.606ZM611.713 200.331C611.33 200.435 610.965 200.597 610.63 200.81L611.779 202.612C611.932 202.515 612.099 202.441 612.275 202.393L611.713 200.331Z" fill="black"/>
<path opacity="0.2" d="M612.781 201.257C612.595 201.257 612.41 201.274 612.228 201.308C611.723 201.336 610.022 201.377 604.408 201.383V206.524C605.544 206.523 606.581 206.521 607.489 206.516C613.715 206.488 613.834 206.487 614.74 205.652C615.256 205.185 615.553 204.523 615.559 203.827C615.499 202.351 614.257 201.202 612.781 201.257Z" fill="#D37A56"/>
<path fill-rule="evenodd" clip-rule="evenodd" d="M704.996 201.367C710.448 201.353 715.68 203.517 719.529 207.379V207.38C724.093 211.934 726.266 218.36 725.403 224.75C724.54 231.14 720.739 236.759 715.13 239.939L692.192 252.925C691.077 253.563 690.664 254.967 691.255 256.108C691.846 257.248 693.232 257.72 694.396 257.177L699.269 254.866C700.521 254.286 702.006 254.825 702.597 256.072C703.187 257.319 702.662 258.809 701.42 259.41L696.547 261.722C692.932 263.449 688.599 261.996 686.756 258.439C684.912 254.882 686.224 250.504 689.719 248.546L712.657 235.56C717.542 232.787 720.561 227.605 720.565 221.988C720.567 217.846 718.92 213.873 715.988 210.947C713.056 208.022 709.079 206.384 704.937 206.396C700.464 206.413 696.903 206.414 694.351 206.402L694.344 206.402C688.721 206.374 688.613 206.373 687.795 205.556C687.008 204.773 686.827 203.566 687.351 202.587C687.874 201.608 688.978 201.088 690.066 201.307C690.701 201.346 693.436 201.41 704.918 201.367H704.996ZM690.278 201.359C690.533 201.432 690.775 201.548 690.991 201.701C690.773 201.55 690.532 201.435 690.278 201.359Z" fill="#FDD504"/>
<path d="M719.529 207.379H720.597C720.597 207.096 720.485 206.825 720.285 206.624L719.529 207.379ZM704.996 201.367V202.436L704.999 202.436L704.996 201.367ZM719.529 207.38H718.46C718.46 207.663 718.573 207.936 718.774 208.136L719.529 207.38ZM725.403 224.75L726.462 224.893V224.893L725.403 224.75ZM715.13 239.939L715.656 240.869L715.657 240.868L715.13 239.939ZM692.192 252.925L691.665 251.995L691.66 251.997L692.192 252.925ZM691.255 256.108L692.204 255.616L692.204 255.616L691.255 256.108ZM694.396 257.177L694.847 258.146L694.854 258.143L694.396 257.177ZM699.269 254.866L698.82 253.896L698.811 253.9L699.269 254.866ZM702.597 256.072L701.631 256.529L702.597 256.072ZM701.42 259.41L701.878 260.376L701.886 260.372L701.42 259.41ZM696.547 261.722L696.089 260.757L696.087 260.758L696.547 261.722ZM689.719 248.546L690.241 249.478L690.246 249.476L689.719 248.546ZM712.657 235.56L713.184 236.49L713.185 236.49L712.657 235.56ZM720.565 221.988L721.633 221.989V221.989L720.565 221.988ZM715.988 210.947L716.743 210.191L715.988 210.947ZM704.937 206.396L704.933 205.328L704.933 205.328L704.937 206.396ZM694.351 206.402L694.345 207.471L694.346 207.471L694.351 206.402ZM694.344 206.402L694.339 207.471L694.344 206.402ZM687.795 205.556L688.549 204.8L688.548 204.799L687.795 205.556ZM687.351 202.587L688.293 203.091L687.351 202.587ZM690.066 201.307L689.855 202.354C689.903 202.364 689.952 202.37 690.001 202.373L690.066 201.307ZM704.918 201.367V200.298L704.914 200.298L704.918 201.367ZM690.278 201.359L690.571 200.332C690.005 200.17 689.416 200.497 689.252 201.061C689.088 201.626 689.411 202.217 689.975 202.384L690.278 201.359ZM690.991 201.701L690.383 202.579C690.866 202.914 691.529 202.796 691.867 202.314C692.204 201.833 692.089 201.169 691.609 200.829L690.991 201.701ZM720.285 206.624C716.236 202.561 710.73 200.283 704.993 200.298L704.999 202.436C710.166 202.422 715.124 204.473 718.772 208.133L720.285 206.624ZM720.597 207.38V207.379H718.46V207.38H720.597ZM726.462 224.893C727.37 218.172 725.084 211.413 720.283 206.623L718.774 208.136C723.102 212.455 725.162 218.548 724.344 224.607L726.462 224.893ZM715.657 240.868C721.556 237.524 725.554 231.614 726.462 224.893L724.344 224.607C723.525 230.666 719.922 235.994 714.603 239.009L715.657 240.868ZM692.718 253.854L715.656 240.869L714.603 239.009L691.665 251.995L692.718 253.854ZM692.204 255.616C691.876 254.984 692.105 254.206 692.723 253.852L691.66 251.997C690.049 252.921 689.452 254.95 690.307 256.599L692.204 255.616ZM693.945 256.209C693.299 256.51 692.532 256.248 692.204 255.616L690.307 256.599C691.161 258.248 693.164 258.93 694.847 258.146L693.945 256.209ZM698.811 253.9L693.938 256.212L694.854 258.143L699.727 255.831L698.811 253.9ZM703.563 255.615C702.721 253.837 700.605 253.07 698.82 253.896L699.717 255.836C700.437 255.502 701.292 255.812 701.631 256.529L703.563 255.615ZM701.886 260.372C703.655 259.515 704.404 257.392 703.563 255.615L701.631 256.529C701.97 257.246 701.668 258.103 700.954 258.449L701.886 260.372ZM697.005 262.688L701.878 260.376L700.962 258.445L696.089 260.757L697.005 262.688ZM685.807 258.931C687.916 263 692.872 264.662 697.008 262.686L696.087 260.758C692.992 262.236 689.282 260.992 687.704 257.947L685.807 258.931ZM689.197 247.614C685.199 249.853 683.698 254.862 685.807 258.931L687.704 257.947C686.126 254.902 687.249 251.154 690.241 249.478L689.197 247.614ZM712.131 234.63L689.193 247.616L690.246 249.476L713.184 236.49L712.131 234.63ZM719.496 221.987C719.493 227.22 716.68 232.048 712.13 234.631L713.185 236.49C718.404 233.527 721.629 227.99 721.633 221.989L719.496 221.987ZM715.233 211.704C717.965 214.429 719.499 218.129 719.496 221.987L721.633 221.989C721.636 217.562 719.876 213.317 716.743 210.191L715.233 211.704ZM704.94 207.465C708.798 207.453 712.502 208.979 715.233 211.704L716.743 210.191C713.609 207.065 709.36 205.315 704.933 205.328L704.94 207.465ZM694.346 207.471C696.902 207.483 700.467 207.482 704.941 207.465L704.933 205.328C700.462 205.344 696.903 205.346 694.356 205.334L694.346 207.471ZM694.339 207.471L694.345 207.471L694.356 205.334L694.349 205.333L694.339 207.471ZM687.04 206.313C687.239 206.512 687.498 206.771 687.864 206.969C688.238 207.172 688.649 207.273 689.133 207.335C690.048 207.451 691.572 207.457 694.339 207.471L694.349 205.333C691.493 205.319 690.152 205.31 689.402 205.215C689.054 205.171 688.933 205.117 688.881 205.089C688.821 205.057 688.759 205.009 688.549 204.8L687.04 206.313ZM686.408 202.083C685.663 203.479 685.92 205.198 687.041 206.314L688.548 204.799C688.096 204.348 687.992 203.654 688.293 203.091L686.408 202.083ZM690.277 200.259C688.726 199.947 687.154 200.688 686.408 202.083L688.293 203.091C688.594 202.528 689.229 202.228 689.855 202.354L690.277 200.259ZM704.914 200.298C693.414 200.341 690.723 200.276 690.131 200.24L690.001 202.373C690.679 202.415 693.458 202.478 704.922 202.436L704.914 200.298ZM704.996 200.298H704.918V202.436H704.996V200.298ZM689.985 202.387C690.124 202.427 690.256 202.49 690.374 202.573L691.609 200.829C691.294 200.606 690.942 200.437 690.571 200.332L689.985 202.387ZM691.6 200.823C691.289 200.607 690.945 200.442 690.581 200.335L689.975 202.384C690.12 202.427 690.258 202.493 690.383 202.579L691.6 200.823Z" fill="black"/>
<path opacity="0.2" d="M690.991 201.701C690.773 201.55 690.532 201.435 690.277 201.359C690.533 201.432 690.774 201.548 690.991 201.701Z" fill="#D37A56"/>
<path d="M692.126 195.617H601.707C596.849 195.614 592.913 191.674 592.916 186.816C592.915 184.484 593.84 182.246 595.489 180.595C597.137 178.945 599.374 178.017 601.707 178.015H692.126C694.459 178.017 696.695 178.945 698.344 180.595C699.992 182.246 700.918 184.484 700.917 186.816C700.919 191.674 696.984 195.614 692.126 195.617Z" fill="#FDD504"/>
<mask id="mask11_216_2543" style="mask-type:luminance" maskUnits="userSpaceOnUse" x="592" y="178" width="109" height="18">
<path fill-rule="evenodd" clip-rule="evenodd" d="M692.126 195.617H601.707C596.849 195.614 592.913 191.674 592.916 186.816C592.915 184.484 593.84 182.246 595.489 180.595C597.137 178.945 599.374 178.017 601.707 178.015H692.126C694.459 178.017 696.695 178.945 698.344 180.595C699.992 182.246 700.918 184.484 700.917 186.816C700.919 191.674 696.984 195.614 692.126 195.617Z" fill="white"/>
</mask>
<g mask="url(#mask11_216_2543)">
<path d="M688.839 192.118H598.421C596.088 192.117 593.851 191.189 592.202 189.538C590.554 187.888 589.629 185.65 589.63 183.317C589.627 178.459 593.563 174.519 598.421 174.516H688.839C691.172 174.518 693.409 175.446 695.058 177.096C696.706 178.747 697.632 180.984 697.63 183.317C697.632 185.65 696.706 187.888 695.058 189.538C693.409 191.189 691.172 192.117 688.839 192.118Z" fill="#FCB006"/>
</g>
<path fill-rule="evenodd" clip-rule="evenodd" d="M692.126 195.617H601.707C596.849 195.614 592.913 191.674 592.916 186.816V186.816C592.915 184.484 593.84 182.246 595.489 180.595C597.137 178.945 599.374 178.017 601.707 178.015H692.126C694.459 178.017 696.695 178.945 698.344 180.595C699.992 182.246 700.918 184.484 700.917 186.816V186.816C700.919 191.674 696.984 195.614 692.126 195.617Z" stroke="black" stroke-width="2.13714" stroke-linecap="round" stroke-linejoin="round"/>
<path d="M648.902 195.617H603.692V243.243C603.686 254.185 608.027 264.682 615.76 272.424C623.493 280.166 633.985 284.519 644.927 284.525H648.902C659.845 284.519 670.337 280.166 678.07 272.424C685.803 264.682 690.144 254.185 690.138 243.243V195.617H648.902Z" fill="#FDD504"/>
<mask id="mask12_216_2543" style="mask-type:luminance" maskUnits="userSpaceOnUse" x="603" y="195" width="88" height="90">
<path fill-rule="evenodd" clip-rule="evenodd" d="M648.902 195.617H603.692V243.243C603.686 254.185 608.027 264.682 615.76 272.424C623.493 280.166 633.985 284.519 644.927 284.525H648.902C659.845 284.519 670.337 280.166 678.07 272.424C685.803 264.682 690.144 254.185 690.138 243.243V195.617H648.902Z" fill="white"/>
</mask>
<g mask="url(#mask12_216_2543)">
<path d="M688.589 181.367C699.227 295.386 609.981 279.616 609.981 279.616L632.413 309.17L710.542 307.677L716.54 204.911" fill="#FCB006"/>
<rect x="599.426" y="187.691" width="94.2194" height="9.58464" fill="#FCB006"/>
</g>
<path fill-rule="evenodd" clip-rule="evenodd" d="M648.902 195.617H603.692V243.243C603.686 254.185 608.027 264.682 615.76 272.424C623.493 280.166 633.985 284.519 644.927 284.525H648.902C659.845 284.519 670.337 280.166 678.07 272.424C685.803 264.682 690.144 254.185 690.138 243.243V195.617H648.902Z" stroke="black" stroke-width="2.13714" stroke-linecap="round" stroke-linejoin="round"/>
<path d="M648.405 210.217L652.623 218.774L662.057 220.146L655.231 226.808L656.842 236.213L648.405 231.772L639.969 236.213L641.581 226.808L634.755 220.146L644.188 218.774L648.405 210.217Z" fill="#FCB006" stroke="black" stroke-width="2.13714" stroke-linecap="round" stroke-linejoin="round"/>
<path d="M666.046 231.082L667.711 234.461L671.434 235.002L668.739 237.63L669.376 241.345L666.046 239.59L662.714 241.345L663.351 237.63L660.656 235.002L664.381 234.461L666.046 231.082Z" fill="#FCB006" stroke="black" stroke-width="2.13714" stroke-linecap="round" stroke-linejoin="round"/>
<path d="M630.765 231.082L632.43 234.461L636.152 235.002L633.46 237.63L634.094 241.345L630.765 239.59L627.435 241.345L628.07 237.63L625.377 235.002L629.1 234.461L630.765 231.082Z" fill="#FCB006" stroke="black" stroke-width="2.13714" stroke-linecap="round" stroke-linejoin="round"/>
<path d="M621.475 203.551L618.736 206.956" stroke="black" stroke-width="2.13714" stroke-linecap="round" stroke-linejoin="round"/>
<path d="M685.165 184.38L684.484 185.404" stroke="black" stroke-width="2.13714" stroke-linecap="round" stroke-linejoin="round"/>
<path d="M665.063 262.221C662.396 265.047 659.433 267.578 656.227 269.773" stroke="black" stroke-width="2.13714" stroke-linecap="round" stroke-linejoin="round"/>
<path d="M438.999 310.583L432.648 305.339L426.294 310.583V288.985H438.999V310.583Z" fill="white" stroke="black" stroke-width="2.13714" stroke-linecap="round" stroke-linejoin="round"/>
<rect x="361.864" y="257.526" width="112.104" height="42.2587" fill="#E43334"/>
<mask id="mask13_216_2543" style="mask-type:luminance" maskUnits="userSpaceOnUse" x="361" y="257" width="113" height="43">
<rect x="361.864" y="257.526" width="112.104" height="42.2587" fill="white"/>
</mask>
<g mask="url(#mask13_216_2543)">
<path d="M352.694 299.817C471.612 294.702 474.906 303.602 473.968 257.526C473.031 211.45 494.076 299.784 494.076 299.784L471.883 312.431L354.113 303.418" fill="#C11F27"/>
</g>
<rect x="361.864" y="257.526" width="112.104" height="42.2587" stroke="black" stroke-width="2.13714" stroke-linecap="round" stroke-linejoin="round"/>
<path d="M422.44 289.344H366.462V267.966H422.44V289.344Z" fill="#C11F27" stroke="black" stroke-width="2.13714" stroke-linecap="round" stroke-linejoin="round"/>
<path d="M463.895 289.344H441.303V267.966H463.895V289.344Z" fill="#C11F27" stroke="black" stroke-width="2.13714" stroke-linecap="round" stroke-linejoin="round"/>
<rect x="379.945" y="299.784" width="114.129" height="19.8782" fill="#1A80FD" stroke="black" stroke-width="2.13714" stroke-linecap="round" stroke-linejoin="round"/>
<rect x="379.945" y="303.418" width="114.129" height="12.6106" fill="white"/>
<mask id="mask14_216_2543" style="mask-type:luminance" maskUnits="userSpaceOnUse" x="379" y="303" width="116" height="14">
<rect x="379.945" y="303.418" width="114.129" height="12.6106" fill="white"/>
</mask>
<g mask="url(#mask14_216_2543)">
<path d="M351.586 304.544C352.357 305.088 452.598 304.544 452.598 304.544L374.836 305.731L351.586 304.544Z" fill="url(#paint0_linear_216_2543)"/>
<path d="M505.988 307.661H452.598L504.921 308.304" fill="url(#paint1_linear_216_2543)"/>
<path opacity="0.43" d="M360.322 313.396L366.3 314.219L480.216 312.289L360.322 313.396Z" fill="url(#paint2_linear_216_2543)"/>
</g>
<rect x="379.945" y="303.418" width="114.129" height="12.6106" stroke="black" stroke-width="2.13714" stroke-linecap="round" stroke-linejoin="round"/>
<path d="M425.88 330.863L418.648 324.891L411.416 330.863V306.273H425.88V330.863Z" fill="#FCB006"/>
<mask id="mask15_216_2543" style="mask-type:luminance" maskUnits="userSpaceOnUse" x="411" y="306" width="15" height="25">
<path fill-rule="evenodd" clip-rule="evenodd" d="M425.88 330.863L418.648 324.891L411.416 330.863V306.273H425.88V330.863Z" fill="white"/>
</mask>
<g mask="url(#mask15_216_2543)">
<path d="M425.536 304.957C423.473 328.145 407.737 364.086 408.559 340.244C408.925 329.662 429.89 336.71 429.89 336.71L432.647 301.901" fill="#FDD504"/>
</g>
<path fill-rule="evenodd" clip-rule="evenodd" d="M425.88 330.863L418.648 324.891L411.416 330.863V306.273H425.88V330.863V330.863Z" stroke="black" stroke-width="2.13714" stroke-linecap="round" stroke-linejoin="round"/>
<path d="M391.516 261.616L388.857 263.877" stroke="black" stroke-width="2.13714" stroke-linecap="round" stroke-linejoin="round"/>
<path d="M475.16 305.958L472.512 308.61" stroke="black" stroke-width="2.13714" stroke-linecap="round" stroke-linejoin="round"/>
</g>
<path d="M256.516 369.788V291.5V369.788Z" fill="#1AB995"/>
<path d="M256.516 369.788V291.5" stroke="black" stroke-width="2.13714" stroke-linecap="round" stroke-linejoin="round"/>
<path d="M532.654 45.6929V-32.5952V45.6929Z" fill="#1AB995"/>
<path d="M532.654 45.6929V-32.5952" stroke="black" stroke-width="2.13714" stroke-linecap="round" stroke-linejoin="round"/>
</g>
<rect x="2" y="2" width="801.427" height="313.892" stroke="black" stroke-width="2.13714" stroke-linecap="round" stroke-linejoin="round"/>
<defs>
<linearGradient id="paint0_linear_216_2543" x1="252.441" y1="312.192" x2="252.431" y2="316.87" gradientUnits="userSpaceOnUse">
<stop stop-color="#CDECFF"/>
<stop offset="1" stop-color="#52A8FD"/>
</linearGradient>
<linearGradient id="paint1_linear_216_2543" x1="421.332" y1="314.81" x2="421.354" y2="320.769" gradientUnits="userSpaceOnUse">
<stop stop-color="#CDECFF"/>
<stop offset="1" stop-color="#52A8FD"/>
</linearGradient>
<linearGradient id="paint2_linear_216_2543" x1="194.995" y1="311.899" x2="194.995" y2="319.928" gradientUnits="userSpaceOnUse">
<stop stop-color="#CDECFF"/>
<stop offset="1" stop-color="#52A8FD"/>
</linearGradient>
</defs>
</svg>
