<svg width="805" height="317" viewBox="0 0 805 317" fill="none" xmlns="http://www.w3.org/2000/svg">
<rect x="2" y="1.89209" width="801.427" height="313.892" fill="white"/>
<mask id="mask0_216_1958" style="mask-type:luminance" maskUnits="userSpaceOnUse" x="2" y="1" width="802" height="315">
<rect x="2" y="1.89209" width="801.427" height="313.892" fill="white"/>
</mask>
<g mask="url(#mask0_216_1958)">
<rect x="1.99902" y="-11.4653" width="801.427" height="340.606" fill="white"/>
<rect x="-12.3594" y="-20.7483" width="825.336" height="355.566" fill="#F2A6C8"/>
<circle cx="741.671" cy="315.869" r="105.489" fill="#FCB006"/>
<mask id="mask1_216_1958" style="mask-type:luminance" maskUnits="userSpaceOnUse" x="636" y="210" width="212" height="212">
<circle cx="741.672" cy="315.869" r="105.489" fill="white"/>
</mask>
<g mask="url(#mask1_216_1958)">
<path d="M451.83 330.982L1031.52 300.756" stroke="white" stroke-width="2.13714"/>
<path d="M450.674 308.809L1030.36 278.583" stroke="white" stroke-width="2.13714"/>
<path d="M449.518 286.636L1029.2 256.409" stroke="white" stroke-width="2.13714"/>
<path d="M448.36 264.462L1028.05 234.236" stroke="white" stroke-width="2.13714"/>
<path d="M447.204 242.289L1026.89 212.062" stroke="white" stroke-width="2.13714"/>
<path d="M446.049 220.116L1025.73 189.889" stroke="white" stroke-width="2.13714"/>
</g>
<circle cx="741.671" cy="315.869" r="105.489" stroke="black" stroke-width="2.13714" stroke-linecap="round" stroke-linejoin="round"/>
<path d="M16.5273 309.338L17.4228 243.67L78.2308 235.853L77.3353 301.523L16.5273 309.338Z" fill="#FCB006" stroke="black" stroke-width="2.13714" stroke-linecap="round" stroke-linejoin="round"/>
<path d="M78.2314 235.853L232.776 322.3L231.881 387.968L77.3359 301.523L78.2314 235.853Z" fill="white"/>
<path fill-rule="evenodd" clip-rule="evenodd" d="M78.2314 235.853L232.776 322.3L231.881 387.968L77.3359 301.523L78.2314 235.853V235.853Z" stroke="black" stroke-width="2.13714" stroke-linecap="round" stroke-linejoin="round"/>
<path d="M77.3353 301.523L231.88 387.968L171.074 395.785L16.5273 309.338L77.3353 301.523Z" fill="white"/>
<path fill-rule="evenodd" clip-rule="evenodd" d="M77.3353 301.523L231.88 387.968L171.074 395.785L16.5273 309.338L77.3353 301.523V301.523Z" stroke="black" stroke-width="2.13714" stroke-linecap="round" stroke-linejoin="round"/>
<path d="M163.185 321.939C168.005 316.547 173.752 312.061 180.153 308.695" stroke="black" stroke-width="2.13714"/>
<path d="M773.992 69.2272V-111.455H773.892C772.856 -116.729 758.977 -120.909 741.961 -120.909C724.945 -120.909 711.066 -116.729 710.03 -111.455H709.929V69.2272H773.992Z" fill="white" stroke="black" stroke-width="2.13714" stroke-linecap="round" stroke-linejoin="round"/>
<ellipse cx="741.96" cy="69.2277" rx="32.0316" ry="10.0839" fill="#1A80FD" stroke="black" stroke-width="2.13714" stroke-linecap="round" stroke-linejoin="round"/>
<rect x="-84.1543" y="-40.0496" width="195.548" height="175.112" fill="#FCB006" stroke="black" stroke-width="2.13714" stroke-linecap="round" stroke-linejoin="round"/>
<rect x="322.036" y="261.42" width="195.548" height="175.112" fill="#1A80FD" stroke="black" stroke-width="2.13714" stroke-linecap="round" stroke-linejoin="round"/>
<rect x="44.9854" y="45.6655" width="715.455" height="245.726" fill="white" stroke="black" stroke-width="2.13714" stroke-linecap="round" stroke-linejoin="round"/>
<path d="M547.058 252.065L474.056 76.4668L484.724 72.0151L557.729 247.613L547.058 252.065Z" fill="#7A24EA" stroke="black" stroke-width="2.13714" stroke-linecap="round" stroke-linejoin="round"/>
<path d="M516.476 181.732L502.352 147.755L516.45 141.874L530.575 175.848L516.476 181.732Z" fill="#1A80FD" stroke="black" stroke-width="2.13714" stroke-linecap="round" stroke-linejoin="round"/>
<path d="M484.93 81.6176L487.691 67.2261L517.67 76.7165C524.13 99.9029 549.352 104.667 543.334 151.376L519.313 160.679L500.422 99.243L484.93 81.6176Z" fill="white" stroke="black" stroke-width="2.13714" stroke-linecap="round" stroke-linejoin="round"/>
<path d="M469.689 66.5843L479.532 66.3604L480.097 67.7176L487.724 67.4219C497.706 92.822 540.209 123.102 519.347 160.874C519.347 160.874 510.2 151.119 505.275 152.179C499.578 120.311 478.654 93.4046 469.689 66.5843Z" fill="white"/>
<mask id="mask2_216_1958" style="mask-type:luminance" maskUnits="userSpaceOnUse" x="469" y="66" width="57" height="95">
<path fill-rule="evenodd" clip-rule="evenodd" d="M469.69 66.5843L479.533 66.3604L480.098 67.7176L487.725 67.4219C497.707 92.822 540.21 123.102 519.348 160.874C519.348 160.874 510.201 151.119 505.275 152.179C499.579 120.311 478.655 93.4046 469.69 66.5843Z" fill="white"/>
</mask>
<g mask="url(#mask2_216_1958)">
<path d="M475.816 64.0282C471.314 65.5973 497.985 125.514 496.671 124.472C495.358 123.431 475.383 91.5481 474.8 91.1936C474.218 90.839 468.58 70.4952 468.58 70.4952L476.738 61.9148" fill="url(#paint0_linear_216_1958)"/>
</g>
<path fill-rule="evenodd" clip-rule="evenodd" d="M469.689 66.5843L479.532 66.3604L480.097 67.7176L487.724 67.4219C497.706 92.822 540.209 123.102 519.347 160.874C519.347 160.874 510.2 151.119 505.275 152.179C499.578 120.311 478.654 93.4046 469.689 66.5843Z" stroke="black" stroke-width="2.13714" stroke-linecap="round" stroke-linejoin="round"/>
<path d="M515.749 80.703L497.052 76.3601C532.367 121.153 533.295 143.462 526.04 155.648L539.871 150.674C543.883 113.958 523.554 101.388 515.749 80.703Z" fill="url(#paint1_linear_216_1958)"/>
<path d="M492.314 86.1013C506.946 101.697 528.228 132.436 520.176 153.117C520.176 153.117 528.828 128.503 492.314 86.1013Z" fill="url(#paint2_linear_216_1958)"/>
<path d="M484.007 83.446C494.632 100.714 511.732 133.198 511.868 150.462C511.868 150.462 511.233 129.723 484.007 83.446Z" fill="white" stroke="black" stroke-width="2.13714" stroke-linecap="round" stroke-linejoin="round"/>
<path d="M551.069 240.706L563.211 248.879L577.601 220.876C565.722 199.951 580.112 178.658 542.777 150.038L519.267 160.569L549.493 217.274L551.069 240.706Z" fill="white"/>
<path fill-rule="evenodd" clip-rule="evenodd" d="M551.069 240.706L563.211 248.879L577.601 220.876C565.722 199.951 580.112 178.658 542.777 150.038L519.267 160.569L549.493 217.274L551.069 240.706Z" stroke="black" stroke-width="2.13714" stroke-linecap="round" stroke-linejoin="round"/>
<path d="M550.987 262.132L558.079 255.29L557.515 253.933L563.097 248.717C552.13 223.728 560.612 172.174 519.153 160.405C519.153 160.405 519.622 173.782 515.402 176.538C533.97 203.034 538.297 236.866 550.987 262.132Z" fill="white" stroke="black" stroke-width="2.13714" stroke-linecap="round" stroke-linejoin="round"/>
<path d="M573.425 219.432L563.333 235.788C556.468 179.123 541.315 162.75 527.57 159.327L540.836 152.995C569.677 176.001 564.266 199.313 573.425 219.432Z" fill="#1A80FD" stroke="black" stroke-width="2.13714" stroke-linecap="round" stroke-linejoin="round"/>
<path d="M553.094 232.295C552.349 210.905 545.558 174.119 525.232 165.279C525.232 165.279 548.768 176.463 553.094 232.295Z" fill="url(#paint3_linear_216_1958)"/>
<path d="M549.123 240.074C544.371 220.356 533.399 185.315 521.262 173.058C521.262 173.058 535.51 188.117 549.123 240.074Z" fill="white" stroke="black" stroke-width="2.13714" stroke-linecap="round" stroke-linejoin="round"/>
<path d="M552.83 261.672L517.615 176.969C517.321 176.263 516.681 175.761 515.925 175.644L506.275 152.435C506.725 151.815 506.821 151.007 506.528 150.3L471.313 65.5972C471.01 64.8712 470.343 64.3619 469.563 64.2613C468.783 64.1607 468.008 64.4839 467.531 65.1093C467.053 65.7347 466.946 66.5672 467.249 67.2933L502.176 151.307C501.111 152.129 500.73 153.564 501.247 154.807L510.703 177.551C511.218 178.793 512.504 179.533 513.837 179.355L548.766 263.368C549.069 264.094 549.736 264.603 550.516 264.704C551.297 264.805 552.071 264.481 552.549 263.856C553.026 263.231 553.133 262.398 552.83 261.672H552.83Z" fill="#7A24EA" stroke="black" stroke-width="2.13714" stroke-linecap="round" stroke-linejoin="round"/>
<path d="M512.083 177.72C511.81 177.061 512.077 176.303 512.703 175.961C517.579 172.949 519.4 166.746 516.925 161.576C515.017 156.367 509.621 153.303 504.17 154.333C503.423 154.52 502.666 154.066 502.479 153.319C502.293 152.573 502.747 151.816 503.493 151.629C510.342 150.491 517.055 154.296 519.597 160.756C522.139 167.217 519.82 174.575 514.032 178.41C513.708 178.587 513.327 178.627 512.973 178.523C512.619 178.418 512.321 178.176 512.145 177.852C512.122 177.809 512.101 177.765 512.083 177.72Z" fill="#7A24EA" stroke="black" stroke-width="2.13714" stroke-linecap="round" stroke-linejoin="round"/>
<path d="M515.463 91.3469C516.063 93.1469 517.007 94.8128 518.244 96.2517" stroke="black" stroke-width="2.13714" stroke-linecap="round" stroke-linejoin="round"/>
<path d="M542.357 198.635L538.387 191.021" stroke="black" stroke-width="2.13714" stroke-linecap="round" stroke-linejoin="round"/>
<path d="M602.1 32.8308L663.468 14.6672L667.259 27.3341L615.844 51.924L602.1 32.8308Z" fill="#FCB006" stroke="black" stroke-width="2.13714" stroke-linecap="round" stroke-linejoin="round"/>
<path d="M609.888 62.1527L608.268 67.9914L630.742 88.354L650.42 32.3503L609.888 62.1527Z" fill="#D6DCF2"/>
<path d="M603.711 46.7323L664.506 16.6965L664.397 22.6863L652.884 43.5302L658.044 29.7671L608.268 67.9917C608.268 67.9917 601.67 55.5619 603.711 46.7323Z" fill="white"/>
<mask id="mask3_216_1958" style="mask-type:luminance" maskUnits="userSpaceOnUse" x="603" y="16" width="62" height="52">
<path fill-rule="evenodd" clip-rule="evenodd" d="M603.711 46.7323L664.506 16.6965L664.397 22.6863L652.884 43.5302L658.044 29.7671L608.268 67.9917C608.268 67.9917 601.67 55.5619 603.711 46.7323Z" fill="white"/>
</mask>
<g mask="url(#mask3_216_1958)">
<path d="M597.776 54.8454L642.432 32.1426L595.609 57.2091L601.657 61.1521L627.903 45.9784L602.266 63.3491L588.354 57.0082" fill="#D6DCF2"/>
</g>
<path fill-rule="evenodd" clip-rule="evenodd" d="M603.711 46.7323L664.506 16.6965L664.397 22.6863L652.884 43.5302L658.044 29.7671L608.268 67.9917C608.268 67.9917 601.67 55.5619 603.711 46.7323Z" stroke="black" stroke-width="2.13714" stroke-linecap="round" stroke-linejoin="round"/>
<path d="M709.315 80.8195L712.934 80.6019C713.614 80.1113 714.051 79.3527 714.134 78.5185C714.218 77.6842 713.939 76.8543 713.37 76.239L663.468 14.6667L664.404 17.0033L664.525 21.363L663.13 24.9761L663.157 33.4086L709.315 80.8195Z" fill="#E43334" stroke="black" stroke-width="2.13714" stroke-linecap="round" stroke-linejoin="round"/>
<path d="M661.524 29.0798L663.378 22.8073C663.378 22.8073 666.352 17.4177 661.975 15.1087L663.467 14.6667C665.934 17.0919 666.238 20.9631 664.181 23.744L661.524 29.0798Z" fill="#485065" stroke="black" stroke-width="2.13714" stroke-linecap="round" stroke-linejoin="round"/>
<path d="M607.163 75.7963L663.378 22.8081L712.934 80.6027L666.067 127.526L607.163 75.7963Z" fill="#FDD504"/>
<mask id="mask4_216_1958" style="mask-type:luminance" maskUnits="userSpaceOnUse" x="607" y="22" width="106" height="106">
<path fill-rule="evenodd" clip-rule="evenodd" d="M607.163 75.7963L663.378 22.8081L712.934 80.6027L666.067 127.526L607.163 75.7963Z" fill="white"/>
</mask>
<g mask="url(#mask4_216_1958)">
<path d="M658.852 41.5952L628.642 74.8415C628.319 75.1979 628.151 75.6687 628.175 76.1495C628.2 76.6303 628.415 77.0814 628.774 77.4029L636.326 84.1708C636.682 84.4898 637.15 84.6543 637.627 84.6281C638.104 84.6019 638.551 84.3872 638.869 84.0312L668.172 51.326C668.79 50.6355 668.787 49.5896 668.163 48.9037L661.517 41.5947C661.176 41.2191 660.692 41.005 660.184 41.0051C659.677 41.0052 659.193 41.2195 658.852 41.5952Z" fill="#FCB006"/>
<path d="M626.436 92.7217C618.817 83.2514 660.896 130.711 685.414 107.323C693.803 99.3197 670.67 147.836 670.67 147.836L627.976 109.046" fill="#FCB006"/>
</g>
<path fill-rule="evenodd" clip-rule="evenodd" d="M607.163 75.7963L663.378 22.8081L712.934 80.6027L666.067 127.526L607.163 75.7963V75.7963Z" stroke="black" stroke-width="2.13714" stroke-linecap="round" stroke-linejoin="round"/>
<path d="M672.353 94.4258C671.035 95.4896 669.563 96.3486 667.988 96.9741" stroke="black" stroke-width="2.13714" stroke-linecap="round" stroke-linejoin="round"/>
<path d="M633.55 42.4111L629.307 43.8252" stroke="black" stroke-width="2.13714" stroke-linecap="round" stroke-linejoin="round"/>
<path d="M453.098 251.259L524.779 188.515L537.07 204.114L482.351 269.919L453.098 251.259Z" fill="#1D62FC" stroke="black" stroke-width="2.13714" stroke-linecap="round" stroke-linejoin="round"/>
<path d="M480.219 287.962L481.381 297.189L523.034 312.362L517.416 221.374L480.219 287.962Z" fill="#D6DCF2" stroke="black" stroke-width="2.13714" stroke-linecap="round" stroke-linejoin="round"/>
<path d="M463.171 269.918L527.324 190.755L530.592 199.281L527.084 235.676L526.136 213.121L481.383 297.189C481.383 297.189 465.476 283.622 463.171 269.918Z" fill="white"/>
<mask id="mask5_216_1958" style="mask-type:luminance" maskUnits="userSpaceOnUse" x="463" y="190" width="68" height="108">
<path fill-rule="evenodd" clip-rule="evenodd" d="M463.17 269.918L527.323 190.755L530.591 199.28L527.083 235.676L526.135 213.121L481.382 297.189C481.382 297.189 465.475 283.622 463.17 269.918Z" fill="white"/>
</mask>
<g mask="url(#mask5_216_1958)">
<path d="M459.863 284.964L506.617 225.911L458.311 289.612L468.644 291.525L495.083 254.232L470.711 294.261L448.495 293.713" fill="#D6DCF2"/>
</g>
<path fill-rule="evenodd" clip-rule="evenodd" d="M463.171 269.918L527.324 190.755L530.592 199.281L527.084 235.676L526.136 213.121L481.383 297.189C481.383 297.189 465.476 283.622 463.171 269.918Z" stroke="black" stroke-width="2.13714" stroke-linecap="round" stroke-linejoin="round"/>
<path d="M623.779 254.232L628.494 251.737C629.121 250.639 629.273 249.331 628.913 248.118C628.553 246.905 627.714 245.892 626.589 245.313L524.779 188.515L527.362 191.249L530.01 197.332L530.204 203.279L535.047 215.171L623.779 254.232Z" fill="#1A80FD" stroke="black" stroke-width="2.13714" stroke-linecap="round" stroke-linejoin="round"/>
<path d="M530.397 210.045L529.299 200.066C529.299 200.066 530.204 190.657 523.035 190.042L524.779 188.515C529.578 190.588 532.172 195.831 530.907 200.904L530.397 210.045Z" fill="#1A80FD" stroke="black" stroke-width="2.13714" stroke-linecap="round" stroke-linejoin="round"/>
<path d="M484.353 308.876L529.299 200.066L628.494 251.738L592.588 346.332L484.353 308.876Z" fill="#1A80FD"/>
<mask id="mask6_216_1958" style="mask-type:luminance" maskUnits="userSpaceOnUse" x="484" y="200" width="145" height="147">
<path fill-rule="evenodd" clip-rule="evenodd" d="M484.353 308.876L529.299 200.066L628.494 251.738L592.588 346.332L484.353 308.876Z" fill="white"/>
</mask>
<g mask="url(#mask6_216_1958)">
<path d="M533.958 229.335L512.522 294.547C512.031 295.974 512.752 297.535 514.158 298.085L528.113 303.079C528.783 303.306 529.517 303.25 530.144 302.922C530.772 302.595 531.237 302.025 531.433 301.345L551.965 237.444C552.407 236.118 551.815 234.668 550.572 234.029L537.521 227.723C536.84 227.405 536.054 227.401 535.369 227.711C534.684 228.021 534.169 228.614 533.958 229.335Z" fill="#1D62FC"/>
<path d="M519.767 321.132C504.183 312.362 587.49 353.957 606.935 306.108C613.588 289.734 610.318 372.235 610.318 372.235L531.13 343.256" fill="#1D62FC"/>
</g>
<path fill-rule="evenodd" clip-rule="evenodd" d="M484.353 308.876L529.299 200.066L628.494 251.738L592.588 346.332L484.353 308.876V308.876Z" stroke="black" stroke-width="2.13714" stroke-linecap="round" stroke-linejoin="round"/>
<path d="M580.063 293.474L579.101 301.102" stroke="black" stroke-width="2.13714" stroke-linecap="round" stroke-linejoin="round"/>
<path d="M498.906 242.162L496.504 244.705" stroke="black" stroke-width="2.13714" stroke-linecap="round" stroke-linejoin="round"/>
<path d="M712.617 295.798L713.684 295.654C713.684 295.654 716.227 289.017 714.833 285.03L712.207 286.797L712.508 293.18" fill="#1A80FD"/>
<path d="M712.617 295.798L713.684 295.654C713.684 295.654 716.227 289.017 714.833 285.03L712.207 286.797L712.508 293.18" stroke="black" stroke-width="2.13714" stroke-linecap="round" stroke-linejoin="round"/>
<path d="M664.402 327.553L663.473 329.579L663.774 331.851L713.685 295.654V293.744L711.058 291.359L664.402 327.553Z" fill="#1A80FD" stroke="black" stroke-width="2.13714" stroke-linecap="round" stroke-linejoin="round"/>
<path d="M575.194 279.715L571.911 279.933V282.235L663.774 331.851L663.473 329.579V324.758" fill="#1A80FD"/>
<path d="M575.194 279.715L571.911 279.933V282.235L663.774 331.851L663.473 329.579V324.758" stroke="black" stroke-width="2.13714" stroke-linecap="round" stroke-linejoin="round"/>
<path d="M571.911 279.934C571.911 279.934 597.509 251.002 631.968 254.618L713.684 293.743L663.473 329.58L571.911 279.934Z" fill="#1A80FD"/>
<mask id="mask7_216_1958" style="mask-type:luminance" maskUnits="userSpaceOnUse" x="571" y="254" width="143" height="76">
<path fill-rule="evenodd" clip-rule="evenodd" d="M571.911 279.934C571.911 279.934 597.509 251.002 631.968 254.618L713.684 293.743L663.473 329.58L571.911 279.934Z" fill="white"/>
</mask>
<g mask="url(#mask7_216_1958)">
<path d="M585.692 277.953C579.35 277.085 664.809 323.352 662.677 326.202C660.545 329.051 680.508 316.734 672.987 311.605C665.466 306.476 642.797 298.912 642.797 298.912" fill="#1D62FC"/>
</g>
<path fill-rule="evenodd" clip-rule="evenodd" d="M571.911 279.934C571.911 279.934 597.509 251.002 631.968 254.618L713.684 293.743L663.473 329.58L571.911 279.934Z" stroke="black" stroke-width="2.13714" stroke-linecap="round" stroke-linejoin="round"/>
<path d="M699.9 291.942L713.685 293.743L714.832 285.03L690.548 274.674L699.9 291.942Z" fill="#1A80FD" stroke="black" stroke-width="2.13714" stroke-linecap="round" stroke-linejoin="round"/>
<path d="M713.73 286.674L715.251 286.017C733.36 268.308 758.223 259.262 783.477 261.194L783.792 259.961L759.63 257.248L719.428 264.81L711.388 281.907L713.73 286.674Z" fill="#1A80FD" stroke="black" stroke-width="2.13714" stroke-linecap="round" stroke-linejoin="round"/>
<path d="M709.747 284.865L714.834 285.03C732.882 266.732 758.206 257.526 783.792 259.961L744.206 241.961L690.549 258.454L680.211 271.825L709.747 284.865Z" fill="#1A80FD" stroke="black" stroke-width="2.13714" stroke-linecap="round" stroke-linejoin="round"/>
<path d="M587.883 263.495L580.445 266.564C580.445 266.564 581.538 273.358 579.351 277.085L663.894 323.892L663.35 309.574L587.883 263.495Z" fill="white"/>
<mask id="mask8_216_1958" style="mask-type:luminance" maskUnits="userSpaceOnUse" x="579" y="263" width="85" height="61">
<path fill-rule="evenodd" clip-rule="evenodd" d="M587.882 263.495L580.444 266.564C580.444 266.564 581.537 273.358 579.35 277.085L663.893 323.892L663.349 309.574L587.882 263.495Z" fill="white"/>
</mask>
<g mask="url(#mask8_216_1958)">
<path d="M575.136 268.292L609.431 286.674L574.645 269.735L575.136 268.292Z" fill="#D6DCF2"/>
</g>
<path fill-rule="evenodd" clip-rule="evenodd" d="M587.883 263.495L580.445 266.564C580.445 266.564 581.538 273.358 579.351 277.085L663.894 323.892L663.35 309.574L587.883 263.495Z" stroke="black" stroke-width="2.13714" stroke-linecap="round" stroke-linejoin="round"/>
<path d="M763.812 250.056L776.145 258.145C752.54 257.069 729.865 267.447 715.251 286.017L711.8 292.841L702.089 282.792L702.691 274.797L719.373 254.305L737.97 251.769" fill="white"/>
<path d="M763.812 250.056L776.145 258.145C752.54 257.069 729.865 267.447 715.251 286.017L711.8 292.841L702.089 282.792L702.691 274.797L719.373 254.305L737.97 251.769" stroke="black" stroke-width="2.13714" stroke-linecap="round" stroke-linejoin="round"/>
<path d="M666.864 294.62L663.02 310.069L663.894 323.892L711.8 292.842L709.252 286.674L675.451 285.03L666.864 294.62Z" fill="white" stroke="black" stroke-width="2.13714" stroke-linecap="round" stroke-linejoin="round"/>
<path d="M640.392 247.714C640.392 247.714 606.918 231.056 580.445 266.564L663.352 309.574C663.352 309.574 680.81 286.949 709.252 286.675L640.392 247.714Z" fill="white" stroke="black" stroke-width="2.13714" stroke-linecap="round" stroke-linejoin="round"/>
<path d="M689.618 206.945C682.18 217.246 647.175 216.37 640.392 247.714L709.252 286.674C709.252 286.674 740.752 248.675 764.381 250.428L689.618 206.945Z" fill="white"/>
<mask id="mask9_216_1958" style="mask-type:luminance" maskUnits="userSpaceOnUse" x="640" y="206" width="125" height="81">
<path fill-rule="evenodd" clip-rule="evenodd" d="M689.618 206.945C682.18 217.246 647.175 216.37 640.392 247.714L709.252 286.674C709.252 286.674 740.752 248.675 764.381 250.428L689.618 206.945Z" fill="white"/>
</mask>
<g mask="url(#mask9_216_1958)">
<path d="M645.095 232.911C640.391 247.714 694.429 268.588 693.117 277.545C691.805 286.501 628.115 254.35 628.115 254.35V221.075" fill="#D6DCF2"/>
</g>
<path fill-rule="evenodd" clip-rule="evenodd" d="M689.618 206.945C682.18 217.246 647.175 216.37 640.392 247.714L709.252 286.674C709.252 286.674 740.752 248.676 764.381 250.428V250.428L689.618 206.945Z" stroke="black" stroke-width="2.13714" stroke-linecap="round" stroke-linejoin="round"/>
<path d="M580.445 250.993C598.64 240.004 621.107 238.775 640.392 247.714L709.252 286.674C709.252 286.674 674.52 276.419 657.892 294.83L580.445 250.993Z" fill="white"/>
<mask id="mask10_216_1958" style="mask-type:luminance" maskUnits="userSpaceOnUse" x="580" y="241" width="130" height="54">
<path fill-rule="evenodd" clip-rule="evenodd" d="M580.443 250.993C598.638 240.004 621.105 238.775 640.39 247.714L709.25 286.674C709.25 286.674 674.518 276.419 657.89 294.83L580.443 250.993Z" fill="white"/>
</mask>
<g mask="url(#mask10_216_1958)">
<path d="M595.178 251.303L622.763 266.767C622.763 266.767 633.441 259.209 655.121 258.988L638.057 248.843C623.953 244.32 608.672 245.197 595.178 251.303H595.178Z" fill="#D6DCF2"/>
</g>
<path fill-rule="evenodd" clip-rule="evenodd" d="M580.445 250.993C598.64 240.004 621.107 238.775 640.392 247.714L709.252 286.674C709.252 286.674 674.52 276.419 657.892 294.83L580.445 250.993Z" stroke="black" stroke-width="2.13714" stroke-linecap="round" stroke-linejoin="round"/>
<path d="M628.006 271.836L629.867 272.835C629.867 272.835 644.456 262.159 657.543 262.026L655.897 260.908C655.897 260.908 639.801 262.822 628.006 271.836Z" fill="#D6DCF2"/>
<path d="M635.077 276.105L636.938 277.105C636.938 277.105 651.527 266.429 664.614 266.296L662.968 265.178C662.968 265.178 646.872 267.092 635.077 276.105Z" fill="#D6DCF2"/>
<path d="M641.713 280.275L643.574 281.275C643.574 281.275 658.163 270.599 671.25 270.466L669.604 269.348C669.604 269.348 653.508 271.262 641.713 280.275Z" fill="#D6DCF2"/>
<path d="M628.351 258.1L626.37 258.596" stroke="black" stroke-width="2.13714" stroke-linecap="round" stroke-linejoin="round"/>
<path d="M701.554 246.612L703.572 244.161" stroke="black" stroke-width="2.13714" stroke-linecap="round" stroke-linejoin="round"/>
<path d="M688.163 299.293C687.41 299.928 686.513 300.369 685.551 300.578" stroke="black" stroke-width="2.13714" stroke-linecap="round" stroke-linejoin="round"/>
<path d="M650.756 155.114L652.472 151.173L667.8 156.387L664.993 162.827L650.756 155.114Z" fill="#7A24EA"/>
<mask id="mask11_216_1958" style="mask-type:luminance" maskUnits="userSpaceOnUse" x="650" y="151" width="18" height="12">
<path fill-rule="evenodd" clip-rule="evenodd" d="M650.755 155.114L652.471 151.173L667.799 156.387L664.992 162.827L650.755 155.114Z" fill="white"/>
</mask>
<g mask="url(#mask11_216_1958)">
<path d="M661.535 152.733C664.345 157.856 658.085 156.434 656.948 161.936C655.812 167.437 664.321 163.581 664.321 163.581L663.842 151.901" fill="#6B1AD3"/>
</g>
<path fill-rule="evenodd" clip-rule="evenodd" d="M650.756 155.114L652.472 151.173L667.8 156.387L664.993 162.827L650.756 155.114V155.114Z" stroke="black" stroke-width="2.13714" stroke-linecap="round" stroke-linejoin="round"/>
<circle cx="652.699" cy="153.617" r="4.13579" fill="#7A24EA"/>
<mask id="mask12_216_1958" style="mask-type:luminance" maskUnits="userSpaceOnUse" x="648" y="149" width="9" height="9">
<circle cx="652.699" cy="153.617" r="4.13579" fill="white"/>
</mask>
<g mask="url(#mask12_216_1958)">
<path d="M656.332 150.089C646.874 153.887 651.096 160.866 651.096 160.866L645.731 149.347L651.592 146.385" fill="#6B1AD3"/>
</g>
<circle cx="652.699" cy="153.617" r="4.13579" stroke="black" stroke-width="2.13714" stroke-linecap="round" stroke-linejoin="round"/>
<path d="M667.456 197.754L671.388 199.474L679.088 185.209L672.66 182.398L667.456 197.754Z" fill="#7A24EA"/>
<mask id="mask13_216_1958" style="mask-type:luminance" maskUnits="userSpaceOnUse" x="667" y="182" width="13" height="18">
<path fill-rule="evenodd" clip-rule="evenodd" d="M667.456 197.754L671.388 199.474L679.088 185.209L672.66 182.398L667.456 197.754Z" fill="white"/>
</mask>
<g mask="url(#mask13_216_1958)">
<path d="M676.976 192.156C675.56 186.485 671.935 191.793 667.367 188.533C662.8 185.274 671.656 182.305 671.656 182.305L679.233 191.196" fill="#6B1AD3"/>
</g>
<path fill-rule="evenodd" clip-rule="evenodd" d="M667.456 197.754L671.388 199.474L679.088 185.209L672.66 182.398L667.456 197.754V197.754Z" stroke="black" stroke-width="2.13714" stroke-linecap="round" stroke-linejoin="round"/>
<circle cx="669.897" cy="197.528" r="4.13579" fill="#7A24EA"/>
<mask id="mask14_216_1958" style="mask-type:luminance" maskUnits="userSpaceOnUse" x="665" y="193" width="10" height="9">
<circle cx="669.897" cy="197.528" r="4.13579" fill="white"/>
</mask>
<g mask="url(#mask14_216_1958)">
<path d="M674.955 197.639C665.442 201.298 663.799 193.305 663.799 193.305L667.684 205.405L673.991 203.585" fill="#6B1AD3"/>
</g>
<circle cx="669.897" cy="197.528" r="4.13579" stroke="black" stroke-width="2.13714" stroke-linecap="round" stroke-linejoin="round"/>
<path d="M722.719 153.252L721.364 149.794L727.767 147.279L729.12 150.737L722.719 153.252Z" fill="white"/>
<mask id="mask15_216_1958" style="mask-type:luminance" maskUnits="userSpaceOnUse" x="721" y="147" width="9" height="7">
<path fill-rule="evenodd" clip-rule="evenodd" d="M722.718 153.252L721.363 149.794L727.766 147.279L729.119 150.737L722.718 153.252Z" fill="white"/>
</mask>
<g mask="url(#mask15_216_1958)">
<path d="M722.484 148.427C725.973 146.726 727.573 152.457 728.179 151.065C728.376 149.187 728.186 147.288 727.62 145.487L727.137 145.677" fill="#D6DCF2"/>
</g>
<path fill-rule="evenodd" clip-rule="evenodd" d="M722.719 153.252L721.364 149.794L727.767 147.279L729.12 150.737L722.719 153.252V153.252Z" stroke="black" stroke-width="2.13714" stroke-linecap="round" stroke-linejoin="round"/>
<path d="M730.231 152.152C728.721 152.745 727.914 151.339 727.193 149.499C726.473 147.659 726.111 146.078 727.621 145.485C729.335 145.179 731.026 146.127 731.661 147.747C732.295 149.368 731.697 151.212 730.232 152.152H730.231Z" fill="white" stroke="black" stroke-width="2.13714" stroke-linecap="round" stroke-linejoin="round"/>
<path d="M721.003 171.006C720.759 171.762 721.173 172.573 721.929 172.818L739.821 178.606C740.184 178.723 740.578 178.691 740.918 178.517C741.257 178.343 741.513 178.041 741.63 177.678C741.874 176.922 741.46 176.111 740.704 175.865L722.812 170.078C722.449 169.961 722.054 169.993 721.715 170.167C721.376 170.341 721.119 170.643 721.003 171.006Z" fill="white" stroke="black" stroke-width="2.13714" stroke-linecap="round" stroke-linejoin="round"/>
<path d="M736.193 161.057C731.6 159.572 729.254 165.467 726.858 172.901C724.462 180.335 722.924 186.491 727.517 187.977C732.11 189.463 737.775 184.641 740.171 177.207C742.567 169.774 740.786 162.542 736.193 161.057Z" fill="#6B1AD3"/>
<mask id="mask16_216_1958" style="mask-type:luminance" maskUnits="userSpaceOnUse" x="724" y="160" width="18" height="29">
<path fill-rule="evenodd" clip-rule="evenodd" d="M736.193 161.057C731.6 159.572 729.254 165.467 726.858 172.901C724.462 180.335 722.924 186.491 727.517 187.977C732.11 189.463 737.775 184.641 740.171 177.207C742.567 169.774 740.786 162.542 736.193 161.057Z" fill="white"/>
</mask>
<g mask="url(#mask16_216_1958)">
<path d="M744.326 170.937C737.536 162.849 724.536 179.697 724.659 190.526C724.782 201.355 735.268 198.223 735.268 198.223L747.053 178.742" fill="#7A24EA"/>
</g>
<path fill-rule="evenodd" clip-rule="evenodd" d="M736.193 161.057C731.6 159.572 729.254 165.467 726.858 172.901C724.462 180.335 722.924 186.491 727.517 187.977C732.11 189.463 737.775 184.641 740.171 177.207C742.567 169.774 740.786 162.542 736.193 161.057Z" stroke="black" stroke-width="2.13714" stroke-linecap="round" stroke-linejoin="round"/>
<path d="M741.095 174.344C739.517 173.834 739.003 175.246 738.494 176.827C737.984 178.408 737.672 179.558 739.25 180.068C740.831 180.577 742.525 179.709 743.034 178.128C743.544 176.548 742.675 174.853 741.095 174.344Z" fill="white"/>
<mask id="mask17_216_1958" style="mask-type:luminance" maskUnits="userSpaceOnUse" x="738" y="174" width="6" height="7">
<path fill-rule="evenodd" clip-rule="evenodd" d="M741.095 174.344C739.517 173.834 739.003 175.246 738.494 176.827C737.984 178.408 737.672 179.558 739.25 180.068C740.831 180.577 742.525 179.709 743.034 178.128C743.544 176.548 742.675 174.853 741.095 174.344Z" fill="white"/>
</mask>
<g mask="url(#mask17_216_1958)">
<ellipse cx="743.78" cy="176.648" rx="2.2861" ry="3.148" transform="rotate(-21.3068 743.78 176.648)" fill="#D6DCF2"/>
</g>
<path fill-rule="evenodd" clip-rule="evenodd" d="M741.095 174.344C739.517 173.834 739.003 175.246 738.494 176.827C737.984 178.408 737.672 179.558 739.25 180.068C740.831 180.577 742.525 179.709 743.034 178.128C743.544 176.548 742.675 174.853 741.095 174.344V174.344Z" stroke="black" stroke-width="2.13714" stroke-linecap="round" stroke-linejoin="round"/>
<path d="M708.057 137.948C707.365 137.558 707.118 136.682 707.506 135.988L716.696 119.556C716.881 119.223 717.192 118.977 717.559 118.874C717.926 118.77 718.319 118.817 718.652 119.003C719.345 119.393 719.592 120.27 719.203 120.963L710.014 137.396C709.828 137.729 709.517 137.974 709.15 138.078C708.783 138.181 708.39 138.135 708.057 137.948Z" fill="white" stroke="black" stroke-width="2.13714" stroke-linecap="round" stroke-linejoin="round"/>
<path d="M725.948 134.894C723.589 139.112 717.867 136.388 711.065 132.57C704.262 128.751 698.955 125.285 701.315 121.067C703.674 116.849 711.1 116.525 717.903 120.343C724.705 124.161 728.307 130.676 725.948 134.894Z" fill="#6B1AD3"/>
<mask id="mask18_216_1958" style="mask-type:luminance" maskUnits="userSpaceOnUse" x="700" y="117" width="27" height="21">
<path fill-rule="evenodd" clip-rule="evenodd" d="M725.947 134.894C723.588 139.112 717.866 136.388 711.064 132.57C704.261 128.751 698.954 125.285 701.314 121.067C703.673 116.849 711.099 116.525 717.902 120.343C724.704 124.161 728.306 130.676 725.947 134.894Z" fill="white"/>
</mask>
<g mask="url(#mask18_216_1958)">
<path d="M725.203 122.108C725.714 132.666 704.747 129.168 697.487 121.144C690.228 113.12 700.041 108.273 700.041 108.273L721.905 114.528" fill="#7A24EA"/>
</g>
<path fill-rule="evenodd" clip-rule="evenodd" d="M725.948 134.894C723.589 139.112 717.867 136.388 711.065 132.57C704.262 128.751 698.955 125.285 701.315 121.067C703.674 116.849 711.1 116.525 717.903 120.343C724.705 124.161 728.307 130.676 725.948 134.894Z" stroke="black" stroke-width="2.13714" stroke-linecap="round" stroke-linejoin="round"/>
<path d="M720.521 121.813C719.711 123.262 718.375 122.576 716.929 121.764C715.483 120.952 714.473 120.322 715.283 118.873C715.808 117.936 716.793 117.35 717.866 117.337C718.94 117.323 719.939 117.884 720.487 118.808C721.035 119.732 721.048 120.877 720.521 121.813Z" fill="white"/>
<mask id="mask19_216_1958" style="mask-type:luminance" maskUnits="userSpaceOnUse" x="714" y="117" width="7" height="6">
<path fill-rule="evenodd" clip-rule="evenodd" d="M720.521 121.813C719.711 123.262 718.375 122.576 716.929 121.764C715.483 120.952 714.473 120.322 715.283 118.873C715.808 117.936 716.793 117.35 717.866 117.337C718.94 117.323 719.939 117.884 720.487 118.808C721.035 119.732 721.048 120.877 720.521 121.813Z" fill="white"/>
</mask>
<g mask="url(#mask19_216_1958)">
<ellipse cx="720.926" cy="118.296" rx="2.2861" ry="3.148" transform="rotate(-21.3068 720.926 118.296)" fill="#D6DCF2"/>
</g>
<path fill-rule="evenodd" clip-rule="evenodd" d="M720.521 121.813C719.711 123.262 718.375 122.576 716.929 121.764C715.483 120.952 714.473 120.322 715.283 118.873C715.808 117.936 716.793 117.35 717.866 117.337C718.94 117.323 719.939 117.884 720.487 118.808C721.035 119.732 721.048 120.877 720.521 121.813Z" stroke="black" stroke-width="2.13714" stroke-linecap="round" stroke-linejoin="round"/>
<ellipse cx="694.039" cy="162.831" rx="32.7142" ry="32.7741" fill="#7A24EA"/>
<mask id="mask20_216_1958" style="mask-type:luminance" maskUnits="userSpaceOnUse" x="661" y="130" width="66" height="66">
<ellipse cx="694.038" cy="162.831" rx="32.7142" ry="32.7741" fill="white"/>
</mask>
<g mask="url(#mask20_216_1958)">
<path d="M720.649 181.9C675.689 221.643 640.765 134.487 640.765 134.487L655.038 191.517L678.741 220.114L711.562 212.489" fill="#6B1AD3"/>
<path d="M663.975 132.067C686.318 114.054 719.19 139.408 724.494 150.861C729.798 162.314 717.484 128.296 717.484 128.296L711.487 121.489L703.657 112.953" fill="#6B1AD3"/>
<path d="M727.322 161.927C725.719 171.007 723.039 178.926 720.649 181.899C718.259 184.873 724.925 185.257 724.925 185.257L730.081 167.541" fill="#7A24EA"/>
<path d="M727.322 161.927C725.719 171.007 723.039 178.926 720.649 181.899C718.259 184.873 724.925 185.257 724.925 185.257L730.081 167.541" stroke="black" stroke-width="2.13714" stroke-linecap="round" stroke-linejoin="round"/>
</g>
<ellipse cx="694.039" cy="162.831" rx="32.7142" ry="32.7741" stroke="black" stroke-width="2.13714" stroke-linecap="round" stroke-linejoin="round"/>
<ellipse cx="694.04" cy="162.831" rx="26.1308" ry="26.1787" fill="#7A24EA" stroke="black" stroke-width="2.13714" stroke-linecap="round" stroke-linejoin="round"/>
<ellipse cx="694.04" cy="162.831" rx="23.528" ry="23.5711" fill="white"/>
<mask id="mask21_216_1958" style="mask-type:luminance" maskUnits="userSpaceOnUse" x="670" y="139" width="48" height="48">
<ellipse cx="694.04" cy="162.831" rx="23.528" ry="23.5711" fill="white"/>
</mask>
<g mask="url(#mask21_216_1958)">
<path d="M716.364 176.435L655.902 151L657.384 180.784L683.42 200.251L713.33 186.953C713.33 186.953 720.18 175.822 719.769 175.919" fill="#D6DCF2"/>
</g>
<ellipse cx="694.04" cy="162.831" rx="23.528" ry="23.5711" stroke="black" stroke-width="2.13714" stroke-linecap="round" stroke-linejoin="round"/>
<path d="M711.793 155.552C711.721 155.368 711.812 155.16 711.996 155.088L713.928 154.328C714.017 154.294 714.115 154.296 714.202 154.334C714.289 154.371 714.357 154.442 714.392 154.531C714.464 154.715 714.373 154.922 714.19 154.995L712.257 155.755C712.168 155.789 712.07 155.787 711.983 155.749C711.896 155.711 711.828 155.64 711.793 155.552Z" fill="white" stroke="black" stroke-width="2.13714" stroke-linecap="round" stroke-linejoin="round"/>
<path d="M673.484 170.61C673.412 170.426 673.502 170.219 673.686 170.146L675.619 169.387C675.707 169.352 675.806 169.354 675.893 169.392C675.98 169.43 676.048 169.501 676.082 169.589C676.154 169.773 676.064 169.981 675.88 170.053L673.947 170.813C673.859 170.848 673.76 170.846 673.673 170.808C673.586 170.77 673.518 170.699 673.484 170.61Z" fill="white" stroke="black" stroke-width="2.13714" stroke-linecap="round" stroke-linejoin="round"/>
<path d="M700.943 180.459C701.031 180.424 701.129 180.426 701.216 180.464C701.303 180.502 701.371 180.573 701.406 180.662L702.164 182.598C702.236 182.782 702.146 182.99 701.962 183.062C701.874 183.097 701.775 183.095 701.688 183.057C701.602 183.019 701.533 182.948 701.499 182.86L700.741 180.923C700.668 180.739 700.759 180.531 700.943 180.459Z" fill="white" stroke="black" stroke-width="2.13714" stroke-linecap="round" stroke-linejoin="round"/>
<path d="M685.913 142.079C686.002 142.044 686.1 142.046 686.187 142.084C686.274 142.122 686.342 142.193 686.377 142.282L687.135 144.218C687.207 144.402 687.117 144.61 686.933 144.682C686.844 144.717 686.746 144.715 686.659 144.677C686.572 144.639 686.504 144.568 686.47 144.48L685.711 142.543C685.639 142.359 685.73 142.152 685.913 142.079Z" fill="white" stroke="black" stroke-width="2.13714" stroke-linecap="round" stroke-linejoin="round"/>
<path d="M711.793 155.552C711.721 155.368 711.812 155.16 711.996 155.088L713.928 154.328C714.017 154.294 714.115 154.296 714.202 154.334C714.289 154.371 714.357 154.442 714.392 154.531C714.464 154.715 714.373 154.922 714.19 154.995L712.257 155.755C712.168 155.789 712.07 155.787 711.983 155.749C711.896 155.711 711.828 155.64 711.793 155.552Z" fill="white" stroke="black" stroke-width="2.13714" stroke-linecap="round" stroke-linejoin="round"/>
<path d="M673.484 170.61C673.412 170.426 673.502 170.219 673.686 170.146L675.619 169.387C675.707 169.352 675.806 169.354 675.893 169.392C675.98 169.43 676.048 169.501 676.082 169.589C676.154 169.773 676.064 169.981 675.88 170.053L673.947 170.813C673.859 170.848 673.76 170.846 673.673 170.808C673.586 170.77 673.518 170.699 673.484 170.61Z" fill="white" stroke="black" stroke-width="2.13714" stroke-linecap="round" stroke-linejoin="round"/>
<path d="M700.943 180.459C701.031 180.424 701.129 180.426 701.216 180.464C701.303 180.502 701.371 180.573 701.406 180.662L702.164 182.598C702.236 182.782 702.146 182.99 701.962 183.062C701.874 183.097 701.775 183.095 701.688 183.057C701.602 183.019 701.533 182.948 701.499 182.86L700.741 180.923C700.668 180.739 700.759 180.531 700.943 180.459Z" fill="white" stroke="black" stroke-width="2.13714" stroke-linecap="round" stroke-linejoin="round"/>
<path d="M685.913 142.079C686.002 142.044 686.1 142.046 686.187 142.084C686.274 142.122 686.342 142.193 686.377 142.282L687.135 144.218C687.207 144.402 687.117 144.61 686.933 144.682C686.844 144.717 686.746 144.715 686.659 144.677C686.572 144.639 686.504 144.568 686.47 144.48L685.711 142.543C685.639 142.359 685.73 142.152 685.913 142.079Z" fill="white" stroke="black" stroke-width="2.13714" stroke-linecap="round" stroke-linejoin="round"/>
<path d="M705.898 147.548C705.744 147.425 705.719 147.2 705.842 147.045L707.137 145.419C707.196 145.345 707.282 145.297 707.376 145.286C707.47 145.276 707.565 145.303 707.639 145.362C707.793 145.486 707.819 145.711 707.696 145.865L706.401 147.492C706.342 147.566 706.256 147.614 706.161 147.624C706.067 147.635 705.973 147.607 705.898 147.548Z" fill="white" stroke="black" stroke-width="2.13714" stroke-linecap="round" stroke-linejoin="round"/>
<path d="M680.236 179.778C680.082 179.655 680.057 179.43 680.18 179.275L681.475 177.649C681.534 177.575 681.62 177.527 681.714 177.516C681.808 177.506 681.903 177.533 681.977 177.592C682.131 177.716 682.156 177.941 682.033 178.096L680.739 179.722C680.68 179.796 680.594 179.844 680.499 179.854C680.405 179.865 680.311 179.838 680.236 179.778Z" fill="white" stroke="black" stroke-width="2.13714" stroke-linecap="round" stroke-linejoin="round"/>
<path d="M708.932 174.553C708.991 174.479 709.077 174.431 709.171 174.421C709.265 174.41 709.36 174.437 709.434 174.496L711.058 175.794C711.212 175.917 711.238 176.142 711.115 176.297C711.056 176.371 710.969 176.419 710.875 176.429C710.781 176.44 710.686 176.413 710.612 176.354L708.988 175.056C708.834 174.933 708.808 174.708 708.932 174.553Z" fill="white" stroke="black" stroke-width="2.13714" stroke-linecap="round" stroke-linejoin="round"/>
<path d="M676.762 148.844C676.821 148.77 676.907 148.722 677.001 148.712C677.095 148.701 677.19 148.728 677.264 148.788L678.888 150.085C679.042 150.208 679.068 150.433 678.945 150.588C678.886 150.662 678.799 150.71 678.705 150.72C678.611 150.731 678.516 150.704 678.442 150.645L676.818 149.347C676.664 149.224 676.639 148.999 676.762 148.844Z" fill="white" stroke="black" stroke-width="2.13714" stroke-linecap="round" stroke-linejoin="round"/>
<rect x="696.863" y="140.751" width="0.714873" height="2.79623" transform="rotate(8.5938 696.863 140.751)" fill="white" stroke="black" stroke-width="2.13714" stroke-linecap="round" stroke-linejoin="round"/>
<rect x="690.723" y="181.519" width="0.714873" height="2.79623" transform="rotate(8.5935 690.723 181.519)" fill="white" stroke="black" stroke-width="2.13714" stroke-linecap="round" stroke-linejoin="round"/>
<rect x="715.717" y="165.499" width="0.716155" height="2.79132" transform="rotate(98.5631 715.717 165.499)" fill="white" stroke="black" stroke-width="2.13714" stroke-linecap="round" stroke-linejoin="round"/>
<rect x="675.024" y="159.35" width="0.716155" height="2.79132" transform="rotate(98.562 675.024 159.35)" fill="white" stroke="black" stroke-width="2.13714" stroke-linecap="round" stroke-linejoin="round"/>
<circle cx="693.269" cy="162.833" r="1.07562" fill="#7A24EA" stroke="black" stroke-width="2.13714" stroke-linecap="round" stroke-linejoin="round"/>
<path d="M689.279 164.712L689.021 164.049L709.851 156.152L709.913 156.31L689.279 164.712Z" fill="#485065" stroke="black" stroke-width="2.13714" stroke-linecap="round" stroke-linejoin="round"/>
<path d="M710.106 166.699L696.888 162.822L696.866 162.816L690.765 162.193C690.716 162.182 690.666 162.212 690.652 162.261L690.584 162.579L690.516 162.897C690.509 162.947 690.542 162.993 690.591 163.004L696.407 164.952L696.43 164.955L710.069 166.871C710.114 166.875 710.154 166.845 710.164 166.801C710.173 166.758 710.148 166.714 710.106 166.699Z" fill="#FDD504"/>
<mask id="mask22_216_1958" style="mask-type:luminance" maskUnits="userSpaceOnUse" x="690" y="162" width="21" height="5">
<path fill-rule="evenodd" clip-rule="evenodd" d="M710.106 166.699L696.888 162.822L696.866 162.816L690.765 162.193C690.716 162.182 690.666 162.212 690.652 162.261L690.584 162.579L690.516 162.897C690.509 162.947 690.542 162.993 690.591 163.004L696.407 164.952L696.43 164.955L710.069 166.871C710.114 166.875 710.154 166.845 710.164 166.801C710.173 166.758 710.148 166.714 710.106 166.699Z" fill="white"/>
</mask>
<g mask="url(#mask22_216_1958)">
<path d="M695.965 161.774C696.874 163.066 695.272 165.976 695.272 165.976L694.207 163.256" fill="#FDD504"/>
<path d="M695.965 161.774C696.874 163.066 695.272 165.976 695.272 165.976L694.207 163.256" stroke="black" stroke-width="2.13714" stroke-linecap="round" stroke-linejoin="round"/>
</g>
<path fill-rule="evenodd" clip-rule="evenodd" d="M710.106 166.699L696.888 162.822L696.866 162.816L690.765 162.193C690.716 162.182 690.666 162.212 690.652 162.261L690.584 162.579L690.516 162.897C690.509 162.947 690.542 162.993 690.591 163.004L696.407 164.952L696.43 164.955L710.069 166.871C710.114 166.875 710.154 166.845 710.164 166.801C710.173 166.758 710.148 166.714 710.106 166.699V166.699Z" stroke="black" stroke-width="2.13714" stroke-linecap="round" stroke-linejoin="round"/>
<path d="M694.28 155.229C694.698 154.884 694.905 154.345 694.824 153.808C694.744 153.272 694.389 152.817 693.888 152.61L693.405 149.39C693.386 149.338 693.337 149.304 693.282 149.304C693.226 149.304 693.177 149.338 693.158 149.39L692.701 152.613C692.202 152.825 691.85 153.283 691.774 153.819C691.698 154.356 691.909 154.894 692.33 155.236L691.796 159.005L691.794 159.028L692.765 165.131C692.776 165.191 692.831 165.232 692.891 165.227L693.345 165.225L693.799 165.223C693.859 165.228 693.914 165.186 693.924 165.126L694.845 159.016L694.844 158.993L694.28 155.229Z" fill="#FDD504"/>
<mask id="mask23_216_1958" style="mask-type:luminance" maskUnits="userSpaceOnUse" x="691" y="149" width="4" height="17">
<path fill-rule="evenodd" clip-rule="evenodd" d="M694.279 155.229C694.697 154.884 694.904 154.345 694.823 153.808C694.743 153.272 694.388 152.817 693.887 152.61L693.404 149.39C693.385 149.338 693.336 149.304 693.281 149.304C693.225 149.304 693.176 149.338 693.157 149.39L692.7 152.613C692.201 152.825 691.849 153.283 691.773 153.819C691.697 154.356 691.908 154.894 692.329 155.236L691.795 159.005L691.793 159.028L692.764 165.131C692.775 165.191 692.83 165.232 692.89 165.227L693.344 165.225L693.798 165.223C693.858 165.228 693.913 165.186 693.923 165.126L694.844 159.016L694.843 158.993L694.279 155.229Z" fill="white"/>
</mask>
<g mask="url(#mask23_216_1958)">
<path d="M690.134 157.775C690.784 159.773 694.558 159.124 694.821 160.389C695.085 161.654 690.763 162.193 690.763 162.193L689.464 158.643" fill="#FCB006"/>
</g>
<path fill-rule="evenodd" clip-rule="evenodd" d="M694.28 155.229C694.698 154.884 694.905 154.345 694.824 153.808C694.744 153.272 694.389 152.817 693.888 152.61L693.405 149.39C693.386 149.338 693.337 149.304 693.282 149.304C693.226 149.304 693.177 149.338 693.158 149.39L692.701 152.613C692.202 152.825 691.85 153.283 691.774 153.819C691.698 154.356 691.909 154.894 692.33 155.236L691.796 159.005L691.794 159.028L692.765 165.131C692.776 165.191 692.831 165.232 692.891 165.227L693.345 165.225L693.799 165.223C693.859 165.228 693.914 165.186 693.924 165.126L694.845 159.016L694.844 158.993L694.28 155.229Z" stroke="black" stroke-width="2.13714" stroke-linecap="round" stroke-linejoin="round"/>
<circle cx="693.27" cy="162.833" r="2.89454" fill="#FDD504" stroke="black" stroke-width="2.13714" stroke-linecap="round" stroke-linejoin="round"/>
<circle cx="693.27" cy="162.833" r="1.52763" fill="#485065" stroke="black" stroke-width="2.13714" stroke-linecap="round" stroke-linejoin="round"/>
<path d="M735.47 166.494C734.509 166.343 733.571 166.88 733.214 167.786" stroke="black" stroke-width="2.13714" stroke-linecap="round" stroke-linejoin="round"/>
<path d="M686.75 174.924C684.983 174.673 683.444 173.589 682.613 172.009" stroke="black" stroke-width="2.13714" stroke-linecap="round" stroke-linejoin="round"/>
<path d="M668.906 146.155C667.788 146.414 666.922 147.3 666.691 148.425" stroke="black" stroke-width="2.13714" stroke-linecap="round" stroke-linejoin="round"/>
<path d="M620.989 129.34C620.537 125.515 619.131 121.865 616.901 118.724C616.901 118.724 617.071 116.273 619.606 118.724C619.606 118.724 620.41 113.346 620.532 112.451C621.344 106.469 624.419 108.544 625.614 116.453C626.212 120.408 625.416 121.753 625.738 125.508C626.035 128.264 626.529 130.996 627.216 133.682L620.989 129.34Z" fill="#F9C1BB"/>
<mask id="mask24_216_1958" style="mask-type:luminance" maskUnits="userSpaceOnUse" x="616" y="108" width="12" height="26">
<path fill-rule="evenodd" clip-rule="evenodd" d="M620.989 129.34C620.537 125.515 619.131 121.865 616.901 118.724C616.901 118.724 617.071 116.274 619.606 118.724C619.606 118.724 620.41 113.346 620.532 112.451C621.344 106.469 624.419 108.544 625.614 116.453C626.212 120.408 625.416 121.754 625.738 125.508C626.035 128.265 626.529 130.996 627.216 133.683L620.989 129.34Z" fill="white"/>
</mask>
<g mask="url(#mask24_216_1958)">
<path d="M628.512 128.055C626.042 126.942 623.253 126.76 620.659 127.542L621.08 129.691L625.096 130.901" fill="#ED707B"/>
</g>
<path fill-rule="evenodd" clip-rule="evenodd" d="M620.989 129.34C620.537 125.515 619.131 121.865 616.901 118.724C616.901 118.724 617.071 116.273 619.606 118.724C619.606 118.724 620.41 113.346 620.532 112.451C621.344 106.469 624.419 108.544 625.614 116.453C626.212 120.408 625.416 121.753 625.738 125.508C626.035 128.264 626.529 130.996 627.216 133.682L620.989 129.34Z" stroke="black" stroke-width="2.13714" stroke-linecap="round" stroke-linejoin="round"/>
<path d="M618.951 127.649C621.97 126.798 627.82 130.204 627.82 130.204C627.82 130.204 631.184 149.523 627.254 151.321C619.539 154.853 603.481 133.95 603.481 133.95C603.481 133.95 600.343 128.385 601.872 127.963C608.106 126.244 619.461 132.638 619.461 132.638L618.951 127.649Z" fill="#1AB995"/>
<mask id="mask25_216_1958" style="mask-type:luminance" maskUnits="userSpaceOnUse" x="601" y="127" width="29" height="25">
<path fill-rule="evenodd" clip-rule="evenodd" d="M618.951 127.649C621.97 126.798 627.82 130.204 627.82 130.204C627.82 130.204 631.184 149.523 627.254 151.321C619.539 154.853 603.481 133.95 603.481 133.95C603.481 133.95 600.343 128.385 601.872 127.963C608.106 126.244 619.461 132.638 619.461 132.638L618.951 127.649Z" fill="white"/>
</mask>
<g mask="url(#mask25_216_1958)">
<path d="M629.918 153.64C628.344 151.107 625.626 149.508 622.646 149.364C618.063 149.522 614.664 142.713 614.664 142.713C614.664 142.713 616.482 153.086 620.513 155.699C624.543 158.312 629.918 153.64 629.918 153.64Z" fill="#0FA379"/>
</g>
<path fill-rule="evenodd" clip-rule="evenodd" d="M618.951 127.649C621.97 126.798 627.82 130.204 627.82 130.204C627.82 130.204 631.184 149.523 627.254 151.321C619.539 154.853 603.481 133.95 603.481 133.95C603.481 133.95 600.343 128.385 601.872 127.963C608.106 126.244 619.461 132.638 619.461 132.638L618.951 127.649Z" stroke="black" stroke-width="2.13714" stroke-linecap="round" stroke-linejoin="round"/>
<path d="M709.075 236.191C708.285 235.293 724.068 240.479 724.068 240.479L719.862 249.302L700.182 243.34L709.075 236.191Z" fill="#F9C1BB"/>
<mask id="mask26_216_1958" style="mask-type:luminance" maskUnits="userSpaceOnUse" x="700" y="236" width="25" height="14">
<path fill-rule="evenodd" clip-rule="evenodd" d="M709.075 236.191C708.285 235.293 724.068 240.479 724.068 240.479L719.862 249.302L700.182 243.34L709.075 236.191Z" fill="white"/>
</mask>
<g mask="url(#mask26_216_1958)">
<path d="M708.771 250.36C711.522 245.923 712.358 240.56 711.088 235.496L704.909 243.373L707.612 250.487" fill="#ED707B"/>
</g>
<path fill-rule="evenodd" clip-rule="evenodd" d="M709.075 236.191C708.285 235.293 724.068 240.479 724.068 240.479L719.862 249.302L700.182 243.34L709.075 236.191Z" stroke="black" stroke-width="2.13714" stroke-linecap="round" stroke-linejoin="round"/>
<path d="M720.412 239.298C720.563 243.344 716.341 248.262 716.341 248.262C718.331 252.207 719.65 256.457 720.242 260.836C721.333 272.684 725.179 275.083 727.584 271.263L728.043 241.427L720.412 239.298Z" fill="#485065" stroke="black" stroke-width="2.13714" stroke-linecap="round" stroke-linejoin="round"/>
<path d="M652.947 253.526C656.227 255.837 678.89 266.148 678.89 266.148L675.629 274.088L651.882 267.469L652.947 253.526Z" fill="#F9C1BB"/>
<mask id="mask27_216_1958" style="mask-type:luminance" maskUnits="userSpaceOnUse" x="651" y="253" width="28" height="22">
<path fill-rule="evenodd" clip-rule="evenodd" d="M652.946 253.525C656.227 255.837 678.889 266.148 678.889 266.148L675.628 274.088L651.881 267.469L652.946 253.525Z" fill="white"/>
</mask>
<g mask="url(#mask27_216_1958)">
<path d="M665.384 257.283C666.092 266.366 663.704 271.114 666.291 272.938C668.877 274.762 660.188 274.187 659.796 274.088C658.958 271.583 658.29 269.024 657.795 266.429" fill="#ED707B"/>
</g>
<path fill-rule="evenodd" clip-rule="evenodd" d="M652.947 253.526C656.227 255.837 678.89 266.148 678.89 266.148L675.629 274.088L651.882 267.469L652.947 253.526Z" stroke="black" stroke-width="2.13714" stroke-linecap="round" stroke-linejoin="round"/>
<path d="M673.585 263.77C673.805 267.813 669.789 272.532 669.789 272.532C672.237 276.018 673.863 280.014 674.545 284.218C676.1 300.325 681.421 295.304 681.421 295.304L681.373 265.465L673.585 263.77Z" fill="#485065" stroke="black" stroke-width="2.13714" stroke-linecap="round" stroke-linejoin="round"/>
<path d="M711.608 234.351C711.924 245.841 704.968 249.671 704.968 249.671C704.968 249.671 670.345 239.574 656.357 237.833C642.369 236.092 610.753 184.069 610.753 184.069L629.871 167.862C629.871 167.862 655.964 187.694 664.184 216.594C664.184 216.594 711.675 231.225 711.608 234.351Z" fill="#2F387E"/>
<mask id="mask28_216_1958" style="mask-type:luminance" maskUnits="userSpaceOnUse" x="610" y="167" width="102" height="83">
<path fill-rule="evenodd" clip-rule="evenodd" d="M711.607 234.351C711.923 245.841 704.967 249.671 704.967 249.671C704.967 249.671 670.344 239.574 656.356 237.833C642.368 236.092 610.752 184.069 610.752 184.069L629.87 167.862C629.87 167.862 655.963 187.694 664.183 216.594C664.183 216.594 711.674 231.224 711.607 234.351Z" fill="white"/>
</mask>
<g mask="url(#mask28_216_1958)">
<path d="M709.024 228.628C710.894 240.928 706.231 249.08 694.13 244.283C682.028 239.486 653.586 233.814 641.717 236.087C629.848 238.359 648.461 224.704 637.755 223.946C627.05 223.189 622.451 221.809 625.942 214.992C629.433 208.174 619.481 173.487 619.481 173.487L617.331 178.125L613.375 198.577L616.168 208.93L625.709 230.393L645.723 243.524L667.599 253.372L701.81 256.402L711.584 256.907L722.522 226.101L709.024 228.628Z" fill="#111944"/>
</g>
<path fill-rule="evenodd" clip-rule="evenodd" d="M711.608 234.351C711.924 245.841 704.968 249.671 704.968 249.671C704.968 249.671 670.345 239.574 656.357 237.833C642.369 236.092 610.753 184.069 610.753 184.069L629.871 167.862C629.871 167.862 655.964 187.694 664.184 216.594C664.184 216.594 711.675 231.225 711.608 234.351Z" stroke="black" stroke-width="2.13714" stroke-linecap="round" stroke-linejoin="round"/>
<path d="M625.83 182.518C626.26 204.811 622.296 226.971 614.164 247.732C614.164 247.732 657.862 247.234 665.766 258.723C663.553 271.954 656.358 278.222 656.358 278.222C656.358 278.222 617.709 263.946 600.005 263.25C582.3 262.554 600.005 180.383 600.005 180.383L619.483 173.487L625.178 171.841" fill="#2F387E"/>
<path d="M625.83 182.518C626.26 204.811 622.296 226.971 614.164 247.732C614.164 247.732 657.862 247.234 665.766 258.723C663.553 271.954 656.358 278.222 656.358 278.222C656.358 278.222 617.709 263.946 600.005 263.25C582.3 262.554 600.005 180.383 600.005 180.383L619.483 173.487L625.178 171.841" stroke="black" stroke-width="2.13714" stroke-linecap="round" stroke-linejoin="round"/>
<path d="M589.922 105.625C588.4 107.105 586.536 108.186 584.497 108.773C582.612 109.302 581.497 111.244 581.991 113.138L582.003 113.181C582.003 113.181 578.421 120.737 583.7 122.72C588.98 124.704 590.865 132.637 590.865 132.637L602.251 131.513C602.251 131.513 595.011 122.623 597.653 120.453C607.081 112.709 589.922 105.625 589.922 105.625Z" fill="#F9C1BB"/>
<mask id="mask29_216_1958" style="mask-type:luminance" maskUnits="userSpaceOnUse" x="580" y="105" width="23" height="28">
<path fill-rule="evenodd" clip-rule="evenodd" d="M589.92 105.625C588.398 107.105 586.534 108.186 584.495 108.773C582.61 109.302 581.495 111.244 581.989 113.138L582.001 113.181C582.001 113.181 578.419 120.737 583.698 122.72C588.978 124.704 590.863 132.637 590.863 132.637L602.249 131.513C602.249 131.513 595.009 122.623 597.651 120.453C607.079 112.709 589.92 105.625 589.92 105.625Z" fill="white"/>
</mask>
<g mask="url(#mask29_216_1958)">
<path d="M575.541 120.147L581.269 120.536C581.269 120.536 582.707 123.657 587.291 122.391C588.149 125.43 589.332 128.368 590.821 131.153C592.424 133.392 577.438 125.689 577.438 125.689L575.541 120.147Z" fill="#ED707B"/>
<path d="M591.613 116.056L588.616 116.494C588.616 116.494 586.446 123.691 598.04 125.099C609.633 126.508 596.882 116.478 596.882 116.478L591.613 116.056Z" fill="#ED707B"/>
</g>
<path fill-rule="evenodd" clip-rule="evenodd" d="M589.922 105.625C588.4 107.105 586.536 108.186 584.497 108.773C582.612 109.302 581.497 111.244 581.991 113.138L582.003 113.181C582.003 113.181 578.421 120.737 583.7 122.72C588.98 124.704 590.865 132.637 590.865 132.637L602.251 131.513C602.251 131.513 595.011 122.623 597.653 120.453C607.081 112.709 589.922 105.625 589.922 105.625Z" stroke="black" stroke-width="2.13714" stroke-linecap="round" stroke-linejoin="round"/>
<path d="M585.228 131.385C585.228 131.385 595.677 120.669 603.399 127.512C610.48 133.786 584.58 133.682 584.58 133.682L585.228 131.385Z" fill="white" stroke="black" stroke-width="2.13714" stroke-linecap="round" stroke-linejoin="round"/>
<path d="M602.839 107.109L602.787 107.111C603.128 104.56 601.79 102.079 599.472 100.961C599.059 98.8332 597.874 96.9326 596.146 95.6239C592.787 92.9715 588.4 92.9352 586.349 95.5427C585.672 96.4245 585.307 97.5064 585.313 98.618C587.931 101.81 589.082 105.958 588.482 110.042C588.481 111.498 589.01 112.903 589.971 113.997C589.03 114.983 588.498 116.289 588.482 117.651C588.832 121.279 592.028 123.956 595.661 123.663C598.719 123.819 601.529 121.983 602.615 119.119C602.69 119.122 602.764 119.131 602.839 119.131C606.145 119.111 608.815 116.425 608.815 113.119C608.815 109.813 606.145 107.128 602.839 107.108V107.109Z" fill="#485065"/>
<path fill-rule="evenodd" clip-rule="evenodd" d="M602.839 107.109L602.787 107.111C603.128 104.56 601.79 102.079 599.472 100.961C599.059 98.8332 597.874 96.9326 596.146 95.6239C592.787 92.9715 588.4 92.9352 586.349 95.5427C585.672 96.4245 585.307 97.5064 585.313 98.618C587.931 101.81 589.082 105.958 588.482 110.042C588.481 111.498 589.01 112.903 589.971 113.997C589.03 114.983 588.498 116.289 588.482 117.651C588.832 121.279 592.028 123.956 595.661 123.663C598.719 123.819 601.529 121.983 602.615 119.119C602.69 119.122 602.764 119.131 602.839 119.131C606.145 119.111 608.815 116.425 608.815 113.119C608.815 109.813 606.145 107.128 602.839 107.108V107.109Z" stroke="black" stroke-width="2.13714" stroke-linecap="round" stroke-linejoin="round"/>
<path d="M585.302 116.818C592.333 117.489 593.226 110.557 586.641 111.787L585.302 116.818Z" fill="#F9C1BB"/>
<path d="M585.302 116.818C592.333 117.489 593.226 110.557 586.641 111.787" stroke="black" stroke-width="2.13714" stroke-linecap="round" stroke-linejoin="round"/>
<path d="M547.817 161.002C544.701 160.605 541.723 159.473 539.13 157.698C538.326 156.892 529.398 161.808 528.191 161.566C528.191 161.566 528.111 162.614 529.8 162.614H531.408C530.943 162.874 530.441 163.064 529.92 163.178C529.92 163.178 529.747 164.344 531.368 163.862C531.79 163.737 532.22 163.643 532.655 163.58C533.5 163.499 537.522 163.994 538.406 163.868C539.291 163.741 557.851 171.746 557.851 171.746L547.817 161.002Z" fill="#F9C1BB"/>
<mask id="mask30_216_1958" style="mask-type:luminance" maskUnits="userSpaceOnUse" x="528" y="157" width="30" height="15">
<path fill-rule="evenodd" clip-rule="evenodd" d="M547.817 161.002C544.701 160.605 541.723 159.473 539.13 157.698C538.326 156.892 529.398 161.808 528.191 161.566C528.191 161.566 528.111 162.614 529.8 162.614H531.408C530.943 162.874 530.441 163.064 529.92 163.178C529.92 163.178 529.747 164.344 531.368 163.862C531.79 163.737 532.22 163.643 532.655 163.58C533.5 163.499 537.522 163.994 538.406 163.868C539.291 163.741 557.851 171.746 557.851 171.746L547.817 161.002Z" fill="white"/>
</mask>
<g mask="url(#mask30_216_1958)">
<path d="M539.775 165.492C546.275 166.857 544.53 161.323 546.068 160.662C547.607 160.002 547.668 166.98 547.668 166.98L547.048 168.282L540.425 166.98" fill="#ED707B"/>
</g>
<path fill-rule="evenodd" clip-rule="evenodd" d="M547.817 161.002C544.701 160.605 541.723 159.473 539.13 157.698C538.326 156.892 529.398 161.808 528.191 161.566C528.191 161.566 528.111 162.614 529.8 162.614H531.408C530.943 162.874 530.441 163.064 529.92 163.178C529.92 163.178 529.747 164.344 531.368 163.862C531.79 163.737 532.22 163.643 532.655 163.58C533.5 163.499 537.522 163.994 538.406 163.868C539.291 163.741 557.851 171.746 557.851 171.746L547.817 161.002Z" stroke="black" stroke-width="2.13714" stroke-linecap="round" stroke-linejoin="round"/>
<path d="M604.656 127.786C599.025 127.141 581.119 130.542 578.062 136.506C572.265 147.816 578.384 151.011 578.384 151.011C578.384 151.011 590.731 161.012 584.618 170.523C578.505 180.033 586.803 191.424 593.399 197.226C593.399 197.226 619.185 163.31 635.398 174.334C652.913 186.243 635.655 155.325 635.655 155.325C635.655 155.325 623.751 156.169 618.28 147.466C615.642 143.269 613.042 138.735 610.425 135.092" fill="#1AB995"/>
<mask id="mask31_216_1958" style="mask-type:luminance" maskUnits="userSpaceOnUse" x="575" y="127" width="69" height="71">
<path fill-rule="evenodd" clip-rule="evenodd" d="M604.656 127.786C599.025 127.141 581.119 130.542 578.062 136.506C572.265 147.816 578.384 151.011 578.384 151.011C578.384 151.011 590.731 161.012 584.618 170.523C578.505 180.033 586.803 191.424 593.399 197.226C593.399 197.226 619.185 163.31 635.398 174.334C652.913 186.243 635.655 155.325 635.655 155.325C635.655 155.325 623.751 156.169 618.28 147.466C615.642 143.269 613.042 138.735 610.425 135.092" fill="white"/>
</mask>
<g mask="url(#mask31_216_1958)">
<path d="M597.626 192.104C585.138 193.846 579.289 183.395 585.138 176.427C590.987 169.459 588.136 155.573 580.707 154.148C573.277 152.723 575.496 162.109 575.496 162.109L575.338 176.585L575.496 179.119L583.873 188.937L583.557 194.797L589.564 201.606L597.626 192.104Z" fill="#0FA379"/>
</g>
<path d="M604.656 127.786C599.025 127.141 581.119 130.542 578.062 136.506C572.265 147.816 578.384 151.011 578.384 151.011C578.384 151.011 590.731 161.012 584.618 170.523C578.505 180.033 586.803 191.424 593.399 197.226C593.399 197.226 619.185 163.31 635.398 174.334C652.913 186.243 635.655 155.325 635.655 155.325C635.655 155.325 623.751 156.169 618.28 147.466C615.642 143.269 613.042 138.735 610.425 135.092" stroke="black" stroke-width="2.13714" stroke-linecap="round" stroke-linejoin="round"/>
<path d="M578.062 136.505C578.062 136.505 569.996 155.522 564.537 157.457C559.079 159.391 546.209 160.357 546.209 160.357C543.957 164.87 547.835 170.399 547.835 170.399C547.835 170.399 566.801 178.408 572.914 170.994C576.984 165.876 580.54 160.37 583.531 154.555" fill="#1AB995"/>
<path d="M578.062 136.505C578.062 136.505 569.996 155.522 564.537 157.457C559.079 159.391 546.209 160.357 546.209 160.357C543.957 164.87 547.835 170.399 547.835 170.399C547.835 170.399 566.801 178.408 572.914 170.994C576.984 165.876 580.54 160.37 583.531 154.555" stroke="black" stroke-width="2.13714" stroke-linecap="round" stroke-linejoin="round"/>
<path d="M588.207 121.635C587.511 123.821 583.255 122.531 583.255 122.531L588.207 121.635Z" fill="#F9C1BB"/>
<path d="M588.207 121.635C587.511 123.821 583.255 122.531 583.255 122.531" stroke="black" stroke-width="2.13714" stroke-linecap="round" stroke-linejoin="round"/>
<path d="M565.691 157.469C566.111 157.94 566.295 158.575 566.191 159.198" stroke="black" stroke-width="2.13714" stroke-linecap="round" stroke-linejoin="round"/>
<path d="M597.394 113.553L596.155 114.545" stroke="black" stroke-width="2.13714" stroke-linecap="round" stroke-linejoin="round"/>
<path d="M596.909 164.873C600.975 166.1 605.369 165.563 609.019 163.392" stroke="black" stroke-width="2.13714" stroke-linecap="round" stroke-linejoin="round"/>
<path d="M663.964 216.951C662.922 217.823 661.644 218.365 660.293 218.508" stroke="black" stroke-width="2.13714" stroke-linecap="round" stroke-linejoin="round"/>
<path d="M614.505 247.398C612.613 247.778 610.658 247.725 608.789 247.242" stroke="black" stroke-width="2.13714" stroke-linecap="round" stroke-linejoin="round"/>
<path d="M615.019 203.91C612.982 205.475 610.706 206.703 608.28 207.548" stroke="black" stroke-width="2.13714" stroke-linecap="round" stroke-linejoin="round"/>
<path d="M668.984 276.338L672.452 274.298C670.815 277.203 669.8 280.416 669.471 283.734" stroke="black" stroke-width="2.13714" stroke-linecap="round" stroke-linejoin="round"/>
<path d="M714.779 252.732C715.498 252.065 716.335 251.537 717.246 251.176C716.131 253.389 715.294 255.731 714.754 258.15" stroke="black" stroke-width="2.13714" stroke-linecap="round" stroke-linejoin="round"/>
<path d="M256.516 369.68V291.392V369.68Z" fill="#1AB995"/>
<path d="M256.516 369.68V291.392" stroke="black" stroke-width="2.13714" stroke-linecap="round" stroke-linejoin="round"/>
<path d="M532.655 45.5849V-32.7031V45.5849Z" fill="#1AB995"/>
<path d="M532.655 45.5849V-32.7031" stroke="black" stroke-width="2.13714" stroke-linecap="round" stroke-linejoin="round"/>
</g>
<rect x="2" y="1.89209" width="801.427" height="313.892" stroke="black" stroke-width="2.13714" stroke-linecap="round" stroke-linejoin="round"/>
<defs>
<linearGradient id="paint0_linear_216_1958" x1="457.118" y1="92.4047" x2="501.212" y2="113.814" gradientUnits="userSpaceOnUse">
<stop offset="0.3003" stop-color="#DCDFF8"/>
<stop offset="0.8855" stop-color="#F5F7FE"/>
</linearGradient>
<linearGradient id="paint1_linear_216_1958" x1="2509.75" y1="672.438" x2="2480.21" y2="676.38" gradientUnits="userSpaceOnUse">
<stop offset="0.3003" stop-color="#DCDFF8"/>
<stop offset="0.8855" stop-color="#F5F7FE"/>
</linearGradient>
<linearGradient id="paint2_linear_216_1958" x1="2511.46" y1="772.809" x2="2584.04" y2="772.809" gradientUnits="userSpaceOnUse">
<stop offset="0.3003" stop-color="#DCDFF8"/>
<stop offset="0.8855" stop-color="#F5F7FE"/>
</linearGradient>
<linearGradient id="paint3_linear_216_1958" x1="2597.21" y1="778.06" x2="2669.79" y2="778.06" gradientUnits="userSpaceOnUse">
<stop offset="0.3003" stop-color="#DCDFF8"/>
<stop offset="0.8855" stop-color="#F5F7FE"/>
</linearGradient>
</defs>
</svg>
