<svg width="805" height="317" viewBox="0 0 805 317" fill="none" xmlns="http://www.w3.org/2000/svg">
<rect x="1.57324" y="2" width="801.427" height="313.892" fill="white"/>
<mask id="mask0_216_2265" style="mask-type:luminance" maskUnits="userSpaceOnUse" x="1" y="2" width="802" height="314">
<rect x="1.57324" y="2" width="801.427" height="313.892" fill="white"/>
</mask>
<g mask="url(#mask0_216_2265)">
<rect x="1.57324" y="-11.3572" width="801.427" height="340.606" fill="white"/>
<rect x="-12.7852" y="-20.6409" width="825.336" height="355.566" fill="#F8FAFA"/>
<circle cx="741.248" cy="315.977" r="105.489" fill="#FCB006"/>
<mask id="mask1_216_2265" style="mask-type:luminance" maskUnits="userSpaceOnUse" x="635" y="210" width="212" height="212">
<circle cx="741.248" cy="315.977" r="105.489" fill="white"/>
</mask>
<g mask="url(#mask1_216_2265)">
<path d="M451.405 331.09L1031.09 300.864" stroke="white" stroke-width="2.13714"/>
<path d="M450.249 308.917L1029.93 278.69" stroke="white" stroke-width="2.13714"/>
<path d="M449.092 286.744L1028.78 256.517" stroke="white" stroke-width="2.13714"/>
<path d="M447.936 264.57L1027.62 234.344" stroke="white" stroke-width="2.13714"/>
<path d="M446.78 242.397L1026.47 212.17" stroke="white" stroke-width="2.13714"/>
<path d="M445.624 220.223L1025.31 189.997" stroke="white" stroke-width="2.13714"/>
</g>
<circle cx="741.248" cy="315.977" r="105.489" stroke="black" stroke-width="2.13714" stroke-linecap="round" stroke-linejoin="round"/>
<path d="M16.1025 309.447L16.998 243.779L77.806 235.961L76.9105 301.629L16.1025 309.447Z" fill="#1A80FD" stroke="black" stroke-width="2.13714" stroke-linecap="round" stroke-linejoin="round"/>
<path d="M77.8056 235.961L232.351 322.407L231.455 388.077L76.9102 301.629L77.8056 235.961Z" fill="white"/>
<path fill-rule="evenodd" clip-rule="evenodd" d="M77.8056 235.961L232.351 322.407L231.455 388.077L76.9102 301.629L77.8056 235.961V235.961Z" stroke="black" stroke-width="2.13714" stroke-linecap="round" stroke-linejoin="round"/>
<path d="M76.9105 301.629L231.456 388.076L170.65 395.892L16.1025 309.447L76.9105 301.629Z" fill="white"/>
<path fill-rule="evenodd" clip-rule="evenodd" d="M76.9105 301.629L231.456 388.076L170.65 395.892L16.1025 309.447L76.9105 301.629V301.629Z" stroke="black" stroke-width="2.13714" stroke-linecap="round" stroke-linejoin="round"/>
<path d="M162.759 322.047C167.579 316.655 173.326 312.169 179.728 308.802" stroke="black" stroke-width="2.13714"/>
<path d="M773.568 69.3354V-111.346H773.467C772.431 -116.621 758.553 -120.802 741.536 -120.802C724.52 -120.802 710.641 -116.621 709.605 -111.346H709.504V69.3354H773.568Z" fill="white" stroke="black" stroke-width="2.13714" stroke-linecap="round" stroke-linejoin="round"/>
<ellipse cx="741.536" cy="69.3356" rx="32.0316" ry="10.0839" fill="#1A80FD" stroke="black" stroke-width="2.13714" stroke-linecap="round" stroke-linejoin="round"/>
<rect x="44.5596" y="45.7734" width="715.455" height="245.726" fill="#5257DC" stroke="black" stroke-width="2.13714" stroke-linecap="round" stroke-linejoin="round"/>
<path d="M256.091 369.788V291.5V369.788Z" fill="#1AB995"/>
<path d="M256.091 369.788V291.5" stroke="black" stroke-width="2.13714" stroke-linecap="round" stroke-linejoin="round"/>
<path d="M532.231 45.6931V-32.595V45.6931Z" fill="#1AB995"/>
<path d="M532.231 45.6931V-32.595" stroke="black" stroke-width="2.13714" stroke-linecap="round" stroke-linejoin="round"/>
<path d="M724.008 180.945C717.714 180.55 711.396 180.703 705.128 181.402C704.045 190.443 703.68 199.556 704.038 208.655C700.178 200.395 697.477 191.64 696.015 182.641C682.178 184.906 668.845 189.576 656.62 196.441C655.203 207.726 654.676 219.104 655.045 230.472C651.192 221.625 648.42 212.345 646.789 202.834C629.273 215.704 613.545 235.965 605.78 267.82C598.38 298.181 599.592 315.157 604.682 324.205C675.64 286.109 724.008 180.945 724.008 180.945Z" fill="#1AB995" stroke="black" stroke-width="2.13714" stroke-linecap="round" stroke-linejoin="round"/>
<path d="M724.009 180.945C724.009 180.945 675.64 286.109 604.683 324.205C615.615 343.636 644.458 326.461 644.458 326.461C661.869 328.291 682.246 319.9 698.516 302.342C695.156 299.448 692.067 296.253 689.288 292.797C694.447 294.017 699.739 294.585 705.04 294.487C709.345 288.695 713.048 282.479 716.09 275.935C714.66 275.196 713.2 274.377 711.712 273.452C713.755 273.142 715.777 272.709 717.768 272.155C722.311 261.304 725.343 249.88 726.779 238.204C719.925 238.228 713.122 237.013 706.699 234.618C714.001 232.893 721.077 230.326 727.785 226.967C728.483 211.528 727.214 196.063 724.009 180.945Z" fill="#1AB995"/>
<mask id="mask2_216_2265" style="mask-type:luminance" maskUnits="userSpaceOnUse" x="604" y="180" width="124" height="154">
<path fill-rule="evenodd" clip-rule="evenodd" d="M724.009 180.945C724.009 180.945 675.64 286.109 604.683 324.205C615.615 343.636 644.458 326.461 644.458 326.461C661.869 328.291 682.246 319.9 698.516 302.342C695.156 299.448 692.067 296.253 689.288 292.797C694.447 294.017 699.739 294.585 705.04 294.487C709.345 288.695 713.048 282.479 716.09 275.935C714.66 275.196 713.2 274.377 711.712 273.452C713.755 273.142 715.777 272.709 717.768 272.155C722.311 261.304 725.343 249.88 726.779 238.204C719.925 238.228 713.122 237.013 706.699 234.618C714.001 232.893 721.077 230.326 727.785 226.967C728.483 211.528 727.214 196.063 724.009 180.945Z" fill="white"/>
</mask>
<g mask="url(#mask2_216_2265)">
<path d="M716.37 196.058C660.687 334.413 683.261 321.319 724.009 313.315C764.756 305.311 692.299 345.724 689.307 346.991C686.315 348.258 615.78 345.216 619.076 339.815C622.372 334.413 646.103 227.596 646.103 227.596L698.179 206.363" fill="#0FA379"/>
</g>
<path fill-rule="evenodd" clip-rule="evenodd" d="M724.009 180.945C724.009 180.945 675.64 286.109 604.683 324.205C615.615 343.636 644.458 326.461 644.458 326.461C661.869 328.291 682.246 319.9 698.516 302.342C695.156 299.448 692.067 296.253 689.288 292.797C694.447 294.017 699.739 294.585 705.04 294.487C709.345 288.695 713.048 282.479 716.09 275.935C714.66 275.196 713.2 274.377 711.712 273.452C713.755 273.142 715.777 272.709 717.768 272.155C722.311 261.304 725.343 249.88 726.779 238.204C719.925 238.228 713.122 237.013 706.699 234.618C714.001 232.893 721.077 230.326 727.785 226.967C728.483 211.528 727.214 196.063 724.009 180.945V180.945Z" stroke="black" stroke-width="2.13714" stroke-linecap="round" stroke-linejoin="round"/>
<path d="M398.21 252.581C403.174 252.373 408.146 252.453 413.101 252.823C413.955 257.572 414.243 262.406 413.961 267.223C416.91 263.077 419.057 258.414 420.289 253.477C430.909 254.608 441.346 257.057 451.36 260.769C452.476 266.694 452.893 272.729 452.602 278.751C455.557 274.272 457.757 269.339 459.114 264.147C472.929 270.948 485.334 281.653 491.458 298.486C497.295 314.528 496.34 323.498 492.325 328.279C436.359 308.149 398.21 252.581 398.21 252.581Z" fill="#1AB995"/>
<mask id="mask3_216_2265" style="mask-type:luminance" maskUnits="userSpaceOnUse" x="398" y="252" width="98" height="77">
<path fill-rule="evenodd" clip-rule="evenodd" d="M398.211 252.581C403.175 252.372 408.147 252.453 413.102 252.822C413.956 257.572 414.244 262.406 413.962 267.223C416.911 263.076 419.058 258.414 420.29 253.477C430.91 254.607 441.347 257.057 451.361 260.769C452.477 266.694 452.894 272.729 452.603 278.751C455.558 274.272 457.758 269.338 459.115 264.147C472.93 270.948 485.335 281.653 491.459 298.485C497.296 314.528 496.341 323.498 492.326 328.279C436.36 308.149 398.211 252.581 398.211 252.581Z" fill="white"/>
</mask>
<g mask="url(#mask3_216_2265)">
<path d="M433.185 246.974C443.065 299.708 418.97 308.301 492.326 328.279C565.682 348.257 526.79 257.206 526.79 257.206L383.086 218.721" fill="#0FA379"/>
</g>
<path fill-rule="evenodd" clip-rule="evenodd" d="M398.21 252.581C403.174 252.373 408.146 252.453 413.101 252.823C413.955 257.572 414.243 262.406 413.961 267.223C416.91 263.077 419.057 258.414 420.289 253.477C430.909 254.608 441.346 257.057 451.36 260.769C452.476 266.694 452.893 272.729 452.602 278.751C455.557 274.272 457.757 269.339 459.114 264.147C472.929 270.948 485.334 281.653 491.458 298.486C497.295 314.528 496.34 323.498 492.325 328.279C436.359 308.149 398.21 252.581 398.21 252.581Z" stroke="black" stroke-width="2.13714" stroke-linecap="round" stroke-linejoin="round"/>
<path d="M398.21 252.581C398.21 252.581 436.36 308.149 492.325 328.278C483.703 338.546 460.954 329.47 460.954 329.47C445.708 330.176 430.675 325.682 418.318 316.726C420.883 315.255 423.318 313.568 425.597 311.683C421.488 312.332 417.332 312.63 413.173 312.576C409.901 309.654 406.976 306.364 404.457 302.773C405.585 302.382 406.736 301.949 407.91 301.461C407.91 301.461 406.049 301.3 403.134 300.775C399.653 295.298 397.242 289.211 396.026 282.836C401.363 282.856 406.682 282.219 411.864 280.941C406.218 280.053 400.656 278.701 395.233 276.898C394.689 268.677 395.699 260.428 398.21 252.581Z" fill="#0FA379" stroke="black" stroke-width="2.13714" stroke-linecap="round" stroke-linejoin="round"/>
<rect x="451.535" y="185.26" width="207.391" height="37.8156" fill="white"/>
<mask id="mask4_216_2265" style="mask-type:luminance" maskUnits="userSpaceOnUse" x="451" y="185" width="208" height="39">
<rect x="451.536" y="185.26" width="207.391" height="37.8156" fill="white"/>
</mask>
<g mask="url(#mask4_216_2265)">
<path d="M448.246 197.963L630.8 198.549L444.936 200.301L448.246 197.963Z" fill="#D6DCF2"/>
<path d="M434.705 213.731L617.259 214.314L431.395 216.069L434.705 213.731Z" fill="#D6DCF2"/>
</g>
<rect x="451.535" y="185.26" width="207.391" height="37.8156" stroke="black" stroke-width="2.13714" stroke-linecap="round" stroke-linejoin="round"/>
<path d="M665.197 185.26C665.2 182.766 663.181 180.743 660.687 180.739H448.759C446.272 180.705 444.2 182.637 444.062 185.12C444.023 186.341 444.481 187.526 445.331 188.404C446.18 189.282 447.349 189.778 448.571 189.779H652.516C653.889 189.781 655.205 190.328 656.174 191.3C657.144 192.272 657.688 193.589 657.686 194.962V213.371C657.688 214.744 657.144 216.061 656.174 217.033C655.205 218.005 653.888 218.552 652.516 218.554H448.761C446.274 218.519 444.202 220.451 444.064 222.935C444.025 224.156 444.482 225.341 445.331 226.219C446.181 227.097 447.35 227.593 448.572 227.595H660.688C663.182 227.591 665.2 225.568 665.197 223.074V185.807C665.197 185.715 665.189 185.625 665.184 185.534C665.189 185.443 665.197 185.352 665.197 185.26Z" fill="#FCB006"/>
<mask id="mask5_216_2265" style="mask-type:luminance" maskUnits="userSpaceOnUse" x="444" y="180" width="222" height="48">
<path fill-rule="evenodd" clip-rule="evenodd" d="M665.198 185.26C665.201 182.766 663.182 180.743 660.688 180.739H448.76C446.273 180.705 444.201 182.637 444.063 185.12C444.024 186.341 444.482 187.526 445.332 188.404C446.181 189.282 447.35 189.778 448.572 189.779H652.516C653.889 189.781 655.206 190.328 656.175 191.3C657.145 192.272 657.689 193.589 657.687 194.962V213.371C657.689 214.744 657.145 216.061 656.175 217.033C655.206 218.005 653.889 218.552 652.516 218.554H448.762C446.275 218.519 444.203 220.451 444.065 222.935C444.025 224.156 444.483 225.341 445.332 226.219C446.182 227.097 447.351 227.593 448.573 227.595H660.689C663.183 227.591 665.201 225.568 665.198 223.074V185.807C665.198 185.715 665.189 185.625 665.185 185.534C665.189 185.443 665.198 185.352 665.198 185.26Z" fill="white"/>
</mask>
<g mask="url(#mask5_216_2265)">
<path d="M412.421 227.596C659.657 232.117 662.28 232.791 665.199 196.127C667.417 168.28 689.309 276.246 689.309 276.246L555.233 271.051L425.605 238.743" fill="#FDD504"/>
</g>
<path fill-rule="evenodd" clip-rule="evenodd" d="M665.197 185.26C665.2 182.766 663.181 180.743 660.687 180.739H448.759C446.272 180.705 444.2 182.637 444.062 185.12C444.023 186.341 444.481 187.526 445.331 188.404C446.18 189.282 447.349 189.778 448.571 189.779H652.516C653.889 189.781 655.205 190.328 656.174 191.3C657.144 192.272 657.688 193.589 657.686 194.962V213.371C657.688 214.744 657.144 216.061 656.174 217.033C655.205 218.005 653.888 218.552 652.516 218.554H448.761C446.274 218.519 444.202 220.451 444.064 222.935C444.025 224.156 444.482 225.341 445.331 226.219C446.181 227.097 447.35 227.593 448.572 227.595H660.688C663.182 227.591 665.2 225.568 665.197 223.074V185.807C665.197 185.715 665.189 185.625 665.184 185.534C665.189 185.443 665.197 185.352 665.197 185.26Z" stroke="black" stroke-width="2.13714" stroke-linecap="round" stroke-linejoin="round"/>
<rect x="475.644" y="232.791" width="207.391" height="43.4553" fill="white"/>
<mask id="mask6_216_2265" style="mask-type:luminance" maskUnits="userSpaceOnUse" x="475" y="232" width="209" height="45">
<rect x="475.645" y="232.791" width="207.391" height="43.4553" fill="white"/>
</mask>
<g mask="url(#mask6_216_2265)">
<path d="M472.355 247.388L654.91 248.062L469.045 250.075L472.355 247.388Z" fill="#D6DCF2"/>
<path d="M458.814 265.507L641.369 266.178L455.504 268.193L458.814 265.507Z" fill="#D6DCF2"/>
</g>
<rect x="475.644" y="232.791" width="207.391" height="43.4553" stroke="black" stroke-width="2.13714" stroke-linecap="round" stroke-linejoin="round"/>
<path d="M689.308 232.791C689.483 230.115 687.471 227.798 684.797 227.596H472.869C470.205 227.741 468.131 229.964 468.172 232.631C468.049 233.941 468.458 235.245 469.305 236.252C470.152 237.258 471.368 237.883 472.68 237.986H676.624C679.69 238.217 681.997 240.874 681.796 243.942V265.095C681.997 268.163 679.69 270.82 676.624 271.051H472.869C470.206 271.196 468.132 273.419 468.172 276.086C468.05 277.396 468.458 278.701 469.305 279.707C470.153 280.714 471.368 281.338 472.68 281.441H684.797C687.47 281.239 689.482 278.922 689.307 276.246V233.419C689.307 233.313 689.298 233.21 689.293 233.105C689.298 233.001 689.308 232.897 689.308 232.791Z" fill="#1B80FD"/>
<mask id="mask7_216_2265" style="mask-type:luminance" maskUnits="userSpaceOnUse" x="468" y="227" width="222" height="55">
<path fill-rule="evenodd" clip-rule="evenodd" d="M689.307 232.791C689.482 230.116 687.47 227.798 684.796 227.596H472.868C470.204 227.741 468.13 229.964 468.171 232.631C468.048 233.941 468.457 235.246 469.304 236.252C470.151 237.259 471.367 237.883 472.679 237.986H676.623C679.689 238.217 681.996 240.874 681.795 243.942V265.096C681.996 268.163 679.689 270.82 676.623 271.051H472.868C470.205 271.196 468.131 273.419 468.171 276.086C468.049 277.396 468.457 278.701 469.304 279.707C470.152 280.714 471.367 281.339 472.679 281.441H684.796C687.469 281.239 689.481 278.922 689.306 276.246V233.42C689.306 233.313 689.297 233.21 689.292 233.106C689.297 233.001 689.307 232.897 689.307 232.791Z" fill="white"/>
</mask>
<g mask="url(#mask7_216_2265)">
<path d="M448.758 280.568C695.54 280.203 689.305 281.733 689.305 257.576C689.305 233.42 710.042 310.274 710.042 310.274L500.419 299.188L464.164 291.202" fill="#1D62FC"/>
</g>
<path fill-rule="evenodd" clip-rule="evenodd" d="M689.308 232.791C689.483 230.115 687.471 227.798 684.797 227.596H472.869C470.205 227.741 468.131 229.964 468.172 232.631C468.049 233.941 468.458 235.245 469.305 236.252C470.152 237.258 471.368 237.883 472.68 237.986H676.624C679.69 238.217 681.997 240.874 681.796 243.942V265.095C681.997 268.163 679.69 270.82 676.624 271.051H472.869C470.206 271.196 468.132 273.419 468.172 276.086C468.05 277.396 468.458 278.701 469.305 279.707C470.153 280.714 471.368 281.338 472.68 281.441H684.797C687.47 281.239 689.482 278.922 689.307 276.246V233.419C689.307 233.313 689.298 233.21 689.293 233.105C689.298 233.001 689.308 232.897 689.308 232.791Z" stroke="black" stroke-width="2.13714" stroke-linecap="round" stroke-linejoin="round"/>
<rect x="451.535" y="285.763" width="207.391" height="43.4553" fill="white"/>
<mask id="mask8_216_2265" style="mask-type:luminance" maskUnits="userSpaceOnUse" x="451" y="285" width="208" height="45">
<rect x="451.536" y="285.763" width="207.391" height="43.4553" fill="white"/>
</mask>
<g mask="url(#mask8_216_2265)">
<path d="M448.246 300.362L630.8 301.033L444.936 303.048L448.246 300.362Z" fill="#D6DCF2"/>
</g>
<rect x="451.535" y="285.763" width="207.391" height="43.4553" stroke="black" stroke-width="2.13714" stroke-linecap="round" stroke-linejoin="round"/>
<path d="M665.197 285.763C665.373 283.088 663.361 280.771 660.688 280.568H448.759C446.096 280.713 444.022 282.936 444.062 285.603C443.94 286.913 444.349 288.218 445.196 289.224C446.044 290.231 447.26 290.855 448.572 290.958H652.516C655.581 291.189 657.888 293.846 657.687 296.913V318.067C657.888 321.134 655.581 323.792 652.516 324.023H448.761C446.097 324.168 444.023 326.391 444.064 329.058C443.942 330.368 444.35 331.673 445.197 332.679C446.045 333.686 447.26 334.31 448.572 334.413H660.689C663.362 334.211 665.373 331.893 665.198 329.218V286.392C665.198 286.285 665.189 286.182 665.184 286.077C665.189 285.973 665.197 285.869 665.197 285.763Z" fill="#1A80FD"/>
<mask id="mask9_216_2265" style="mask-type:luminance" maskUnits="userSpaceOnUse" x="444" y="280" width="222" height="55">
<path fill-rule="evenodd" clip-rule="evenodd" d="M665.196 285.763C665.372 283.088 663.36 280.771 660.687 280.568H448.758C446.095 280.713 444.021 282.936 444.061 285.603C443.939 286.914 444.348 288.218 445.195 289.224C446.043 290.231 447.259 290.855 448.571 290.958H652.515C655.58 291.189 657.887 293.846 657.686 296.914V318.067C657.887 321.135 655.58 323.792 652.515 324.023H448.76C446.096 324.168 444.022 326.391 444.063 329.058C443.941 330.368 444.349 331.673 445.196 332.679C446.044 333.686 447.259 334.311 448.571 334.413H660.688C663.361 334.211 665.372 331.894 665.197 329.218V286.392C665.197 286.285 665.188 286.182 665.183 286.078C665.188 285.973 665.196 285.869 665.196 285.763Z" fill="white"/>
</mask>
<g mask="url(#mask9_216_2265)">
<path d="M434.501 339.815C436.478 339.008 568.835 334.413 600.547 334.413C632.258 334.413 665.815 327.776 666.341 313.57C666.866 299.364 681.039 338.347 681.039 338.347L674.117 344.954L576.227 343.963" fill="#1D62FC"/>
</g>
<path fill-rule="evenodd" clip-rule="evenodd" d="M665.197 285.763C665.373 283.088 663.361 280.771 660.688 280.568H448.759C446.096 280.713 444.022 282.936 444.062 285.603C443.94 286.913 444.349 288.218 445.196 289.224C446.044 290.231 447.26 290.855 448.572 290.958H652.516C655.581 291.189 657.888 293.846 657.687 296.913V318.067C657.888 321.134 655.581 323.792 652.516 324.023H448.761C446.097 324.168 444.023 326.391 444.064 329.058C443.942 330.368 444.35 331.673 445.197 332.679C446.045 333.686 447.26 334.31 448.572 334.413H660.689C663.362 334.211 665.373 331.893 665.198 329.218V286.392C665.198 286.285 665.189 286.182 665.184 286.077C665.189 285.973 665.197 285.869 665.197 285.763Z" stroke="black" stroke-width="2.13714" stroke-linecap="round" stroke-linejoin="round"/>
<path d="M549.627 198.54L541.711 206.462" stroke="black" stroke-width="2.13714" stroke-linecap="round" stroke-linejoin="round"/>
<path d="M498.145 305.506L493.205 313.437" stroke="black" stroke-width="2.13714" stroke-linecap="round" stroke-linejoin="round"/>
<path d="M638.999 19.5496C639.041 31.1036 633.523 41.9725 624.17 48.757C614.818 55.5414 602.773 57.4131 591.803 53.7866L569.149 60.7936C567.995 61.1482 566.74 60.7918 565.944 59.8836C565.148 58.9753 564.96 57.6844 565.463 56.5867L573.181 39.6719C564.52 26.8717 564.995 9.9715 574.362 -2.32185C583.728 -14.6152 599.896 -19.5584 614.536 -14.6048C629.176 -9.65118 639.021 4.09387 638.998 19.549L638.999 19.5496Z" fill="#E43334"/>
<mask id="mask10_216_2265" style="mask-type:luminance" maskUnits="userSpaceOnUse" x="565" y="-17" width="75" height="78">
<path fill-rule="evenodd" clip-rule="evenodd" d="M639.001 19.5501C639.043 31.1041 633.525 41.973 624.172 48.7575C614.82 55.5419 602.775 57.4136 591.805 53.7871L569.151 60.7941C567.997 61.1487 566.742 60.7923 565.946 59.884C565.15 58.9758 564.962 57.6849 565.465 56.5872L573.183 39.6724C564.522 26.8722 564.997 9.97199 574.364 -2.32137C583.73 -14.6147 599.898 -19.5579 614.538 -14.6043C629.178 -9.65069 639.022 4.09435 639 19.5495L639.001 19.5501Z" fill="white"/>
</mask>
<g mask="url(#mask10_216_2265)">
<path d="M630.495 -10.8635C640.374 74.1418 591.805 53.7879 591.805 53.7879L612.771 70.0646L677.856 39.4855L649.962 -7.39602" fill="#C11F27"/>
</g>
<path fill-rule="evenodd" clip-rule="evenodd" d="M638.999 19.5496C639.041 31.1036 633.523 41.9725 624.17 48.757C614.818 55.5414 602.773 57.4131 591.803 53.7866L569.149 60.7936C567.995 61.1482 566.74 60.7918 565.944 59.8836C565.148 58.9753 564.96 57.6844 565.463 56.5867L573.181 39.6719C564.52 26.8717 564.995 9.9715 574.362 -2.32185C583.728 -14.6152 599.896 -19.5584 614.536 -14.6048C629.176 -9.65118 639.021 4.09387 638.998 19.549L638.999 19.5496Z" stroke="black" stroke-width="2.13714" stroke-linecap="round" stroke-linejoin="round"/>
<path fill-rule="evenodd" clip-rule="evenodd" d="M606.496 12.3743C605.8 13.2844 604.997 14.1084 604.106 14.8293L602.922 15.9201C601.703 17.0065 600.789 18.3933 600.272 19.9424C599.705 21.9443 599.449 24.0217 599.515 26.1014H605.384C605.342 24.7974 605.534 23.4965 605.952 22.2605C606.347 21.2529 606.98 20.3562 607.798 19.6472C609.502 18.1628 610.772 16.9809 611.608 16.1015C612.456 15.2056 613.152 14.1768 613.668 13.0561C614.229 11.7829 614.504 10.4019 614.472 9.0107C614.497 7.2451 613.977 5.51485 612.982 4.05617C611.934 2.5576 610.492 1.37785 608.816 0.647222C606.901 -0.198099 604.826 -0.616968 602.733 -0.58035C599.996 -0.69725 597.283 -0.0183272 594.923 1.37428C592.901 2.67985 591.434 4.6877 590.805 7.01076L596.39 9.51122C596.874 6.71248 599.376 4.71939 602.212 4.87469C603.603 4.78022 604.968 5.2751 605.975 6.23819C606.847 7.15539 607.315 8.38266 607.277 9.64714C607.313 10.6161 607.039 11.5712 606.496 12.3743ZM605.501 31.2152C604.697 30.4794 603.632 30.0948 602.543 30.1466C601.454 30.0946 600.389 30.4792 599.584 31.2152C598.102 32.8189 598.102 35.2932 599.584 36.897C601.299 38.3214 603.786 38.3214 605.501 36.897C606.985 35.2935 606.985 32.8186 605.501 31.2152Z" fill="white"/>
<path d="M604.106 14.8293L603.434 13.9985C603.416 14.0129 603.399 14.0278 603.382 14.0433L604.106 14.8293ZM606.496 12.3743L607.345 13.0239C607.357 13.0073 607.37 12.9904 607.381 12.9731L606.496 12.3743ZM602.922 15.9201L603.633 16.7179C603.637 16.714 603.642 16.71 603.646 16.706L602.922 15.9201ZM600.272 19.9424L599.258 19.604C599.253 19.6196 599.248 19.6352 599.244 19.651L600.272 19.9424ZM599.515 26.1014L598.447 26.135C598.465 26.7118 598.938 27.17 599.515 27.17V26.1014ZM605.384 26.1014V27.17C605.674 27.17 605.951 27.0525 606.152 26.8446C606.353 26.6366 606.462 26.3558 606.452 26.0665L605.384 26.1014ZM605.952 22.2605L604.957 21.8705C604.951 21.8863 604.945 21.9023 604.939 21.9184L605.952 22.2605ZM607.798 19.6472L608.498 20.4546L608.5 20.4529L607.798 19.6472ZM611.608 16.1015L612.383 16.8381L612.385 16.8361L611.608 16.1015ZM613.668 13.0561L614.638 13.5027C614.641 13.4976 614.643 13.4925 614.645 13.4873L613.668 13.0561ZM614.472 9.0107L613.404 8.99565C613.404 9.00873 613.404 9.02182 613.404 9.03491L614.472 9.0107ZM612.982 4.05617L613.864 3.45395L613.857 3.44382L612.982 4.05617ZM608.816 0.647222L608.384 1.62476L608.389 1.62679L608.816 0.647222ZM602.733 -0.58035L602.688 0.487246C602.709 0.48816 602.73 0.48843 602.752 0.488055L602.733 -0.58035ZM594.923 1.37428L594.38 0.454006C594.368 0.461287 594.355 0.468816 594.343 0.476587L594.923 1.37428ZM590.805 7.01076L589.773 6.73136C589.636 7.23897 589.888 7.77117 590.368 7.98606L590.805 7.01076ZM596.39 9.51122L595.953 10.4865C596.255 10.6213 596.601 10.6095 596.892 10.4543C597.184 10.2992 597.387 10.0183 597.443 9.69312L596.39 9.51122ZM602.212 4.87469L602.154 5.94166C602.197 5.94405 602.241 5.94377 602.285 5.9408L602.212 4.87469ZM605.975 6.23819L606.75 5.50225C606.738 5.48986 606.726 5.47775 606.714 5.46594L605.975 6.23819ZM607.277 9.64714L606.209 9.61502C606.209 9.63885 606.209 9.66271 606.209 9.68654L607.277 9.64714ZM602.543 30.1466L602.492 31.214C602.526 31.2156 602.56 31.2156 602.594 31.214L602.543 30.1466ZM605.501 31.2152L606.286 30.4895C606.266 30.4677 606.244 30.4467 606.223 30.4266L605.501 31.2152ZM599.584 31.2152L598.863 30.4266C598.841 30.4468 598.82 30.4679 598.8 30.4898L599.584 31.2152ZM599.584 36.897L598.8 37.6223C598.831 37.6568 598.866 37.6891 598.902 37.719L599.584 36.897ZM605.501 36.897L606.184 37.719C606.22 37.6891 606.254 37.657 606.286 37.6226L605.501 36.897ZM604.778 15.66C605.735 14.886 606.597 14.0011 607.345 13.0239L605.648 11.7248C605.002 12.5676 604.259 13.3309 603.434 13.9985L604.778 15.66ZM603.646 16.706L604.83 15.6152L603.382 14.0433L602.198 15.1341L603.646 16.706ZM601.286 20.2807C601.744 18.9086 602.553 17.6802 603.633 16.7179L602.211 15.1223C600.853 16.3328 599.835 17.878 599.258 19.604L601.286 20.2807ZM600.583 26.0677C600.521 24.0978 600.763 22.13 601.3 20.2338L599.244 19.651C598.647 21.7585 598.378 23.9455 598.447 26.135L600.583 26.0677ZM605.384 25.0328H599.515V27.17H605.384V25.0328ZM604.939 21.9184C604.481 23.2756 604.27 24.7043 604.316 26.1362L606.452 26.0665C606.414 24.8906 606.587 23.7173 606.964 22.6027L604.939 21.9184ZM607.098 18.8399C606.15 19.6621 605.415 20.702 604.957 21.8705L606.946 22.6506C607.278 21.8039 607.811 21.0504 608.498 20.4546L607.098 18.8399ZM610.834 15.365C610.032 16.2078 608.792 17.3638 607.096 18.8416L608.5 20.4529C610.211 18.9617 611.511 17.7539 612.383 16.838L610.834 15.365ZM612.697 12.6095C612.23 13.6243 611.6 14.5557 610.832 15.367L612.385 16.8361C613.313 15.8554 614.074 14.7294 614.638 13.5027L612.697 12.6095ZM613.404 9.03491C613.432 10.2694 613.188 11.495 612.69 12.6248L614.645 13.4873C615.27 12.0708 615.576 10.5343 615.541 8.98649L613.404 9.03491ZM612.099 4.65835C612.97 5.93531 613.426 7.45001 613.404 8.99565L615.541 9.02575C615.569 7.04019 614.983 5.09439 613.864 3.45399L612.099 4.65835ZM608.389 1.62679C609.884 2.27871 611.171 3.33138 612.106 4.66852L613.857 3.44382C612.696 1.78382 611.099 0.476981 609.243 -0.332347L608.389 1.62679ZM602.752 0.488055C604.689 0.454148 606.611 0.842007 608.384 1.62475L609.247 -0.330304C607.191 -1.23821 604.962 -1.68808 602.714 -1.64876L602.752 0.488055ZM595.466 2.29455C597.648 1.00691 600.156 0.379157 602.688 0.487246L602.779 -1.64795C599.835 -1.77366 596.918 -1.04356 594.38 0.454006L595.466 2.29455ZM591.836 7.29017C592.396 5.22194 593.702 3.43433 595.503 2.27197L594.343 0.476587C592.1 1.92538 590.472 4.15347 589.773 6.73136L591.836 7.29017ZM596.827 8.53592L591.241 6.03547L590.368 7.98606L595.953 10.4865L596.827 8.53592ZM602.271 3.80772C598.893 3.62277 595.913 5.99633 595.337 9.32931L597.443 9.69312C597.834 7.42864 599.859 5.816 602.154 5.94166L602.271 3.80772ZM606.714 5.46594C605.49 4.29528 603.83 3.69374 602.14 3.80858L602.285 5.9408C603.375 5.86669 604.447 6.25491 605.237 7.01044L606.714 5.46594ZM608.345 9.67926C608.392 8.12989 607.818 6.62611 606.75 5.50225L605.201 6.97413C605.876 7.68468 606.239 8.63543 606.209 9.61502L608.345 9.67926ZM607.381 12.9731C608.052 11.9821 608.389 10.8034 608.345 9.60774L606.209 9.68654C606.237 10.4288 606.027 11.1604 605.611 11.7756L607.381 12.9731ZM602.594 31.214C603.399 31.1757 604.186 31.4599 604.78 32.0037L606.223 30.4266C605.208 29.4989 603.866 29.0139 602.492 29.0792L602.594 31.214ZM600.305 32.0037C600.9 31.4598 601.687 31.1756 602.492 31.214L602.594 29.0792C601.221 29.0137 599.878 29.4987 598.863 30.4266L600.305 32.0037ZM600.369 36.1716C599.265 34.9773 599.265 33.1348 600.369 31.9406L598.8 30.4898C596.938 32.503 596.938 35.6091 598.8 37.6223L600.369 36.1716ZM604.819 36.0749C603.499 37.1707 601.586 37.1707 600.267 36.0749L598.902 37.719C601.013 39.4721 604.073 39.4721 606.184 37.719L604.819 36.0749ZM604.717 31.9409C605.822 33.1347 605.822 34.9774 604.717 36.1713L606.286 37.6226C608.148 35.6096 608.148 32.5025 606.286 30.4895L604.717 31.9409Z" fill="black"/>
<path d="M573.037 29.8394L578.8 33.6221" stroke="black" stroke-width="2.13714" stroke-linecap="round" stroke-linejoin="round"/>
<path d="M620.587 2.68363L621.888 3.56776" stroke="black" stroke-width="2.13714" stroke-linecap="round" stroke-linejoin="round"/>
<path d="M742.134 18.8669H680.013C675.335 18.886 671.55 22.6795 671.542 27.3578V66.9803C671.55 71.6586 675.335 75.4519 680.013 75.471H697.97L709.422 86.2928C710.348 87.1692 711.798 87.1692 712.724 86.2928L724.169 75.4716H742.134C746.813 75.4526 750.597 71.6592 750.606 66.981V27.3584C750.604 22.6776 746.815 18.8804 742.134 18.8676V18.8669Z" fill="white"/>
<mask id="mask11_216_2265" style="mask-type:luminance" maskUnits="userSpaceOnUse" x="671" y="18" width="80" height="69">
<path fill-rule="evenodd" clip-rule="evenodd" d="M742.134 18.8669H680.013C675.335 18.886 671.55 22.6795 671.542 27.3578V66.9803C671.55 71.6586 675.335 75.4519 680.013 75.471H697.97L709.422 86.2928C710.348 87.1692 711.798 87.1692 712.724 86.2928L724.169 75.4716H742.134C746.813 75.4526 750.597 71.6592 750.606 66.981V27.3584C750.604 22.6776 746.815 18.8804 742.134 18.8676V18.8669Z" fill="white"/>
</mask>
<g mask="url(#mask11_216_2265)">
<path d="M740.475 14.1287L664.88 95.3741L737.835 92.474L759.467 68.6492L762.44 34.2007" fill="#C11F27"/>
</g>
<path fill-rule="evenodd" clip-rule="evenodd" d="M742.134 18.8669H680.013C675.335 18.886 671.55 22.6795 671.542 27.3578V66.9803C671.55 71.6586 675.335 75.4519 680.013 75.471H697.97L709.422 86.2928C710.348 87.1692 711.798 87.1692 712.724 86.2928L724.169 75.4716H742.134C746.813 75.4526 750.597 71.6592 750.606 66.981V27.3584C750.604 22.6776 746.815 18.8804 742.134 18.8676V18.8669Z" stroke="black" stroke-width="2.13714" stroke-linecap="round" stroke-linejoin="round"/>
<path d="M727.22 36.711C722.868 32.3761 715.996 31.886 711.073 35.5595C706.213 31.933 699.441 32.3592 695.073 36.5665C690.163 41.5372 690.197 49.5428 695.15 54.4714L708.045 67.3971C709.719 69.0662 712.428 69.0662 714.101 67.3971L727.22 54.2479C732.031 49.3923 732.031 41.5665 727.22 36.711Z" fill="white" stroke="black" stroke-width="2.13714" stroke-linecap="round" stroke-linejoin="round"/>
<path d="M735.171 59.4231L732.856 64.0618" stroke="black" stroke-width="2.13714" stroke-linecap="round" stroke-linejoin="round"/>
<path d="M683.108 29.2773C681.976 30.1008 681.242 31.3607 681.082 32.751" stroke="black" stroke-width="2.13714" stroke-linecap="round" stroke-linejoin="round"/>
<path d="M535.168 31.0794C535.636 30.0176 535.945 28.8926 536.086 27.7408C536.674 23.8993 535.534 19.9942 532.972 17.0724C530.409 14.1507 526.686 12.5113 522.801 12.5938C519.894 12.6175 517.047 13.4156 514.551 14.9057C513.209 13.8842 511.565 13.3388 509.878 13.3559C505.051 13.4833 501.031 17.0958 500.389 21.8816C499.827 25.6101 502.168 29.1622 505.815 30.1168C505.84 35.256 508.178 38.6632 512.503 40.0498C512.356 40.3323 512.222 40.6151 512.09 40.8985C511.239 40.6502 510.361 40.5092 509.476 40.4787C509.247 40.461 509.033 40.4091 508.797 40.4091C508.004 40.4209 507.216 40.5324 506.451 40.7408C500.986 42.0848 496.309 45.6076 493.51 50.4893C488.756 58.3942 489.952 67.1331 496.181 70.0084C502.41 72.8837 511.312 68.8065 516.067 60.9019C516.464 60.2334 516.826 59.5444 517.15 58.8378C523.265 60.6512 531.299 56.6152 535.73 49.2468C539.885 42.337 539.494 34.7901 535.168 31.0794Z" fill="#1A80FD" stroke="black" stroke-width="2.13714" stroke-linecap="round" stroke-linejoin="round"/>
<path d="M470.936 109.163C478.506 95.7443 496.737 63.4757 504.286 61.5901L503.599 96.3688L485.652 119.079C484.017 121.151 481.545 122.388 478.906 122.456C476.268 122.523 473.736 121.413 471.998 119.427C469.502 116.577 469.076 112.463 470.936 109.163Z" fill="#FDD504"/>
<mask id="mask12_216_2265" style="mask-type:luminance" maskUnits="userSpaceOnUse" x="469" y="61" width="36" height="62">
<path fill-rule="evenodd" clip-rule="evenodd" d="M470.937 109.163C478.507 95.7443 496.738 63.4757 504.287 61.5901L503.6 96.3688L485.653 119.079C484.018 121.151 481.546 122.388 478.907 122.456C476.269 122.523 473.737 121.413 471.999 119.427C469.503 116.577 469.077 112.463 470.937 109.163Z" fill="white"/>
</mask>
<g mask="url(#mask12_216_2265)">
<path d="M503.078 71.3667C489.643 77.7864 499.362 101.732 486.693 117.763C474.903 132.682 489.262 125.07 489.262 125.07C489.262 125.07 509.666 103.146 510.319 102.819C510.972 102.492 506.008 81.5495 506.008 81.5495L506.809 73.8597" fill="url(#paint0_linear_216_2265)"/>
</g>
<path fill-rule="evenodd" clip-rule="evenodd" d="M470.936 109.163C478.506 95.7443 496.737 63.4757 504.286 61.5901L503.599 96.3688L485.652 119.079C484.017 121.151 481.545 122.388 478.906 122.456C476.268 122.523 473.736 121.413 471.998 119.427V119.427C469.502 116.577 469.076 112.463 470.936 109.163V109.163Z" stroke="black" stroke-width="2.13714" stroke-linecap="round" stroke-linejoin="round"/>
<path d="M469.681 331.862C469.681 331.862 471.718 324.774 482.417 324.774C493.115 324.774 499.482 315.702 499.482 315.702V214.207L503.558 114.413L526.482 126.32C526.482 144.465 510.372 316.455 510.372 316.455C510.372 316.455 512.473 331.862 512.218 331.862H469.681Z" fill="#F9C1BB"/>
<mask id="mask13_216_2265" style="mask-type:luminance" maskUnits="userSpaceOnUse" x="469" y="114" width="58" height="218">
<path fill-rule="evenodd" clip-rule="evenodd" d="M469.68 331.862C469.68 331.862 471.717 324.774 482.416 324.774C493.114 324.774 499.481 315.702 499.481 315.702V214.207L503.557 114.413L526.481 126.32C526.481 144.465 510.371 316.455 510.371 316.455C510.371 316.455 512.472 331.862 512.217 331.862H469.68Z" fill="white"/>
</mask>
<g mask="url(#mask13_216_2265)">
<path d="M492.096 202.637C526.172 203.553 517.695 247.31 516.905 250.629C516.115 253.947 530.184 197.658 530.184 197.658L521.077 191.013" fill="#ED707B"/>
</g>
<path fill-rule="evenodd" clip-rule="evenodd" d="M469.681 331.862C469.681 331.862 471.718 324.774 482.417 324.774C493.115 324.774 499.482 315.702 499.482 315.702V214.207L503.558 114.413L526.482 126.32V126.32C526.482 144.465 510.372 316.455 510.372 316.455C510.372 316.455 512.473 331.862 512.218 331.862H469.681Z" stroke="black" stroke-width="2.13714" stroke-linecap="round" stroke-linejoin="round"/>
<path d="M517.821 143.142L535.651 208.159L559.934 318.914C559.934 318.914 561.789 332.145 562.469 333.279H602.089C593.46 318.914 579.292 329.499 573.857 317.969L543.951 137.723L517.821 143.142Z" fill="#F9C1BB"/>
<mask id="mask14_216_2265" style="mask-type:luminance" maskUnits="userSpaceOnUse" x="517" y="137" width="86" height="197">
<path fill-rule="evenodd" clip-rule="evenodd" d="M517.82 143.142L535.65 208.159L559.933 318.915C559.933 318.915 561.789 332.145 562.468 333.279H602.088C593.459 318.915 579.291 329.499 573.856 317.97L543.95 137.723L517.82 143.142Z" fill="white"/>
</mask>
<g mask="url(#mask14_216_2265)">
<path d="M529.663 208.665C553.202 207.656 557.4 222.383 559.955 232.294C562.51 242.204 565.971 201.727 565.971 201.727" fill="#ED707B"/>
</g>
<path fill-rule="evenodd" clip-rule="evenodd" d="M517.821 143.142L535.651 208.159L559.934 318.914C559.934 318.914 561.789 332.145 562.469 333.279H602.089C593.46 318.914 579.292 329.499 573.857 317.969L543.951 137.723L517.821 143.142Z" stroke="black" stroke-width="2.13714" stroke-linecap="round" stroke-linejoin="round"/>
<path d="M492.095 202.637C521.302 209.441 551.442 210.427 558.234 205.891L541.148 116.433L501.884 122.516L492.095 202.637Z" fill="#2F387E"/>
<mask id="mask15_216_2265" style="mask-type:luminance" maskUnits="userSpaceOnUse" x="492" y="116" width="67" height="93">
<path fill-rule="evenodd" clip-rule="evenodd" d="M492.097 202.637C521.304 209.441 551.444 210.426 558.236 205.89L541.15 116.432L501.886 122.516L492.097 202.637Z" fill="white"/>
</mask>
<g mask="url(#mask15_216_2265)">
<path d="M495.787 161.059C498.082 126.566 557.474 122.316 540.191 119.506L512.768 115.049L497.423 121.972L490.241 126.094" fill="#111944"/>
<g opacity="0.16">
<path d="M462.578 212.978H452.441L488.219 115.416H493.37L462.578 212.978Z" fill="#485065" stroke="black" stroke-width="2.13714" stroke-linecap="round" stroke-linejoin="round"/>
<path d="M481.908 212.978H471.771L498.039 115.416H503.19L481.908 212.978Z" fill="#485065" stroke="black" stroke-width="2.13714" stroke-linecap="round" stroke-linejoin="round"/>
<path d="M501.239 212.978H491.103L507.862 115.416H513.01L501.239 212.978Z" fill="#485065" stroke="black" stroke-width="2.13714" stroke-linecap="round" stroke-linejoin="round"/>
<path d="M520.569 212.978H510.435L517.682 115.416H522.832L520.569 212.978Z" fill="#485065" stroke="black" stroke-width="2.13714" stroke-linecap="round" stroke-linejoin="round"/>
<path d="M539.902 212.978H529.766L527.505 115.416H532.653L539.902 212.978Z" fill="#485065" stroke="black" stroke-width="2.13714" stroke-linecap="round" stroke-linejoin="round"/>
<path d="M559.232 212.978H549.096L537.324 115.416H542.475L559.232 212.978Z" fill="#485065" stroke="black" stroke-width="2.13714" stroke-linecap="round" stroke-linejoin="round"/>
<path d="M578.563 212.978H568.426L547.145 115.416H552.295L578.563 212.978Z" fill="#485065" stroke="black" stroke-width="2.13714" stroke-linecap="round" stroke-linejoin="round"/>
<path d="M597.892 212.978H587.758L556.966 115.416H562.114L597.892 212.978Z" fill="#485065" stroke="black" stroke-width="2.13714" stroke-linecap="round" stroke-linejoin="round"/>
</g>
</g>
<path fill-rule="evenodd" clip-rule="evenodd" d="M492.095 202.637C521.302 209.441 551.442 210.427 558.234 205.891L541.148 116.433L501.884 122.516L492.095 202.637Z" stroke="black" stroke-width="2.13714" stroke-linecap="round" stroke-linejoin="round"/>
<path d="M503.599 61.9292C517.98 55.3459 534.515 55.3459 548.896 61.9292C554.283 75.9181 538.457 108.979 543.509 120.584C543.509 120.584 514.521 133.251 500.32 123.68C495.913 119.262 505.909 106.847 498.457 94.8153C494.348 88.1825 495.634 79.9611 497.947 73.3978" fill="#FDD504"/>
<mask id="mask16_216_2265" style="mask-type:luminance" maskUnits="userSpaceOnUse" x="495" y="56" width="56" height="72">
<path fill-rule="evenodd" clip-rule="evenodd" d="M503.6 61.9295C517.981 55.3461 534.516 55.3461 548.897 61.9295C554.284 75.9183 538.458 108.979 543.51 120.585C543.51 120.585 514.522 133.252 500.321 123.68C495.914 119.263 505.91 106.847 498.458 94.8155C494.349 88.1827 495.635 79.9614 497.948 73.398" fill="white"/>
</mask>
<g mask="url(#mask16_216_2265)">
<path d="M508.705 58.8173C503.6 78.9322 526.623 68.4867 535.856 57.021C545.089 45.5552 535.093 47.9132 535.093 47.9132L507.864 55.687" fill="#F9C1BB"/>
<path d="M508.705 58.8173C503.6 78.9322 526.623 68.4867 535.856 57.021C545.089 45.5552 535.093 47.9132 535.093 47.9132L507.864 55.687" stroke="black" stroke-width="2.13714" stroke-linecap="round" stroke-linejoin="round"/>
</g>
<path d="M503.599 61.9292C517.98 55.3459 534.515 55.3459 548.896 61.9292C554.283 75.9181 538.457 108.979 543.509 120.584C543.509 120.584 514.521 133.251 500.32 123.68C495.913 119.262 505.909 106.847 498.457 94.8153C494.348 88.1825 495.634 79.9611 497.947 73.3978" stroke="black" stroke-width="2.13714" stroke-linecap="round" stroke-linejoin="round"/>
<path d="M528.596 58.7946L527.838 35.4678L514.877 42.8875C515.196 43.7054 511.288 55.2829 509.444 60.6484" fill="#F9C1BB"/>
<path d="M528.596 58.7946L527.838 35.4678L514.877 42.8875C515.196 43.7054 511.288 55.2829 509.444 60.6484" stroke="black" stroke-width="2.13714" stroke-linecap="round" stroke-linejoin="round"/>
<path d="M484.373 108.675L462.088 70.437C462.316 69.606 462.651 68.8085 463.086 68.0648C465.076 64.9561 464.504 61.9293 461.322 64.2199C464.341 60.7021 463.28 57.5118 459.689 60.9475C461.648 58.9024 463.035 54.812 461.403 54.3213C459.771 53.8306 455.021 60.8658 453.022 64.2607C452.628 64.9253 452.501 65.7148 452.667 66.4694H452.654L452.687 66.5647C452.757 66.8806 452.861 67.188 452.997 67.4813L469.289 115.572C470.31 118.586 472.958 120.755 476.113 121.164C479.269 121.572 482.382 120.149 484.137 117.495C485.892 114.841 485.983 111.419 484.372 108.675H484.373Z" fill="#F9C1BB"/>
<mask id="mask17_216_2265" style="mask-type:luminance" maskUnits="userSpaceOnUse" x="452" y="54" width="34" height="68">
<path fill-rule="evenodd" clip-rule="evenodd" d="M484.373 108.675L462.088 70.437C462.316 69.606 462.651 68.8085 463.086 68.0648C465.076 64.9561 464.504 61.9293 461.322 64.2199C464.341 60.7021 463.28 57.5118 459.689 60.9475C461.648 58.9024 463.035 54.812 461.403 54.3213C459.771 53.8306 455.021 60.8658 453.022 64.2607C452.628 64.9253 452.501 65.7148 452.667 66.4694H452.654L452.687 66.5647C452.757 66.8806 452.861 67.188 452.997 67.4813L469.289 115.572C470.31 118.586 472.958 120.755 476.113 121.164C479.269 121.572 482.382 120.149 484.137 117.495C485.892 114.841 485.983 111.419 484.372 108.675H484.373Z" fill="white"/>
</mask>
<g mask="url(#mask17_216_2265)">
<path d="M461.793 115.23C481.189 121.334 484.295 118.886 484.998 109.492C485.702 100.098 489.687 120.762 489.687 120.762L481.197 129.097L467.337 122.057" fill="#ED707B"/>
</g>
<path fill-rule="evenodd" clip-rule="evenodd" d="M484.373 108.675L462.088 70.437C462.316 69.606 462.651 68.8085 463.086 68.0648C465.076 64.9561 464.504 61.9293 461.322 64.2199C464.341 60.7021 463.28 57.5118 459.689 60.9475C461.648 58.9024 463.035 54.812 461.403 54.3213C459.771 53.8306 455.021 60.8658 453.022 64.2607C452.628 64.9253 452.501 65.7148 452.667 66.4694H452.654L452.687 66.5647C452.757 66.8806 452.861 67.188 452.997 67.4813L469.289 115.572C470.31 118.586 472.958 120.755 476.113 121.164C479.269 121.572 482.382 120.149 484.137 117.495C485.892 114.841 485.983 111.419 484.372 108.675H484.373Z" stroke="black" stroke-width="2.13714" stroke-linecap="round" stroke-linejoin="round"/>
<path d="M515.538 98.3403C512.579 95.6483 509.181 93.4813 505.492 91.9327C500.698 90.3299 502.524 91.5512 502.524 91.5512L504.198 96.7385L515.538 98.3403Z" fill="#F9C1BB" stroke="black" stroke-width="2.13714" stroke-linecap="round" stroke-linejoin="round"/>
<path d="M515.724 114.059H489.427C486.679 113.927 484.161 112.482 482.662 110.175L464.141 77.5349C462.924 75.3899 463.98 73.6511 466.499 73.6511H492.796C495.544 73.7827 498.062 75.2279 499.561 77.5349L518.081 110.175C519.299 112.32 518.243 114.059 515.724 114.059Z" fill="#485065"/>
<mask id="mask18_216_2265" style="mask-type:luminance" maskUnits="userSpaceOnUse" x="463" y="73" width="56" height="42">
<path fill-rule="evenodd" clip-rule="evenodd" d="M515.722 114.059H489.425C486.677 113.927 484.159 112.482 482.66 110.175L464.139 77.5352C462.922 75.3901 463.978 73.6514 466.497 73.6514H492.794C495.542 73.783 498.06 75.2282 499.559 77.5352L518.08 110.175C519.297 112.32 518.241 114.059 515.722 114.059Z" fill="white"/>
</mask>
<g mask="url(#mask18_216_2265)">
<path d="M504.284 84.7882C514.799 107.583 484.127 114.413 484.127 114.413C487.61 116.16 491.18 117.726 494.824 119.107C495.112 118.798 523.68 116.824 523.68 116.824L512.768 83.3843" fill="#232C3F"/>
</g>
<path fill-rule="evenodd" clip-rule="evenodd" d="M515.724 114.059H489.427C486.679 113.927 484.161 112.482 482.662 110.175L464.141 77.5349C462.924 75.3899 463.98 73.6511 466.499 73.6511H492.796C495.544 73.7827 498.062 75.2279 499.561 77.5349L518.081 110.175C519.299 112.32 518.243 114.059 515.724 114.059Z" stroke="black" stroke-width="2.13714" stroke-linecap="round" stroke-linejoin="round"/>
<ellipse cx="489.805" cy="92.671" rx="4.27235" ry="7.33957" transform="rotate(-60.8546 489.805 92.671)" fill="#485065" stroke="black" stroke-width="2.13714" stroke-linecap="round" stroke-linejoin="round"/>
<path d="M548.312 61.6724C558.236 65.6549 571.838 109.743 571.838 109.743L553.457 113.727L540.491 86.6839" fill="#FDD504"/>
<path d="M548.312 61.6724C558.236 65.6549 571.838 109.743 571.838 109.743L553.457 113.727L540.491 86.6839" stroke="black" stroke-width="2.13714" stroke-linecap="round" stroke-linejoin="round"/>
<path d="M564.374 104.342L521.018 98.6512L508.841 96.279C508.841 96.279 501.941 96.3805 501.433 96.279C500.926 96.1775 495.243 93.2278 494.635 95.7703C494.052 95.8325 493.554 96.2192 493.35 96.7688C493.146 97.3183 493.27 97.9361 493.671 98.364L496.157 100.398C496.157 100.398 494.432 100.042 494.584 101.365C494.736 102.687 501.36 105.521 501.919 105.724C505.934 105.753 509.943 106.063 513.915 106.653C515.223 106.974 517.054 107.535 518.949 108.154L525.474 110.394C526.704 110.832 527.513 111.128 527.513 111.128L527.521 111.097L561.022 122.598C563.736 123.23 566.591 122.638 568.832 120.98C571.072 119.322 572.472 116.765 572.662 113.984C572.84 109.099 569.23 104.9 564.374 104.342Z" fill="#F9C1BB"/>
<mask id="mask19_216_2265" style="mask-type:luminance" maskUnits="userSpaceOnUse" x="493" y="94" width="80" height="29">
<path fill-rule="evenodd" clip-rule="evenodd" d="M564.375 104.341L521.019 98.651L508.842 96.2787C508.842 96.2787 501.942 96.3802 501.434 96.2787C500.927 96.1772 495.244 93.2275 494.636 95.7701C494.053 95.8323 493.555 96.219 493.351 96.7685C493.147 97.3181 493.271 97.9359 493.672 98.3637L496.158 100.398C496.158 100.398 494.433 100.042 494.585 101.364C494.737 102.687 501.361 105.521 501.92 105.724C505.935 105.753 509.943 106.063 513.916 106.653C515.224 106.973 517.055 107.534 518.95 108.154L525.475 110.393C526.705 110.832 527.514 111.128 527.514 111.128L527.522 111.097L561.023 122.598C563.737 123.229 566.592 122.638 568.833 120.98C571.073 119.322 572.473 116.764 572.663 113.984C572.841 109.099 569.231 104.899 564.375 104.341Z" fill="white"/>
</mask>
<g mask="url(#mask19_216_2265)">
<path d="M549.362 100.323C569.337 104.191 572.631 114.389 572.005 120.119C571.38 125.85 579.176 105.011 579.176 105.011L572.005 98.3391H557.567" fill="#ED707B"/>
</g>
<path fill-rule="evenodd" clip-rule="evenodd" d="M564.374 104.342L521.018 98.6512L508.841 96.279C508.841 96.279 501.941 96.3805 501.433 96.279C500.926 96.1775 495.243 93.2278 494.635 95.7703C494.052 95.8325 493.554 96.2192 493.35 96.7688C493.146 97.3183 493.27 97.9361 493.671 98.364L496.157 100.398C496.157 100.398 494.432 100.042 494.584 101.365C494.736 102.687 501.36 105.521 501.919 105.724C505.934 105.753 509.943 106.063 513.915 106.653C515.223 106.974 517.054 107.535 518.949 108.154V108.154L525.474 110.394C526.704 110.832 527.513 111.128 527.513 111.128L527.521 111.097L561.022 122.598C563.736 123.23 566.591 122.638 568.832 120.98C571.072 119.322 572.472 116.765 572.662 113.984C572.84 109.099 569.23 104.9 564.374 104.342Z" stroke="black" stroke-width="2.13714" stroke-linecap="round" stroke-linejoin="round"/>
<path d="M529.588 33.504C516.968 34.7091 515.511 19.8767 515.511 19.8767C513.735 24.1565 509.681 27.0545 505.056 27.3496C501.174 48.0709 511.618 49.1662 520.193 44.0428" fill="#F9C1BB"/>
<path d="M529.588 33.504C516.968 34.7091 515.511 19.8767 515.511 19.8767C513.735 24.1565 509.681 27.0545 505.056 27.3496C501.174 48.0709 511.618 49.1662 520.193 44.0428" stroke="black" stroke-width="2.13714" stroke-linecap="round" stroke-linejoin="round"/>
<path d="M526.847 33.4941C540.305 28.4333 532.874 43.6436 524.451 40.0619L526.847 33.4941Z" fill="#F9C1BB"/>
<path d="M526.847 33.4941C540.305 28.4333 532.874 43.6436 524.451 40.0619" stroke="black" stroke-width="2.13714" stroke-linecap="round" stroke-linejoin="round"/>
<path d="M512.77 68.0324C513.731 77.1075 528.793 76.5745 538.639 58.4631C538.639 58.4631 528.79 52.9461 528.559 56.1296C527.82 66.288 512.77 68.0324 512.77 68.0324Z" fill="white" stroke="black" stroke-width="2.13714" stroke-linecap="round" stroke-linejoin="round"/>
<path d="M512.769 68.0324C510.189 75.2925 499.887 75.2183 502.183 61.6723C502.183 61.6723 511.959 53.4063 510.577 56.2822C506.643 64.4707 512.769 68.0324 512.769 68.0324Z" fill="white" stroke="black" stroke-width="2.13714" stroke-linecap="round" stroke-linejoin="round"/>
<path d="M522.485 19.7007C522.809 20.6759 523.39 21.5455 524.167 22.2172" stroke="black" stroke-width="2.13714" stroke-linecap="round" stroke-linejoin="round"/>
<path d="M504.542 52.9084L502.935 54.3952" stroke="black" stroke-width="2.13714" stroke-linecap="round" stroke-linejoin="round"/>
<path d="M541.002 159.447C538.105 161.604 534.879 163.28 531.449 164.412" stroke="black" stroke-width="2.13714" stroke-linecap="round" stroke-linejoin="round"/>
<path d="M503.759 234.12L510.017 234.509" stroke="black" stroke-width="2.13714" stroke-linecap="round" stroke-linejoin="round"/>
<path d="M549.553 232.027C551.077 231.718 552.64 231.651 554.184 231.829" stroke="black" stroke-width="2.13714" stroke-linecap="round" stroke-linejoin="round"/>
<path d="M646.955 96.7145C645.554 95.3576 643.763 94.4736 641.834 94.1867L625.251 91.5223C621.949 90.9972 618.6 92.1388 616.307 94.5718C614.013 97.0049 613.07 100.415 613.789 103.68L617.552 120.902L617.498 121.949L617.74 121.763L618.807 126.646C618.807 126.646 629.095 132.499 644.083 117.845C654.7 107.464 650.379 100.117 646.955 96.7145Z" fill="#485065" stroke="black" stroke-width="2.13714" stroke-linecap="round" stroke-linejoin="round"/>
<path d="M622.27 115.38L609.96 133.695L624.443 147.55L638.728 120.214L622.27 115.38Z" fill="#F9C1BB"/>
<mask id="mask20_216_2265" style="mask-type:luminance" maskUnits="userSpaceOnUse" x="609" y="115" width="30" height="33">
<path fill-rule="evenodd" clip-rule="evenodd" d="M622.27 115.38L609.96 133.695L624.443 147.55L638.728 120.214L622.27 115.38Z" fill="white"/>
</mask>
<g mask="url(#mask20_216_2265)">
<path d="M627.653 121.737C632.151 127.871 627.859 133.945 631.273 135.872C635.147 138.058 638.182 132.771 638.182 132.771L639.733 124.338L627.49 119.164" fill="#ED707B"/>
</g>
<path fill-rule="evenodd" clip-rule="evenodd" d="M622.27 115.38L609.96 133.695L624.443 147.55L638.728 120.214L622.27 115.38V115.38Z" stroke="black" stroke-width="2.13714" stroke-linecap="round" stroke-linejoin="round"/>
<path d="M629.205 126.357C633.92 128.041 641.936 129.541 643.912 127.141C648.619 121.428 647.38 104.048 642.276 99.5339C645.869 121.176 626.241 115.236 626.241 115.236L625.652 115.689L625.537 118.02" fill="#F9C1BB"/>
<path d="M629.205 126.357C633.92 128.041 641.936 129.541 643.912 127.141C648.619 121.428 647.38 104.048 642.276 99.5339C645.869 121.176 626.241 115.236 626.241 115.236L625.652 115.689L625.537 118.02" stroke="black" stroke-width="2.13714" stroke-linecap="round" stroke-linejoin="round"/>
<path d="M631.032 117.542C622.875 105.071 616.695 116.7 622.051 120.929L631.032 117.542Z" fill="#F9C1BB"/>
<path d="M631.032 117.542C622.875 105.071 616.695 116.7 622.051 120.929" stroke="black" stroke-width="2.13714" stroke-linecap="round" stroke-linejoin="round"/>
<path d="M722.261 244.399H635.083L625.304 211.442L734.766 213.898L722.261 244.399Z" fill="#1AB995" stroke="black" stroke-width="2.13714" stroke-linecap="round" stroke-linejoin="round"/>
<path d="M691.356 121.075L676.307 144.793L687.563 155.753L703.002 132.704L691.356 121.075Z" fill="#485065" stroke="black" stroke-width="2.13714" stroke-linecap="round" stroke-linejoin="round"/>
<path d="M691.451 122.454L676.968 144.781L686.702 153.492L701.709 133.308L691.451 122.454Z" fill="white" stroke="black" stroke-width="2.13714" stroke-linecap="round" stroke-linejoin="round"/>
<path d="M703.003 132.704L696.486 128.643L678.69 152.759L687.564 155.466L703.003 132.704Z" fill="#485065" stroke="black" stroke-width="2.13714" stroke-linecap="round" stroke-linejoin="round"/>
<path d="M703.003 132.703L696.486 128.929L678.69 153.045L687.564 155.752L703.003 132.703Z" fill="#485065" stroke="black" stroke-width="2.13714" stroke-linecap="round" stroke-linejoin="round"/>
<path d="M741.057 322.192L733.881 319.593C732.782 319.226 732.059 318.176 732.108 317.019L732.806 305.963L715.28 306.393L713.737 326.862C713.702 327.81 714.067 328.729 714.742 329.395C715.417 330.061 716.341 330.414 717.288 330.367L738.777 330.11L741.057 322.192Z" fill="#F9C1BB"/>
<mask id="mask21_216_2265" style="mask-type:luminance" maskUnits="userSpaceOnUse" x="713" y="305" width="29" height="26">
<path fill-rule="evenodd" clip-rule="evenodd" d="M741.057 322.192L733.881 319.593C732.782 319.226 732.059 318.176 732.108 317.019L732.806 305.963L715.28 306.393L713.737 326.862C713.702 327.81 714.067 328.729 714.742 329.395C715.417 330.061 716.341 330.414 717.288 330.367L738.777 330.11L741.057 322.192Z" fill="white"/>
</mask>
<g mask="url(#mask21_216_2265)">
<path d="M709.959 312.492C722.594 314.184 732.205 310.071 732.58 309.556C732.955 309.041 721.257 307.01 721.257 307.01L709.959 312.492Z" fill="#ED707B"/>
</g>
<path fill-rule="evenodd" clip-rule="evenodd" d="M741.057 322.192L733.881 319.593C732.782 319.226 732.059 318.176 732.108 317.019L732.806 305.963L715.28 306.393L713.737 326.862C713.702 327.81 714.067 328.729 714.742 329.395C715.417 330.061 716.341 330.414 717.288 330.367L738.777 330.11L741.057 322.192Z" stroke="black" stroke-width="2.13714" stroke-linecap="round" stroke-linejoin="round"/>
<path d="M791.672 281.754L784.099 283.046C782.934 283.261 781.757 282.733 781.142 281.721L775.517 271.966L760.835 280.896L771.034 299.08C772.072 300.8 774.304 301.359 776.03 300.33L794.184 289.612L791.672 281.754Z" fill="#F9C1BB"/>
<mask id="mask22_216_2265" style="mask-type:luminance" maskUnits="userSpaceOnUse" x="760" y="271" width="35" height="30">
<path fill-rule="evenodd" clip-rule="evenodd" d="M791.672 281.754L784.1 283.047C782.935 283.261 781.758 282.734 781.143 281.721L775.518 271.966L760.836 280.896L771.035 299.08C772.073 300.801 774.305 301.359 776.031 300.33L794.185 289.612L791.672 281.754Z" fill="white"/>
</mask>
<g mask="url(#mask22_216_2265)">
<path d="M756.955 293.52C767.562 290.362 779.142 276.566 779.142 276.566L762.57 278.547L757.223 287.204" fill="#ED707B"/>
</g>
<path fill-rule="evenodd" clip-rule="evenodd" d="M791.672 281.754L784.099 283.046C782.934 283.261 781.757 282.733 781.142 281.721L775.517 271.966L760.835 280.896L771.034 299.08C772.072 300.8 774.304 301.359 776.03 300.33L794.184 289.612L791.672 281.754Z" stroke="black" stroke-width="2.13714" stroke-linecap="round" stroke-linejoin="round"/>
<path d="M771.845 304.958C772.396 305.444 773.202 305.507 773.821 305.112L808.434 282.843C808.761 282.646 808.992 282.324 809.076 281.951C809.16 281.579 809.088 281.189 808.877 280.87C807.71 279.184 805.688 278.303 803.658 278.598L788.676 281.013L790.046 291.242L772.053 302.713C771.67 302.942 771.42 303.339 771.379 303.783C771.338 304.226 771.511 304.663 771.845 304.958Z" fill="#485065" stroke="black" stroke-width="2.13714" stroke-linecap="round" stroke-linejoin="round"/>
<path d="M656.333 160.89L658.574 157.341C661.251 155.124 663.749 152.698 666.043 150.086C667.092 148.315 666.803 140.04 672.143 138.472C677.483 136.904 685.176 133.945 685.176 133.945C685.176 133.945 687.352 137.389 676.395 140.679C677.305 145.147 676.64 149.793 674.512 153.826L660.492 172.255L656.333 160.89Z" fill="#F9C1BB"/>
<mask id="mask23_216_2265" style="mask-type:luminance" maskUnits="userSpaceOnUse" x="656" y="133" width="30" height="40">
<path fill-rule="evenodd" clip-rule="evenodd" d="M656.333 160.89L658.574 157.341C661.251 155.124 663.749 152.698 666.043 150.086C667.092 148.315 666.803 140.04 672.143 138.472C677.483 136.904 685.176 133.945 685.176 133.945C685.176 133.945 687.352 137.389 676.395 140.679C677.305 145.147 676.64 149.793 674.512 153.826L660.492 172.255L656.333 160.89Z" fill="white"/>
</mask>
<g mask="url(#mask23_216_2265)">
<path d="M669.198 162.979C663.018 166.447 661.545 158.145 658.574 157.341C655.602 156.537 660.217 168.264 660.217 168.264L662.771 172.255L667.468 170.99L669.198 162.979Z" fill="#ED707B"/>
</g>
<path fill-rule="evenodd" clip-rule="evenodd" d="M656.333 160.89L658.574 157.341C661.251 155.124 663.749 152.698 666.043 150.086C667.092 148.315 666.803 140.04 672.143 138.472C677.483 136.904 685.176 133.945 685.176 133.945C685.176 133.945 687.352 137.389 676.395 140.679C677.305 145.147 676.64 149.793 674.512 153.826L660.492 172.255L656.333 160.89Z" stroke="black" stroke-width="2.13714" stroke-linecap="round" stroke-linejoin="round"/>
<path d="M658.373 156.68C658.373 156.68 665.877 165.057 665.592 169.722L637.01 207.399L631.873 175.388L658.373 156.68Z" fill="white"/>
<mask id="mask24_216_2265" style="mask-type:luminance" maskUnits="userSpaceOnUse" x="631" y="156" width="35" height="52">
<path fill-rule="evenodd" clip-rule="evenodd" d="M658.374 156.68C658.374 156.68 665.878 165.057 665.593 169.722L637.011 207.399L631.874 175.388L658.374 156.68Z" fill="white"/>
</mask>
<g mask="url(#mask24_216_2265)">
<path d="M650.8 158.506C660.058 162.388 661.212 183.036 661.212 183.036" stroke="#D6DCF2" stroke-width="2.13714" stroke-linecap="round" stroke-linejoin="round"/>
</g>
<path fill-rule="evenodd" clip-rule="evenodd" d="M658.373 156.68C658.373 156.68 665.877 165.057 665.592 169.722L637.01 207.399L631.873 175.388L658.373 156.68Z" stroke="black" stroke-width="2.13714" stroke-linecap="round" stroke-linejoin="round"/>
<path d="M612.404 133.851L611.832 130.214C611.832 130.214 608.793 114.991 630.378 133.645L612.404 133.851Z" fill="white" stroke="black" stroke-width="2.13714" stroke-linecap="round" stroke-linejoin="round"/>
<path d="M753.186 291.554C753.186 291.554 777.448 280.773 779.141 276.566L734.044 192.281C728.625 182.834 717.13 178.745 706.963 182.647L693.377 187.691L753.186 291.554Z" fill="#1AB995"/>
<mask id="mask25_216_2265" style="mask-type:luminance" maskUnits="userSpaceOnUse" x="693" y="181" width="87" height="111">
<path fill-rule="evenodd" clip-rule="evenodd" d="M753.187 291.554C753.187 291.554 777.449 280.773 779.142 276.566L734.045 192.281C728.626 182.834 717.131 178.745 706.964 182.647L693.378 187.691L753.187 291.554Z" fill="white"/>
</mask>
<g mask="url(#mask25_216_2265)">
<path d="M742.114 284.632C751.755 283.889 777.51 267.536 777.51 267.536L782.75 279.29L756.206 298.011L742.114 284.632Z" fill="#1A80FD" stroke="black" stroke-width="2.13714" stroke-linecap="round" stroke-linejoin="round"/>
</g>
<path fill-rule="evenodd" clip-rule="evenodd" d="M753.186 291.554C753.186 291.554 777.448 280.773 779.141 276.566L734.044 192.281C728.625 182.834 717.13 178.745 706.963 182.647L693.377 187.691L753.186 291.554Z" stroke="black" stroke-width="2.13714" stroke-linecap="round" stroke-linejoin="round"/>
<path d="M707.962 234.77L701.289 309.259C701.289 309.259 726.492 311.713 733.639 309.259L742.065 218.816C742.259 215.419 741.048 212.091 738.716 209.613C736.384 207.134 733.136 205.723 729.734 205.71L710.636 204.919" fill="#1AB995"/>
<mask id="mask26_216_2265" style="mask-type:luminance" maskUnits="userSpaceOnUse" x="701" y="204" width="42" height="107">
<path fill-rule="evenodd" clip-rule="evenodd" d="M707.962 234.77L701.289 309.259C701.289 309.259 726.492 311.713 733.639 309.259L742.065 218.816C742.259 215.419 741.048 212.091 738.716 209.613C736.384 207.134 733.136 205.723 729.734 205.71L710.636 204.919" fill="white"/>
</mask>
<g mask="url(#mask26_216_2265)">
<path d="M695.983 298.011C708.096 302.223 738.744 299.746 738.744 299.746V312.877L696.725 313.125" fill="#1A80FD"/>
<path d="M695.983 298.011C708.096 302.223 738.744 299.746 738.744 299.746V312.877L696.725 313.125" stroke="black" stroke-width="2.13714" stroke-linecap="round" stroke-linejoin="round"/>
</g>
<path d="M707.962 234.77L701.289 309.259C701.289 309.259 726.492 311.713 733.639 309.259L742.065 218.816C742.259 215.419 741.048 212.091 738.716 209.613C736.384 207.134 733.136 205.723 729.734 205.71L710.636 204.919" stroke="black" stroke-width="2.13714" stroke-linecap="round" stroke-linejoin="round"/>
<path d="M731.956 204.109L658.78 242.904C653.242 245.823 647.073 247.344 640.812 247.334C621.46 247.334 605.502 233.198 604.518 215.184L604.242 210.128L707.98 181.158C718.507 178.04 729.738 183.042 734.464 192.952L738.744 201.067" fill="#1AB995"/>
<path d="M731.956 204.109L658.78 242.904C653.242 245.823 647.073 247.344 640.812 247.334V247.334C621.46 247.334 605.502 233.198 604.518 215.184L604.242 210.128L707.98 181.158C718.507 178.04 729.738 183.042 734.464 192.952L738.744 201.067" stroke="black" stroke-width="2.13714" stroke-linecap="round" stroke-linejoin="round"/>
<path d="M630.379 133.646L611.833 130.214C579.872 156.68 607.417 208.278 594.499 213.134C594.499 213.134 594.499 232.266 659.514 196.951C659.514 196.95 649.541 147.255 630.379 133.646Z" fill="white"/>
<mask id="mask27_216_2265" style="mask-type:luminance" maskUnits="userSpaceOnUse" x="594" y="130" width="66" height="89">
<path fill-rule="evenodd" clip-rule="evenodd" d="M630.379 133.646L611.833 130.214C579.872 156.68 607.417 208.278 594.499 213.134C594.499 213.134 594.499 232.266 659.514 196.951C659.514 196.95 649.541 147.255 630.379 133.646Z" fill="white"/>
</mask>
<g mask="url(#mask27_216_2265)">
<path d="M620.496 160.034C637.052 194.619 623.753 222.653 594.499 213.133C565.244 203.613 584.621 239.409 584.621 239.409L627.006 245.121L662.221 201.138L631.874 162.607L620.496 160.034Z" fill="#D6DCF2"/>
<path d="M595.786 207.399C602.967 218.295 646.852 198.23 646.852 198.23L652.641 207.399L596.28 227.921L592.325 211.444L596.28 204.921" fill="white"/>
<path d="M595.786 207.399C602.967 218.295 646.852 198.23 646.852 198.23L652.641 207.399L596.28 227.921L592.325 211.444L596.28 204.921" stroke="black" stroke-width="2.13714" stroke-linecap="round" stroke-linejoin="round"/>
</g>
<path fill-rule="evenodd" clip-rule="evenodd" d="M630.379 133.646L611.833 130.214C579.872 156.68 607.417 208.278 594.499 213.134C594.499 213.134 594.499 232.266 659.514 196.951C659.514 196.95 649.541 147.255 630.379 133.646Z" stroke="black" stroke-width="2.13714" stroke-linecap="round" stroke-linejoin="round"/>
<path d="M669.997 173.048L681.285 157.192L689.558 141.652C692.409 140.503 690.446 146.687 689.745 148.708C689.745 148.708 696.263 139.237 696.683 138.523C696.683 138.523 700.87 136.499 696.009 149.819C694.362 153.713 691.638 157.055 688.156 159.452L681.285 178.598L669.997 173.048Z" fill="#F9C1BB"/>
<mask id="mask28_216_2265" style="mask-type:luminance" maskUnits="userSpaceOnUse" x="669" y="138" width="30" height="41">
<path fill-rule="evenodd" clip-rule="evenodd" d="M669.997 173.048L681.285 157.192L689.558 141.652C692.409 140.503 690.446 146.687 689.745 148.708C689.745 148.708 696.263 139.237 696.683 138.523C696.683 138.523 700.87 136.499 696.009 149.819C694.362 153.713 691.638 157.055 688.156 159.452L681.285 178.598L669.997 173.048Z" fill="white"/>
</mask>
<g mask="url(#mask28_216_2265)">
<path d="M687.47 168.182C682.712 170.659 679.894 163.775 673.624 167.954C670.887 169.779 678.097 174.26 678.097 174.26H686.09L688.068 169.173" fill="#ED707B"/>
</g>
<path fill-rule="evenodd" clip-rule="evenodd" d="M669.997 173.048L681.285 157.192L689.558 141.652C692.409 140.503 690.446 146.687 689.745 148.708C689.745 148.708 696.263 139.237 696.683 138.523C696.683 138.523 700.87 136.499 696.009 149.819C694.362 153.713 691.638 157.055 688.156 159.452L681.285 178.598L669.997 173.048Z" stroke="black" stroke-width="2.13714" stroke-linecap="round" stroke-linejoin="round"/>
<path d="M640.033 144.315L660.511 181.686L672.59 167.895C672.59 167.895 684.278 168.265 687.455 172.652C687.974 173.369 674.093 198.579 674.093 198.579C671.811 202.703 667.892 205.669 663.304 206.745C655.101 208.886 646.285 205.614 642.572 199.051L620.495 160.033" fill="white"/>
<mask id="mask29_216_2265" style="mask-type:luminance" maskUnits="userSpaceOnUse" x="620" y="144" width="68" height="64">
<path fill-rule="evenodd" clip-rule="evenodd" d="M640.033 144.315L660.511 181.686L672.59 167.895C672.59 167.895 684.278 168.265 687.455 172.652C687.974 173.369 674.093 198.579 674.093 198.579C671.811 202.703 667.892 205.669 663.304 206.745C655.101 208.886 646.285 205.614 642.572 199.051L620.495 160.033" fill="white"/>
</mask>
<g mask="url(#mask29_216_2265)">
<path d="M667.243 174C675.648 171.566 688.401 181.227 688.401 181.227" stroke="#D6DCF2" stroke-width="2.13714" stroke-linecap="round" stroke-linejoin="round"/>
<ellipse cx="658.357" cy="207.15" rx="13.1338" ry="4.29244" fill="#FDD504" stroke="black" stroke-width="2.13714" stroke-linecap="round" stroke-linejoin="round"/>
</g>
<path d="M640.033 144.315L660.511 181.686L672.59 167.895C672.59 167.895 684.278 168.265 687.455 172.652C687.974 173.369 674.093 198.579 674.093 198.579C671.811 202.703 667.892 205.669 663.304 206.745V206.745C655.101 208.886 646.285 205.614 642.572 199.051L620.495 160.033" stroke="black" stroke-width="2.13714" stroke-linecap="round" stroke-linejoin="round"/>
<rect x="607.965" y="242.377" width="77.573" height="92.0365" fill="#FDD504"/>
<mask id="mask30_216_2265" style="mask-type:luminance" maskUnits="userSpaceOnUse" x="607" y="242" width="79" height="93">
<rect x="607.963" y="242.376" width="77.573" height="92.0365" fill="white"/>
</mask>
<g mask="url(#mask30_216_2265)">
<path d="M587.943 277.504C598.111 274.497 608.834 273.859 619.287 275.637C624.256 276.202 629.051 277.804 633.362 280.339C637.248 283.165 639.527 287.697 639.476 292.502C639.815 302.44 633.682 311.058 632.586 320.764C631.964 325.063 632.657 329.45 634.572 333.349C636.667 336.955 639.867 339.792 643.698 341.44C653.627 346.127 665.616 347.088 676.356 346.4C678.046 346.291 678.058 343.523 676.356 343.632C666.183 344.284 655.008 343.458 645.517 339.264C640.834 337.53 637.207 333.739 635.681 328.983C634.633 324.157 634.968 319.132 636.647 314.487C639.293 305.757 643.919 296.892 641.416 287.489C638.858 277.881 629.613 274.803 621.185 273.187C609.9 271.033 598.264 271.598 587.241 274.834C585.605 275.313 586.301 277.984 587.944 277.503L587.943 277.504Z" fill="#FCB006"/>
<path d="M651.104 227.128C646.445 232.388 643.044 238.639 641.158 245.408C640.052 248.787 639.812 252.389 640.461 255.884C641.294 258.847 643.061 261.462 645.499 263.34C651.199 267.631 657.797 270.574 664.798 271.949C672.371 273.599 680.1 274.426 687.85 274.417C697.363 274.567 706.876 274.095 716.386 274.512C718.087 274.587 718.083 271.819 716.386 271.745C701.823 271.106 687.151 272.627 672.654 270.608C665.854 269.786 659.236 267.853 653.062 264.888C650.128 263.576 647.478 261.703 645.261 259.375C643.022 256.596 642.176 252.946 642.965 249.465C644.35 241.876 647.815 234.821 652.974 229.086C654.12 227.774 652.256 225.811 651.105 227.129L651.104 227.128Z" fill="#FCB006"/>
<path d="M687.082 277.198C680.525 331.522 681.891 336.415 646.75 334.413C621.851 332.994 668.295 355.028 668.295 355.028L693.374 330.9L687.082 277.198Z" fill="#FCB006"/>
</g>
<rect x="607.965" y="242.377" width="77.573" height="92.0365" stroke="black" stroke-width="2.13714" stroke-linecap="round" stroke-linejoin="round"/>
<path d="M595.066 207.309L608.188 203.945L606.703 198.126L593.581 201.49L595.066 207.309Z" fill="white" stroke="black" stroke-width="2.13714" stroke-linecap="round" stroke-linejoin="round"/>
<circle cx="597.627" cy="203.553" r="0.751631" fill="#2F387E" stroke="black" stroke-width="2.13714" stroke-linecap="round" stroke-linejoin="round"/>
<path d="M631.232 98.2605C630.436 100.526 629.157 102.592 627.485 104.315" stroke="black" stroke-width="2.13714" stroke-linecap="round" stroke-linejoin="round"/>
<path d="M661.175 182.069L660.169 185.532" stroke="black" stroke-width="2.13714" stroke-linecap="round" stroke-linejoin="round"/>
<path d="M612.025 180.645C613.252 182.034 615.197 182.542 616.947 181.931" stroke="black" stroke-width="2.13714" stroke-linecap="round" stroke-linejoin="round"/>
<path d="M754.055 253.65C753.053 255.625 751.722 257.415 750.118 258.944" stroke="black" stroke-width="2.13714" stroke-linecap="round" stroke-linejoin="round"/>
</g>
<rect x="1.57324" y="2" width="801.427" height="313.892" stroke="black" stroke-width="2.13714" stroke-linecap="round" stroke-linejoin="round"/>
<defs>
<linearGradient id="paint0_linear_216_2265" x1="481.374" y1="86.5332" x2="483.341" y2="87.1451" gradientUnits="userSpaceOnUse">
<stop offset="0.0048" stop-color="#9461E2"/>
<stop offset="0.9986" stop-color="#6D26E2"/>
</linearGradient>
</defs>
</svg>
