<svg width="49" height="50" viewBox="0 0 49 50" fill="none" xmlns="http://www.w3.org/2000/svg">
<path d="M43.1667 24.1633H39.6667V14.83C39.6667 12.2517 37.5783 10.1634 35 10.1634H25.6667V6.66335C25.6667 3.44335 23.0533 0.830017 19.8333 0.830017C16.6133 0.830017 14 3.44335 14 6.66335V10.1634H4.66667C2.08833 10.1634 0.0233333 12.2517 0.0233333 14.83L0.0116669 23.6967H3.5C6.97667 23.6967 9.8 26.52 9.8 29.9967C9.8 33.4734 6.97667 36.2967 3.5 36.2967H0.0116669L0 45.1633C0 47.7417 2.08833 49.83 4.66667 49.83H13.5333V46.33C13.5333 42.8533 16.3567 40.03 19.8333 40.03C23.31 40.03 26.1333 42.8533 26.1333 46.33V49.83H35C37.5783 49.83 39.6667 47.7417 39.6667 45.1633V35.83H43.1667C46.3867 35.83 49 33.2167 49 29.9967C49 26.7767 46.3867 24.1633 43.1667 24.1633Z" fill="#1A80FD"/>
</svg>
