<svg width="64" height="50" viewBox="0 0 64 50" fill="none" xmlns="http://www.w3.org/2000/svg">
<path d="M57.7727 2.27449C54.6084 1.26567 51.1005 0.833313 47.75 0.833313C42.1659 0.833313 36.1523 1.98625 32 5.15684C27.8477 1.98625 21.8341 0.833313 16.25 0.833313C10.6659 0.833313 4.65227 1.98625 0.5 5.15684V47.3833C0.5 48.1039 1.21591 48.8245 1.93182 48.8245C2.21818 48.8245 2.36136 48.6804 2.64773 48.6804C6.51364 46.8068 12.0977 45.5098 16.25 45.5098C21.8341 45.5098 27.8477 46.6627 32 49.8333C35.8659 47.3833 42.8818 45.5098 47.75 45.5098C52.475 45.5098 57.3432 46.3745 61.3523 48.5363C61.6386 48.6804 61.7818 48.6804 62.0682 48.6804C62.7841 48.6804 63.5 47.9598 63.5 47.2392V5.15684C61.7818 3.85978 59.9205 2.99508 57.7727 2.27449ZM57.7727 41.1863C54.6227 40.1774 51.1864 39.7451 47.75 39.7451C42.8818 39.7451 35.8659 41.6186 32 44.0686V10.9215C35.8659 8.47155 42.8818 6.59802 47.75 6.59802C51.1864 6.59802 54.6227 7.03037 57.7727 8.0392V41.1863Z" fill="#1A80FD"/>
</svg>
