<svg width="66" height="50" viewBox="0 0 66 50" fill="none" xmlns="http://www.w3.org/2000/svg">
<path d="M54.7765 0.833374H11.2209C5.23203 0.833374 0.332031 5.73337 0.332031 11.7223V38.9445C0.332031 44.9334 5.23203 49.8334 11.2209 49.8334H54.7765C60.7654 49.8334 65.6654 44.9334 65.6654 38.9445V11.7223C65.6654 5.73337 60.7654 0.833374 54.7765 0.833374ZM59.132 16.6223L37.6265 31.05C36.2654 31.8667 34.632 32.4112 32.9987 32.4112C31.3654 32.4112 29.732 31.8667 28.3709 31.05L6.86536 16.6223C5.77647 15.8056 5.50425 14.1723 6.32092 12.8112C7.13759 11.7223 8.77092 11.45 10.132 12.2667L31.6376 26.6945C32.4542 27.2389 33.8154 27.2389 34.632 26.6945L56.1376 12.2667C57.4987 11.45 59.132 11.7223 59.9487 13.0834C60.4931 14.1723 60.2209 15.8056 59.132 16.6223Z" fill="#1A80FD"/>
</svg>
