<svg width="49" height="50" viewBox="0 0 49 50" fill="none" xmlns="http://www.w3.org/2000/svg">
<path d="M42.8404 27.7221C42.9388 26.9381 43.0125 26.1418 43.0125 25.3333C43.0125 24.5248 42.9388 23.7286 42.8404 22.9446L48.0394 18.8898C48.5064 18.5223 48.6416 17.8608 48.3344 17.3218L43.4181 8.83256C43.1108 8.30581 42.4717 8.08531 41.9186 8.30581L35.7979 10.7681C34.532 9.80031 33.1431 8.97956 31.6437 8.35481L30.7219 1.86231C30.6112 1.28656 30.1073 0.833313 29.4928 0.833313H19.6603C19.0457 0.833313 18.5418 1.28656 18.4435 1.86231L17.5217 8.35481C16.0222 8.97956 14.6334 9.78806 13.3675 10.7681L7.24673 8.30581C6.69365 8.09756 6.05454 8.30581 5.74727 8.83256L0.831011 17.3218C0.523745 17.8486 0.658942 18.5101 1.12599 18.8898L6.31264 22.9446C6.21431 23.7286 6.14057 24.5248 6.14057 25.3333C6.14057 26.1418 6.21431 26.9381 6.31264 27.7221L1.12599 31.7768C0.658942 32.1443 0.523745 32.8058 0.831011 33.3448L5.74727 41.8341C6.05454 42.3608 6.69365 42.5813 7.24673 42.3608L13.3675 39.8986C14.6334 40.8663 16.0222 41.6871 17.5217 42.3118L18.4435 48.8043C18.5418 49.3801 19.0457 49.8333 19.6603 49.8333H29.4928C30.1073 49.8333 30.6112 49.3801 30.7096 48.8043L31.6314 42.3118C33.1308 41.6871 34.5197 40.8786 35.7856 39.8986L41.9063 42.3608C42.4594 42.5691 43.0985 42.3608 43.4058 41.8341L48.3221 33.3448C48.6293 32.8181 48.4941 32.1566 48.0271 31.7768L42.8404 27.7221ZM24.5765 33.9083C19.8201 33.9083 15.9731 30.0741 15.9731 25.3333C15.9731 20.5926 19.8201 16.7583 24.5765 16.7583C29.333 16.7583 33.18 20.5926 33.18 25.3333C33.18 30.0741 29.333 33.9083 24.5765 33.9083Z" fill="#1A80FD"/>
</svg>
