<svg width="70" height="50" viewBox="0 0 70 50" fill="none" xmlns="http://www.w3.org/2000/svg">
<path d="M50.75 25.3333C55.58 25.3333 59.465 21.4133 59.465 16.5833C59.465 11.7533 55.58 7.83334 50.75 7.83334C45.92 7.83334 42 11.7533 42 16.5833C42 21.4133 45.92 25.3333 50.75 25.3333ZM24.5 21.8333C30.2925 21.8333 34.965 17.1258 34.965 11.3333C34.965 5.54084 30.2925 0.833344 24.5 0.833344C18.7075 0.833344 14 5.54084 14 11.3333C14 17.1258 18.7075 21.8333 24.5 21.8333ZM50.75 32.3333C44.3275 32.3333 31.5 35.5533 31.5 41.9583V49.8333H70V41.9583C70 35.5533 57.1725 32.3333 50.75 32.3333ZM24.5 28.8333C16.3275 28.8333 0 32.9283 0 41.0833V49.8333H24.5V41.9583C24.5 38.9833 25.6725 33.7858 32.795 29.8133C29.75 29.1658 26.7925 28.8333 24.5 28.8333Z" fill="#1A80FD"/>
</svg>
