<svg width="120" height="120" viewBox="0 0 120 120" fill="none" xmlns="http://www.w3.org/2000/svg">
  <path
    d="M48.4876 55.9125C48.8251 55.5375 49.0501 55.05 49.0126 54.5625L48.9751 53.1V53.0625C48.9751 52.2 48.8251 47.775 48.3751 44.925C48.0376 42.9375 46.7626 41.2125 44.9251 40.3125C43.2751 39.4875 40.7626 38.5125 38.7376 37.8C39.0376 37.3125 39.3001 36.825 39.5251 36.3C40.6876 35.7375 41.6251 34.7625 42.1126 33.6375C42.5626 32.8125 42.7876 31.875 42.7876 30.9375C42.7876 30.3375 42.6751 29.7 42.4876 29.1375C42.3751 28.65 42.1501 28.1625 41.8501 27.75C42.0751 25.1625 41.3251 22.5375 39.7126 20.475C37.6876 17.8875 34.6126 16.3875 31.1626 16.3125H30.3751C27.0001 16.3875 23.9251 17.925 21.9001 20.475C20.3626 22.4625 19.6126 25.0875 19.8376 27.7125C19.5376 28.125 19.3501 28.6125 19.2001 29.1C19.0126 29.6625 18.9001 30.3 18.9001 30.9C18.9001 31.8375 19.1251 32.775 19.5001 33.4875C20.0251 34.725 20.9626 35.7 22.1251 36.2625C22.3501 36.7875 22.6126 37.3125 22.9126 37.7625C20.8126 38.5125 18.3376 39.4875 16.7251 40.275C14.9251 41.175 13.6126 42.9 13.2751 44.8875C12.7876 47.775 12.6751 52.2 12.6376 53.0625L12.6001 54.525C12.6001 55.05 12.7876 55.5375 13.1251 55.875C13.4626 56.25 13.9501 56.4375 14.4751 56.4375H47.0626C47.6626 56.475 48.1501 56.2875 48.4876 55.9125ZM16.5001 52.6875C16.5376 51.375 16.6876 47.8125 17.0626 45.5625C17.2126 44.7375 17.7376 44.0625 18.4501 43.6875C20.6251 42.6 24.8251 41.1 26.5501 40.5C27.3001 40.2375 27.8251 39.525 27.8251 38.7V38.3625C27.8251 37.8 27.6001 37.3125 27.1876 36.9375C26.4001 36.2625 25.8376 35.325 25.5376 34.275C25.3501 33.6375 24.8626 33.15 24.2251 32.9625C23.7001 32.8125 23.2501 32.4375 22.9501 31.8C22.8001 31.5 22.7251 31.1625 22.7251 30.825C22.7251 30.6 22.7626 30.4125 22.8376 30.1875C22.8751 30.1125 22.8751 30.075 22.8751 30C22.9126 29.85 22.9876 29.7 23.1001 29.625C23.5876 29.175 23.8126 28.5375 23.7001 27.8625C23.3626 26.025 23.8126 24.1125 24.9751 22.65C26.2876 20.9625 28.3126 19.9875 30.4876 19.9125H31.1626C33.4126 19.95 35.4376 20.9625 36.7501 22.65C37.8751 24.1125 38.3626 26.025 38.0251 27.8625C37.9126 28.5 38.1376 29.175 38.6251 29.625C38.7376 29.7375 38.8126 29.85 38.8501 30C38.8501 30.075 38.8876 30.15 38.9251 30.225C39.0001 30.4125 39.0376 30.6375 39.0376 30.825C39.0376 31.1625 38.9626 31.5 38.7376 31.9125C38.5126 32.4375 38.0626 32.8125 37.5376 32.9625C36.9001 33.15 36.4126 33.6375 36.2251 34.275C35.9251 35.325 35.3626 36.225 34.5376 36.9375C34.1251 37.3125 33.9001 37.8 33.9001 38.3625V38.7C33.9001 39.4875 34.4251 40.2375 35.1751 40.5C36.4876 40.95 40.9876 42.525 43.2751 43.6875C43.9876 44.0625 44.5126 44.7375 44.6626 45.5625C45.0001 47.4375 45.1501 50.475 45.2251 52.6875H16.5001Z"
    fill="currentcolor" />
  <path
    d="M107.4 53.1C107.4 53.0625 107.4 53.1 107.4 53.1C107.363 52.2 107.25 47.775 106.763 44.925C106.425 42.9375 105.15 41.2125 103.313 40.3125C101.663 39.4875 99.1501 38.5125 97.1251 37.8C97.4251 37.3125 97.6876 36.825 97.9126 36.3C99.0751 35.7375 100.013 34.7625 100.5 33.6375C100.95 32.8125 101.175 31.875 101.175 30.9375C101.175 30.3375 101.063 29.7 100.875 29.1375C100.763 28.65 100.538 28.1625 100.238 27.75C100.463 25.1625 99.7126 22.5375 98.1001 20.475C96.0751 17.8875 93.0001 16.3875 89.5501 16.3125H88.7626C85.3876 16.3875 82.3126 17.925 80.2876 20.475C78.6751 22.5375 77.9251 25.1625 78.1501 27.7875C77.8501 28.2 77.6626 28.65 77.5126 29.175C77.3251 29.7375 77.2126 30.375 77.2126 30.975C77.2126 31.9125 77.4376 32.85 77.8126 33.5625C78.3376 34.8 79.2751 35.775 80.4376 36.3375C80.6626 36.8625 80.9251 37.3875 81.2251 37.8375C79.1251 38.5875 76.6501 39.5625 75.0376 40.35C73.2376 41.25 71.9251 42.975 71.5876 44.9625C71.1001 47.85 70.9876 52.275 70.9501 53.1375L70.9126 54.6C70.9126 55.125 71.1001 55.6125 71.4376 55.95C71.7751 56.325 72.2626 56.5125 72.7876 56.5125H105.375C105.9 56.5125 106.35 56.325 106.725 55.95C107.063 55.575 107.288 55.0875 107.25 54.6L107.4 53.1ZM74.8501 52.6875C74.8876 51.375 75.0376 47.85 75.4126 45.5625C75.5626 44.7375 76.0876 44.0625 76.8001 43.6875C78.9751 42.6 83.1751 41.1 84.9001 40.5C85.6501 40.2375 86.1751 39.525 86.1751 38.7V38.3625C86.1751 37.8 85.9501 37.3125 85.5376 36.9375C84.7501 36.2625 84.1501 35.325 83.8876 34.275C83.7001 33.6375 83.2126 33.15 82.5751 32.9625C82.0501 32.8125 81.6001 32.4375 81.3001 31.8C81.1501 31.5 81.0751 31.1625 81.0751 30.825C81.0751 30.6 81.1126 30.4125 81.1876 30.1875C81.2251 30.1125 81.2251 30.075 81.2626 30C81.3001 29.85 81.3751 29.7375 81.4876 29.625C81.9751 29.175 82.2001 28.5375 82.0876 27.8625C81.7501 26.025 82.2001 24.1125 83.3626 22.65C84.6751 20.9625 86.7001 19.9875 88.8751 19.9125H89.5501C91.8001 19.95 93.8251 20.9625 95.1376 22.65C96.2626 24.1125 96.7501 26.025 96.4126 27.8625C96.3001 28.5 96.5251 29.175 97.0126 29.625C97.1251 29.7375 97.2001 29.85 97.2376 30C97.2376 30.075 97.2751 30.15 97.3126 30.225C97.3876 30.4125 97.4251 30.6375 97.4251 30.825C97.4251 31.1625 97.3501 31.5 97.1251 31.9125C96.9001 32.4375 96.4501 32.8125 95.9251 32.9625C95.2876 33.15 94.8001 33.6375 94.6126 34.275C94.3126 35.325 93.7501 36.225 92.9251 36.9375C92.5126 37.3125 92.2876 37.8 92.2876 38.3625V38.7C92.2876 39.4875 92.8126 40.2375 93.5626 40.5C94.8751 40.95 99.3751 42.525 101.663 43.6875C102.375 44.0625 102.9 44.7375 103.05 45.5625C103.388 47.4375 103.538 50.475 103.613 52.6875H74.8501Z"
    fill="currentcolor" />
  <path
    d="M77.5878 92.1375C77.2503 90.15 75.9378 88.425 74.1378 87.525C72.5253 86.7375 70.0503 85.7625 67.9503 85.0125C68.2503 84.525 68.5128 84.0375 68.7378 83.5125C69.9003 82.9125 70.8378 81.975 71.3253 80.85C71.7753 80.025 72.0003 79.0875 72.0003 78.15C72.0003 77.5125 71.8878 76.9125 71.7003 76.3125C71.5878 75.825 71.3628 75.375 71.0628 74.9625C71.2878 72.375 70.5378 69.75 68.9253 67.65C66.9003 65.0625 63.8253 63.5625 60.3753 63.4875H59.5878C56.2128 63.5625 53.1378 65.1 51.1128 67.65C49.5003 69.7125 48.7503 72.3375 48.9753 74.9625C48.6753 75.375 48.4878 75.825 48.3378 76.35C48.1503 76.95 48.0378 77.55 48.0378 78.15C48.0378 79.0875 48.2628 80.025 48.6378 80.7375C49.1628 81.975 50.1003 82.95 51.2628 83.5125C51.4878 84.0375 51.7503 84.5625 52.0503 85.0125C49.9503 85.7625 47.4753 86.7375 45.8628 87.525C44.0628 88.425 42.7878 90.15 42.4128 92.1375C41.9253 95.025 41.8128 99.4125 41.7753 100.312L41.7378 101.775C41.7378 102.3 41.9253 102.787 42.2628 103.125C42.6003 103.5 43.0878 103.687 43.6128 103.687H76.2003C76.7253 103.687 77.1753 103.5 77.5503 103.125C77.8878 102.75 78.1128 102.262 78.0753 101.775L78.0378 100.275C78.1878 99.45 78.0753 95.025 77.5878 92.1375ZM45.6753 99.9375C45.7128 98.625 45.8628 95.0625 46.2378 92.8125C46.3878 91.9875 46.9128 91.3125 47.6253 90.9375C49.8003 89.85 54.0003 88.35 55.7253 87.75C56.4753 87.4875 57.0003 86.775 57.0003 85.95V85.6125C57.0003 85.05 56.7753 84.5625 56.3628 84.1875C55.5753 83.5125 54.9753 82.575 54.7128 81.525C54.5253 80.8875 54.0378 80.4 53.4003 80.2125C52.8753 80.0625 52.4253 79.6875 52.1253 79.05C51.9753 78.75 51.9003 78.4125 51.9003 78.075C51.9003 77.85 51.9378 77.6625 52.0128 77.4375C52.0503 77.3625 52.0503 77.325 52.0503 77.25C52.0878 77.1 52.1628 76.95 52.2753 76.875C52.7628 76.425 52.9878 75.7875 52.8753 75.1125C52.5378 73.275 52.9878 71.3625 54.1503 69.9C55.4628 68.2125 57.4878 67.2375 59.6628 67.1625H60.3378C62.5878 67.2 64.6128 68.2125 65.9253 69.9C67.0878 71.3625 67.5378 73.275 67.2003 75.1125C67.0878 75.75 67.3128 76.425 67.8003 76.875C67.9128 76.9875 67.9878 77.1 68.0253 77.25C68.0253 77.325 68.0628 77.4 68.1003 77.475C68.1753 77.6625 68.2128 77.8875 68.2128 78.075C68.2128 78.4125 68.1378 78.75 67.9128 79.1625C67.6878 79.6875 67.2378 80.0625 66.7128 80.2125C66.0753 80.4 65.5878 80.8875 65.4003 81.525C65.1003 82.575 64.5378 83.475 63.7128 84.1875C63.3003 84.5625 63.0753 85.05 63.0753 85.6125V85.95C63.0753 86.7375 63.6003 87.4875 64.3503 87.75C66.0378 88.35 70.2753 89.85 72.4503 90.9375C73.2003 91.3125 73.6878 91.9875 73.8378 92.8125C74.1753 94.6875 74.3253 97.725 74.4003 99.9375H45.6753Z"
    fill="currentcolor" />
  <path
    d="M92.5124 61.3125C91.4999 61.2 90.5624 61.95 90.4499 63C89.6624 70.875 85.9124 78.0375 79.9124 83.1375C79.1249 83.8125 79.0124 85.0125 79.6874 85.8C80.0624 86.25 80.5874 86.475 81.1124 86.475C81.5624 86.475 81.9749 86.325 82.3499 86.025C89.1374 80.25 93.3374 72.225 94.1999 63.375C94.2749 62.325 93.5249 61.3875 92.5124 61.3125Z"
    fill="currentcolor" />
  <path
    d="M29.6625 63C29.55 61.95 28.6125 61.2 27.6 61.3125C26.55 61.425 25.8 62.325 25.9125 63.375C26.775 72.225 31.0125 80.2875 37.7625 86.025C38.1 86.325 38.55 86.475 39 86.475C39.525 86.475 40.05 86.25 40.425 85.8C41.1 85.0125 40.9875 83.8125 40.2 83.1375C34.2 78.0375 30.45 70.875 29.6625 63Z"
    fill="currentcolor" />
  <path
    d="M49.3877 31.2375C49.6127 31.2375 49.8002 31.2 50.0252 31.125C56.4002 28.875 63.6752 28.875 70.0502 31.125C71.0252 31.4625 72.1127 30.975 72.4502 29.9625C72.7877 28.9875 72.3002 27.9 71.2877 27.5625C64.0877 25.0125 55.9127 25.0125 48.7502 27.5625C47.7752 27.9 47.2502 28.9875 47.5877 29.9625C47.8877 30.75 48.6377 31.2375 49.3877 31.2375Z"
    fill="currentcolor" />
</svg>

