<svg width="42" height="42" viewBox="0 0 42 42" fill="none" xmlns="http://www.w3.org/2000/svg">
<path d="M39.2792 12.1395V18.6279C38.9304 18.6279 38.5118 18.6976 38.0932 18.6976C34.9536 18.6976 32.0234 17.5116 29.7908 15.6278V29.4418C29.7908 32.2325 28.8839 34.8837 27.2792 36.9767C25.0466 39.9767 21.4187 41.9999 17.3025 41.9999C12.8373 41.9999 8.93037 39.6278 6.76758 36.1395C9.00014 38.2325 12.0001 39.5581 15.2792 39.5581C19.3257 39.5581 22.9536 37.6046 25.1862 34.5348C26.7211 32.4418 27.6978 29.8604 27.6978 26.9999V13.1162C29.9304 15.0697 32.7908 16.186 36.0001 16.186C36.4187 16.186 36.7676 16.186 37.1862 16.1162V11.9302C37.8141 12.0697 38.3722 12.1395 39.0001 12.1395H39.2792V12.1395Z" fill="#FF004F"/>
<path d="M19.0468 16.9536V24.1396C18.5584 24.0001 18.0002 23.9303 17.5119 23.9303C14.4421 23.9303 11.9305 26.5117 11.9305 29.6512C11.9305 30.3489 12.07 30.9768 12.2793 31.6047C10.884 30.5582 9.90723 28.8838 9.90723 27.0001C9.90723 23.8605 12.4189 21.2791 15.4886 21.2791C16.0468 21.2791 16.5351 21.3489 17.0235 21.4884V16.8838C17.163 16.8838 17.3026 16.8838 17.4421 16.8838C18.0003 16.8838 18.5584 16.8838 19.0468 16.9536Z" fill="#FF004F"/>
<path d="M30.8377 6.97676C29.5819 5.86048 28.6749 4.3256 28.1865 2.72095H29.8609C29.8609 3.06978 29.8609 3.34885 29.8609 3.69769C30.0005 4.81397 30.3493 5.93025 30.8377 6.97676Z" fill="#FF004F"/>
<path d="M37.2555 12V16.1861C36.9066 16.2558 36.488 16.2558 36.0694 16.2558C32.9299 16.2558 29.9996 15.0698 27.7671 13.1861V27C27.7671 29.7907 26.8601 32.4419 25.2555 34.5349C22.9531 37.6047 19.395 39.5582 15.3485 39.5582C12.0694 39.5582 9.0694 38.2326 6.83685 36.1395C5.6508 34.1861 4.95312 31.9535 4.95312 29.5116C4.95312 22.7442 10.3252 17.2326 17.0229 17.0233V21.6279C16.5345 21.4884 15.9764 21.4186 15.488 21.4186C12.4182 21.4186 9.90661 24 9.90661 27.1396C9.90661 29.0233 10.8136 30.7675 12.2787 31.7442C13.0461 33.907 15.1392 35.5116 17.5113 35.5116C20.581 35.5116 23.0927 32.9302 23.0927 29.7907V2.72095H28.1857C28.6741 4.39537 29.581 5.86048 30.8368 6.97676C32.0927 9.48839 34.4648 11.3721 37.2555 12Z" fill="black"/>
<path d="M17.0233 14.5116V16.8837C10.3256 17.093 4.95349 22.6046 4.95349 29.3721C4.95349 31.8139 5.65116 34.0465 6.83721 36C4.46512 33.6976 3 30.4883 3 26.8604C3 19.9535 8.58139 14.3721 15.4186 14.3721C15.9767 14.3721 16.5349 14.4418 17.0233 14.5116Z" fill="#00F7EF"/>
<path d="M28.1863 2.72093H23.0932V29.6512C23.0932 32.7907 20.5816 35.3721 17.5119 35.3721C15.07 35.3721 13.0467 33.8372 12.2793 31.6046C13.1863 32.2326 14.3026 32.6512 15.4886 32.6512C18.5584 32.6512 21.07 30.1395 21.07 27V0H27.8374V0.139535C27.8374 0.418605 27.8374 0.697674 27.9072 0.976744C27.9072 1.53488 28.0467 2.16279 28.1863 2.72093Z" fill="#00F7EF"/>
<path d="M37.2559 9.41854V11.9302C34.4653 11.372 32.0932 9.48831 30.7676 6.97668C32.5118 8.58134 34.7443 9.48831 37.2559 9.41854Z" fill="#00F7EF"/>
</svg>
