<svg width="47" height="50" viewBox="0 0 47 50" fill="none" xmlns="http://www.w3.org/2000/svg">
<path d="M15.9335 43.5543H30.8896C30.2862 47.1181 27.1679 49.8333 23.4115 49.8333C19.6552 49.8333 16.5368 47.1181 15.9335 43.5543ZM23.4115 0.833313C33.882 0.833313 42.3702 9.27206 42.3702 19.6818V29.7305L45.9554 37.6723C46.0942 37.9796 46.166 38.3129 46.166 38.6499C46.166 39.9685 45.0909 41.0374 43.7646 41.0374H3.06805C2.72985 41.0374 2.3955 40.9665 2.08682 40.829C0.876322 40.2902 0.334306 38.8778 0.876221 37.6743L4.45284 29.7315L4.4531 19.6493L4.46427 19.0212C4.81581 8.89152 13.1887 0.833313 23.4115 0.833313Z" fill="#1A80FD"/>
</svg>
