<svg width="52" height="50" viewBox="0 0 52 50" fill="none" xmlns="http://www.w3.org/2000/svg">
<path d="M48.9656 41.6667V44.3889C48.9656 47.397 46.5475 49.8334 43.5621 49.8334H5.73749C2.75205 49.8334 0.333984 47.397 0.333984 44.3889V6.27782C0.333984 3.26976 2.75205 0.833374 5.73749 0.833374H43.5621C46.5475 0.833374 48.9656 3.26976 48.9656 6.27782V9.00004H24.6498C21.6643 9.00004 19.2463 11.4364 19.2463 14.4445V36.2223C19.2463 39.2303 21.6643 41.6667 24.6498 41.6667H48.9656ZM24.6498 36.2223H51.6673V14.4445H24.6498V36.2223ZM35.4568 29.4167C33.2143 29.4167 31.4042 27.5928 31.4042 25.3334C31.4042 23.0739 33.2143 21.25 35.4568 21.25C37.6992 21.25 39.5094 23.0739 39.5094 25.3334C39.5094 27.5928 37.6992 29.4167 35.4568 29.4167Z" fill="#1A80FD"/>
</svg>
