<svg width="805" height="317" viewBox="0 0 805 317" fill="none" xmlns="http://www.w3.org/2000/svg">
<rect x="2" y="1.78418" width="801.427" height="313.892" fill="white"/>
<mask id="mask0_216_1604" style="mask-type:luminance" maskUnits="userSpaceOnUse" x="2" y="1" width="802" height="315">
<rect x="2" y="1.78418" width="801.427" height="313.892" fill="white"/>
</mask>
<g mask="url(#mask0_216_1604)">
<mask id="mask1_216_1604" style="mask-type:luminance" maskUnits="userSpaceOnUse" x="2" y="-12" width="802" height="342">
<rect x="2" y="-11.573" width="801.427" height="340.606" fill="white"/>
</mask>
<g mask="url(#mask1_216_1604)">
<rect x="1.99902" y="-11.573" width="801.427" height="340.606" fill="white"/>
<rect x="-12.3594" y="-20.8562" width="825.336" height="355.566" fill="#189594"/>
<path d="M92.7794 84.2011C92.5969 79.1452 91.351 74.1845 89.1229 69.6424C81.6508 54.5059 64.6226 46.6431 48.2548 50.7716C31.8871 54.9001 20.6252 69.8985 21.2261 86.7682C21.4085 91.8241 22.6544 96.7848 24.8825 101.327C36.6204 100.748 48.2648 98.9354 59.6232 95.9188C71.0556 93.1866 82.1689 89.2591 92.7794 84.2011Z" fill="#1B80FD"/>
<mask id="mask2_216_1604" style="mask-type:luminance" maskUnits="userSpaceOnUse" x="21" y="49" width="72" height="53">
<path fill-rule="evenodd" clip-rule="evenodd" d="M92.7794 84.2011C92.5969 79.1452 91.351 74.1845 89.1229 69.6424C81.6508 54.5059 64.6226 46.6431 48.2548 50.7716C31.8871 54.9001 20.6252 69.8985 21.2261 86.7682C21.4085 91.8241 22.6544 96.7848 24.8825 101.327C36.6204 100.748 48.2648 98.9354 59.6232 95.9188C71.0556 93.1866 82.1689 89.2591 92.7794 84.2011Z" fill="white"/>
</mask>
<g mask="url(#mask2_216_1604)">
<path d="M33.9598 44.7797C110.151 49.3008 94.5079 91.1806 40.1789 99.867C-14.1502 108.553 111.98 94.1343 111.98 94.1343L109.92 52.567L52.1438 41.3218L36.7214 49.1294" fill="#1D62FC"/>
</g>
<path fill-rule="evenodd" clip-rule="evenodd" d="M92.7794 84.2011C92.5969 79.1452 91.351 74.1845 89.1229 69.6424C81.6508 54.5059 64.6226 46.6431 48.2548 50.7716C31.8871 54.9001 20.6252 69.8985 21.2261 86.7682C21.4085 91.8241 22.6544 96.7848 24.8825 101.327C36.6204 100.748 48.2648 98.9354 59.6232 95.9188C71.0556 93.1866 82.1689 89.2591 92.7794 84.2011V84.2011Z" stroke="black" stroke-width="2.13714" stroke-linecap="round" stroke-linejoin="round"/>
<path d="M27.8242 106.268C36.3663 118.321 51.4383 123.884 65.7626 120.271C80.0869 116.658 90.7174 104.612 92.5209 89.95C72.0191 98.9676 50.1503 104.484 27.8242 106.268Z" fill="#1B80FD"/>
<path fill-rule="evenodd" clip-rule="evenodd" d="M27.8242 106.268C36.3663 118.321 51.4383 123.884 65.7626 120.271C80.0869 116.658 90.7174 104.612 92.5209 89.95C72.0191 98.9676 50.1503 104.484 27.8242 106.268Z" stroke="black" stroke-width="2.13714" stroke-linecap="round" stroke-linejoin="round"/>
<path d="M111.797 71.6632C110.587 66.8464 103.831 64.4382 91.7155 64.5083C89.9506 64.5184 88.0971 64.5865 86.1803 64.7007C87.2928 66.2657 88.2769 67.9183 89.1227 69.6422C100.158 69.2868 106.408 70.921 106.904 72.8974C107.399 74.8739 102.666 79.2787 92.7772 84.2008C82.1667 89.2588 71.0535 93.1863 59.621 95.9185C48.2626 98.9351 36.6182 100.748 24.8803 101.327C13.8452 101.682 7.59516 100.048 7.09934 98.0714C6.60352 96.095 11.3366 91.6902 21.2248 86.7679C21.1558 84.8478 21.242 82.9252 21.4827 81.019C19.7401 81.8279 18.075 82.6473 16.516 83.4767C5.81086 89.1615 0.996956 94.489 2.20679 99.3058C3.41662 104.123 10.173 106.531 22.2882 106.461C24.053 106.451 25.9066 106.383 27.8234 106.269C50.1495 104.484 72.0183 98.9677 92.5201 89.9501C94.2627 89.141 95.9276 88.3216 97.4868 87.4924C108.193 81.8067 113.006 76.4804 111.797 71.6632Z" fill="#FACCC4"/>
<mask id="mask3_216_1604" style="mask-type:luminance" maskUnits="userSpaceOnUse" x="2" y="64" width="110" height="43">
<path fill-rule="evenodd" clip-rule="evenodd" d="M111.797 71.6632C110.587 66.8464 103.831 64.4382 91.7155 64.5083C89.9506 64.5184 88.0971 64.5865 86.1803 64.7007C87.2928 66.2657 88.2769 67.9183 89.1227 69.6422C100.158 69.2868 106.408 70.921 106.904 72.8974C107.399 74.8739 102.666 79.2787 92.7772 84.2008C82.1667 89.2588 71.0535 93.1863 59.621 95.9185C48.2626 98.9351 36.6182 100.748 24.8803 101.327C13.8452 101.682 7.59516 100.048 7.09934 98.0714C6.60352 96.095 11.3366 91.6902 21.2248 86.7679C21.1558 84.8478 21.242 82.9252 21.4827 81.019C19.7401 81.8279 18.075 82.6473 16.516 83.4767C5.81086 89.1615 0.996956 94.489 2.20679 99.3058C3.41662 104.123 10.173 106.531 22.2882 106.461C24.053 106.451 25.9066 106.383 27.8234 106.269C50.1495 104.484 72.0183 98.9677 92.5201 89.9501C94.2627 89.141 95.9276 88.3216 97.4868 87.4924C108.193 81.8067 113.006 76.4804 111.797 71.6632Z" fill="white"/>
</mask>
<g mask="url(#mask3_216_1604)">
<path d="M-6.09473 85.484C27.5124 80.1784 24.2898 95.3063 24.2898 95.3063L32.5764 76.5189L19.2257 73.7471" fill="#ED707B"/>
<path d="M77.0026 59.425C93.8063 61.7235 95.6477 73.7471 95.6477 73.7471L81.3763 76.5189L76.7725 72.1045" fill="#ED707B"/>
</g>
<path fill-rule="evenodd" clip-rule="evenodd" d="M111.797 71.6632C110.587 66.8464 103.831 64.4382 91.7155 64.5083C89.9506 64.5184 88.0971 64.5865 86.1803 64.7007C87.2928 66.2657 88.2769 67.9183 89.1227 69.6422C100.158 69.2868 106.408 70.921 106.904 72.8974C107.399 74.8739 102.666 79.2787 92.7772 84.2008C82.1667 89.2588 71.0535 93.1863 59.621 95.9185C48.2626 98.9351 36.6182 100.748 24.8803 101.327C13.8452 101.682 7.59516 100.048 7.09934 98.0714C6.60352 96.095 11.3366 91.6902 21.2248 86.7679C21.1558 84.8478 21.242 82.9252 21.4827 81.019C19.7401 81.8279 18.075 82.6473 16.516 83.4767C5.81086 89.1615 0.996956 94.4889 2.20679 99.3058C3.41662 104.123 10.173 106.531 22.2882 106.461C24.053 106.451 25.9066 106.383 27.8234 106.269C50.1495 104.484 72.0183 98.9677 92.5201 89.9501C94.2627 89.141 95.9276 88.3216 97.4868 87.4924C108.193 81.8067 113.006 76.4804 111.797 71.6632Z" stroke="black" stroke-width="2.13714" stroke-linecap="round" stroke-linejoin="round"/>
<path d="M52.7719 67.0256C52.4923 69.0779 51.7534 71.0407 50.6104 72.7679" stroke="black" stroke-width="2.13714" stroke-linecap="round" stroke-linejoin="round"/>
<path d="M73.6692 105.336L69.7168 108.047" stroke="black" stroke-width="2.13714" stroke-linecap="round" stroke-linejoin="round"/>
<rect x="49.5137" y="292.423" width="200.861" height="36.927" fill="#FDD504"/>
<mask id="mask4_216_1604" style="mask-type:luminance" maskUnits="userSpaceOnUse" x="49" y="292" width="202" height="38">
<rect x="49.5127" y="292.423" width="200.861" height="36.927" fill="white"/>
</mask>
<g mask="url(#mask4_216_1604)">
<rect x="74.6768" y="286.119" width="25.6132" height="48.1852" fill="#E43334" stroke="black" stroke-width="2.13714" stroke-linecap="round" stroke-linejoin="round"/>
<path d="M125.647 290.64C117.127 298.328 267.899 306.024 270.595 323.021C273.291 340.019 260.92 278.294 260.92 278.294L241.274 279.794" fill="#FCB006"/>
</g>
<rect x="49.5137" y="292.423" width="200.861" height="36.927" stroke="black" stroke-width="2.13714" stroke-linecap="round" stroke-linejoin="round"/>
<rect x="302.504" y="243.187" width="200.861" height="36.927" transform="rotate(-180 302.504 243.187)" fill="#E43334"/>
<mask id="mask5_216_1604" style="mask-type:luminance" maskUnits="userSpaceOnUse" x="101" y="206" width="202" height="38">
<rect x="302.503" y="243.187" width="200.861" height="36.927" transform="rotate(-180 302.503 243.187)" fill="white"/>
</mask>
<g mask="url(#mask5_216_1604)">
<rect x="277.341" y="248.141" width="25.6132" height="48.1852" transform="rotate(-180 277.341 248.141)" fill="white" stroke="black" stroke-width="2.13714" stroke-linecap="round" stroke-linejoin="round"/>
<rect x="245.144" y="248.141" width="4.79317" height="48.1852" transform="rotate(-180 245.144 248.141)" fill="white" stroke="black" stroke-width="2.13714" stroke-linecap="round" stroke-linejoin="round"/>
<path d="M99.4517 235.281C92.8612 240.985 228.566 240.985 225.57 243.387C222.574 245.789 104.843 252.394 104.843 252.394L94.0586 236.782" fill="#C11F27"/>
</g>
<rect x="302.504" y="243.187" width="200.861" height="36.927" transform="rotate(-180 302.504 243.187)" stroke="black" stroke-width="2.13714" stroke-linecap="round" stroke-linejoin="round"/>
<path d="M291.075 266.304H113.07C120.002 272.496 113.07 290.284 113.07 290.284H291.075C291.075 290.284 284.143 272.496 291.075 266.304Z" fill="white"/>
<mask id="mask6_216_1604" style="mask-type:luminance" maskUnits="userSpaceOnUse" x="113" y="266" width="179" height="25">
<path fill-rule="evenodd" clip-rule="evenodd" d="M291.076 266.304H113.071C120.003 272.496 113.071 290.284 113.071 290.284H291.076C291.076 290.284 284.144 272.496 291.076 266.304Z" fill="white"/>
</mask>
<g mask="url(#mask6_216_1604)">
<path d="M110.609 275.585L114.204 275.647L175.766 276.711L107.015 278.295" fill="#D6DCF2"/>
<path d="M318.75 282.46L315.157 282.398L253.595 281.334L322.344 279.75" fill="#D6DCF2"/>
</g>
<path fill-rule="evenodd" clip-rule="evenodd" d="M291.075 266.304H113.07C120.002 272.496 113.07 290.284 113.07 290.284H291.075C291.075 290.284 284.143 272.496 291.075 266.304Z" stroke="black" stroke-width="2.13714" stroke-linecap="round" stroke-linejoin="round"/>
<rect x="106.138" y="261.801" width="191.874" height="6.75485" fill="#1AB995" stroke="black" stroke-width="2.13714" stroke-linecap="round" stroke-linejoin="round"/>
<rect x="106.138" y="285.668" width="191.874" height="6.75485" fill="#1AB995" stroke="black" stroke-width="2.13714" stroke-linecap="round" stroke-linejoin="round"/>
<rect x="57.001" y="252.494" width="213.592" height="11.4083" fill="#7A24EA"/>
<mask id="mask7_216_1604" style="mask-type:luminance" maskUnits="userSpaceOnUse" x="57" y="252" width="214" height="12">
<rect x="57.002" y="252.494" width="213.592" height="11.4083" fill="white"/>
</mask>
<g mask="url(#mask7_216_1604)">
<path d="M163.798 250.592C134.201 260.049 272.602 254.995 276.646 258.198C280.69 261.401 279.342 248.891 279.342 248.891L239.799 244.288" fill="#6B1AD3"/>
</g>
<rect x="57.001" y="252.494" width="213.592" height="11.4083" stroke="black" stroke-width="2.13714" stroke-linecap="round" stroke-linejoin="round"/>
<rect x="74.376" y="243.187" width="213.592" height="11.4083" fill="#1A80FD" stroke="black" stroke-width="2.13714" stroke-linecap="round" stroke-linejoin="round"/>
<path d="M172.796 313.984L177.213 317.5" stroke="black" stroke-width="2.13714" stroke-linecap="round" stroke-linejoin="round"/>
<path d="M161.405 223.793L169.328 222.864" stroke="black" stroke-width="2.13714" stroke-linecap="round" stroke-linejoin="round"/>
<rect x="310.065" y="205.007" width="236.772" height="43.529" transform="rotate(-180 310.065 205.007)" fill="#E43334"/>
<mask id="mask8_216_1604" style="mask-type:luminance" maskUnits="userSpaceOnUse" x="73" y="161" width="238" height="45">
<rect x="310.063" y="205.007" width="236.772" height="43.529" transform="rotate(-180 310.063 205.007)" fill="white"/>
</mask>
<g mask="url(#mask8_216_1604)">
<rect x="280.401" y="210.847" width="30.1924" height="56.8" transform="rotate(-180 280.401 210.847)" fill="white" stroke="black" stroke-width="2.13714" stroke-linecap="round" stroke-linejoin="round"/>
<rect x="242.446" y="210.847" width="5.64995" height="56.8" transform="rotate(-180 242.446 210.847)" fill="white" stroke="black" stroke-width="2.13714" stroke-linecap="round" stroke-linejoin="round"/>
<path d="M70.7078 195.688C62.9391 202.412 222.906 202.412 219.375 205.243C215.843 208.074 77.0641 215.86 77.0641 215.86L64.3516 197.458" fill="#C11F27"/>
<path d="M158.311 165.623C145.668 165.148 230.334 194.906 232.717 195.437C235.101 195.968 229.024 176.505 229.024 176.505L212.074 171.728" fill="#C11F27"/>
</g>
<rect x="310.065" y="205.007" width="236.772" height="43.529" transform="rotate(-180 310.065 205.007)" stroke="black" stroke-width="2.13714" stroke-linecap="round" stroke-linejoin="round"/>
<path d="M124.854 160.385L247.036 188.343C247.036 188.343 249.508 163.216 254.805 160.385H124.854Z" fill="white" stroke="black" stroke-width="2.13714" stroke-linecap="round" stroke-linejoin="round"/>
<path d="M285.979 106.065H107.511C114.461 120.091 107.511 160.385 107.511 160.385H285.979C285.979 160.385 279.029 120.091 285.979 106.065Z" fill="white"/>
<mask id="mask9_216_1604" style="mask-type:luminance" maskUnits="userSpaceOnUse" x="107" y="106" width="179" height="55">
<path fill-rule="evenodd" clip-rule="evenodd" d="M285.98 106.064H107.512C114.462 120.091 107.512 160.385 107.512 160.385H285.98C285.98 160.385 279.03 120.091 285.98 106.064Z" fill="white"/>
</mask>
<g mask="url(#mask9_216_1604)">
<path d="M105.045 127.09L108.648 127.231L170.371 129.64L101.439 133.226" fill="#D6DCF2"/>
<path d="M313.725 142.661L310.122 142.52L248.399 140.11L317.331 136.526" fill="#D6DCF2"/>
<path d="M315.527 116.71L311.924 116.569L118.06 114.092L319.132 110.574" fill="#D6DCF2"/>
</g>
<path fill-rule="evenodd" clip-rule="evenodd" d="M285.979 106.065H107.511C114.461 120.091 107.511 160.385 107.511 160.385H285.979C285.979 160.385 279.029 120.091 285.979 106.065Z" stroke="black" stroke-width="2.13714" stroke-linecap="round" stroke-linejoin="round"/>
<rect x="100.559" y="95.8635" width="192.373" height="10.201" fill="#1AB995" stroke="black" stroke-width="2.13714" stroke-linecap="round" stroke-linejoin="round"/>
<rect x="100.559" y="151.329" width="192.373" height="10.201" fill="#1AB995"/>
<mask id="mask10_216_1604" style="mask-type:luminance" maskUnits="userSpaceOnUse" x="100" y="151" width="193" height="11">
<rect x="100.558" y="151.329" width="192.373" height="10.201" fill="white"/>
</mask>
<g mask="url(#mask10_216_1604)">
<path d="M93.1596 160.386C107.51 160.386 265.486 157.688 266.546 161.53C267.605 165.372 110.463 171.034 110.463 171.034L78.5898 160.386" fill="#1AB995"/>
<path d="M93.1596 160.386C107.51 160.386 265.486 157.688 266.546 161.53C267.605 165.372 110.463 171.034 110.463 171.034L78.5898 160.386" stroke="black" stroke-width="2.13714" stroke-linecap="round" stroke-linejoin="round"/>
</g>
<rect x="100.559" y="151.329" width="192.373" height="10.201" stroke="black" stroke-width="2.13714" stroke-linecap="round" stroke-linejoin="round"/>
<path d="M217.364 136.914L230.56 134.173" stroke="black" stroke-width="2.13714" stroke-linecap="round" stroke-linejoin="round"/>
<path d="M123.944 186.167H136.278" stroke="black" stroke-width="2.13714" stroke-linecap="round" stroke-linejoin="round"/>
<path d="M151.733 34.9257L254.54 1.42603L195.243 46.5538L151.733 34.9257Z" fill="#1AB995"/>
<path fill-rule="evenodd" clip-rule="evenodd" d="M151.733 34.9257L254.54 1.42603L195.243 46.5538L151.733 34.9257V34.9257Z" stroke="black" stroke-width="2.13714" stroke-linecap="round" stroke-linejoin="round"/>
<path d="M195.245 72.4688V46.5538L254.542 1.42603L195.245 72.4688Z" fill="#0FA379" stroke="black" stroke-width="2.13714" stroke-linecap="round" stroke-linejoin="round"/>
<path d="M224.894 48.3408L203.717 50.1275L195.245 72.4691L211.921 52.489" fill="#0FA379"/>
<path d="M224.894 48.3408L203.717 50.1275L195.245 72.4691L211.921 52.489" stroke="black" stroke-width="2.13714" stroke-linecap="round" stroke-linejoin="round"/>
<path d="M203.715 50.1271L238.79 60.2208L254.54 1.42603L203.715 50.1271Z" fill="#1AB995"/>
<mask id="mask11_216_1604" style="mask-type:luminance" maskUnits="userSpaceOnUse" x="203" y="1" width="52" height="60">
<path fill-rule="evenodd" clip-rule="evenodd" d="M203.715 50.1271L238.79 60.2208L254.54 1.42603L203.715 50.1271Z" fill="white"/>
</mask>
<g mask="url(#mask11_216_1604)">
<path d="M254.541 -2.80902C238.549 65.9993 233.972 53.6178 200.914 48.3406C167.855 43.0634 217.443 75.1739 217.443 75.1739L251.009 80.5257L261.69 33.124L259.146 -5.10303" fill="#0FA379"/>
</g>
<path fill-rule="evenodd" clip-rule="evenodd" d="M203.715 50.1271L238.79 60.2208L254.54 1.42603L203.715 50.1271V50.1271Z" stroke="black" stroke-width="2.13714" stroke-linecap="round" stroke-linejoin="round"/>
<path d="M185.151 31.4272C183.79 32.7136 182.328 33.888 180.778 34.939" stroke="black" stroke-width="2.13714" stroke-linecap="round" stroke-linejoin="round"/>
<path d="M245.156 17.6316L244.908 18.3982" stroke="black" stroke-width="2.13714" stroke-linecap="round" stroke-linejoin="round"/>
<path d="M271.602 119.826C270.353 118.617 268.758 117.83 267.039 117.574L252.264 115.201C249.322 114.733 246.339 115.749 244.296 117.917C242.252 120.084 241.412 123.122 242.052 126.031L245.405 141.373L245.356 142.305L245.572 142.139L246.523 146.489C246.523 146.489 255.689 151.704 269.043 138.649C278.501 129.402 274.651 122.857 271.602 119.826Z" fill="#485065" stroke="black" stroke-width="2.13714" stroke-linecap="round" stroke-linejoin="round"/>
<path d="M249.606 136.453L238.639 152.77L251.543 165.112L264.269 140.761L249.606 136.453Z" fill="#F9C1BB"/>
<mask id="mask12_216_1604" style="mask-type:luminance" maskUnits="userSpaceOnUse" x="238" y="136" width="27" height="30">
<path fill-rule="evenodd" clip-rule="evenodd" d="M249.607 136.453L238.64 152.77L251.544 165.112L264.27 140.761L249.607 136.453Z" fill="white"/>
</mask>
<g mask="url(#mask12_216_1604)">
<path d="M254.404 142.117C258.411 147.581 254.588 152.992 257.629 154.708C261.08 156.655 263.784 151.945 263.784 151.945L265.167 144.433L254.259 139.824" fill="#ED707B"/>
</g>
<path fill-rule="evenodd" clip-rule="evenodd" d="M249.606 136.453L238.639 152.77L251.543 165.112L264.269 140.761L249.606 136.453V136.453Z" stroke="black" stroke-width="2.13714" stroke-linecap="round" stroke-linejoin="round"/>
<path d="M255.788 146.232C259.988 147.733 267.13 149.069 268.891 146.931C273.085 141.841 271.98 126.359 267.433 122.338C270.635 141.617 253.147 136.326 253.147 136.326L252.621 136.729L252.52 138.805" fill="#F9C1BB"/>
<path d="M255.788 146.232C259.988 147.733 267.13 149.069 268.891 146.931C273.085 141.841 271.98 126.359 267.433 122.338C270.635 141.617 253.147 136.326 253.147 136.326L252.621 136.729L252.52 138.805" stroke="black" stroke-width="2.13714" stroke-linecap="round" stroke-linejoin="round"/>
<path d="M258.363 138.14C251.096 127.03 245.59 137.389 250.362 141.156L258.363 138.14Z" fill="#F9C1BB"/>
<path d="M258.363 138.14C251.096 127.03 245.59 137.389 250.362 141.156" stroke="black" stroke-width="2.13714" stroke-linecap="round" stroke-linejoin="round"/>
<path d="M338.695 251.386H261.025L252.31 222.028L349.836 224.215L338.695 251.386Z" fill="#1AB995" stroke="black" stroke-width="2.13714" stroke-linecap="round" stroke-linejoin="round"/>
<path d="M311.16 141.526L297.752 162.656L307.779 172.419L321.536 151.885L311.16 141.526Z" fill="#485065" stroke="black" stroke-width="2.13714" stroke-linecap="round" stroke-linejoin="round"/>
<path d="M311.243 142.755L298.339 162.644L307.014 170.404L320.383 152.424L311.243 142.755Z" fill="white" stroke="black" stroke-width="2.13714" stroke-linecap="round" stroke-linejoin="round"/>
<path d="M321.536 151.885L315.729 148.269L299.876 169.752L307.779 172.164L321.536 151.885Z" fill="#485065" stroke="black" stroke-width="2.13714" stroke-linecap="round" stroke-linejoin="round"/>
<path d="M321.536 151.885L315.729 148.523L299.876 170.006L307.779 172.419L321.536 151.885Z" fill="#485065" stroke="black" stroke-width="2.13714" stroke-linecap="round" stroke-linejoin="round"/>
<path d="M355.44 320.687L349.046 318.371C348.067 318.045 347.423 317.109 347.467 316.078L348.089 306.23L332.474 306.613L331.099 324.847C331.068 325.691 331.393 326.51 331.994 327.104C332.596 327.698 333.419 328.012 334.263 327.97L353.408 327.741L355.44 320.687Z" fill="#F9C1BB"/>
<mask id="mask13_216_1604" style="mask-type:luminance" maskUnits="userSpaceOnUse" x="331" y="306" width="25" height="22">
<path fill-rule="evenodd" clip-rule="evenodd" d="M355.441 320.687L349.047 318.371C348.068 318.045 347.424 317.11 347.468 316.079L348.09 306.23L332.475 306.613L331.1 324.847C331.069 325.692 331.394 326.511 331.995 327.104C332.597 327.698 333.42 328.012 334.264 327.97L353.409 327.742L355.441 320.687Z" fill="white"/>
</mask>
<g mask="url(#mask13_216_1604)">
<path d="M327.733 312.046C334.563 313.149 341.565 312.24 347.887 309.43C348.221 308.971 337.798 307.163 337.798 307.163L327.733 312.046Z" fill="#ED707B"/>
</g>
<path fill-rule="evenodd" clip-rule="evenodd" d="M355.44 320.687L349.046 318.371C348.067 318.045 347.423 317.109 347.467 316.078L348.089 306.23L332.474 306.613L331.099 324.847C331.068 325.691 331.393 326.51 331.994 327.104C332.596 327.698 333.419 328.012 334.263 327.97L353.408 327.741L355.44 320.687Z" stroke="black" stroke-width="2.13714" stroke-linecap="round" stroke-linejoin="round"/>
<path d="M400.535 284.664L393.788 285.815C392.75 286.006 391.701 285.536 391.153 284.634L386.142 275.944L373.061 283.898L382.147 300.098C383.072 301.63 385.061 302.128 386.599 301.212L402.773 291.663L400.535 284.664Z" fill="#F9C1BB"/>
<mask id="mask14_216_1604" style="mask-type:luminance" maskUnits="userSpaceOnUse" x="373" y="275" width="30" height="27">
<path fill-rule="evenodd" clip-rule="evenodd" d="M400.535 284.664L393.788 285.815C392.75 286.006 391.701 285.536 391.153 284.634L386.142 275.944L373.061 283.898L382.147 300.098C383.072 301.63 385.061 302.128 386.599 301.212L402.773 291.663L400.535 284.664Z" fill="white"/>
</mask>
<g mask="url(#mask14_216_1604)">
<path d="M369.603 295.145C379.053 292.332 389.37 280.042 389.37 280.042L374.606 281.806L369.841 289.519" fill="#ED707B"/>
</g>
<path fill-rule="evenodd" clip-rule="evenodd" d="M400.535 284.664L393.788 285.815C392.75 286.006 391.701 285.536 391.153 284.634L386.142 275.944L373.061 283.898L382.147 300.098C383.072 301.63 385.061 302.128 386.599 301.212L402.773 291.663L400.535 284.664Z" stroke="black" stroke-width="2.13714" stroke-linecap="round" stroke-linejoin="round"/>
<path d="M382.872 305.334C383.363 305.767 384.081 305.823 384.633 305.472L415.472 285.633C415.763 285.457 415.97 285.17 416.044 284.838C416.119 284.507 416.055 284.159 415.867 283.876C414.827 282.373 413.026 281.588 411.217 281.851L397.868 284.003L399.089 293.115L383.058 303.335C382.717 303.538 382.494 303.892 382.457 304.287C382.421 304.682 382.575 305.071 382.872 305.334Z" fill="#485065" stroke="black" stroke-width="2.13714" stroke-linecap="round" stroke-linejoin="round"/>
<path d="M279.955 176.995L281.951 173.834C284.337 171.859 286.562 169.698 288.606 167.371C289.541 165.793 289.284 158.421 294.041 157.025C298.799 155.628 305.652 152.992 305.652 152.992C305.652 152.992 307.592 156.06 297.83 158.991C298.641 162.971 298.048 167.11 296.152 170.702L283.66 187.119L279.955 176.995Z" fill="#F9C1BB"/>
<mask id="mask15_216_1604" style="mask-type:luminance" maskUnits="userSpaceOnUse" x="279" y="152" width="27" height="36">
<path fill-rule="evenodd" clip-rule="evenodd" d="M279.955 176.995L281.951 173.834C284.337 171.859 286.562 169.698 288.606 167.371C289.541 165.793 289.284 158.421 294.041 157.025C298.799 155.628 305.652 152.992 305.652 152.992C305.652 152.992 307.592 156.06 297.83 158.991C298.641 162.971 298.048 167.11 296.152 170.702L283.66 187.119L279.955 176.995Z" fill="white"/>
</mask>
<g mask="url(#mask15_216_1604)">
<path d="M291.417 178.855C285.911 181.945 284.599 174.55 281.951 173.833C279.304 173.117 283.415 183.564 283.415 183.564L285.691 187.119L289.875 185.992L291.417 178.855Z" fill="#ED707B"/>
</g>
<path fill-rule="evenodd" clip-rule="evenodd" d="M279.955 176.995L281.951 173.834C284.337 171.859 286.562 169.698 288.606 167.371C289.541 165.793 289.284 158.421 294.041 157.025C298.799 155.628 305.652 152.992 305.652 152.992C305.652 152.992 307.592 156.06 297.83 158.991C298.641 162.971 298.048 167.11 296.152 170.702L283.66 187.119L279.955 176.995Z" stroke="black" stroke-width="2.13714" stroke-linecap="round" stroke-linejoin="round"/>
<path d="M281.774 173.245C281.774 173.245 288.459 180.708 288.205 184.863L262.74 218.425L258.163 189.909L281.774 173.245Z" fill="white"/>
<mask id="mask16_216_1604" style="mask-type:luminance" maskUnits="userSpaceOnUse" x="258" y="173" width="31" height="46">
<path fill-rule="evenodd" clip-rule="evenodd" d="M281.775 173.245C281.775 173.245 288.46 180.708 288.206 184.863L262.741 218.425L258.164 189.91L281.775 173.245Z" fill="white"/>
</mask>
<g mask="url(#mask16_216_1604)">
<path d="M275.024 174.871C283.274 178.33 284.3 196.723 284.3 196.723" stroke="#D6DCF2" stroke-width="2.13714" stroke-linecap="round" stroke-linejoin="round"/>
</g>
<path fill-rule="evenodd" clip-rule="evenodd" d="M281.774 173.245C281.774 173.245 288.459 180.708 288.205 184.863L262.74 218.425L258.163 189.909L281.774 173.245Z" stroke="black" stroke-width="2.13714" stroke-linecap="round" stroke-linejoin="round"/>
<path d="M240.818 152.908L240.308 149.668C240.308 149.668 237.601 136.107 256.832 152.724L240.818 152.908Z" fill="white" stroke="black" stroke-width="2.13714" stroke-linecap="round" stroke-linejoin="round"/>
<path d="M366.247 293.393C366.247 293.393 387.863 283.79 389.371 280.042L349.193 204.959C344.364 196.543 334.123 192.9 325.064 196.377L312.96 200.869L366.247 293.393Z" fill="#1AB995"/>
<mask id="mask17_216_1604" style="mask-type:luminance" maskUnits="userSpaceOnUse" x="312" y="195" width="78" height="99">
<path fill-rule="evenodd" clip-rule="evenodd" d="M366.246 293.394C366.246 293.394 387.862 283.79 389.37 280.042L349.192 204.959C344.363 196.543 334.122 192.901 325.063 196.377L312.959 200.869L366.246 293.394Z" fill="white"/>
</mask>
<g mask="url(#mask17_216_1604)">
<path d="M356.382 287.228C364.971 286.565 387.917 271.998 387.917 271.998L392.586 282.47L368.937 299.147L356.382 287.228Z" fill="#1A80FD" stroke="black" stroke-width="2.13714" stroke-linecap="round" stroke-linejoin="round"/>
</g>
<path fill-rule="evenodd" clip-rule="evenodd" d="M366.247 293.393C366.247 293.393 387.863 283.79 389.371 280.042L349.193 204.959C344.364 196.543 334.123 192.9 325.064 196.377L312.96 200.869L366.247 293.393Z" stroke="black" stroke-width="2.13714" stroke-linecap="round" stroke-linejoin="round"/>
<path d="M325.955 242.809L320.009 309.166C320.009 309.166 342.463 311.352 348.831 309.166L356.338 228.597C356.511 225.571 355.432 222.606 353.354 220.398C351.277 218.19 348.383 216.933 345.352 216.921L328.337 216.217" fill="#1AB995"/>
<mask id="mask18_216_1604" style="mask-type:luminance" maskUnits="userSpaceOnUse" x="320" y="216" width="37" height="95">
<path fill-rule="evenodd" clip-rule="evenodd" d="M325.954 242.809L320.008 309.166C320.008 309.166 342.462 311.352 348.83 309.166L356.337 228.597C356.51 225.571 355.431 222.606 353.353 220.398C351.276 218.19 348.382 216.933 345.351 216.921L328.336 216.217" fill="white"/>
</mask>
<g mask="url(#mask18_216_1604)">
<path d="M315.281 299.146C326.074 302.898 353.379 300.691 353.379 300.691V312.389L315.942 312.61" fill="#1A80FD"/>
<path d="M315.281 299.146C326.074 302.898 353.379 300.691 353.379 300.691V312.389L315.942 312.61" stroke="black" stroke-width="2.13714" stroke-linecap="round" stroke-linejoin="round"/>
</g>
<path d="M325.955 242.809L320.009 309.166C320.009 309.166 342.463 311.352 348.831 309.166L356.338 228.597C356.511 225.571 355.432 222.606 353.354 220.398C351.277 218.19 348.383 216.933 345.352 216.921L328.337 216.217" stroke="black" stroke-width="2.13714" stroke-linecap="round" stroke-linejoin="round"/>
<path d="M290.615 236.707C291.276 236.02 330.914 234.332 333.107 235.853C335.301 237.373 327.488 301.088 327.488 301.088" stroke="white" stroke-width="2.13714" stroke-linecap="round" stroke-linejoin="round"/>
<path d="M347.333 215.496L282.136 250.055C277.201 252.655 271.705 254.01 266.127 254.001C248.885 254.001 234.667 241.409 233.791 225.361L233.545 220.857L325.971 195.05C335.349 192.272 345.355 196.727 349.567 205.555L353.379 212.784" fill="#1AB995"/>
<mask id="mask19_216_1604" style="mask-type:luminance" maskUnits="userSpaceOnUse" x="233" y="194" width="121" height="61">
<path fill-rule="evenodd" clip-rule="evenodd" d="M347.333 215.496L282.136 250.055C277.201 252.655 271.705 254.01 266.127 254.001C248.885 254.001 234.667 241.409 233.791 225.361L233.545 220.857L325.971 195.05C335.349 192.272 345.355 196.727 349.567 205.555L353.379 212.784" fill="white"/>
</mask>
<g mask="url(#mask19_216_1604)">
<path d="M279.895 211.881C229.202 237.179 259.088 256.152 271.346 257.558C283.605 258.963 202.418 254.002 202.418 254.002L219.761 218.44L261.954 216.217" fill="#0FA379"/>
<path d="M245.964 222.028C254.716 255.223 331.8 206.223 331.8 206.223" stroke="white" stroke-width="2.13714" stroke-linecap="round" stroke-linejoin="round"/>
<path d="M261.471 231.091C273.658 225.205 263.233 220.644 263.233 220.644" stroke="white" stroke-width="2.13714" stroke-linecap="round" stroke-linejoin="round"/>
</g>
<path d="M347.333 215.496L282.136 250.055C277.201 252.655 271.705 254.01 266.127 254.001V254.001C248.885 254.001 234.667 241.409 233.791 225.361L233.545 220.857L325.971 195.05C335.349 192.272 345.355 196.727 349.567 205.555L353.379 212.784" stroke="black" stroke-width="2.13714" stroke-linecap="round" stroke-linejoin="round"/>
<path d="M256.83 152.725L240.307 149.669C211.831 173.246 236.372 219.21 224.863 223.536C224.863 223.536 224.863 240.579 282.788 209.119C282.788 209.118 273.903 164.848 256.83 152.725Z" fill="white"/>
<mask id="mask20_216_1604" style="mask-type:luminance" maskUnits="userSpaceOnUse" x="224" y="149" width="59" height="80">
<path fill-rule="evenodd" clip-rule="evenodd" d="M256.831 152.725L240.308 149.669C211.832 173.246 236.373 219.21 224.864 223.536C224.864 223.536 224.864 240.579 282.789 209.119C282.789 209.118 273.904 164.848 256.831 152.725Z" fill="white"/>
</mask>
<g mask="url(#mask20_216_1604)">
<path d="M248.027 176.233C262.777 207.043 250.929 232.016 224.865 223.536C198.8 215.055 216.064 246.943 216.064 246.943L253.827 252.031L285.201 212.85L258.164 178.525L248.027 176.233Z" fill="#D6DCF2"/>
<path d="M226.011 218.425C232.408 228.132 271.508 210.257 271.508 210.257L276.667 218.425L226.452 236.708L222.928 222.029L226.452 216.217" fill="white"/>
<path d="M226.011 218.425C232.408 228.132 271.508 210.257 271.508 210.257L276.667 218.425L226.452 236.708L222.928 222.029L226.452 216.217" stroke="black" stroke-width="2.13714" stroke-linecap="round" stroke-linejoin="round"/>
<path d="M219.037 166.301C231.703 159.857 244.57 167.413 244.57 167.413" stroke="white" stroke-width="2.13714" stroke-linecap="round" stroke-linejoin="round"/>
</g>
<path fill-rule="evenodd" clip-rule="evenodd" d="M256.83 152.725L240.307 149.669C211.831 173.246 236.372 219.21 224.863 223.536C224.863 223.536 224.863 240.579 282.788 209.119C282.788 209.118 273.903 164.848 256.83 152.725Z" stroke="black" stroke-width="2.13714" stroke-linecap="round" stroke-linejoin="round"/>
<path d="M292.13 187.825L302.186 173.701L309.558 159.858C312.098 158.834 310.348 164.343 309.724 166.143C309.724 166.143 315.531 157.706 315.906 157.07C315.906 157.07 319.636 155.267 315.305 167.133C313.838 170.602 311.411 173.579 308.308 175.714L302.186 192.77L292.13 187.825Z" fill="#F9C1BB"/>
<mask id="mask21_216_1604" style="mask-type:luminance" maskUnits="userSpaceOnUse" x="292" y="156" width="26" height="37">
<path fill-rule="evenodd" clip-rule="evenodd" d="M292.129 187.825L302.185 173.701L309.557 159.858C312.097 158.834 310.347 164.343 309.723 166.143C309.723 166.143 315.53 157.706 315.905 157.07C315.905 157.07 319.635 155.267 315.304 167.133C313.837 170.602 311.41 173.579 308.307 175.714L302.185 192.77L292.129 187.825Z" fill="white"/>
</mask>
<g mask="url(#mask21_216_1604)">
<path d="M307.696 183.491C303.457 185.698 300.947 179.565 295.36 183.288C292.921 184.912 299.346 188.906 299.346 188.906H306.467L308.229 184.374" fill="#ED707B"/>
</g>
<path fill-rule="evenodd" clip-rule="evenodd" d="M292.13 187.825L302.186 173.701L309.558 159.858C312.098 158.834 310.348 164.343 309.724 166.143C309.724 166.143 315.531 157.706 315.906 157.07C315.906 157.07 319.636 155.267 315.305 167.133C313.838 170.602 311.411 173.579 308.308 175.714L302.186 192.77L292.13 187.825Z" stroke="black" stroke-width="2.13714" stroke-linecap="round" stroke-linejoin="round"/>
<path d="M265.433 162.23L283.678 195.521L294.44 183.236C294.44 183.236 304.853 183.565 307.683 187.473C308.146 188.112 295.779 210.57 295.779 210.57C293.746 214.243 290.254 216.885 286.166 217.844C278.857 219.751 271.003 216.836 267.695 210.99L248.026 176.234" fill="white"/>
<mask id="mask22_216_1604" style="mask-type:luminance" maskUnits="userSpaceOnUse" x="248" y="162" width="60" height="57">
<path fill-rule="evenodd" clip-rule="evenodd" d="M265.433 162.23L283.678 195.521L294.44 183.236C294.44 183.236 304.853 183.565 307.683 187.473C308.146 188.112 295.779 210.57 295.779 210.57C293.746 214.243 290.254 216.885 286.166 217.844C278.857 219.751 271.003 216.836 267.695 210.99L248.026 176.234" fill="white"/>
</mask>
<g mask="url(#mask22_216_1604)">
<path d="M289.677 188.673C297.165 186.505 308.528 195.112 308.528 195.112" stroke="#D6DCF2" stroke-width="2.13714" stroke-linecap="round" stroke-linejoin="round"/>
<ellipse cx="281.76" cy="218.204" rx="11.7015" ry="3.82377" fill="#FDD504" stroke="black" stroke-width="2.13714" stroke-linecap="round" stroke-linejoin="round"/>
</g>
<path d="M265.433 162.23L283.678 195.521L294.44 183.236C294.44 183.236 304.853 183.565 307.683 187.473C308.146 188.112 295.779 210.57 295.779 210.57C293.746 214.243 290.254 216.885 286.166 217.844V217.844C278.857 219.751 271.003 216.836 267.695 210.99L248.026 176.234" stroke="black" stroke-width="2.13714" stroke-linecap="round" stroke-linejoin="round"/>
<rect x="236.862" y="249.585" width="69.114" height="81.9883" fill="#FDD504"/>
<mask id="mask23_216_1604" style="mask-type:luminance" maskUnits="userSpaceOnUse" x="236" y="249" width="70" height="83">
<rect x="236.861" y="249.585" width="69.114" height="81.9883" fill="white"/>
</mask>
<g mask="url(#mask23_216_1604)">
<path d="M219.024 280.877C228.084 278.199 237.637 277.631 246.95 279.215C251.377 279.718 255.649 281.145 259.49 283.403C262.953 285.921 264.983 289.958 264.938 294.239C265.24 303.09 259.775 310.769 258.799 319.414C258.245 323.244 258.862 327.152 260.569 330.625C262.435 333.838 265.285 336.365 268.698 337.833C277.546 342.008 288.226 342.865 297.795 342.251C299.3 342.155 299.311 339.689 297.795 339.786C288.458 340.665 279.045 339.332 270.319 335.895C266.146 334.349 262.916 330.973 261.556 326.736C260.622 322.437 260.921 317.96 262.416 313.823C264.774 306.046 268.896 298.149 266.666 289.772C264.387 281.213 256.149 278.471 248.64 277.031C238.586 275.113 228.22 275.616 218.398 278.499C216.941 278.925 217.56 281.304 219.024 280.876L219.024 280.877Z" fill="#FCB006"/>
<path d="M275.297 236.002C271.147 240.688 268.117 246.257 266.436 252.287C265.451 255.297 265.237 258.506 265.817 261.62C266.558 264.259 268.132 266.589 270.304 268.262C275.383 272.084 281.262 274.706 287.5 275.93C294.247 277.4 301.132 278.137 308.038 278.129C316.513 278.262 324.988 277.842 333.461 278.214C334.976 278.28 334.973 275.815 333.461 275.748C320.486 275.18 307.414 276.534 294.498 274.736C288.44 274.004 282.543 272.282 277.042 269.641C274.428 268.472 272.067 266.803 270.092 264.728C268.097 262.253 267.343 259.001 268.046 255.901C269.28 249.14 272.367 242.855 276.963 237.747C277.984 236.578 276.323 234.83 275.298 236.003L275.297 236.002Z" fill="#FCB006"/>
<path d="M307.352 280.606C301.51 328.999 302.727 333.358 271.417 331.574C249.234 330.31 290.613 349.939 290.613 349.939L312.957 328.445L307.352 280.606Z" fill="#FCB006"/>
</g>
<rect x="236.862" y="249.585" width="69.114" height="81.9883" stroke="black" stroke-width="2.13714" stroke-linecap="round" stroke-linejoin="round"/>
<path d="M259.23 156.58C242.492 154.023 246.346 174.871 246.346 174.871" stroke="white" stroke-width="2.13714" stroke-linecap="round" stroke-linejoin="round"/>
<path d="M225.368 218.346L237.06 215.349L235.737 210.165L224.045 213.163L225.368 218.346Z" fill="white" stroke="black" stroke-width="2.13714" stroke-linecap="round" stroke-linejoin="round"/>
<circle cx="227.651" cy="215" r="0.669779" fill="#2F387E" stroke="black" stroke-width="2.13714" stroke-linecap="round" stroke-linejoin="round"/>
<path d="M257.591 121.202C256.882 123.221 255.744 125.061 254.254 126.596" stroke="black" stroke-width="2.13714" stroke-linecap="round" stroke-linejoin="round"/>
<path d="M284.27 195.862L283.373 198.947" stroke="black" stroke-width="2.13714" stroke-linecap="round" stroke-linejoin="round"/>
<path d="M240.48 194.593C241.573 195.83 243.306 196.283 244.865 195.739" stroke="black" stroke-width="2.13714" stroke-linecap="round" stroke-linejoin="round"/>
<path d="M367.02 259.628C366.127 261.388 364.94 262.982 363.512 264.344" stroke="black" stroke-width="2.13714" stroke-linecap="round" stroke-linejoin="round"/>
<circle cx="650.671" cy="376.437" r="105.489" fill="#FCB006"/>
<mask id="mask24_216_1604" style="mask-type:luminance" maskUnits="userSpaceOnUse" x="545" y="270" width="212" height="212">
<circle cx="650.671" cy="376.437" r="105.489" fill="white"/>
</mask>
<g mask="url(#mask24_216_1604)">
<path d="M357.358 325.031L937.044 294.805" stroke="white" stroke-width="2.13714"/>
<path d="M356.203 302.858L935.889 272.631" stroke="white" stroke-width="2.13714"/>
<path d="M355.047 280.685L934.732 250.458" stroke="white" stroke-width="2.13714"/>
</g>
<circle cx="650.671" cy="376.437" r="105.489" stroke="black" stroke-width="2.13714" stroke-linecap="round" stroke-linejoin="round"/>
<path d="M69.9969 11.9089L-82.6055 54.1388L-32.7183 132.409L69.9969 11.9089Z" fill="white"/>
<mask id="mask25_216_1604" style="mask-type:luminance" maskUnits="userSpaceOnUse" x="-83" y="11" width="153" height="122">
<path fill-rule="evenodd" clip-rule="evenodd" d="M69.9969 11.9092L-82.6055 54.139L-32.7183 132.41L69.9969 11.9092Z" fill="white"/>
</mask>
<g mask="url(#mask25_216_1604)">
<path d="M-152.131 -24.2981L-152.522 -13.2854L-142.375 -8.99191L-142.764 2.02503L-132.611 6.32709L-133 17.344L-122.85 21.6397L-123.239 32.6588L-113.088 36.9608L-113.477 47.9756L-103.326 52.2777L-103.71 63.2968L-93.561 67.5988L-93.9456 78.6179L-83.7942 82.92L-84.1811 93.9412L-74.0275 98.2433L-74.4122 109.264L-64.2651 113.56L-64.6519 124.581L-54.5048 128.875L-54.8894 139.896L-44.7402 144.196L-45.1227 155.219L-34.9713 159.521L-35.356 170.545L-25.1982 174.855L-25.5807 185.881L-15.4251 190.191L-15.8076 201.215L-5.65192 205.523L-6.03447 216.551L4.13189 220.872L3.7579 231.913" stroke="white" stroke-width="2.13714"/>
<path d="M-142.087 -30.7012L-142.479 -19.6885L-132.331 -15.3929L-132.72 -4.37804L-122.567 -0.0738445L-122.956 10.941L-112.809 15.2387L-113.195 26.2557L-103.044 30.5578L-103.433 41.5747L-93.2816 45.8746L-93.6663 56.8958L-83.517 61.1958L-83.9017 72.217L-73.7503 76.519L-74.1371 87.5381L-63.9836 91.8423L-64.3683 102.864L-54.2211 107.157L-54.6079 118.178L-44.4608 122.474L-44.8455 133.495L-34.6962 137.795L-35.0788 148.818L-24.9274 153.12L-25.3121 164.144L-15.1542 168.452L-15.5368 179.48L-5.38111 183.788L-5.76366 194.814L4.39202 199.12L4.00947 210.148L14.1758 214.471L13.8018 225.512" stroke="white" stroke-width="2.13714"/>
<path d="M-132.043 -37.104L-132.435 -26.0913L-122.287 -21.7957L-122.676 -10.7809L-112.523 -6.47668L-112.912 4.54027L-102.765 8.83592L-103.152 19.8529L-93.0001 24.1571L-93.3891 35.1719L-83.2377 39.4739L-83.6223 50.493L-73.4731 54.7929L-73.8578 65.8142L-63.7064 70.1162L-64.0932 81.1374L-53.9396 85.4395L-54.3243 96.4607L-44.1772 100.756L-44.564 111.778L-34.4169 116.071L-34.8016 127.092L-24.6523 131.392L-25.0348 142.416L-14.8834 146.718L-15.2681 157.741L-5.1103 162.052L-5.49285 173.077L4.66283 177.386L4.28028 188.411L14.436 192.72L14.0534 203.747L24.2198 208.068L23.8458 219.109" stroke="white" stroke-width="2.13714"/>
<path d="M-121.999 -43.5046L-122.39 -32.492L-112.243 -28.1963L-112.631 -17.1815L-102.478 -12.8773L-102.867 -1.8625L-92.7198 2.43528L-93.1066 13.4522L-82.9552 17.7543L-83.3441 28.7712L-73.1927 33.0712L-73.5774 44.0924L-63.4281 48.3923L-63.8128 59.4135L-53.6614 63.7134L-54.0483 74.7347L-43.8947 79.0367L-44.2794 90.0601L-34.1323 94.3536L-34.5191 105.375L-24.372 109.67L-24.7566 120.692L-14.6074 124.989L-14.9899 136.015L-4.83851 140.317L-5.22319 151.34L4.93462 155.649L4.55208 166.674L14.7078 170.985L14.3252 182.008L24.4809 186.317L24.0983 197.344L34.2647 201.668L33.8907 212.706" stroke="white" stroke-width="2.13714"/>
<path d="M-111.955 -49.9077L-112.346 -38.895L-102.199 -34.5994L-102.588 -23.5846L-92.434 -19.2804L-92.8229 -8.26558L-82.6758 -3.96779L-83.0626 7.04916L-72.9112 11.3534L-73.3002 22.3682L-63.1488 26.6681L-63.5335 37.6893L-53.3842 41.9892L-53.7689 53.0104L-43.6175 57.3125L-44.0043 68.3337L-33.8508 72.6358L-34.2354 83.657L-24.0883 87.9527L-24.4751 98.9717L-14.328 103.267L-14.7127 114.289L-4.56342 118.589L-4.94597 129.612L5.20543 133.914L4.82075 144.937L14.9786 149.246L14.596 160.273L24.7517 164.582L24.3691 175.607L34.5248 179.916L34.1423 190.943L44.3086 195.265L43.9347 206.305" stroke="white" stroke-width="2.13714"/>
<path d="M-101.91 -56.3081L-102.301 -45.2954L-92.1536 -41.0019L-92.5426 -29.985L-82.3891 -25.6808L-82.778 -14.666L-72.6309 -10.3682L-73.0177 0.648762L-62.8663 4.95082L-63.2553 15.9678L-53.1039 20.2677L-53.4907 31.2889L-43.3393 35.5888L-43.724 46.6079L-33.5726 50.91L-33.9594 61.9312L-23.8058 66.2332L-24.1905 77.2566L-14.0434 81.5501L-14.4302 92.5713L-4.28309 96.867L-4.66777 107.886L5.4815 112.186L5.09895 123.211L15.2504 127.514L14.8657 138.535L25.0235 142.845L24.6409 153.871L34.7966 158.181L34.4141 169.205L44.5698 173.513L44.1872 184.541L54.3536 188.864L53.9796 199.903" stroke="white" stroke-width="2.13714"/>
<path d="M-91.8648 -62.7109L-92.2559 -51.6983L-82.1087 -47.4026L-82.4977 -36.3878L-72.3441 -32.0836L-72.7352 -21.0688L-62.586 -16.771L-62.9728 -5.75407L-52.8214 -1.45201L-53.2103 9.56494L-43.0589 13.8649L-43.4458 24.8861L-33.2944 29.186L-33.679 40.2072L-23.5276 44.5093L-23.9145 55.5284L-13.7609 59.8326L-14.1477 70.8538L-3.99847 75.1494L-4.38529 86.1685L5.76183 90.4642L5.37715 101.485L15.5264 105.785L15.1439 116.809L25.2953 121.111L24.9106 132.134L35.0684 136.443L34.6859 147.47L44.8415 151.779L44.459 162.804L54.6147 167.113L54.2321 178.138L64.3985 182.462L64.0245 193.502" stroke="white" stroke-width="2.13714"/>
<path d="M-81.8208 -69.1121L-82.2119 -58.0994L-72.0648 -53.8059L-72.4537 -42.7889L-62.3002 -38.4869L-62.6913 -27.4699L-52.542 -23.1743L-52.9288 -12.1552L-42.7774 -7.85314L-43.1664 3.16167L-33.015 7.46373L-33.4018 18.4828L-23.2504 22.7827L-23.6351 33.804L-13.4837 38.106L-13.8705 49.1272L-3.71697 53.4293L-4.1038 64.4505L6.04547 68.7462L5.65865 79.7674L15.8058 84.0609L15.4211 95.0821L25.5704 99.382L25.1878 110.405L35.3392 114.707L34.9545 125.731L45.1124 130.041L44.7298 141.067L54.8855 145.378L54.5029 156.401L64.6586 160.709L64.2761 171.737L74.4424 176.058L74.0684 187.099" stroke="white" stroke-width="2.13714"/>
<path d="M-71.7769 -75.5149L-72.168 -64.5022L-62.0208 -60.2066L-62.4098 -49.1918L-52.2563 -44.8876L-52.6473 -33.8728L-42.4981 -29.575L-42.8849 -18.558L-32.7335 -14.256L-33.1225 -3.23902L-22.9711 1.0609L-23.3579 12.0821L-13.2065 16.382L-13.5912 27.4033L-3.43975 31.7053L-3.82657 42.7244L6.32697 47.0286L5.94015 58.0498L16.0894 62.3433L15.7026 73.3646L25.8497 77.6602L25.465 88.6814L35.6143 92.9814L35.2318 104.005L45.3832 108.307L44.9985 119.33L55.1542 123.639L54.7738 134.666L64.9294 138.975L64.5469 149.998L74.7026 154.307L74.32 165.334L84.4864 169.658L84.1124 180.698" stroke="white" stroke-width="2.13714"/>
<path d="M-61.731 -81.9172L-62.1221 -70.9046L-51.9749 -66.6089L-52.3639 -55.5941L-42.2125 -51.2899L-42.6015 -40.273L-32.4522 -35.9773L-32.839 -24.9604L-22.6876 -20.6562L-23.0766 -9.64136L-12.9252 -5.3393L-13.312 5.67978L-3.16057 9.97971L-3.54526 21.0009L6.60615 25.303L6.21933 36.3242L16.3729 40.6263L15.986 51.6475L26.1332 55.9431L25.7485 66.9644L35.8956 71.2579L35.5109 82.2791L45.6602 86.579L45.2777 97.6024L55.4291 101.904L55.0444 112.928L65.2001 117.238L64.8197 128.264L74.9753 132.572L74.5928 143.598L84.7485 147.906L84.3659 158.934L94.5323 163.255L94.1583 174.296" stroke="white" stroke-width="2.13714"/>
<path d="M-51.6861 -88.3184L-52.0771 -77.3057L-41.93 -73.01L-42.319 -61.9952L-32.1676 -57.691L-32.5565 -46.6762L-22.4073 -42.3784L-22.7941 -31.3615L-12.6427 -27.0594L-13.0316 -16.0425L-2.88023 -11.7426L-3.26705 -0.721349L6.88435 3.57858L6.49753 14.5998L16.6511 18.8997L16.2642 29.9209L26.4178 34.223L26.031 45.2464L36.1781 49.5399L35.7934 60.5611L45.9405 64.8567L45.5559 75.878L55.7051 80.1757L55.3204 91.2012L65.474 95.5033L65.0893 106.527L75.245 110.835L74.8646 121.861L85.0203 126.171L84.6377 137.195L94.7934 141.503L94.4108 152.531L104.577 156.854L104.203 167.892" stroke="white" stroke-width="2.13714"/>
<path d="M-41.645 -94.7212L-42.0361 -83.7085L-31.8869 -79.4129L-32.2758 -68.3981L-22.1244 -64.0939L-22.5134 -53.0791L-12.3641 -48.7813L-12.7509 -37.7643L-2.59952 -33.4601L-2.98848 -22.4453L7.16292 -18.1454L6.7761 -7.12417L16.9275 -2.82425L16.5407 8.19697L26.6942 12.499L26.3074 23.5181L36.4588 27.8223L36.0741 38.8435L46.2213 43.1392L45.8366 54.1583L55.9837 58.4539L55.5969 69.4751L65.7483 73.7751L65.3636 84.7984L75.5171 89.1005L75.1325 100.124L85.2881 104.432L84.9056 115.46L95.0634 119.768L94.6787 130.794L104.837 135.102L104.454 146.13L114.62 150.451L114.246 161.492" stroke="white" stroke-width="2.13714"/>
<path d="M-31.6011 -101.122L-31.9922 -90.1092L-21.8429 -85.8156L-22.234 -74.7987L-12.0805 -70.4945L-12.4694 -59.4797L-2.32016 -55.1819L-2.70912 -44.165L7.44442 -39.8629L7.05546 -28.846L17.2069 -24.546L16.82 -13.5248L26.9714 -9.22489L26.5846 1.79419L36.7382 6.09625L36.3513 17.1175L46.5028 21.4195L46.1181 32.4429L56.2652 36.7364L55.8805 47.7576L66.0276 52.0533L65.6408 63.0723L75.7922 67.3723L75.4075 78.3978L85.5611 82.6998L85.1764 93.7211L95.3321 98.0317L94.9495 109.057L105.107 113.368L104.723 124.391L114.88 128.7L114.498 139.727L124.662 144.051L124.29 155.089" stroke="white" stroke-width="2.13714"/>
<path d="M-21.5542 -107.525L-21.9453 -96.5122L-11.796 -92.2166L-12.1871 -81.2018L-2.0336 -76.8976L-2.42256 -65.8828L7.72671 -61.585L7.33775 -50.568L17.4913 -46.266L17.1023 -35.249L27.2537 -30.9491L26.8669 -19.9279L37.0183 -15.628L36.6315 -4.60674L46.785 -0.304683L46.3982 10.7144L56.5496 15.0186L56.1649 26.0398L66.3121 30.3355L65.9274 41.3546L76.0745 45.6502L75.6877 56.6714L85.8391 60.9713L85.4544 71.9947L95.608 76.2968L95.2233 87.3201L105.379 91.6286L104.996 102.656L115.154 106.965L114.77 117.99L124.927 122.299L124.545 133.324L134.709 137.648L134.337 148.688" stroke="white" stroke-width="2.13714"/>
<path d="M-11.5103 -113.927L-11.9014 -102.913L-1.7521 -98.6192L-2.1432 -87.6044L8.01035 -83.3002L7.62139 -72.2832L17.7707 -67.9876L17.3817 -56.9685L27.5352 -52.6664L27.1463 -41.6516L37.2977 -37.3496L36.9109 -26.3305L47.0623 -22.0305L46.6754 -11.0093L56.829 -6.70727L56.4422 4.31396L66.5936 8.61602L66.2089 19.6372L76.356 23.9329L75.9713 34.9541L86.1185 39.2476L85.7316 50.2688L95.8831 54.5688L95.4984 65.5921L105.652 69.8942L105.267 80.9175L115.423 85.2281L115.04 96.2536L125.198 100.564L124.813 111.588L134.971 115.896L134.589 126.924L144.753 131.245L144.379 142.285" stroke="white" stroke-width="2.13714"/>
<path d="M-1.46633 -120.328L-1.85742 -109.316L8.29185 -105.02L7.90075 -94.0052L18.0543 -89.701L17.6653 -78.6862L27.8146 -74.3884L27.4256 -63.3715L37.5792 -59.0694L37.1902 -48.0525L47.3416 -43.7526L46.9548 -32.7314L57.1062 -28.4314L56.7194 -17.4102L66.8729 -13.1082L66.4861 -2.08906L76.6375 2.213L76.2528 13.2364L86.4 17.5299L86.0153 28.5511L96.1624 32.8467L95.7756 43.868L105.927 48.1679L105.542 59.1912L115.696 63.4933L115.311 74.5167L125.467 78.8251L125.084 89.8527L135.242 94.1612L134.857 105.185L145.015 109.493L144.633 120.521L154.797 124.844L154.423 135.885" stroke="white" stroke-width="2.13714"/>
<path d="M8.5786 -126.731L8.1875 -115.719L18.3368 -111.423L17.9457 -100.408L28.0992 -96.1039L27.7103 -85.0869L37.8595 -80.7913L37.4706 -69.7743L47.6241 -65.4701L47.2351 -54.4553L57.3866 -50.1533L56.9997 -39.1342L67.1511 -34.8343L66.7643 -23.813L76.9157 -19.511L76.531 -8.48975L86.6824 -4.18769L86.2978 6.83352L96.4449 11.1292L96.0602 22.1504L106.207 26.4439L105.821 37.4651L115.972 41.765L115.587 52.7884L125.741 57.0905L125.356 68.1138L135.512 72.4244L135.129 83.4499L145.287 87.7584L144.902 98.7839L155.058 103.092L154.678 114.12L164.842 118.441L164.468 129.482" stroke="white" stroke-width="2.13714"/>
<path d="M18.6225 -133.132L18.2314 -122.119L28.3807 -117.824L27.9896 -106.809L38.1432 -102.505L37.7542 -91.4899L47.9035 -87.1922L47.5145 -76.1752L57.6681 -71.8732L57.2791 -60.8562L67.4305 -56.5563L67.0437 -45.5351L77.1951 -41.2351L76.8083 -30.2139L86.9597 -25.914L86.575 -14.8928L96.7264 -10.5907L96.3417 0.432632L106.489 4.72615L106.104 15.7474L116.251 20.043L115.864 31.0642L126.016 35.362L125.631 46.3875L135.785 50.6896L135.4 61.7129L145.556 66.0214L145.173 77.0469L155.331 81.3575L154.946 92.3809L165.102 96.6893L164.722 107.717L174.886 112.04L174.512 123.079" stroke="white" stroke-width="2.13714"/>
<path d="M28.6675 -139.535L28.2764 -128.522L38.4235 -124.227L38.0345 -113.212L48.1881 -108.908L47.7991 -97.893L57.9484 -93.5952L57.5594 -82.5783L67.713 -78.2741L67.324 -67.2593L77.4754 -62.9594L77.0886 -51.9381L87.24 -47.6382L86.8532 -36.617L97.0046 -32.3149L96.6199 -21.2959L106.771 -16.9916L106.387 -5.97043L116.534 -1.67479L116.149 9.3443L126.296 13.6399L125.909 24.6612L136.061 28.9611L135.676 39.9845L145.83 44.2865L145.445 55.3099L155.601 59.6183L155.218 70.646L165.376 74.9544L164.991 85.9799L175.147 90.2884L174.766 101.316L184.931 105.637L184.557 116.678" stroke="white" stroke-width="2.13714"/>
<path d="M38.7124 -145.936L38.3213 -134.923L48.4684 -130.629L48.0795 -119.612L58.233 -115.308L57.844 -104.293L67.9933 -99.9956L67.6044 -88.9787L77.7579 -84.6766L77.3689 -73.6597L87.5203 -69.3598L87.1335 -58.3385L97.2849 -54.0386L96.8981 -43.0195L107.05 -38.7175L106.665 -27.6963L116.816 -23.3942L116.432 -12.3708L126.579 -8.07732L126.192 2.9439L136.341 7.23741L135.954 18.2586L146.106 22.5585L145.721 33.584L155.872 37.8861L155.49 48.9073L165.646 53.2179L165.263 64.2434L175.421 68.554L175.036 79.5774L185.192 83.8859L184.811 94.9135L194.976 99.2369L194.602 110.275" stroke="white" stroke-width="2.13714"/>
</g>
<path fill-rule="evenodd" clip-rule="evenodd" d="M69.9969 11.9089L-82.6055 54.1388L-32.7183 132.409L69.9969 11.9089V11.9089Z" stroke="black" stroke-width="2.13714" stroke-linecap="round" stroke-linejoin="round"/>
<path d="M69.9969 11.9089L-82.6055 54.1388L-51.0613 103.631L69.9969 11.9089Z" fill="#1AB995" stroke="black" stroke-width="2.13714" stroke-linecap="round" stroke-linejoin="round"/>
<path d="M198.035 -90.5818L268.939 -36.7174L174.79 18.9957L103.886 -34.8687L198.035 -90.5818Z" fill="#FCB006"/>
<mask id="mask26_216_1604" style="mask-type:luminance" maskUnits="userSpaceOnUse" x="103" y="-91" width="166" height="110">
<path fill-rule="evenodd" clip-rule="evenodd" d="M198.035 -90.5818L268.939 -36.7174L174.79 18.9957L103.886 -34.8687L198.035 -90.5818Z" fill="white"/>
</mask>
<g mask="url(#mask26_216_1604)">
<path d="M65.6084 19.6565H307.216" stroke="white" stroke-width="2.13714"/>
<path d="M65.6084 10.4152H307.216" stroke="white" stroke-width="2.13714"/>
<path d="M65.6084 1.17331H307.216" stroke="white" stroke-width="2.13714"/>
</g>
<path fill-rule="evenodd" clip-rule="evenodd" d="M198.035 -90.5818L268.939 -36.7174L174.79 18.9957L103.886 -34.8687L198.035 -90.5818V-90.5818Z" stroke="black" stroke-width="2.13714" stroke-linecap="round" stroke-linejoin="round"/>
<path d="M850.799 144.905L756.647 200.616L741.531 110.341L835.681 54.6301L850.799 144.905Z" fill="white" stroke="black" stroke-width="2.13714" stroke-linecap="round" stroke-linejoin="round"/>
<path d="M850.798 144.905L921.702 198.769L827.552 254.48L756.646 200.616L850.798 144.905Z" fill="#FCB006"/>
<mask id="mask27_216_1604" style="mask-type:luminance" maskUnits="userSpaceOnUse" x="756" y="144" width="166" height="111">
<path fill-rule="evenodd" clip-rule="evenodd" d="M850.799 144.905L921.703 198.769L827.553 254.48L756.647 200.616L850.799 144.905Z" fill="white"/>
</mask>
<g mask="url(#mask27_216_1604)">
<path d="M718.372 255.142H959.979" stroke="white" stroke-width="2.13714"/>
<path d="M718.372 245.901H959.979" stroke="white" stroke-width="2.13714"/>
<path d="M718.372 236.659H959.979" stroke="white" stroke-width="2.13714"/>
<path d="M718.372 227.417H959.979" stroke="white" stroke-width="2.13714"/>
<path d="M718.372 218.176H959.979" stroke="white" stroke-width="2.13714"/>
<path d="M718.372 208.934H959.979" stroke="white" stroke-width="2.13714"/>
<path d="M718.372 199.692H959.979" stroke="white" stroke-width="2.13714"/>
<path d="M718.372 190.451H959.979" stroke="white" stroke-width="2.13714"/>
<path d="M718.372 181.209H959.979" stroke="white" stroke-width="2.13714"/>
<path d="M718.372 171.967H959.979" stroke="white" stroke-width="2.13714"/>
<path d="M718.372 162.726H959.979" stroke="white" stroke-width="2.13714"/>
<path d="M718.372 153.484H959.979" stroke="white" stroke-width="2.13714"/>
<path d="M718.372 144.243H959.979" stroke="white" stroke-width="2.13714"/>
</g>
<path fill-rule="evenodd" clip-rule="evenodd" d="M850.798 144.905L921.702 198.769L827.552 254.48L756.646 200.616L850.798 144.905V144.905Z" stroke="black" stroke-width="2.13714" stroke-linecap="round" stroke-linejoin="round"/>
<path d="M791.674 123.044C791.08 126.204 789.459 129.079 787.063 131.223" stroke="black" stroke-width="2.13714"/>
<path d="M-4.85717 283.285L66.0467 337.149L-28.1028 392.86L-99.0088 338.996L-4.85717 283.285Z" fill="#FCB006"/>
<mask id="mask28_216_1604" style="mask-type:luminance" maskUnits="userSpaceOnUse" x="-100" y="283" width="167" height="110">
<path fill-rule="evenodd" clip-rule="evenodd" d="M-4.85815 283.284L66.0457 337.149L-28.1038 392.86L-99.0098 338.995L-4.85815 283.284Z" fill="white"/>
</mask>
<g mask="url(#mask28_216_1604)">
<path d="M-137.285 310.347H104.322" stroke="white" stroke-width="2.13714"/>
<path d="M-137.285 301.105H104.322" stroke="white" stroke-width="2.13714"/>
<path d="M-137.285 291.864H104.322" stroke="white" stroke-width="2.13714"/>
<path d="M-137.285 282.622H104.322" stroke="white" stroke-width="2.13714"/>
</g>
<path fill-rule="evenodd" clip-rule="evenodd" d="M-4.85717 283.285L66.0467 337.149L-28.1028 392.86L-99.0088 338.996L-4.85717 283.285V283.285Z" stroke="black" stroke-width="2.13714" stroke-linecap="round" stroke-linejoin="round"/>
<path d="M-19.9756 193.01L50.9304 246.874L66.0464 337.149L-4.85747 283.285L-19.9756 193.01Z" fill="#1B80FD" stroke="black" stroke-width="2.13714" stroke-linecap="round" stroke-linejoin="round"/>
<path d="M239.233 358.619L240.129 292.949L300.937 285.134L300.041 350.801L239.233 358.619Z" fill="#1AB995" stroke="black" stroke-width="2.13714" stroke-linecap="round" stroke-linejoin="round"/>
<path d="M300.936 285.134L455.481 371.579L454.586 437.249L300.041 350.801L300.936 285.134Z" fill="white"/>
<path fill-rule="evenodd" clip-rule="evenodd" d="M300.936 285.134L455.481 371.579L454.586 437.249L300.041 350.801L300.936 285.134V285.134Z" stroke="black" stroke-width="2.13714" stroke-linecap="round" stroke-linejoin="round"/>
<path d="M726.749 25.0075V-155.674H726.649C725.613 -160.949 711.734 -165.129 694.718 -165.129C677.701 -165.129 663.823 -160.949 662.787 -155.674H662.687V25.0075H726.749Z" fill="white" stroke="black" stroke-width="2.13714" stroke-linecap="round" stroke-linejoin="round"/>
<ellipse cx="694.718" cy="25.0072" rx="32.0316" ry="10.0839" fill="#1A80FD" stroke="black" stroke-width="2.13714" stroke-linecap="round" stroke-linejoin="round"/>
</g>
</g>
<rect x="2" y="1.78418" width="801.427" height="313.892" stroke="black" stroke-width="2.13714" stroke-linecap="round" stroke-linejoin="round"/>
<path d="M411.477 67.9535C410.656 67.7825 409.938 67.5774 409.322 67.338C408.707 67.0644 408.109 66.7738 407.527 66.466V64.517H419.94V66.466C419.564 66.7396 419.051 67.0132 418.401 67.2867C417.785 67.5261 417.084 67.7483 416.298 67.9535L406.501 90.1113C404.86 93.8727 403.15 96.6766 401.372 98.5231C399.594 100.335 397.696 101.053 395.679 100.677C395.405 100.404 395.115 99.9935 394.807 99.4464C394.533 98.8651 394.26 98.2667 393.986 97.6512C393.747 97.0015 393.542 96.386 393.371 95.8047C393.2 95.1892 393.097 94.6763 393.063 94.2659L394.499 92.2143L400.603 94.1121C400.876 93.8043 401.133 93.4282 401.372 92.9837C401.612 92.5391 401.834 92.0433 402.039 91.4962L388.396 67.9535C387.746 67.7825 387.113 67.5774 386.498 67.338C385.916 67.0644 385.369 66.7738 384.856 66.466V64.517H400.859V66.466C399.834 67.0815 398.534 67.5774 396.961 67.9535L404.193 81.8534L405.27 85.1361H405.373L406.399 81.7509L411.477 67.9535ZM417.067 74.7752H430.506V76.7756C429.822 77.3227 428.933 77.733 427.839 78.0066V83.6999C427.839 85.1361 428.078 86.2816 428.557 87.1364C429.07 87.9571 429.942 88.3674 431.172 88.3674C432.062 88.3674 432.882 88.2307 433.634 87.9571C434.387 87.6836 435.054 87.3587 435.635 86.9826V78.0066C435.088 77.904 434.609 77.7501 434.199 77.545C433.788 77.3398 433.361 77.0834 432.916 76.7756V74.7752H446.406V76.7756C445.483 77.3569 444.354 77.7672 443.021 78.0066V97.1895C443.705 97.3605 444.32 97.5486 444.867 97.7538C445.414 97.9247 445.927 98.147 446.406 98.4205V100.421H431.532V98.4205C432.933 97.8392 434.301 97.4289 435.635 97.1895V89.1881C434.814 90.0772 433.737 90.8123 432.403 91.3936C431.07 91.9407 429.634 92.2143 428.095 92.2143C425.701 92.2143 423.821 91.5646 422.453 90.2652C421.119 88.9658 420.453 87.2048 420.453 84.9822V78.0066C419.153 77.7672 418.025 77.3569 417.067 76.7756V74.7752ZM449.356 74.7752H463V76.7756C462.623 76.9808 462.179 77.1859 461.666 77.3911C461.187 77.5963 460.606 77.8014 459.922 78.0066V89.5471L459.358 94.3172H459.614L461.615 90.4704L471.001 74.7752H480.695V76.7756C479.601 77.3911 478.472 77.8014 477.31 78.0066V97.1895C477.96 97.3605 478.575 97.5486 479.156 97.7538C479.738 97.9247 480.251 98.147 480.695 98.4205V100.421H467.052V98.4205C468.009 97.8734 469.035 97.4631 470.129 97.1895V85.0848L470.642 81.0328H470.386L468.436 84.8796L459.153 100.421H449.356V98.4205C449.937 98.147 450.502 97.9247 451.049 97.7538C451.596 97.5486 452.16 97.3605 452.741 97.1895V78.0066C451.408 77.8014 450.279 77.3911 449.356 76.7756V74.7752ZM505.569 96.2663C505.329 96.9502 504.936 97.5828 504.389 98.1641C503.842 98.7112 503.175 99.207 502.388 99.6515C501.636 100.096 500.764 100.438 499.773 100.677C498.815 100.917 497.806 101.036 496.746 101.036C494.49 101.036 492.541 100.729 490.899 100.113C489.292 99.4635 487.959 98.5573 486.899 97.3947C485.838 96.1979 485.052 94.7789 484.539 93.1375C484.026 91.462 483.77 89.6155 483.77 87.5981C483.77 83.2554 484.949 79.9386 487.309 77.6476C489.702 75.3223 493.088 74.1597 497.465 74.1597C499.14 74.1597 500.679 74.3478 502.081 74.724C503.483 75.0659 504.645 75.4762 505.569 75.9549C505.5 76.5362 505.398 77.1859 505.261 77.904C505.158 78.5879 505.021 79.2889 504.85 80.007C504.714 80.6908 504.543 81.3747 504.338 82.0586C504.132 82.7083 503.927 83.2554 503.722 83.6999H501.209L499.055 77.5963C498.815 77.4253 498.559 77.3056 498.285 77.2372C498.012 77.1346 497.601 77.0834 497.054 77.0834C496.165 77.0834 495.396 77.2543 494.746 77.5963C494.096 77.904 493.532 78.4511 493.053 79.2376C492.609 80.0241 492.267 81.067 492.028 82.3664C491.822 83.6657 491.72 85.2729 491.72 87.1877C491.72 88.5897 491.874 89.8891 492.182 91.0859C492.489 92.2485 492.951 93.2743 493.566 94.1634C494.216 95.0182 495.02 95.7021 495.977 96.215C496.935 96.6937 498.063 96.9331 499.362 96.9331C500.559 96.9331 501.602 96.7621 502.491 96.4202C503.38 96.0782 504.132 95.6679 504.748 95.1892L505.569 96.2663ZM519.283 84.9822C519.864 84.9138 520.633 84.8283 521.591 84.7258C522.548 84.6232 523.711 84.5719 525.078 84.5719C527.882 84.5719 530.122 85.2216 531.798 86.521C533.473 87.7861 534.311 89.701 534.311 92.2656C534.311 93.6333 534.037 94.8472 533.49 95.9073C532.943 96.9331 532.191 97.805 531.233 98.5231C530.276 99.207 529.13 99.737 527.797 100.113C526.498 100.455 525.078 100.626 523.54 100.626C523.061 100.626 522.377 100.609 521.488 100.575C520.633 100.575 519.693 100.558 518.667 100.523C517.675 100.489 516.684 100.455 515.692 100.421C514.735 100.421 513.931 100.421 513.281 100.421H508.511V98.4205C509.024 98.147 509.571 97.9247 510.153 97.7538C510.734 97.5486 511.315 97.3605 511.897 97.1895V78.0066C511.247 77.8698 510.649 77.6988 510.101 77.4937C509.554 77.2885 509.024 77.0492 508.511 76.7756V74.7752H522.36V76.7756C521.539 77.2543 520.514 77.6647 519.283 78.0066V84.9822ZM519.283 97.4973C519.624 97.5657 519.984 97.617 520.36 97.6512C520.77 97.6854 521.163 97.7025 521.539 97.7025C522.257 97.7025 522.907 97.617 523.488 97.446C524.07 97.275 524.566 96.9844 524.976 96.5741C525.386 96.1295 525.694 95.5653 525.899 94.8814C526.138 94.1634 526.258 93.2743 526.258 92.2143C526.258 91.291 526.138 90.5388 525.899 89.9575C525.694 89.342 525.386 88.8633 524.976 88.5213C524.6 88.1452 524.138 87.8887 523.591 87.7519C523.078 87.581 522.514 87.4955 521.898 87.4955C521.488 87.4955 521.044 87.5126 520.565 87.5468C520.12 87.581 519.693 87.6494 519.283 87.7519V97.4973ZM399.936 151.421H386.344V149.421C386.994 149.044 387.592 148.771 388.139 148.6C388.686 148.395 389.216 148.258 389.729 148.19V129.007C389.011 128.836 388.361 128.648 387.78 128.442C387.199 128.237 386.72 128.015 386.344 127.776V125.775H417.17V127.776C416.725 128.049 416.23 128.306 415.683 128.545C415.135 128.784 414.503 128.938 413.785 129.007V148.19C414.947 148.395 416.076 148.805 417.17 149.421V151.421H403.578V149.421C403.92 149.181 404.279 148.959 404.655 148.754C405.065 148.549 405.647 148.361 406.399 148.19V128.699H397.115V148.19C397.799 148.395 398.346 148.6 398.756 148.805C399.167 149.01 399.56 149.215 399.936 149.421V151.421ZM433.9 161.679H419.744V159.679C420.906 159.132 422.035 158.721 423.129 158.448V129.417L419.744 129.007V127.006C420.291 126.767 420.958 126.545 421.744 126.339C422.565 126.134 423.403 125.963 424.257 125.827C425.112 125.656 425.933 125.519 426.719 125.416C427.54 125.314 428.224 125.228 428.771 125.16H430.515V130.904H430.566C431.148 129.263 432.054 127.895 433.285 126.801C434.55 125.707 436.294 125.16 438.516 125.16C440.021 125.16 441.372 125.416 442.568 125.929C443.799 126.408 444.825 127.177 445.646 128.237C446.501 129.263 447.15 130.597 447.595 132.238C448.074 133.845 448.313 135.777 448.313 138.034C448.313 140.188 448.005 142.137 447.39 143.881C446.808 145.625 445.954 147.095 444.825 148.292C443.731 149.489 442.38 150.412 440.773 151.062C439.2 151.712 437.405 152.036 435.388 152.036C434.225 152.036 433.302 151.951 432.618 151.78C431.968 151.643 431.267 151.387 430.515 151.011V158.448C431.062 158.516 431.609 158.636 432.156 158.807C432.703 159.012 433.285 159.303 433.9 159.679V161.679ZM435.541 129.263C434.379 129.263 433.336 129.673 432.413 130.494C431.524 131.315 430.891 132.58 430.515 134.29V147.933C431.062 148.343 431.643 148.651 432.259 148.856C432.874 149.027 433.678 149.113 434.67 149.113C436.619 149.113 438.055 148.172 438.978 146.292C439.901 144.411 440.363 141.658 440.363 138.034C440.363 135.23 440.004 133.076 439.286 131.571C438.602 130.032 437.354 129.263 435.541 129.263ZM474.029 143.984C474.029 144.736 474.029 145.386 474.029 145.933C474.063 146.48 474.115 147.061 474.183 147.677L477.722 148.19V149.985C477.312 150.19 476.748 150.395 476.03 150.6C475.346 150.805 474.61 151.011 473.824 151.216C473.072 151.387 472.319 151.523 471.567 151.626C470.815 151.763 470.148 151.865 469.567 151.934H467.823C467.481 151.147 467.276 150.361 467.207 149.574C467.139 148.788 467.088 147.831 467.054 146.702H466.797C466.626 147.386 466.335 148.053 465.925 148.702C465.515 149.318 464.985 149.882 464.335 150.395C463.72 150.874 462.984 151.267 462.13 151.575C461.275 151.883 460.317 152.036 459.257 152.036C458.129 152.036 457.086 151.865 456.129 151.523C455.171 151.182 454.333 150.703 453.615 150.087C452.897 149.472 452.333 148.737 451.923 147.882C451.512 146.993 451.307 146.001 451.307 144.907C451.307 143.368 451.598 142.103 452.179 141.111C452.76 140.12 453.667 139.316 454.898 138.701C456.163 138.051 457.77 137.572 459.719 137.264C461.702 136.957 464.096 136.734 466.9 136.598C467.173 133.657 467.054 131.503 466.541 130.135C466.028 128.767 464.916 128.083 463.207 128.083C462.147 128.083 461.172 128.254 460.283 128.596L457.872 134.751H455.616C455.342 134.341 455.069 133.879 454.795 133.366C454.556 132.819 454.316 132.255 454.077 131.674C453.872 131.058 453.684 130.443 453.513 129.827C453.376 129.212 453.273 128.613 453.205 128.032C454.504 127.143 456.18 126.442 458.231 125.929C460.283 125.416 462.454 125.16 464.745 125.16C466.695 125.16 468.285 125.382 469.516 125.827C470.747 126.237 471.704 126.818 472.388 127.57C473.106 128.289 473.602 129.143 473.875 130.135C474.149 131.127 474.286 132.187 474.286 133.315C474.286 135.367 474.234 137.23 474.132 138.906C474.063 140.547 474.029 142.24 474.029 143.984ZM462.489 147.933C463.207 147.933 463.822 147.796 464.335 147.523C464.848 147.249 465.275 146.924 465.617 146.548C465.994 146.172 466.267 145.762 466.438 145.317C466.643 144.873 466.797 144.479 466.9 144.138V139.008C465.293 139.043 463.976 139.145 462.95 139.316C461.924 139.487 461.121 139.778 460.54 140.188C459.958 140.564 459.548 141.06 459.309 141.676C459.103 142.257 459.001 142.975 459.001 143.83C459.001 145.129 459.309 146.138 459.924 146.856C460.54 147.574 461.394 147.933 462.489 147.933ZM506.119 143.932C506.119 145.3 505.828 146.48 505.247 147.471C504.666 148.429 503.862 149.215 502.836 149.831C501.811 150.446 500.597 150.908 499.195 151.216C497.827 151.489 496.357 151.626 494.784 151.626C493.69 151.626 492.749 151.609 491.963 151.575C491.176 151.575 490.492 151.558 489.911 151.523C489.33 151.489 488.817 151.455 488.372 151.421C487.962 151.421 487.569 151.421 487.193 151.421H479.961V149.421C481.021 148.873 482.149 148.463 483.346 148.19V129.007C482.046 128.767 480.918 128.357 479.961 127.776V125.775H486.885C488.526 125.775 489.979 125.741 491.245 125.673C492.51 125.604 493.775 125.57 495.04 125.57C498.289 125.57 500.751 126.032 502.426 126.955C504.136 127.844 504.991 129.417 504.991 131.674C504.991 132.494 504.803 133.23 504.427 133.879C504.085 134.529 503.606 135.093 502.99 135.572C502.409 136.051 501.759 136.444 501.041 136.752C500.323 137.059 499.605 137.282 498.887 137.418C499.844 137.487 500.751 137.675 501.605 137.983C502.495 138.29 503.264 138.718 503.914 139.265C504.597 139.812 505.127 140.479 505.504 141.265C505.914 142.017 506.119 142.907 506.119 143.932ZM490.732 148.497C491.21 148.6 491.723 148.668 492.27 148.702C492.852 148.702 493.348 148.702 493.758 148.702C495.297 148.702 496.459 148.309 497.246 147.523C498.032 146.736 498.425 145.591 498.425 144.086C498.425 142.616 497.964 141.522 497.041 140.804C496.152 140.051 494.972 139.675 493.501 139.675H490.732V148.497ZM490.732 137.47L495.297 136.957C495.844 136.615 496.374 136.068 496.887 135.315C497.4 134.529 497.656 133.572 497.656 132.443C497.656 129.81 496.134 128.494 493.091 128.494C492.715 128.494 492.322 128.511 491.911 128.545C491.501 128.545 491.108 128.596 490.732 128.699V137.47ZM509.363 125.775H523.006V127.776C522.63 127.981 522.186 128.186 521.673 128.391C521.194 128.596 520.613 128.801 519.929 129.007V140.547L519.365 145.317H519.621L521.622 141.47L531.008 125.775H540.702V127.776C539.608 128.391 538.479 128.801 537.317 129.007V148.19C537.966 148.361 538.582 148.549 539.163 148.754C539.744 148.925 540.257 149.147 540.702 149.421V151.421H527.058V149.421C528.016 148.873 529.042 148.463 530.136 148.19V136.085L530.649 132.033H530.392L528.443 135.88L519.16 151.421H509.363V149.421C509.944 149.147 510.508 148.925 511.056 148.754C511.603 148.549 512.167 148.361 512.748 148.19V129.007C511.415 128.801 510.286 128.391 509.363 127.776V125.775ZM548.29 145.625C549.145 144.018 549.778 141.778 550.188 138.906C550.598 135.999 550.821 132.871 550.855 129.52C550.171 129.314 549.504 129.058 548.854 128.75C548.239 128.442 547.692 128.118 547.213 127.776V125.775H570.961V127.776C569.867 128.391 568.738 128.801 567.576 129.007V148.19C568.294 148.361 568.926 148.549 569.474 148.754C570.021 148.959 570.516 149.181 570.961 149.421V151.421H557.369V149.421C557.779 149.147 558.189 148.908 558.6 148.702C559.044 148.497 559.574 148.326 560.19 148.19V128.699H554.548C554.514 130.511 554.411 132.409 554.24 134.392C554.069 136.341 553.795 138.256 553.419 140.137C553.077 142.017 552.616 143.796 552.034 145.471C551.453 147.112 550.752 148.514 549.932 149.677C549.248 150.634 548.495 151.318 547.675 151.729C546.854 152.139 546.119 152.276 545.469 152.139C545.025 151.9 544.614 151.523 544.238 151.011C543.862 150.463 543.537 149.899 543.264 149.318C542.99 148.737 542.768 148.155 542.597 147.574C542.426 146.993 542.323 146.497 542.289 146.087L543.469 144.343L548.29 145.625ZM584.699 135.982C585.28 135.914 586.05 135.828 587.007 135.726C587.965 135.623 589.127 135.572 590.495 135.572C593.299 135.572 595.539 136.222 597.214 137.521C598.89 138.786 599.727 140.701 599.727 143.266C599.727 144.633 599.454 145.847 598.907 146.907C598.36 147.933 597.607 148.805 596.65 149.523C595.692 150.207 594.547 150.737 593.213 151.113C591.914 151.455 590.495 151.626 588.956 151.626C588.477 151.626 587.794 151.609 586.905 151.575C586.05 151.575 585.109 151.558 584.084 151.523C583.092 151.489 582.1 151.455 581.109 151.421C580.151 151.421 579.348 151.421 578.698 151.421H573.928V149.421C574.441 149.147 574.988 148.925 575.569 148.754C576.15 148.549 576.732 148.361 577.313 148.19V129.007C576.663 128.87 576.065 128.699 575.518 128.494C574.971 128.289 574.441 128.049 573.928 127.776V125.775H587.776V127.776C586.956 128.254 585.93 128.665 584.699 129.007V135.982ZM584.699 148.497C585.041 148.566 585.4 148.617 585.776 148.651C586.186 148.685 586.58 148.702 586.956 148.702C587.674 148.702 588.324 148.617 588.905 148.446C589.486 148.275 589.982 147.984 590.392 147.574C590.803 147.13 591.11 146.565 591.316 145.881C591.555 145.163 591.675 144.274 591.675 143.214C591.675 142.291 591.555 141.539 591.316 140.957C591.11 140.342 590.803 139.863 590.392 139.521C590.016 139.145 589.555 138.889 589.007 138.752C588.495 138.581 587.93 138.495 587.315 138.495C586.905 138.495 586.46 138.513 585.981 138.547C585.537 138.581 585.109 138.649 584.699 138.752V148.497ZM615.921 151.421H602.328V149.421C602.807 149.147 603.337 148.925 603.918 148.754C604.5 148.549 605.098 148.361 605.714 148.19V129.007C605.098 128.836 604.5 128.665 603.918 128.494C603.337 128.289 602.807 128.049 602.328 127.776V125.775H615.921V127.776C615.134 128.254 614.194 128.665 613.1 129.007V137.008H622.64V129.007C621.648 128.801 620.708 128.391 619.819 127.776V125.775H633.411V127.776C632.488 128.357 631.359 128.767 630.026 129.007V148.19C630.641 148.326 631.24 148.48 631.821 148.651C632.402 148.822 632.932 149.079 633.411 149.421V151.421H619.819V149.421C620.708 148.771 621.648 148.361 622.64 148.19V139.932H613.1V148.19C613.681 148.326 614.194 148.497 614.638 148.702C615.117 148.908 615.544 149.147 615.921 149.421V151.421ZM636.492 138.598C636.492 136.512 636.799 134.649 637.415 133.007C638.065 131.332 638.971 129.913 640.133 128.75C641.33 127.588 642.766 126.698 644.442 126.083C646.117 125.467 648.015 125.16 650.135 125.16C652.529 125.16 654.58 125.502 656.29 126.186C658.034 126.835 659.453 127.759 660.547 128.955C661.676 130.118 662.496 131.537 663.009 133.212C663.522 134.854 663.779 136.649 663.779 138.598C663.779 140.684 663.471 142.565 662.855 144.24C662.24 145.881 661.334 147.283 660.137 148.446C658.974 149.609 657.538 150.498 655.828 151.113C654.153 151.729 652.255 152.036 650.135 152.036C647.81 152.036 645.792 151.712 644.083 151.062C642.373 150.378 640.954 149.455 639.826 148.292C638.697 147.095 637.859 145.676 637.312 144.035C636.765 142.359 636.492 140.547 636.492 138.598ZM644.442 138.598C644.442 140.137 644.527 141.556 644.698 142.855C644.903 144.12 645.245 145.198 645.724 146.087C646.203 146.976 646.852 147.677 647.673 148.19C648.494 148.668 649.554 148.908 650.853 148.908C651.605 148.908 652.289 148.737 652.905 148.395C653.52 148.019 654.05 147.437 654.495 146.651C654.939 145.83 655.264 144.77 655.469 143.471C655.709 142.137 655.828 140.513 655.828 138.598C655.828 137.025 655.726 135.606 655.521 134.341C655.35 133.076 655.025 131.999 654.546 131.11C654.102 130.22 653.486 129.537 652.7 129.058C651.913 128.545 650.922 128.289 649.725 128.289C648.836 128.289 648.066 128.477 647.417 128.853C646.767 129.195 646.22 129.776 645.775 130.597C645.331 131.383 644.989 132.443 644.75 133.777C644.544 135.076 644.442 136.683 644.442 138.598ZM674.178 140.239L671.613 130.289V116.03C671.955 115.825 672.468 115.688 673.152 115.62C673.836 115.517 674.554 115.466 675.306 115.466C676.059 115.466 676.76 115.517 677.409 115.62C678.093 115.688 678.623 115.825 678.999 116.03V130.289L676.435 140.239H674.178ZM670.998 147.779C670.998 146.548 671.391 145.557 672.178 144.804C672.998 144.052 674.058 143.676 675.358 143.676C676.657 143.676 677.717 144.052 678.538 144.804C679.358 145.557 679.769 146.548 679.769 147.779C679.769 149.01 679.358 150.002 678.538 150.754C677.717 151.472 676.657 151.831 675.358 151.831C674.058 151.831 672.998 151.472 672.178 150.754C671.391 150.002 670.998 149.01 670.998 147.779Z" fill="white"/>
<path d="M397.095 192.249H395.354V204.251H392.28V178.321H395.354V190.397L397.021 189.878L405.726 178.321H409.283L400.614 189.471L399.059 190.693L400.948 192.175L410.431 204.251H406.541L397.095 192.249ZM414.297 187.1C415.235 186.532 416.322 186.112 417.556 185.84C418.816 185.569 420.125 185.433 421.483 185.433C422.767 185.433 423.792 185.606 424.558 185.952C425.348 186.297 425.941 186.754 426.336 187.322C426.756 187.866 427.027 188.471 427.151 189.137C427.299 189.804 427.373 190.471 427.373 191.138C427.373 192.619 427.336 194.064 427.262 195.472C427.188 196.88 427.151 198.213 427.151 199.473C427.151 200.386 427.188 201.251 427.262 202.066C427.336 202.881 427.472 203.634 427.669 204.325H425.484L424.706 201.732H424.521C424.298 202.078 424.014 202.424 423.669 202.769C423.348 203.091 422.952 203.387 422.483 203.659C422.014 203.905 421.471 204.115 420.853 204.288C420.236 204.461 419.532 204.548 418.742 204.548C417.952 204.548 417.211 204.424 416.519 204.177C415.852 203.93 415.272 203.584 414.778 203.14C414.284 202.671 413.889 202.115 413.593 201.473C413.321 200.831 413.185 200.102 413.185 199.287C413.185 198.201 413.408 197.299 413.852 196.583C414.297 195.842 414.914 195.262 415.704 194.842C416.519 194.398 417.482 194.089 418.594 193.916C419.73 193.718 420.977 193.62 422.335 193.62C422.681 193.62 423.014 193.62 423.335 193.62C423.681 193.62 424.027 193.644 424.372 193.694C424.447 192.953 424.484 192.286 424.484 191.693C424.484 190.335 424.212 189.384 423.669 188.841C423.125 188.298 422.137 188.026 420.705 188.026C420.285 188.026 419.828 188.063 419.335 188.137C418.865 188.187 418.371 188.273 417.853 188.397C417.359 188.495 416.877 188.631 416.408 188.804C415.964 188.952 415.568 189.125 415.223 189.323L414.297 187.1ZM419.557 201.955C420.248 201.955 420.866 201.868 421.409 201.695C421.952 201.498 422.421 201.263 422.817 200.991C423.212 200.695 423.533 200.374 423.78 200.028C424.051 199.682 424.249 199.349 424.372 199.028V195.953C424.027 195.929 423.669 195.916 423.298 195.916C422.952 195.892 422.607 195.879 422.261 195.879C421.495 195.879 420.742 195.929 420.001 196.028C419.285 196.102 418.643 196.262 418.075 196.509C417.532 196.731 417.087 197.052 416.741 197.472C416.42 197.867 416.26 198.374 416.26 198.991C416.26 199.855 416.569 200.572 417.186 201.14C417.803 201.683 418.594 201.955 419.557 201.955ZM437.638 195.916H435.934V204.251H432.97V185.729H435.934V194.101L437.526 193.583L443.453 185.729H446.676L440.934 193.175L439.379 194.398L441.305 195.879L447.491 204.251H443.824L437.638 195.916ZM471.686 188.322H463.499V204.251H460.536V185.729H474.649V204.251H471.686V188.322ZM479.323 194.99C479.323 191.854 480.014 189.458 481.397 187.804C482.805 186.124 484.818 185.285 487.435 185.285C488.818 185.285 490.016 185.519 491.029 185.989C492.066 186.433 492.918 187.088 493.585 187.952C494.251 188.792 494.745 189.817 495.066 191.027C495.387 192.212 495.548 193.533 495.548 194.99C495.548 198.127 494.844 200.535 493.436 202.214C492.053 203.868 490.053 204.696 487.435 204.696C486.052 204.696 484.842 204.473 483.805 204.029C482.793 203.56 481.953 202.905 481.286 202.066C480.619 201.201 480.125 200.176 479.804 198.991C479.483 197.781 479.323 196.447 479.323 194.99ZM482.397 194.99C482.397 195.929 482.484 196.83 482.657 197.694C482.854 198.559 483.151 199.312 483.546 199.954C483.941 200.596 484.46 201.115 485.102 201.51C485.744 201.905 486.522 202.103 487.435 202.103C490.794 202.127 492.473 199.757 492.473 194.99C492.473 194.027 492.375 193.113 492.177 192.249C492.004 191.385 491.72 190.631 491.325 189.989C490.93 189.347 490.411 188.841 489.769 188.471C489.127 188.075 488.349 187.878 487.435 187.878C484.077 187.853 482.397 190.224 482.397 194.99ZM500.22 185.766C501.085 185.717 501.986 185.655 502.925 185.581C503.888 185.507 505.073 185.47 506.481 185.47C508.926 185.47 510.679 185.853 511.741 186.618C512.803 187.359 513.334 188.495 513.334 190.026C513.334 190.891 513.075 191.743 512.556 192.582C512.062 193.397 511.235 194.002 510.074 194.398V194.546C511.531 194.817 512.556 195.324 513.149 196.065C513.741 196.805 514.038 197.793 514.038 199.028C514.038 200.954 513.346 202.35 511.963 203.214C510.58 204.078 508.506 204.511 505.74 204.511C504.703 204.511 503.74 204.473 502.85 204.399C501.961 204.35 501.085 204.288 500.22 204.214V185.766ZM503.184 201.769C503.653 201.819 504.11 201.856 504.554 201.88C505.024 201.905 505.567 201.917 506.184 201.917C507.839 201.917 509.061 201.683 509.852 201.214C510.667 200.744 511.074 199.942 511.074 198.806C511.074 197.917 510.728 197.201 510.037 196.657C509.37 196.089 508.172 195.805 506.444 195.805H503.184V201.769ZM506.814 193.546C507.259 193.546 507.691 193.471 508.111 193.323C508.53 193.175 508.901 192.978 509.222 192.731C509.568 192.459 509.839 192.15 510.037 191.805C510.259 191.459 510.37 191.088 510.37 190.693C510.37 189.705 510.074 189.026 509.481 188.656C508.889 188.261 507.851 188.063 506.37 188.063C505.579 188.063 504.95 188.075 504.48 188.1C504.036 188.125 503.604 188.15 503.184 188.174V193.546H506.814ZM521.67 201.658C522.583 201.806 523.46 201.88 524.3 201.88C525.855 201.88 526.942 201.584 527.559 200.991C528.177 200.374 528.486 199.51 528.486 198.398C528.486 197.41 528.177 196.596 527.559 195.953C526.967 195.311 525.917 194.99 524.411 194.99C523.991 194.99 523.534 195.003 523.04 195.027C522.546 195.052 522.089 195.126 521.67 195.25V201.658ZM521.67 192.805C522.262 192.706 522.83 192.644 523.374 192.619C523.917 192.57 524.435 192.545 524.929 192.545C526.189 192.545 527.238 192.694 528.078 192.99C528.942 193.262 529.634 193.644 530.153 194.138C530.671 194.632 531.029 195.225 531.227 195.916C531.449 196.583 531.56 197.299 531.56 198.065C531.56 200.312 530.93 201.942 529.671 202.955C528.436 203.967 526.423 204.473 523.633 204.473C522.052 204.473 520.41 204.399 518.706 204.251V185.729H521.67V192.805ZM534.487 185.729H537.45V204.251H534.487V185.729ZM555.793 203.029C555.052 203.572 554.175 203.98 553.162 204.251C552.15 204.548 551.088 204.696 549.977 204.696C548.544 204.696 547.334 204.473 546.346 204.029C545.359 203.56 544.544 202.905 543.902 202.066C543.284 201.201 542.827 200.176 542.531 198.991C542.259 197.781 542.123 196.447 542.123 194.99C542.123 191.854 542.815 189.458 544.198 187.804C545.581 186.124 547.569 185.285 550.162 185.285C551.347 185.285 552.348 185.384 553.162 185.581C554.002 185.754 554.755 186.013 555.422 186.359L554.57 188.915C554.002 188.594 553.372 188.347 552.681 188.174C551.989 187.977 551.249 187.878 550.458 187.878C546.951 187.878 545.198 190.249 545.198 194.99C545.198 195.929 545.285 196.83 545.457 197.694C545.655 198.534 545.964 199.287 546.383 199.954C546.828 200.596 547.396 201.115 548.088 201.51C548.804 201.905 549.68 202.103 550.718 202.103C551.607 202.103 552.397 201.967 553.088 201.695C553.805 201.424 554.385 201.115 554.829 200.769L555.793 203.029ZM571.431 193.286L571.543 190.99H571.431L569.913 193.36L561.578 204.251H559.874V185.729H562.837V197.028L562.726 199.213H562.874L564.319 196.917L572.654 185.729H574.395V204.251H571.431V193.286ZM591.913 188.322H586.097V204.251H583.133V188.322H577.318V185.729H591.913V188.322ZM597.819 201.658C598.733 201.806 599.609 201.88 600.449 201.88C602.005 201.88 603.153 201.584 603.894 200.991C604.635 200.374 605.005 199.51 605.005 198.398C605.005 197.41 604.647 196.596 603.931 195.953C603.215 195.311 602.091 194.99 600.56 194.99C600.14 194.99 599.684 195.003 599.19 195.027C598.696 195.052 598.239 195.126 597.819 195.25V201.658ZM597.819 192.805C598.412 192.706 598.98 192.644 599.523 192.619C600.066 192.57 600.585 192.545 601.079 192.545C602.363 192.545 603.45 192.694 604.339 192.99C605.228 193.262 605.944 193.644 606.487 194.138C607.055 194.632 607.463 195.225 607.71 195.916C607.957 196.583 608.08 197.299 608.08 198.065C608.08 200.312 607.401 201.942 606.043 202.955C604.709 203.967 602.622 204.473 599.782 204.473C598.202 204.473 596.56 204.399 594.855 204.251V185.729H597.819V192.805ZM633.244 203.029C632.504 203.572 631.627 203.98 630.614 204.251C629.602 204.548 628.54 204.696 627.429 204.696C625.996 204.696 624.786 204.473 623.798 204.029C622.81 203.56 621.995 202.905 621.353 202.066C620.736 201.201 620.279 200.176 619.983 198.991C619.711 197.781 619.575 196.447 619.575 194.99C619.575 191.854 620.267 189.458 621.65 187.804C623.033 186.124 625.021 185.285 627.614 185.285C628.799 185.285 629.799 185.384 630.614 185.581C631.454 185.754 632.207 186.013 632.874 186.359L632.022 188.915C631.454 188.594 630.824 188.347 630.133 188.174C629.441 187.977 628.7 187.878 627.91 187.878C624.403 187.878 622.65 190.249 622.65 194.99C622.65 195.929 622.736 196.83 622.909 197.694C623.107 198.534 623.415 199.287 623.835 199.954C624.28 200.596 624.848 201.115 625.539 201.51C626.255 201.905 627.132 202.103 628.169 202.103C629.058 202.103 629.849 201.967 630.54 201.695C631.256 201.424 631.837 201.115 632.281 200.769L633.244 203.029ZM637.326 185.766C638.19 185.717 639.091 185.655 640.03 185.581C640.993 185.507 642.178 185.47 643.586 185.47C646.031 185.47 647.784 185.853 648.846 186.618C649.908 187.359 650.439 188.495 650.439 190.026C650.439 190.891 650.18 191.743 649.661 192.582C649.167 193.397 648.34 194.002 647.179 194.398V194.546C648.636 194.817 649.661 195.324 650.254 196.065C650.847 196.805 651.143 197.793 651.143 199.028C651.143 200.954 650.451 202.35 649.068 203.214C647.685 204.078 645.611 204.511 642.845 204.511C641.808 204.511 640.845 204.473 639.956 204.399C639.067 204.35 638.19 204.288 637.326 204.214V185.766ZM640.289 201.769C640.758 201.819 641.215 201.856 641.66 201.88C642.129 201.905 642.672 201.917 643.29 201.917C644.944 201.917 646.167 201.683 646.957 201.214C647.772 200.744 648.179 199.942 648.179 198.806C648.179 197.917 647.834 197.201 647.142 196.657C646.475 196.089 645.278 195.805 643.549 195.805H640.289V201.769ZM643.919 193.546C644.364 193.546 644.796 193.471 645.216 193.323C645.636 193.175 646.006 192.978 646.327 192.731C646.673 192.459 646.945 192.15 647.142 191.805C647.364 191.459 647.476 191.088 647.476 190.693C647.476 189.705 647.179 189.026 646.586 188.656C645.994 188.261 644.957 188.063 643.475 188.063C642.685 188.063 642.055 188.075 641.586 188.1C641.141 188.125 640.709 188.15 640.289 188.174V193.546H643.919ZM654.774 194.99C654.774 191.854 655.465 189.458 656.848 187.804C658.256 186.124 660.269 185.285 662.887 185.285C664.27 185.285 665.467 185.519 666.48 185.989C667.517 186.433 668.369 187.088 669.036 187.952C669.703 188.792 670.197 189.817 670.518 191.027C670.839 192.212 670.999 193.533 670.999 194.99C670.999 198.127 670.295 200.535 668.888 202.214C667.505 203.868 665.504 204.696 662.887 204.696C661.504 204.696 660.294 204.473 659.256 204.029C658.244 203.56 657.404 202.905 656.737 202.066C656.071 201.201 655.577 200.176 655.256 198.991C654.935 197.781 654.774 196.447 654.774 194.99ZM657.849 194.99C657.849 195.929 657.935 196.83 658.108 197.694C658.306 198.559 658.602 199.312 658.997 199.954C659.392 200.596 659.911 201.115 660.553 201.51C661.195 201.905 661.973 202.103 662.887 202.103C666.245 202.127 667.925 199.757 667.925 194.99C667.925 194.027 667.826 193.113 667.628 192.249C667.455 191.385 667.171 190.631 666.776 189.989C666.381 189.347 665.862 188.841 665.22 188.471C664.578 188.075 663.8 187.878 662.887 187.878C659.528 187.853 657.849 190.224 657.849 194.99ZM690.045 204.696C688.711 204.696 687.563 204.498 686.599 204.103C685.661 203.683 684.883 203.103 684.266 202.362C683.673 201.596 683.216 200.683 682.895 199.621C682.599 198.534 682.414 197.349 682.339 196.065H678.635V204.251H675.672V185.729H678.635V193.471H682.376C682.574 190.829 683.29 188.804 684.525 187.396C685.785 185.989 687.649 185.285 690.119 185.285C691.477 185.285 692.625 185.519 693.564 185.989C694.527 186.433 695.305 187.088 695.897 187.952C696.515 188.792 696.959 189.817 697.231 191.027C697.503 192.212 697.639 193.533 697.639 194.99C697.639 198.127 697.009 200.535 695.749 202.214C694.514 203.868 692.613 204.696 690.045 204.696ZM685.266 194.99C685.266 195.953 685.34 196.867 685.488 197.732C685.636 198.596 685.896 199.361 686.266 200.028C686.637 200.67 687.13 201.177 687.748 201.547C688.39 201.917 689.18 202.103 690.119 202.103C691.699 202.103 692.835 201.535 693.527 200.399C694.218 199.238 694.564 197.435 694.564 194.99C694.564 194.027 694.49 193.113 694.342 192.249C694.218 191.385 693.984 190.631 693.638 189.989C693.292 189.323 692.835 188.804 692.267 188.434C691.699 188.063 690.971 187.878 690.082 187.878C688.378 187.878 687.143 188.458 686.377 189.619C685.636 190.755 685.266 192.545 685.266 194.99ZM403.133 225.322H394.947V241.251H391.983V222.729H406.097V241.251H403.133V225.322ZM411.807 222.729H413.845L414.4 224.952H414.549C415.117 224.088 415.845 223.433 416.734 222.989C417.648 222.519 418.685 222.285 419.846 222.285C422.315 222.285 424.155 223.013 425.365 224.47C426.576 225.927 427.181 228.311 427.181 231.62C427.181 233.176 426.971 234.583 426.551 235.843C426.156 237.078 425.588 238.127 424.847 238.992C424.106 239.856 423.205 240.523 422.143 240.992C421.105 241.461 419.945 241.696 418.66 241.696C417.747 241.696 417.018 241.634 416.475 241.511C415.956 241.412 415.388 241.227 414.771 240.955V248.66H411.807V222.729ZM419.29 224.878C418.031 224.878 417.031 225.211 416.29 225.878C415.574 226.52 415.067 227.508 414.771 228.842V238.028C415.215 238.374 415.722 238.646 416.29 238.843C416.858 239.016 417.611 239.103 418.549 239.103C420.253 239.103 421.599 238.473 422.587 237.213C423.6 235.929 424.106 234.052 424.106 231.583C424.106 230.57 424.019 229.657 423.847 228.842C423.674 228.002 423.39 227.298 422.995 226.73C422.624 226.137 422.13 225.681 421.513 225.359C420.92 225.038 420.179 224.878 419.29 224.878ZM430.811 231.99C430.811 228.854 431.503 226.458 432.886 224.804C434.294 223.124 436.306 222.285 438.924 222.285C440.307 222.285 441.505 222.519 442.517 222.989C443.554 223.433 444.406 224.088 445.073 224.952C445.74 225.792 446.234 226.817 446.555 228.027C446.876 229.212 447.037 230.533 447.037 231.99C447.037 235.127 446.333 237.535 444.925 239.214C443.542 240.868 441.542 241.696 438.924 241.696C437.541 241.696 436.331 241.473 435.294 241.029C434.281 240.56 433.442 239.905 432.775 239.066C432.108 238.201 431.614 237.176 431.293 235.991C430.972 234.781 430.811 233.447 430.811 231.99ZM433.886 231.99C433.886 232.929 433.972 233.83 434.145 234.694C434.343 235.559 434.639 236.312 435.034 236.954C435.43 237.596 435.948 238.115 436.59 238.51C437.232 238.905 438.01 239.103 438.924 239.103C442.283 239.127 443.962 236.757 443.962 231.99C443.962 231.027 443.863 230.113 443.666 229.249C443.493 228.385 443.209 227.631 442.814 226.989C442.418 226.347 441.9 225.841 441.258 225.471C440.616 225.075 439.838 224.878 438.924 224.878C435.565 224.853 433.886 227.224 433.886 231.99ZM467.865 245.956H465.865L465.309 241.251H451.381L450.825 245.956H448.825V238.658H451.01C451.208 238.387 451.467 237.905 451.788 237.213C452.109 236.497 452.418 235.509 452.714 234.25C453.035 232.966 453.307 231.385 453.529 229.508C453.776 227.607 453.924 225.347 453.974 222.729H465.161V238.658H467.865V245.956ZM462.198 238.658V225.322H456.641C456.592 226.36 456.505 227.496 456.382 228.73C456.258 229.941 456.085 231.163 455.863 232.398C455.666 233.608 455.406 234.756 455.085 235.843C454.764 236.929 454.394 237.868 453.974 238.658H462.198ZM476.979 234.732L478.016 238.288H478.201L479.016 234.694L482.609 222.729H485.61L480.127 239.362C479.707 240.572 479.288 241.745 478.868 242.881C478.473 244.017 478.028 245.03 477.534 245.919C477.04 246.808 476.485 247.512 475.867 248.03C475.25 248.574 474.534 248.845 473.719 248.845C472.83 248.845 472.101 248.722 471.533 248.475L472.052 245.919C472.373 246.042 472.682 246.104 472.978 246.104C473.669 246.104 474.336 245.734 474.978 244.993C475.62 244.276 476.151 243.029 476.571 241.251L469.125 222.729H472.533L476.979 234.732ZM493.456 232.916H491.752V241.251H488.789V222.729H491.752V231.101L493.345 230.583L499.272 222.729H502.495L496.753 230.175L495.197 231.398L497.124 232.879L503.31 241.251H499.643L493.456 232.916ZM518.296 225.322H512.48V241.251H509.516V225.322H503.7V222.729H518.296V225.322ZM532.796 230.286L532.907 227.99H532.796L531.277 230.36L522.942 241.251H521.238V222.729H524.202V234.028L524.091 236.213H524.239L525.684 233.917L534.018 222.729H535.759V241.251H532.796V230.286ZM541.46 222.766C542.325 222.717 543.226 222.655 544.165 222.581C545.128 222.507 546.313 222.47 547.721 222.47C550.166 222.47 551.919 222.853 552.981 223.618C554.043 224.359 554.574 225.495 554.574 227.026C554.574 227.891 554.315 228.743 553.796 229.582C553.302 230.397 552.475 231.002 551.314 231.398V231.546C552.771 231.817 553.796 232.324 554.389 233.065C554.981 233.805 555.278 234.793 555.278 236.028C555.278 237.954 554.586 239.35 553.203 240.214C551.82 241.078 549.746 241.511 546.98 241.511C545.943 241.511 544.98 241.473 544.091 241.399C543.201 241.35 542.325 241.288 541.46 241.214V222.766ZM544.424 238.769C544.893 238.819 545.35 238.856 545.795 238.88C546.264 238.905 546.807 238.917 547.424 238.917C549.079 238.917 550.302 238.683 551.092 238.214C551.907 237.744 552.314 236.942 552.314 235.806C552.314 234.917 551.969 234.201 551.277 233.657C550.61 233.089 549.412 232.805 547.684 232.805H544.424V238.769ZM548.054 230.546C548.499 230.546 548.931 230.471 549.351 230.323C549.771 230.175 550.141 229.978 550.462 229.731C550.808 229.459 551.079 229.15 551.277 228.805C551.499 228.459 551.61 228.088 551.61 227.693C551.61 226.705 551.314 226.026 550.721 225.656C550.129 225.261 549.091 225.063 547.61 225.063C546.819 225.063 546.19 225.075 545.72 225.1C545.276 225.125 544.844 225.15 544.424 225.174V230.546H548.054ZM571.282 233.065H562.91V241.251H559.946V222.729H562.91V230.471H571.282V222.729H574.245V241.251H571.282V233.065ZM578.914 231.99C578.914 228.854 579.605 226.458 580.988 224.804C582.396 223.124 584.409 222.285 587.027 222.285C588.409 222.285 589.607 222.519 590.62 222.989C591.657 223.433 592.509 224.088 593.176 224.952C593.843 225.792 594.336 226.817 594.658 228.027C594.979 229.212 595.139 230.533 595.139 231.99C595.139 235.127 594.435 237.535 593.028 239.214C591.645 240.868 589.644 241.696 587.027 241.696C585.644 241.696 584.433 241.473 583.396 241.029C582.384 240.56 581.544 239.905 580.877 239.066C580.21 238.201 579.717 237.176 579.396 235.991C579.074 234.781 578.914 233.447 578.914 231.99ZM581.989 231.99C581.989 232.929 582.075 233.83 582.248 234.694C582.445 235.559 582.742 236.312 583.137 236.954C583.532 237.596 584.051 238.115 584.693 238.51C585.335 238.905 586.113 239.103 587.027 239.103C590.385 239.127 592.064 236.757 592.064 231.99C592.064 231.027 591.966 230.113 591.768 229.249C591.595 228.385 591.311 227.631 590.916 226.989C590.521 226.347 590.002 225.841 589.36 225.471C588.718 225.075 587.94 224.878 587.027 224.878C583.668 224.853 581.989 227.224 581.989 231.99ZM612.443 240.029C611.703 240.572 610.826 240.98 609.813 241.251C608.801 241.548 607.739 241.696 606.628 241.696C605.195 241.696 603.985 241.473 602.997 241.029C602.009 240.56 601.195 239.905 600.552 239.066C599.935 238.201 599.478 237.176 599.182 235.991C598.91 234.781 598.774 233.447 598.774 231.99C598.774 228.854 599.466 226.458 600.849 224.804C602.232 223.124 604.22 222.285 606.813 222.285C607.998 222.285 608.998 222.384 609.813 222.581C610.653 222.754 611.406 223.013 612.073 223.359L611.221 225.915C610.653 225.594 610.023 225.347 609.332 225.174C608.64 224.977 607.899 224.878 607.109 224.878C603.602 224.878 601.849 227.249 601.849 231.99C601.849 232.929 601.935 233.83 602.108 234.694C602.306 235.534 602.615 236.287 603.034 236.954C603.479 237.596 604.047 238.115 604.738 238.51C605.455 238.905 606.331 239.103 607.368 239.103C608.258 239.103 609.048 238.967 609.739 238.695C610.455 238.424 611.036 238.115 611.48 237.769L612.443 240.029ZM627.763 225.322H621.947V241.251H618.983V225.322H613.168V222.729H627.763V225.322ZM633.669 238.658C634.583 238.806 635.459 238.88 636.299 238.88C637.855 238.88 639.003 238.584 639.744 237.991C640.485 237.374 640.855 236.51 640.855 235.398C640.855 234.41 640.497 233.596 639.781 232.953C639.065 232.311 637.941 231.99 636.41 231.99C635.99 231.99 635.533 232.003 635.04 232.027C634.546 232.052 634.089 232.126 633.669 232.25V238.658ZM633.669 229.805C634.262 229.706 634.83 229.644 635.373 229.619C635.916 229.57 636.435 229.545 636.929 229.545C638.213 229.545 639.3 229.694 640.189 229.99C641.078 230.262 641.794 230.644 642.337 231.138C642.905 231.632 643.313 232.225 643.56 232.916C643.807 233.583 643.93 234.299 643.93 235.065C643.93 237.312 643.251 238.942 641.893 239.955C640.559 240.967 638.472 241.473 635.632 241.473C634.052 241.473 632.409 241.399 630.705 241.251V222.729H633.669V229.805ZM650.593 234.694C650.568 234.571 650.556 234.435 650.556 234.287C650.556 234.139 650.556 234.003 650.556 233.88C650.556 232.842 650.704 231.929 651 231.138C651.322 230.348 651.704 229.632 652.149 228.99C652.618 228.323 653.112 227.706 653.631 227.138C654.174 226.57 654.668 226.002 655.112 225.434C655.582 224.841 655.964 224.223 656.261 223.581C656.582 222.915 656.742 222.161 656.742 221.322C656.742 220.186 656.409 219.26 655.742 218.543C655.1 217.827 654.013 217.469 652.482 217.469C651.593 217.469 650.692 217.63 649.778 217.951C648.864 218.247 648.074 218.605 647.407 219.025L646.407 216.728C647.345 216.16 648.333 215.716 649.371 215.395C650.408 215.049 651.692 214.876 653.223 214.876C654.31 214.876 655.26 215.037 656.075 215.358C656.915 215.654 657.607 216.074 658.15 216.617C658.718 217.16 659.138 217.803 659.409 218.543C659.681 219.284 659.817 220.075 659.817 220.914C659.817 222.026 659.644 223.001 659.298 223.841C658.977 224.656 658.557 225.409 658.039 226.1C657.545 226.767 657.002 227.397 656.409 227.99C655.841 228.582 655.298 229.212 654.779 229.879C654.285 230.521 653.865 231.225 653.519 231.99C653.198 232.756 653.038 233.657 653.038 234.694H650.593ZM649.852 239.547C649.852 238.88 650.037 238.362 650.408 237.991C650.803 237.596 651.322 237.399 651.964 237.399C652.63 237.399 653.161 237.596 653.556 237.991C653.952 238.362 654.149 238.88 654.149 239.547C654.149 240.189 653.952 240.708 653.556 241.103C653.161 241.498 652.63 241.696 651.964 241.696C651.322 241.696 650.803 241.498 650.408 241.103C650.037 240.708 649.852 240.189 649.852 239.547Z" fill="white"/>
</svg>
