<svg width="120" height="120" viewBox="0 0 120 120" fill="none" xmlns="http://www.w3.org/2000/svg">
  <path
    d="M70.2309 70.2511L55.9488 83.7966L49.8103 77.4127C49.0328 76.5942 47.7642 76.5942 46.9457 77.3717C46.1273 78.1493 46.1273 79.4179 46.9048 80.2363L54.4346 88.0935C54.8438 88.5028 55.3758 88.7074 55.8669 88.7074C56.358 88.7074 56.8491 88.5437 57.2583 88.1754L72.9727 73.2385C73.7911 72.461 73.8321 71.1924 73.0545 70.3739C72.3179 69.5145 71.0493 69.4736 70.2309 70.2511Z"
    fill="currentcolor" />
  <path
    d="M102.765 51.3857H17.2356C12.816 51.3857 9.17383 54.987 9.17383 59.4476V98.9382C9.17383 103.358 12.775 107 17.2356 107H102.765C107.184 107 110.826 103.399 110.826 98.9382V59.4476C110.785 54.987 107.184 51.3857 102.765 51.3857ZM106.775 98.8973C106.775 101.107 104.974 102.908 102.765 102.908H17.2356C15.0258 102.908 13.2252 101.107 13.2252 98.8973V59.4066C13.2252 57.1968 15.0258 55.3962 17.2356 55.3962H102.765C104.974 55.3962 106.775 57.1968 106.775 59.4066V98.8973Z"
    fill="currentcolor" />
  <path
    d="M29.1037 95.1732H22.1877V89.6896C22.1877 88.5846 21.2874 87.6843 20.1825 87.6843C19.0776 87.6843 18.1772 88.5846 18.1772 89.6896V97.1784C18.1772 98.2834 19.0776 99.1837 20.1825 99.1837H29.1037C30.2086 99.1837 31.1089 98.2834 31.1089 97.1784C31.1089 96.0735 30.2086 95.1732 29.1037 95.1732Z"
    fill="currentcolor" />
  <path
    d="M29.1036 59.1201H20.1415C19.0365 59.1201 18.1362 60.0204 18.1362 61.1253V68.6142C18.1362 69.7192 19.0365 70.6195 20.1415 70.6195C21.2464 70.6195 22.1467 69.7192 22.1467 68.6142V63.1306H29.0627C30.1676 63.1306 31.0679 62.2303 31.0679 61.1253C31.1088 60.0204 30.2085 59.1201 29.1036 59.1201Z"
    fill="currentcolor" />
  <path
    d="M99.8595 87.7252C98.7546 87.7252 97.8543 88.6255 97.8543 89.7304V95.1732H90.9383C89.8334 95.1732 88.9331 96.0735 88.9331 97.1784C88.9331 98.2833 89.8334 99.1836 90.9383 99.1836H99.8595C100.964 99.1836 101.865 98.2833 101.865 97.1784V89.6895C101.865 88.6255 100.964 87.7252 99.8595 87.7252Z"
    fill="currentcolor" />
  <path
    d="M99.8595 59.1201H90.9383C89.8334 59.1201 88.9331 60.0204 88.9331 61.1253C88.9331 62.2303 89.8334 63.1306 90.9383 63.1306H97.8543V68.6142C97.8543 69.7192 98.7546 70.6195 99.8595 70.6195C100.964 70.6195 101.865 69.7192 101.865 68.6142V61.1253C101.865 60.0204 100.964 59.1201 99.8595 59.1201Z"
    fill="currentcolor" />
  <path
    d="M36.0194 47.4571C36.5514 47.4571 37.0424 47.2525 37.4517 46.8842L51.2018 33.1341C53.4116 35.5076 56.5218 37.0218 60.0411 37.0218C63.5196 37.0218 66.6706 35.5076 68.8396 33.1341L82.5897 46.8842C82.9989 47.2934 83.49 47.4571 84.022 47.4571C84.554 47.4571 85.045 47.2525 85.4543 46.8842C86.2318 46.1067 86.2318 44.838 85.4543 44.0196L71.0494 29.6556C71.6632 28.2233 71.9906 26.6273 71.9906 24.9904C71.9906 18.3609 66.5888 13 60.0002 13C53.4116 13 48.0098 18.4018 48.0098 24.9904C48.0098 26.6273 48.3372 28.2233 48.951 29.6556L34.5871 44.0196C33.8095 44.7971 33.8095 46.0657 34.5871 46.8842C34.9963 47.2525 35.4874 47.4571 36.0194 47.4571ZM60.0002 17.0104C64.379 17.0104 67.9802 20.5707 67.9802 24.9904C67.9802 29.4101 64.4199 32.9704 60.0002 32.9704C55.5805 32.9704 52.0202 29.4101 52.0202 24.9904C52.0202 20.5707 55.6214 17.0104 60.0002 17.0104Z"
    fill="currentcolor" />
</svg>

