<svg width="120" height="120" viewBox="0 0 120 120" fill="none" xmlns="http://www.w3.org/2000/svg">
  <path
    d="M96.5721 34.3887L78.7268 16.5067C77.7721 15.552 76.4869 15.0379 75.1283 15.0379H29.5604C25.3377 15.0379 21.9229 18.4527 21.9229 22.6754V97.3246C21.9229 101.547 25.3377 104.962 29.5604 104.962H90.44C94.6627 104.962 98.0775 101.547 98.0775 97.3246V37.9504C98.0775 36.5918 97.5635 35.3434 96.5721 34.3887ZM94.3322 97.2879C94.3322 99.4176 92.5697 101.18 90.44 101.18H29.5604C27.4307 101.18 25.6682 99.4176 25.6682 97.2879V22.6754C25.6682 20.5457 27.4307 18.7832 29.5604 18.7832H75.165C75.5322 18.7832 75.8627 18.9301 76.1197 19.1871L93.965 37.0324C94.2221 37.2895 94.3689 37.6199 94.3689 37.9871V97.2879H94.3322Z"
    fill="currentcolor" />
  <path
    d="M89.8156 39.309H77.7352C75.6055 39.309 73.843 37.5465 73.843 35.4168V23.2996C73.843 22.2715 72.9984 21.4269 71.9703 21.4269C70.9422 21.4269 70.0977 22.2715 70.0977 23.2996V35.3801C70.0977 39.6027 73.5125 43.0176 77.7352 43.0176H89.8156C90.8437 43.0176 91.6883 42.173 91.6883 41.1449C91.6883 40.1168 90.8437 39.309 89.8156 39.309Z"
    fill="currentcolor" />
  <path
    d="M51.5548 65.673C52.3626 69.7488 55.961 72.723 60.1102 72.723C64.2594 72.723 67.8579 69.7488 68.6657 65.673L69.7305 60.2019C70.0977 57.5949 69.2899 54.9879 67.5641 53.0051C65.8384 51.0223 63.3415 49.884 60.7344 49.884H59.486C56.879 49.884 54.3821 51.0223 52.6563 53.0051C50.9305 54.9879 50.1594 57.5949 50.5266 60.3121L51.5548 65.673ZM55.4469 55.4652C56.4751 54.2902 57.9071 53.6293 59.4493 53.6293H60.6977C62.2399 53.6293 63.7087 54.2902 64.7001 55.4652C65.7282 56.6402 66.1688 58.1824 65.9852 59.5777L64.9571 64.9754C64.5165 67.2887 62.4602 68.9777 60.0735 68.9777C57.6868 68.9777 55.6673 67.2887 55.1899 64.9754L54.1618 59.6879C53.9782 58.1457 54.4555 56.6035 55.4469 55.4652Z"
    fill="currentcolor" />
  <path
    d="M74.9815 78.2309L66.5729 75.2567L60.0737 81.7559L53.5745 75.2567L45.1659 78.2309C43.8808 78.6715 42.9261 79.7731 42.669 81.0949L39.6948 95.0848H80.4526L77.4784 81.0949C77.2214 79.8098 76.2667 78.7082 74.9815 78.2309ZM44.3214 91.3395L46.3409 81.866C46.3409 81.7926 46.3776 81.7559 46.4511 81.7559L52.6198 79.5527L60.1105 87.0434L67.6011 79.5527L73.7698 81.7559C73.8065 81.7926 73.88 81.8293 73.88 81.866L75.8995 91.3395H44.3214Z"
    fill="currentcolor" />
</svg>

